<?xml version="1.0" encoding="UTF-8" standalone="no"?>
<!-- Created with Inkscape (http://www.inkscape.org/) -->

<svg
   width="512"
   height="512"
   viewBox="0 0 135.46667 135.46667"
   version="1.1"
   id="svg5"
   inkscape:export-filename="C:\Users\okcra\Documents\GitHub\lab\prototype\pct\favicon_nobg.png"
   inkscape:export-xdpi="192"
   inkscape:export-ydpi="192"
   inkscape:version="1.1 (c68e22c387, 2021-05-23)"
   sodipodi:docname="favicon.svg"
   xmlns:inkscape="http://www.inkscape.org/namespaces/inkscape"
   xmlns:sodipodi="http://sodipodi.sourceforge.net/DTD/sodipodi-0.dtd"
   xmlns="http://www.w3.org/2000/svg"
   xmlns:svg="http://www.w3.org/2000/svg">
  <sodipodi:namedview
     id="namedview7"
     pagecolor="#505050"
     bordercolor="#ffffff"
     borderopacity="1"
     inkscape:pageshadow="0"
     inkscape:pageopacity="0"
     inkscape:pagecheckerboard="1"
     inkscape:document-units="px"
     showgrid="false"
     inkscape:snap-page="true"
     inkscape:zoom="0.84179688"
     inkscape:cx="345.68909"
     inkscape:cy="364.10209"
     inkscape:window-width="1920"
     inkscape:window-height="1051"
     inkscape:window-x="-9"
     inkscape:window-y="-9"
     inkscape:window-maximized="1"
     inkscape:current-layer="BS_x0020_Inner_x0020_Circle" />
  <defs
     id="defs2"><style
   type="text/css"
   id="style4463">
   <![CDATA[
    .fil6 {fill:none}
    .fil8 {fill:#EBECEC}
    .fil4 {fill:#D9DADA}
    .fil1 {fill:#C5C6C6}
    .fil2 {fill:#B2B3B3}
    .fil7 {fill:#9D9E9E}
    .fil3 {fill:#898989}
    .fil0 {fill:#2B2A29}
    .fil5 {fill:#EBECEC;fill-rule:nonzero}
   ]]>
  </style>

   
   
   
  </defs>
  <g
     inkscape:label="Layer 1"
     inkscape:groupmode="layer"
     id="layer1">
    <g
       id="BS_x0020_Inner_x0020_Circle"
       inkscape:label="BS Inner Circle"
       inkscape:groupmode="layer"
       transform="matrix(0.03847208,0,0,0.03847208,178.3997,34.726837)"
       style="clip-rule:evenodd;fill-rule:evenodd;image-rendering:optimizeQuality;shape-rendering:geometricPrecision;text-rendering:geometricPrecision">
  <metadata
   id="CorelCorpID_0Corel-Layer" />

  
  <g
   id="g4552"
   transform="matrix(7.6942894,0,0,7.6942894,-6862.1791,-2112.062)">
    <path
   class="fil1"
   d="m 518,444 c 4,0 8,3 11,8 1,-5 4,-8 7,-9 3,-1 7,0 10,2 0,-5 2,-9 5,-11 3,-2 8,-2 13,0 -2,-5 -2,-10 1,-13 2,-4 8,-6 14,-5 -3,-4 -4,-8 -3,-12 1,-3 4,-6 8,-7 -5,-3 -8,-7 -8,-11 0,-4 3,-8 8,-11 -5,-1 -8,-4 -9,-7 -1,-3 0,-7 2,-10 -5,0 -9,-2 -11,-4 -2,-4 -2,-9 0,-14 -6,2 -10,2 -13,-1 -4,-2 -6,-8 -5,-14 -4,3 -8,4 -12,3 -3,-1 -6,-4 -7,-8 -3,5 -7,8 -11,8 -4,0 -8,-3 -11,-8 -1,5 -4,8 -7,9 -3,1 -7,1 -10,-1 0,4 -2,8 -4,10 -4,2 -9,2 -14,0 2,6 2,10 -1,13 -2,4 -8,6 -14,5 3,4 4,8 3,12 -1,3 -4,6 -8,7 5,4 8,7 8,11 0,4 -3,8 -8,11 5,1 8,4 9,8 1,2 1,6 -1,9 4,0 8,2 10,5 2,3 2,8 0,13 6,-2 10,-2 13,1 4,2 6,8 5,14 4,-3 8,-4 12,-3 3,1 6,4 7,8 3,-5 7,-8 11,-8 z m 53,-160 c 12,-10 26,-14 29,-11 4,3 5,18 -2,34 15,-7 30,-7 33,-3 3,3 0,15 -8,27 21,-4 41,2 42,7 2,4 -6,15 -19,24 36,1 64,17 64,24 0,7 -27,22 -61,24 12,8 19,19 18,22 -2,6 -24,13 -47,7 10,12 14,26 11,29 -3,4 -18,5 -34,-2 7,15 7,30 3,33 -3,3 -15,0 -27,-8 4,21 -2,41 -7,42 -4,2 -15,-6 -24,-19 -1,36 -17,64 -24,64 -7,0 -22,-27 -24,-61 -8,12 -19,19 -22,18 -6,-2 -13,-24 -7,-47 -12,10 -26,14 -29,11 -4,-3 -5,-18 2,-34 -15,7 -30,7 -33,3 -3,-3 0,-15 8,-27 -21,4 -41,-2 -42,-7 -2,-4 6,-15 19,-24 -36,-1 -64,-17 -64,-24 0,-6 27,-22 61,-24 -12,-8 -19,-19 -18,-22 2,-6 24,-13 47,-7 -10,-12 -14,-26 -11,-29 3,-4 18,-5 34,2 -7,-15 -7,-30 -3,-33 3,-2 15,0 27,9 -4,-22 2,-42 7,-43 4,-2 15,6 24,19 1,-36 17,-64 24,-64 7,0 22,27 24,61 8,-12 19,-19 22,-18 6,2 13,24 7,47 z"
   id="path4470" />

    <path
   class="fil2"
   d="m 595,361 c -2,-6 8,-14 22,-19 13,-4 30,-3 36,0 -3,7 -16,17 -29,22 -14,4 -27,3 -29,-3 z m 11,25 c 0,-7 17,-13 37,-13 21,0 42,7 50,13 -8,6 -29,13 -50,13 -20,0 -37,-6 -37,-13 z m -10,24 c 2,-5 15,-7 29,-2 14,4 27,14 30,21 -7,3 -23,4 -37,0 -14,-4 -23,-13 -22,-19 z m -16,21 c 3,-4 14,-2 24,5 10,7 18,19 18,26 -6,1 -20,-2 -30,-9 -10,-7 -16,-17 -12,-22 z m -18,18 c 4,-4 14,1 22,11 7,10 11,24 10,31 -7,-1 -19,-8 -27,-18 -8,-10 -10,-21 -5,-24 z m -19,14 c 6,-2 14,8 19,22 4,13 3,30 0,36 -7,-3 -17,-16 -21,-29 -5,-14 -4,-27 2,-29 z m -25,11 c 7,0 13,17 13,37 0,21 -7,42 -13,50 -6,-8 -13,-29 -13,-50 0,-20 6,-37 13,-37 z m -24,-10 c 6,2 7,15 3,29 -5,14 -15,27 -22,30 -3,-7 -4,-23 0,-37 4,-14 13,-23 19,-22 z m -21,-16 c 5,3 2,14 -5,24 -7,10 -19,18 -26,18 -1,-6 2,-20 9,-30 7,-10 17,-16 22,-12 z m -18,-18 c 4,4 -1,14 -11,22 -10,7 -24,11 -30,10 0,-7 7,-19 17,-27 10,-8 21,-10 24,-5 z m -14,-19 c 2,6 -8,14 -22,19 -13,4 -30,4 -36,0 3,-7 16,-17 29,-21 14,-5 27,-4 29,2 z m -11,-25 c 0,7 -17,13 -37,13 -21,0 -42,-7 -49,-13 7,-6 28,-13 49,-13 20,0 37,6 37,13 z m 10,-24 c -2,6 -15,7 -29,3 -14,-5 -26,-15 -30,-22 7,-3 23,-4 37,0 14,4 24,13 22,19 z m 16,-21 c -3,5 -14,3 -24,-5 -10,-7 -18,-19 -18,-26 6,-1 20,2 30,9 10,7 16,17 12,22 z m 18,-18 c -4,4 -14,-1 -22,-11 -7,-10 -11,-24 -10,-30 7,0 20,7 27,17 8,10 10,21 5,24 z m 19,-14 c -6,2 -14,-8 -19,-22 -4,-13 -3,-30 0,-36 7,3 17,16 22,29 4,14 3,27 -3,29 z m 25,-11 c -7,0 -13,-17 -13,-37 0,-21 7,-42 13,-49 6,7 13,28 13,49 0,20 -6,37 -13,37 z m 24,10 c -5,-2 -7,-15 -2,-29 4,-14 14,-26 21,-30 3,7 4,23 0,37 -4,14 -13,24 -19,22 z m 21,16 c -4,-3 -2,-14 5,-24 7,-10 19,-18 26,-18 1,6 -2,20 -9,30 -7,10 -17,16 -22,12 z m 18,18 c -4,-4 1,-14 11,-22 10,-7 24,-11 30,-9 0,6 -7,19 -17,26 -10,8 -21,10 -24,5 z"
   id="path4472" />

    <path
   class="fil3"
   d="m 511,393 -122,44 -1,-4 c -4,-15 -6,-31 -6,-47 0,-16 2,-31 6,-47 l 1,-4 122,44 -44,-122 4,-1 c 16,-4 31,-6 47,-6 16,0 31,2 47,6 l 4,1 -44,122 122,-44 1,4 c 4,16 6,31 6,47 0,16 -2,32 -6,47 l -1,4 -122,-44 44,122 -4,1 c -16,4 -31,6 -47,6 -16,0 -31,-2 -47,-6 l -4,-1 z"
   id="path4474" />

    <path
   class="fil4"
   d="m 479,509 c 12,3 26,4 39,4 13,0 27,-1 40,-4 L 518,400 Z m 53,-123 109,40 c 3,-13 4,-27 4,-40 0,-13 -1,-26 -4,-39 z m -14,-14 40,-109 c -13,-3 -27,-4 -40,-4 -13,0 -27,1 -39,4 z m -14,14 -109,-39 c -3,13 -4,26 -4,39 0,13 1,27 4,40 z"
   id="path4476" />

    <circle
   class="fil2"
   cx="518"
   cy="386"
   r="95"
   id="circle4478" />

    <circle
   class="fil1"
   cx="518"
   cy="386"
   r="60"
   id="circle4480" />

    <path
   class="fil5"
   d="m 492,433 2,-4 h 1 c 0,1 0,2 0,3 0,0 1,1 2,1 v 0 l 3,-8 c 0,0 0,0 0,0 0,-1 0,-1 0,-1 0,0 0,0 -1,0 0,0 0,0 -1,-1 l 1,-1 7,3 v 1 c -1,0 -1,0 -1,0 -1,0 -1,0 -1,0 0,0 0,0 0,0 -1,0 -1,0 -1,1 v 0 l -3,8 v 0 c 1,0 2,0 3,0 0,-1 1,-1 1,-2 h 2 l -2,5 z"
   id="path4482" />

    <path
   id="1"
   class="fil5"
   d="m 486,422 -1,-1 c -1,-1 -1,-1 -2,-1 0,0 0,0 -1,1 0,0 -1,1 -1,1 0,1 1,1 1,2 l 2,1 z m 4,-3 c 0,-1 0,-1 0,-1 0,-1 0,-1 -1,-1 v -1 l 1,-1 6,5 -1,2 -1,-1 c 0,0 -1,0 -1,0 0,0 0,0 -1,0 l -5,6 c 0,0 0,0 0,0 0,1 0,1 0,1 l 1,1 -1,1 -7,-6 c -1,-1 -2,-2 -2,-3 0,-1 0,-2 1,-3 0,0 1,-1 2,-1 1,0 1,1 2,1 0,-1 -1,-1 -1,-2 1,0 1,-1 1,-1 l 1,-1 c 1,-1 1,-1 1,-1 0,0 0,-1 0,-1 0,0 -1,0 -1,0 0,0 -1,1 -1,1 l -1,-1 c 0,0 0,0 0,0 0,0 0,0 0,0 1,-1 2,-1 3,-1 0,-1 1,0 2,1 1,0 1,1 1,2 0,1 0,1 -1,2 l -1,1 c 0,1 -1,1 -1,1 0,1 1,1 1,2 l 1,1 z" />

    <path
   id="2"
   class="fil5"
   d="m 485,409 -2,1 v -1 c 0,-1 -1,-1 -1,-1 0,0 0,0 -1,0 l -6,4 c -1,0 -1,1 -1,1 0,0 0,0 0,1 h 1 l -2,1 -4,-7 h 2 v 0 c 0,1 1,1 1,1 0,0 0,0 1,0 l 6,-4 c 1,0 1,0 1,-1 0,0 0,0 0,-1 h -1 l 2,-1 z" />

    <path
   id="3"
   class="fil5"
   d="m 473,395 -4,3 h 4 z m 7,7 h -1 v 0 c 0,-1 -1,-1 -1,-1 0,0 0,-1 -1,-1 l -11,-1 -1,-3 10,-6 c 0,0 0,-1 0,-1 1,0 1,0 1,-1 h -1 l 2,-1 2,8 h -2 v -1 c 0,0 0,0 0,-1 -1,0 -1,0 -1,0 0,0 0,0 0,0 0,0 0,0 0,0 l -2,1 1,4 h 2 c 0,0 0,0 0,0 0,0 0,0 0,0 0,0 1,0 1,0 0,0 0,-1 0,-1 l -1,-1 h 2 z" />

    <path
   id="4"
   class="fil5"
   d="m 469,372 c 0,0 -1,0 -1,0 0,0 0,1 0,1 v 1 l -2,-1 2,-7 h 2 v 1 c -1,1 -1,1 -1,1 1,0 1,0 1,1 l 6,1 c 2,1 3,1 3,2 1,1 1,3 0,4 0,2 -1,3 -2,3 0,1 -1,1 -3,1 0,0 -1,-1 -1,-1 0,-1 -1,-1 0,-2 0,-1 0,-1 1,-1 0,0 0,0 1,0 0,0 1,0 1,0 0,1 0,1 0,2 0,0 0,0 0,0 0,0 0,0 0,0 0,0 0,0 1,0 0,-1 0,-1 0,-1 1,-1 0,-2 0,-2 0,0 -1,-1 -2,-1 z" />

    <path
   id="5"
   class="fil5"
   d="m 472,362 -2,-1 5,-6 1,1 c 0,0 0,0 0,0 0,0 0,0 0,0 -1,1 -1,1 -1,1 0,1 1,1 1,2 l 5,3 c 1,0 1,1 2,1 0,0 1,-1 1,-1 1,-1 1,-2 1,-3 0,0 0,-1 -1,-1 l -5,-3 c 0,-1 -1,-1 -1,-1 0,0 -1,0 -1,1 0,0 0,0 0,0 0,0 0,0 0,0 l -2,-1 4,-5 1,1 c 0,1 0,1 -1,1 0,0 0,1 0,1 0,0 0,0 1,0 0,0 0,0 1,1 l 4,3 c 1,1 2,2 2,3 0,1 0,3 -1,4 -1,2 -2,2 -4,3 -1,0 -2,0 -3,-1 l -5,-3 c 0,-1 -1,-1 -1,-1 -1,0 -1,0 -1,0 0,1 0,1 0,1 0,0 0,0 0,0 z" />

    <path
   id="6"
   class="fil5"
   d="m 486,346 c 0,0 0,0 -1,0 0,0 0,0 0,0 h -1 l -1,-1 5,-3 10,5 -4,-6 c 0,0 0,0 0,0 -1,0 -1,0 -1,0 h -1 l -1,-1 5,-3 1,1 v 0 c -1,1 -1,1 -1,1 0,0 0,1 0,1 l 6,9 -4,2 -10,-5 4,6 c 0,0 1,0 1,0 0,0 0,0 1,0 v -1 l 1,2 -5,3 -1,-1 1,-1 c 0,0 0,0 1,0 0,-1 -1,-1 -1,-1 z" />

    <path
   id="7"
   class="fil5"
   d="m 514,341 2,-1 c 1,2 0,4 0,5 -1,1 -3,1 -4,2 -3,0 -4,0 -6,-1 -1,-1 -2,-3 -3,-5 0,-1 0,-2 0,-3 0,-1 1,-2 1,-2 1,-1 2,-2 2,-2 1,-1 2,-1 3,-1 1,0 1,0 2,0 1,0 1,0 2,0 v -1 h 2 l 1,5 -2,1 c 0,-1 -1,-2 -2,-3 0,0 -1,0 -2,0 -1,0 -2,0 -2,1 -1,1 -1,3 0,4 0,2 0,3 1,4 1,1 2,1 3,1 1,0 1,-1 2,-2 0,0 0,-1 0,-2 z" />

    <path
   id="8"
   class="fil5"
   d="m 534,335 -1,5 -2,-1 c 0,-1 0,-2 0,-2 0,-1 -1,-1 -2,-1 v -1 l -1,9 c -1,0 -1,1 -1,1 0,0 1,0 1,0 0,0 0,0 0,0 0,0 1,0 1,1 v 1 l -8,-1 1,-2 c 0,0 0,0 1,0 0,0 0,0 0,0 1,0 1,0 1,0 0,0 0,0 0,-1 v 0 l 1,-8 v 0 c -1,0 -1,0 -2,0 0,1 -1,2 -1,3 l -2,-1 1,-5 z" />

    <path
   id="9"
   class="fil5"
   d="m 541,346 1,-4 -3,3 z m -10,1 1,-1 v 0 c 1,0 1,0 1,0 0,0 1,0 1,0 l 8,-8 4,2 -3,11 c 0,0 0,1 0,1 1,0 1,0 1,1 h 1 l -1,1 -7,-3 1,-2 1,1 c 0,0 0,0 1,0 0,0 0,0 0,0 0,0 0,0 0,-1 0,0 0,0 0,0 v -1 l -3,-2 -1,1 c 0,0 0,0 0,0 0,0 0,0 0,0 0,0 0,1 0,1 0,0 0,0 0,0 l 1,1 -1,1 z" />

    <path
   id="10"
   class="fil5"
   d="m 548,359 2,-1 v 1 c 1,0 1,1 1,1 0,0 0,0 1,-1 l 6,-4 c 0,0 1,-1 1,-1 0,0 -1,0 -1,-1 v 0 l 1,-2 5,7 -2,1 v -1 c 0,0 -1,0 -1,0 0,-1 0,0 -1,0 l -6,4 c 0,1 -1,1 -1,1 0,0 1,1 1,1 v 1 l -1,1 z" />

    <path
   id="11"
   class="fil5"
   d="m 564,365 c 1,0 1,-1 1,-1 0,0 0,0 0,-1 v 0 l 1,-1 2,6 -7,8 6,-2 c 1,0 1,0 1,-1 0,0 0,0 0,-1 v 0 l 1,-1 2,6 h -1 -1 c 0,-1 0,-1 0,-1 0,0 -1,0 -1,0 l -10,3 -1,-4 8,-8 -7,2 c -1,0 -1,1 -1,1 0,0 0,0 0,1 v 1 h -1 l -2,-6 h 1 1 c 0,1 0,1 0,1 0,0 1,0 1,0 z" />

    <path
   id="12"
   class="fil5"
   d="m 570,391 h 2 l -2,8 -2,-1 c 0,0 0,0 0,0 0,0 1,0 1,0 0,-1 0,-1 -1,-1 0,-1 0,-1 -1,-1 l -5,-1 c -1,0 -2,0 -2,0 -1,0 -1,1 -2,1 0,1 0,2 1,3 0,0 0,0 1,1 l 6,1 c 1,0 1,0 1,0 1,0 1,0 1,-1 0,0 0,0 0,0 0,0 0,0 0,-1 l 2,1 -2,6 -1,-1 c 0,0 0,-1 0,-1 0,0 0,0 0,0 0,-1 0,-1 -1,-1 0,0 0,0 -1,0 l -5,-1 c -2,-1 -3,-1 -3,-2 -1,-2 -1,-3 0,-5 0,-1 1,-3 2,-3 1,-1 2,-1 3,-1 l 6,1 c 1,1 1,1 1,0 1,0 1,0 1,0 0,-1 0,-1 0,-1 0,0 0,0 0,0 z" />

    <path
   id="13"
   class="fil5"
   d="m 562,411 c 1,0 1,1 1,0 0,0 1,0 1,0 v -1 l 2,1 -4,5 -10,-1 5,4 c 0,0 0,0 1,0 0,0 0,0 0,0 l 1,-1 1,1 -3,5 -2,-1 1,-1 c 0,0 0,0 0,-1 0,0 0,0 -1,0 l -8,-6 2,-4 12,2 -6,-4 c -1,-1 -1,-1 -1,-1 0,0 0,0 -1,1 v 0 l -2,-1 4,-5 1,1 v 1 c 0,0 0,1 0,1 0,0 0,0 0,1 z" />

    <path
   id="14"
   class="fil5"
   d="m 545,425 c -1,-2 -2,-3 -3,-3 -1,-1 -2,-1 -3,0 -1,0 -1,1 -1,2 0,1 0,2 1,4 1,2 2,3 3,3 0,1 1,1 2,0 1,-1 2,-1 2,-2 0,-1 -1,-3 -1,-4 z m 3,-2 c 1,2 2,3 1,5 0,2 -2,3 -4,5 -2,1 -4,1 -5,1 -2,-1 -4,-2 -5,-4 -1,-2 -1,-4 -1,-5 1,-2 2,-4 4,-5 2,-1 4,-1 6,-1 2,1 3,2 4,4 z" />

    <circle
   class="fil6"
   cx="518"
   cy="386"
   r="40"
   id="circle4498" />

    <circle
   class="fil7"
   cx="518"
   cy="386"
   r="37"
   id="circle4500" />

    <circle
   class="fil1"
   cx="518"
   cy="386"
   r="34"
   id="circle4502" />

    <path
   class="fil8"
   d="m 520,392 c 3,1 10,4 11,9 l -4,11 c -6,-1 -12,-1 -18,0 l -4,-11 c 1,-5 8,-8 11,-9 0,0 0,0 0,0 0,-1 1,-2 2,-2 1,0 2,1 2,2 0,0 0,0 0,0 z"
   id="path4504" />

    <circle
   class="fil8"
   cx="518"
   cy="433"
   r="5"
   id="circle4506" />

    <path
   class="fil8"
   d="m 505,366 c 4,1 10,4 11,9 l -4,12 c -6,-1 -12,-1 -17,0 l -4,-12 c 0,-5 7,-8 11,-9 0,0 0,0 0,0 0,-1 0,-1 1,-1 1,0 2,0 2,1 0,0 0,0 0,0 z"
   id="path4508" />

    <path
   class="fil8"
   d="m 534,366 c 4,1 11,4 12,9 l -5,12 c -5,-1 -11,-1 -17,0 l -4,-12 c 1,-5 8,-8 11,-9 0,0 0,0 0,0 0,-1 1,-1 2,-1 1,0 1,0 1,1 0,0 0,0 0,0 z"
   id="path4510" />

    <g
   id="g4548">
     <g
   id="g4528">
      <path
   id="path2856"
   class="fil8"
   d="m 489,318 c 10,9 20,4 29,-3 -11,-4 -22,-6 -29,3 z m 2,0 c 3,2 6,4 9,4 5,-1 10,-3 14,-6 -5,-2 -10,-4 -15,-2 -3,0 -6,2 -8,4 z" />

      <path
   id="path2874"
   class="fil8"
   d="m 484,310 c 12,6 20,-2 27,-10 -11,-2 -22,-1 -27,10 z m 3,0 c 3,1 6,1 9,0 5,-1 9,-5 12,-9 -5,-1 -11,0 -15,2 -3,2 -5,4 -6,7 z" />

      <path
   id="path2856_0"
   class="fil8"
   d="m 465,335 c 12,5 19,-4 26,-13 -12,0 -23,1 -26,13 z m 2,-1 c 3,1 7,1 10,0 4,-2 8,-7 11,-11 -6,0 -12,1 -16,4 -2,2 -4,4 -5,7 z" />

      <path
   id="path2874_1"
   class="fil8"
   d="m 458,329 c 13,1 18,-9 21,-20 -11,3 -21,8 -21,20 z m 1,-1 c 4,0 7,-1 10,-3 4,-4 6,-9 7,-13 -5,1 -10,3 -13,7 -2,3 -3,6 -4,9 z" />

      <path
   id="path2856_2"
   class="fil8"
   d="m 448,360 c 13,-1 17,-11 19,-22 -10,4 -20,9 -19,22 z m 2,-2 c 3,0 6,-1 9,-4 3,-3 5,-9 6,-14 -5,2 -10,5 -13,10 -2,2 -2,5 -2,8 z" />

      <path
   id="path2874_3"
   class="fil8"
   d="m 439,357 c 13,-4 13,-15 13,-26 -9,6 -17,14 -13,26 z m 1,-2 c 4,-1 6,-3 8,-6 2,-5 3,-10 2,-15 -4,3 -8,7 -10,12 -1,3 -1,6 0,9 z" />

      <path
   id="path2856_4"
   class="fil8"
   d="m 445,387 c 12,-6 10,-18 8,-28 -8,8 -15,17 -8,28 z m 0,-3 c 3,-1 6,-4 7,-7 2,-5 1,-10 0,-15 -4,4 -7,9 -8,14 -1,3 0,6 1,8 z" />

      <path
   id="path2874_5"
   class="fil8"
   d="m 436,388 c 9,-9 5,-20 0,-30 -6,10 -9,21 0,30 z m 0,-3 c 2,-2 4,-5 4,-9 0,-5 -2,-10 -4,-14 -3,5 -5,10 -4,15 0,3 2,6 4,8 z" />

      <path
   id="path2856_6"
   class="fil8"
   d="m 449,414 c 11,-9 7,-19 2,-29 -6,9 -10,20 -2,29 z m 1,-2 c 2,-3 4,-6 4,-9 1,-5 -1,-10 -3,-15 -3,5 -5,10 -5,15 0,4 2,6 4,9 z" />

      <path
   id="path2874_7"
   class="fil8"
   d="m 440,416 c 8,-10 2,-20 -5,-28 -4,10 -6,21 5,28 z m -1,-2 c 2,-3 3,-6 3,-9 -1,-5 -4,-10 -7,-14 -1,5 -2,11 -1,16 1,3 3,5 5,7 z" />

      <path
   id="path2856_8"
   class="fil8"
   d="m 462,435 c 6,-11 -1,-20 -9,-28 -2,11 -3,23 9,28 z m -1,-2 c 1,-3 2,-6 1,-10 -1,-4 -5,-9 -8,-12 -1,5 -1,11 1,16 1,2 3,5 6,6 z" />

      <path
   id="path2874_9"
   class="fil8"
   d="m 456,441 c 2,-13 -8,-18 -18,-23 2,11 5,22 18,23 z m -2,-2 c 1,-3 0,-6 -2,-9 -2,-4 -7,-7 -12,-9 1,5 3,11 6,14 3,3 5,4 8,4 z" />

      <path
   id="path2856_10"
   class="fil8"
   d="m 478,451 c 4,-12 -5,-19 -14,-25 0,11 2,23 14,25 z m -1,-2 c 1,-3 1,-6 -1,-9 -2,-5 -6,-8 -11,-11 1,6 2,11 5,16 2,2 4,4 7,4 z" />

      <path
   id="path2874_11"
   class="fil8"
   d="m 476,458 c -2,-13 -13,-15 -24,-17 5,10 11,20 24,17 z m -2,-1 c -1,-3 -2,-6 -5,-9 -4,-3 -9,-4 -14,-5 2,5 6,10 10,12 3,2 6,2 9,2 z" />

      <path
   id="path2856_12"
   class="fil8"
   d="m 504,461 c -3,-13 -14,-14 -25,-14 6,9 13,18 25,14 z m -2,-1 c -1,-4 -3,-6 -6,-8 -4,-3 -9,-4 -14,-4 3,5 7,9 11,11 3,1 6,1 9,1 z" />

      <path
   id="path2874_13"
   class="fil8"
   d="m 501,471 c -5,-12 -16,-12 -27,-10 7,8 16,16 27,10 z m -2,-1 c -2,-3 -4,-5 -7,-7 -5,-2 -10,-1 -15,-1 3,4 8,8 13,9 3,1 6,1 9,-1 z" />

     </g>

     <g
   id="g4546">
      <path
   id="path2856_14"
   class="fil8"
   d="m 547,318 c -10,9 -19,4 -29,-3 11,-4 22,-6 29,3 z m -2,0 c -3,2 -6,4 -9,4 -5,-1 -10,-3 -14,-6 5,-2 10,-4 16,-2 3,0 5,2 7,4 z" />

      <path
   id="path2874_15"
   class="fil8"
   d="m 552,310 c -12,6 -20,-2 -27,-10 11,-2 22,-1 27,10 z m -2,0 c -4,1 -7,1 -10,0 -5,-1 -9,-5 -12,-9 5,-1 11,0 16,2 2,2 4,4 6,7 z" />

      <path
   id="path2856_16"
   class="fil8"
   d="m 571,335 c -12,5 -19,-4 -26,-13 12,0 23,1 26,13 z m -2,-1 c -3,1 -6,1 -10,0 -4,-2 -8,-7 -11,-11 6,0 12,1 16,4 2,2 4,4 5,7 z" />

      <path
   id="path2874_17"
   class="fil8"
   d="m 578,329 c -13,1 -17,-9 -21,-20 11,3 21,8 21,20 z m -1,-1 c -4,0 -7,-1 -10,-3 -4,-4 -6,-9 -7,-13 5,1 10,3 13,7 2,3 3,6 4,9 z" />

      <path
   id="path2856_18"
   class="fil8"
   d="m 588,360 c -13,-1 -17,-11 -19,-22 10,4 20,9 19,22 z m -2,-2 c -3,0 -6,-1 -9,-4 -3,-3 -5,-9 -6,-14 5,2 10,5 13,10 2,2 2,5 2,8 z" />

      <path
   id="path2874_19"
   class="fil8"
   d="m 597,357 c -13,-4 -13,-15 -13,-26 9,6 17,14 13,26 z m -1,-2 c -4,-1 -6,-3 -8,-6 -2,-5 -2,-10 -2,-15 4,3 8,7 10,12 1,3 1,6 0,9 z" />

      <path
   id="path2856_20"
   class="fil8"
   d="m 591,387 c -12,-6 -10,-18 -8,-28 8,8 15,17 8,28 z m 0,-3 c -3,-1 -6,-4 -7,-7 -1,-5 -1,-10 0,-15 4,4 7,9 8,14 1,3 0,6 -1,8 z" />

      <path
   id="path2874_21"
   class="fil8"
   d="m 600,388 c -9,-9 -5,-20 0,-30 6,10 10,21 0,30 z m 0,-3 c -2,-2 -4,-5 -4,-9 0,-5 2,-10 4,-14 3,5 5,10 4,15 0,3 -2,6 -4,8 z" />

      <path
   id="path2856_22"
   class="fil8"
   d="m 587,414 c -11,-9 -7,-19 -2,-29 6,9 10,20 2,29 z m 0,-2 c -3,-3 -5,-6 -5,-9 -1,-5 1,-10 4,-15 2,5 4,10 4,15 0,4 -1,6 -3,9 z" />

      <path
   id="path2874_23"
   class="fil8"
   d="m 597,416 c -9,-10 -3,-20 4,-28 4,10 6,21 -4,28 z m 0,-2 c -2,-3 -3,-6 -3,-9 1,-5 4,-10 7,-14 1,5 2,11 1,16 -1,3 -3,5 -5,7 z" />

      <path
   id="path2856_24"
   class="fil8"
   d="m 574,435 c -6,-11 1,-20 9,-28 2,11 3,23 -9,28 z m 1,-2 c -1,-3 -2,-6 -1,-10 1,-4 5,-9 8,-12 1,5 1,11 -1,16 -1,2 -3,5 -6,6 z" />

      <path
   id="path2874_25"
   class="fil8"
   d="m 580,441 c -2,-13 8,-18 18,-23 -2,11 -5,22 -18,23 z m 2,-2 c -1,-3 0,-6 2,-9 2,-4 7,-7 12,-9 -1,5 -3,11 -6,14 -3,3 -5,4 -8,4 z" />

      <path
   id="path2856_26"
   class="fil8"
   d="m 558,451 c -4,-12 5,-19 14,-25 0,11 -2,23 -14,25 z m 1,-2 c -1,-3 -1,-6 1,-9 2,-5 6,-8 11,-11 -1,6 -2,11 -5,16 -2,2 -4,4 -7,4 z" />

      <path
   id="path2874_27"
   class="fil8"
   d="m 560,458 c 2,-13 13,-15 24,-17 -5,10 -11,20 -24,17 z m 2,-1 c 1,-3 2,-6 5,-9 4,-3 9,-4 14,-5 -2,5 -6,10 -10,12 -3,2 -6,2 -9,2 z" />

      <path
   id="path2856_28"
   class="fil8"
   d="m 532,461 c 3,-13 14,-14 25,-14 -6,9 -13,18 -25,14 z m 2,-1 c 1,-4 3,-6 6,-8 4,-3 9,-4 14,-4 -3,5 -7,9 -11,11 -3,1 -6,1 -9,1 z" />

      <path
   id="path2874_29"
   class="fil8"
   d="m 535,471 c 5,-12 16,-12 27,-10 -7,8 -16,16 -27,10 z m 2,-1 c 2,-3 4,-5 7,-7 5,-2 10,-1 15,-1 -3,4 -8,8 -13,9 -3,1 -6,1 -9,-1 z" />

     </g>

    </g>

    <path
   class="fil8"
   d="m 517,470 c -1,0 -1,1 -2,1 -3,2 -6,3 -10,4 h -1 v -3 h 1 c 3,0 6,-2 9,-3 0,0 0,0 1,-1 -3,-2 -6,-5 -5,-9 0,-3 3,-6 7,-6 4,0 6,3 7,6 0,4 -2,7 -5,9 0,1 0,1 1,1 2,1 5,3 8,3 h 1 v 3 h -1 c -3,-1 -7,-2 -10,-4 0,0 -1,-1 -1,-1 z m 0,-3 c 2,-2 5,-5 4,-7 0,-3 -2,-5 -4,-5 -3,0 -4,2 -5,5 0,2 2,5 5,7 z"
   id="path4550" />

   </g>

 </g>
  </g>
</svg>
