<?xml version="1.0" standalone="no"?>
<!DOCTYPE svg PUBLIC "-//W3C//DTD SVG 20010904//EN"
 "http://www.w3.org/TR/2001/REC-SVG-20010904/DTD/svg10.dtd">
<svg version="1.0" xmlns="http://www.w3.org/2000/svg"
 width="1024.000000pt" height="1024.000000pt" viewBox="0 0 1024.000000 1024.000000"
 preserveAspectRatio="xMidYMid meet">
<metadata>
Created by potrace 1.14, written by Peter Selinger 2001-2017
</metadata>
<g transform="translate(0.000000,1024.000000) scale(0.100000,-0.100000)"
fill="#000000" stroke="none">
<path d="M5088 9407 c-138 -61 -322 -414 -422 -812 -24 -95 -28 -115 -41 -195
-3 -19 -7 -46 -10 -60 -2 -14 -7 -50 -11 -80 -15 -132 -18 -145 -33 -136 -4 3
-23 1 -43 -3 -36 -9 -38 -8 -134 89 -141 141 -261 215 -334 203 -78 -12 -146
-160 -186 -408 -11 -70 -11 -376 1 -460 6 -49 11 -91 11 -92 -1 -1 -28 16 -61
38 -33 22 -69 45 -80 50 -11 5 -27 13 -35 19 -36 24 -163 73 -221 86 -212 46
-262 4 -261 -221 0 -151 38 -310 117 -499 7 -16 5 -17 -11 -8 -33 16 -135 50
-220 71 -222 56 -462 41 -523 -33 -8 -10 -16 -44 -17 -79 -5 -112 81 -320 201
-489 31 -43 52 -78 48 -78 -5 0 -24 4 -43 10 -19 5 -57 12 -85 15 -27 3 -76 9
-108 14 -88 12 -300 5 -404 -13 -226 -40 -382 -118 -396 -197 -13 -69 122
-254 297 -406 20 -17 36 -37 36 -45 -1 -32 -18 -39 -145 -53 -237 -26 -562
-122 -805 -238 -49 -23 -182 -98 -190 -107 -3 -3 -23 -18 -45 -35 -52 -38 -95
-84 -106 -112 -41 -109 267 -312 659 -432 177 -54 336 -88 502 -107 30 -4 62
-8 70 -10 8 -1 22 -3 31 -3 11 -1 19 -16 26 -51 9 -42 7 -52 -8 -67 -10 -10
-52 -52 -94 -93 -123 -121 -203 -258 -188 -322 17 -70 170 -147 344 -173 24
-4 55 -9 69 -11 95 -17 404 -10 503 12 l28 6 -41 -68 c-50 -80 -94 -175 -126
-266 -20 -60 -26 -85 -38 -173 -4 -28 13 -87 31 -107 38 -42 174 -61 324 -45
78 8 234 47 310 78 30 11 64 25 77 30 l22 9 -16 -38 c-97 -224 -126 -526 -65
-667 25 -57 45 -70 112 -72 112 -3 298 72 472 190 53 36 97 64 97 62 0 -2 -6
-34 -14 -72 -38 -182 -41 -419 -6 -608 31 -171 110 -330 176 -356 67 -25 259
107 412 285 35 41 45 47 67 42 19 -5 25 -13 26 -34 0 -15 2 -36 4 -47 2 -11 7
-45 10 -75 3 -30 8 -62 10 -70 2 -8 6 -33 10 -55 3 -22 19 -96 36 -165 93
-381 266 -734 401 -822 32 -21 76 -30 84 -17 3 5 9 7 13 4 9 -5 104 92 140
143 113 162 257 533 296 762 3 19 8 42 11 51 2 9 7 34 10 55 2 22 6 46 9 54 2
8 7 44 10 79 13 138 14 140 70 142 49 2 55 -1 88 -38 131 -149 285 -256 370
-256 42 0 67 18 102 73 22 35 79 180 70 180 -2 0 0 12 5 26 10 27 16 61 28
159 14 122 5 440 -15 491 -7 19 -1 16 48 -17 54 -37 227 -118 307 -143 100
-31 200 -36 237 -12 101 66 89 388 -24 666 -17 41 -31 76 -31 78 0 1 8 -1 18
-7 29 -15 165 -59 236 -75 234 -55 470 -29 513 55 45 87 -32 314 -181 533 -57
84 -63 97 -44 93 238 -60 564 -54 788 15 148 46 247 120 234 176 -8 32 -53
129 -68 145 -6 7 -23 28 -37 47 -36 47 -123 136 -181 185 -39 33 -46 44 -41
66 5 28 4 28 153 45 122 13 368 70 515 119 171 57 434 178 465 215 3 3 21 17
40 30 47 33 89 78 106 118 12 27 12 37 1 65 -58 137 -416 322 -817 421 -119
30 -167 39 -257 51 -13 2 -40 6 -60 9 -21 3 -60 8 -87 11 -27 2 -51 6 -53 9
-4 4 -8 22 -18 86 -1 8 18 32 43 55 157 141 255 282 255 367 0 95 -136 161
-423 206 -99 15 -437 6 -502 -14 -13 -4 -6 14 26 69 126 212 191 447 144 519
-44 67 -196 89 -388 58 -88 -15 -233 -56 -299 -86 -54 -25 -73 -25 -54 -2 14
18 47 117 72 213 59 236 41 468 -41 526 -79 56 -312 -19 -543 -176 -52 -35
-95 -62 -95 -60 0 2 7 36 15 75 8 39 18 101 22 138 11 97 7 338 -6 402 -6 30
-13 69 -16 86 -22 135 -104 301 -165 334 -29 15 -109 -14 -186 -68 -72 -51
-192 -164 -238 -225 -21 -27 -33 -35 -54 -33 -29 3 -28 -2 -56 209 -4 26 -11
71 -17 100 -6 29 -12 63 -15 77 -3 14 -16 68 -30 120 -69 255 -157 468 -258
618 -62 93 -106 137 -153 158 -38 16 -31 16 -65 1z"/>
</g>
</svg>
