<?xml version="1.0" encoding="UTF-8"?>
<!DOCTYPE svg PUBLIC "-//W3C//DTD SVG 1.1//EN" "http://www.w3.org/Graphics/SVG/1.1/DTD/svg11.dtd">
<!-- Creator: CorelDRAW X8 -->
<svg xmlns="http://www.w3.org/2000/svg" xml:space="preserve" width="39.8639mm" height="62.5556mm" version="1.1" style="shape-rendering:geometricPrecision; text-rendering:geometricPrecision; image-rendering:optimizeQuality; fill-rule:evenodd; clip-rule:evenodd" viewBox="0 0 40421 63430" xmlns:xlink="http://www.w3.org/1999/xlink">
 <defs>
  <style type="text/css">
   <![CDATA[
    .fil2 {fill:#FEFEFE}
    .fil0 {fill:#2B2A29}
    .fil1 {fill:#FEFEFE;fill-rule:nonzero}
   ]]>
  </style>
 </defs>
 <g id="BS_x0020_Inner_x0020_Circle">
  <metadata id="CorelCorpID_0Corel-Layer"/>
  <polygon class="fil0" points="35383,0 40421,63430 20211,63430 0,63430 5039,0 "/>
  <path class="fil1" d="M8831 54578l721 -60c62,341 179,587 352,740 173,153 395,231 667,231 232,0 435,-53 611,-161 176,-106 319,-247 429,-426 110,-177 203,-418 279,-720 76,-302 113,-609 113,-923 0,-33 -1,-84 -4,-151 -150,240 -356,436 -617,585 -260,150 -543,224 -847,224 -508,0 -937,-184 -1289,-553 -351,-368 -527,-854 -527,-1458 0,-624 184,-1125 551,-1506 367,-379 826,-569 1380,-569 397,0 762,107 1094,323 331,215 581,521 753,920 172,398 258,975 258,1729 0,785 -85,1411 -255,1876 -171,466 -425,820 -761,1063 -337,243 -730,365 -1182,365 -481,0 -873,-133 -1178,-401 -303,-268 -486,-644 -548,-1128zm3082 -2711c0,-432 -114,-775 -343,-1029 -228,-253 -505,-380 -832,-380 -337,0 -629,136 -875,409 -248,273 -371,628 -371,1063 0,391 117,708 351,951 234,245 526,367 874,367 349,0 635,-122 860,-367 224,-243 336,-582 336,-1014zm3994 4137l0 -1468 -2670 0 0 -696 2807 -3983 618 0 0 3983 833 0 0 696 -833 0 0 1468 -755 0zm0 -2164l0 -2766 -1928 2766 1928 0zm2362 -870c0,-725 74,-1312 223,-1755 150,-445 372,-787 667,-1026 293,-239 664,-358 1110,-358 329,0 618,66 869,199 249,133 455,325 615,575 160,249 286,554 378,913 93,359 139,844 139,1452 0,721 -75,1305 -222,1749 -148,445 -369,787 -664,1027 -293,241 -665,361 -1115,361 -591,0 -1056,-211 -1393,-633 -405,-515 -607,-1349 -607,-2504zm773 3c0,1012 117,1684 353,2016 236,334 528,500 874,500 347,0 638,-168 875,-501 236,-335 353,-1006 353,-2015 0,-1011 -117,-1684 -353,-2016 -235,-333 -530,-499 -883,-499 -347,0 -624,147 -832,440 -259,374 -387,1066 -387,2075zm7960 2310l0 721 -4070 0c-6,-182 24,-357 89,-525 104,-277 272,-550 502,-817 230,-268 560,-577 987,-928 666,-548 1118,-981 1354,-1302 238,-320 356,-624 356,-910 0,-299 -107,-551 -322,-757 -214,-204 -495,-307 -840,-307 -365,0 -656,108 -875,326 -219,216 -329,516 -332,901l-773 -77c53,-578 253,-1019 600,-1322 347,-303 812,-455 1398,-455 589,0 1057,163 1400,491 345,327 517,734 517,1217 0,246 -50,488 -152,726 -100,239 -267,489 -501,752 -234,262 -622,624 -1163,1082 -453,381 -745,638 -874,774 -129,136 -235,272 -319,410l3018 0zm816 -893l790 -60c59,384 195,673 407,868 211,193 470,291 775,291 368,0 676,-138 926,-411 249,-275 373,-638 373,-1090 0,-431 -118,-770 -357,-1019 -239,-249 -555,-374 -949,-374 -245,0 -463,56 -658,168 -193,111 -345,256 -457,433l-712 -103 592 -3159 3048 0 0 721 -2445 0 -328 1658c368,-259 754,-387 1158,-387 535,0 987,186 1355,558 367,372 552,850 552,1433 0,557 -162,1038 -485,1443 -394,498 -932,747 -1613,747 -558,0 -1013,-158 -1366,-471 -354,-313 -555,-728 -606,-1246z"/>
  <rect class="fil2" x="7980" y="40565" width="24951" height="6238"/>
 </g>
</svg>