<?xml version="1.0" encoding="UTF-8"?>
<!DOCTYPE svg PUBLIC "-//W3C//DTD SVG 1.1//EN" "http://www.w3.org/Graphics/SVG/1.1/DTD/svg11.dtd">
<!-- Creator: CorelDRAW X8 -->
<svg xmlns="http://www.w3.org/2000/svg" xml:space="preserve" width="39.8639mm" height="62.5556mm" version="1.1" style="shape-rendering:geometricPrecision; text-rendering:geometricPrecision; image-rendering:optimizeQuality; fill-rule:evenodd; clip-rule:evenodd" viewBox="0 0 29980 47046" xmlns:xlink="http://www.w3.org/1999/xlink">
 <defs>
  <style type="text/css">
   <![CDATA[
    .fil0 {fill:#2B2A29}
    .fil1 {fill:#FEFEFE;fill-rule:nonzero}
   ]]>
  </style>
 </defs>
 <g id="BS_x0020_Inner_x0020_Circle">
  <metadata id="CorelCorpID_0Corel-Layer"/>
  <polygon class="fil0" points="26243,0 29980,47046 14990,47046 0,47046 3737,0 "/>
  <path class="fil1" d="M6550 40480l535 -44c45,252 132,435 261,548 128,114 293,171 494,171 172,0 323,-39 454,-118 130,-79 236,-184 318,-317 82,-131 151,-310 207,-534 56,-224 84,-452 84,-684 0,-25 -1,-63 -3,-113 -112,179 -265,324 -458,434 -193,112 -403,167 -628,167 -377,0 -695,-137 -956,-411 -260,-272 -391,-633 -391,-1081 0,-463 136,-834 409,-1116 271,-282 612,-423 1023,-423 295,0 565,80 812,240 245,159 430,386 558,682 127,295 191,723 191,1282 0,583 -63,1047 -189,1392 -126,346 -315,608 -565,788 -249,181 -541,271 -876,271 -357,0 -648,-99 -874,-297 -225,-199 -360,-478 -406,-837zm2286 -2011c0,-320 -85,-575 -255,-763 -169,-188 -374,-282 -616,-282 -251,0 -467,101 -650,303 -183,203 -275,466 -275,789 0,290 87,525 260,706 174,181 391,271 649,271 259,0 471,-90 637,-271 167,-181 250,-432 250,-753zm1255 2011l535 -44c46,252 133,435 261,548 129,114 293,171 495,171 172,0 322,-39 453,-118 130,-79 237,-184 318,-317 82,-131 151,-310 207,-534 56,-224 84,-452 84,-684 0,-25 -1,-63 -3,-113 -112,179 -264,324 -457,434 -194,112 -404,167 -629,167 -376,0 -695,-137 -956,-411 -260,-272 -390,-633 -390,-1081 0,-463 135,-834 408,-1116 272,-282 612,-423 1023,-423 295,0 566,80 812,240 245,159 431,386 558,682 128,295 191,723 191,1282 0,583 -62,1047 -189,1392 -126,346 -315,608 -564,788 -250,181 -541,271 -877,271 -356,0 -647,-99 -873,-297 -225,-199 -361,-478 -407,-837zm2286 -2011c0,-320 -85,-575 -254,-763 -169,-188 -375,-282 -617,-282 -250,0 -467,101 -650,303 -183,203 -274,466 -274,789 0,290 87,525 260,706 174,181 390,271 648,271 259,0 471,-90 638,-271 166,-181 249,-432 249,-753zm3274 3068l-560 0 0 -3568c-135,130 -312,258 -531,387 -218,128 -416,225 -590,288l0 -541c313,-146 587,-325 822,-535 234,-209 401,-411 498,-609l361 0 0 4578zm1523 -1057l535 -44c46,252 133,435 261,548 128,114 293,171 495,171 172,0 322,-39 453,-118 130,-79 236,-184 318,-317 82,-131 151,-310 207,-534 56,-224 84,-452 84,-684 0,-25 -1,-63 -3,-113 -112,179 -265,324 -458,434 -193,112 -403,167 -628,167 -377,0 -695,-137 -956,-411 -260,-272 -391,-633 -391,-1081 0,-463 136,-834 409,-1116 272,-282 612,-423 1023,-423 295,0 566,80 812,240 245,159 431,386 558,682 127,295 191,723 191,1282 0,583 -63,1047 -189,1392 -126,346 -315,608 -564,788 -250,181 -542,271 -877,271 -357,0 -647,-99 -873,-297 -225,-199 -361,-478 -407,-837zm2286 -2011c0,-320 -85,-575 -255,-763 -168,-188 -374,-282 -616,-282 -251,0 -467,101 -650,303 -183,203 -275,466 -275,789 0,290 87,525 260,706 174,181 391,271 649,271 259,0 471,-90 638,-271 166,-181 249,-432 249,-753zm2962 3068l0 -1088 -1980 0 0 -516 2082 -2955 458 0 0 2955 618 0 0 516 -618 0 0 1088 -560 0zm0 -1604l0 -2052 -1429 2052 1429 0z"/>
 </g>
</svg>