<?xml version="1.0" encoding="UTF-8"?>
<!DOCTYPE svg PUBLIC "-//W3C//DTD SVG 1.1//EN" "http://www.w3.org/Graphics/SVG/1.1/DTD/svg11.dtd">
<!-- Creator: CorelDRAW X8 -->
<svg xmlns="http://www.w3.org/2000/svg" xml:space="preserve" width="39.8639mm" height="62.5556mm" version="1.1" style="shape-rendering:geometricPrecision; text-rendering:geometricPrecision; image-rendering:optimizeQuality; fill-rule:evenodd; clip-rule:evenodd" viewBox="0 0 1036 1626" xmlns:xlink="http://www.w3.org/1999/xlink">
 <defs>
  <style type="text/css">
   <![CDATA[
    .fil6 {fill:none}
    .fil8 {fill:#EBECEC}
    .fil4 {fill:#D9DADA}
    .fil1 {fill:#C5C6C6}
    .fil2 {fill:#B2B3B3}
    .fil7 {fill:#9D9E9E}
    .fil3 {fill:#898989}
    .fil0 {fill:#2B2A29}
    .fil5 {fill:#EBECEC;fill-rule:nonzero}
   ]]>
  </style>
 </defs>
 <g id="BS_x0020_Inner_x0020_Circle">
  <metadata id="CorelCorpID_0Corel-Layer"/>
  <polygon class="fil0" points="907,0 1036,1626 518,1626 0,1626 129,0 "/>
  <g id="_1651517132128">
   <g>
    <path class="fil1" d="M518 444c4,0 8,3 11,8 1,-5 4,-8 7,-9 3,-1 7,0 10,2 0,-5 2,-9 5,-11 3,-2 8,-2 13,0 -2,-5 -2,-10 1,-13 2,-4 8,-6 14,-5 -3,-4 -4,-8 -3,-12 1,-3 4,-6 8,-7 -5,-3 -8,-7 -8,-11 0,-4 3,-8 8,-11 -5,-1 -8,-4 -9,-7 -1,-3 0,-7 2,-10 -5,0 -9,-2 -11,-4 -2,-4 -2,-9 0,-14 -6,2 -10,2 -13,-1 -4,-2 -6,-8 -5,-14 -4,3 -8,4 -12,3 -3,-1 -6,-4 -7,-8 -3,5 -7,8 -11,8 -4,0 -8,-3 -11,-8 -1,5 -4,8 -7,9 -3,1 -7,1 -10,-1 0,4 -2,8 -4,10 -4,2 -9,2 -14,0 2,6 2,10 -1,13 -2,4 -8,6 -14,5 3,4 4,8 3,12 -1,3 -4,6 -8,7 5,4 8,7 8,11 0,4 -3,8 -8,11 5,1 8,4 9,8 1,2 1,6 -1,9 4,0 8,2 10,5 2,3 2,8 0,13 6,-2 10,-2 13,1 4,2 6,8 5,14 4,-3 8,-4 12,-3 3,1 6,4 7,8 3,-5 7,-8 11,-8zm53 -160c12,-10 26,-14 29,-11 4,3 5,18 -2,34 15,-7 30,-7 33,-3 3,3 0,15 -8,27 21,-4 41,2 42,7 2,4 -6,15 -19,24 36,1 64,17 64,24 0,7 -27,22 -61,24 12,8 19,19 18,22 -2,6 -24,13 -47,7 10,12 14,26 11,29 -3,4 -18,5 -34,-2 7,15 7,30 3,33 -3,3 -15,0 -27,-8 4,21 -2,41 -7,42 -4,2 -15,-6 -24,-19 -1,36 -17,64 -24,64 -7,0 -22,-27 -24,-61 -8,12 -19,19 -22,18 -6,-2 -13,-24 -7,-47 -12,10 -26,14 -29,11 -4,-3 -5,-18 2,-34 -15,7 -30,7 -33,3 -3,-3 0,-15 8,-27 -21,4 -41,-2 -42,-7 -2,-4 6,-15 19,-24 -36,-1 -64,-17 -64,-24 0,-6 27,-22 61,-24 -12,-8 -19,-19 -18,-22 2,-6 24,-13 47,-7 -10,-12 -14,-26 -11,-29 3,-4 18,-5 34,2 -7,-15 -7,-30 -3,-33 3,-2 15,0 27,9 -4,-22 2,-42 7,-43 4,-2 15,6 24,19 1,-36 17,-64 24,-64 7,0 22,27 24,61 8,-12 19,-19 22,-18 6,2 13,24 7,47z"/>
    <path class="fil2" d="M595 361c-2,-6 8,-14 22,-19 13,-4 30,-3 36,0 -3,7 -16,17 -29,22 -14,4 -27,3 -29,-3zm11 25c0,-7 17,-13 37,-13 21,0 42,7 50,13 -8,6 -29,13 -50,13 -20,0 -37,-6 -37,-13zm-10 24c2,-5 15,-7 29,-2 14,4 27,14 30,21 -7,3 -23,4 -37,0 -14,-4 -23,-13 -22,-19zm-16 21c3,-4 14,-2 24,5 10,7 18,19 18,26 -6,1 -20,-2 -30,-9 -10,-7 -16,-17 -12,-22zm-18 18c4,-4 14,1 22,11 7,10 11,24 10,31 -7,-1 -19,-8 -27,-18 -8,-10 -10,-21 -5,-24zm-19 14c6,-2 14,8 19,22 4,13 3,30 0,36 -7,-3 -17,-16 -21,-29 -5,-14 -4,-27 2,-29zm-25 11c7,0 13,17 13,37 0,21 -7,42 -13,50 -6,-8 -13,-29 -13,-50 0,-20 6,-37 13,-37zm-24 -10c6,2 7,15 3,29 -5,14 -15,27 -22,30 -3,-7 -4,-23 0,-37 4,-14 13,-23 19,-22zm-21 -16c5,3 2,14 -5,24 -7,10 -19,18 -26,18 -1,-6 2,-20 9,-30 7,-10 17,-16 22,-12zm-18 -18c4,4 -1,14 -11,22 -10,7 -24,11 -30,10 0,-7 7,-19 17,-27 10,-8 21,-10 24,-5zm-14 -19c2,6 -8,14 -22,19 -13,4 -30,4 -36,0 3,-7 16,-17 29,-21 14,-5 27,-4 29,2zm-11 -25c0,7 -17,13 -37,13 -21,0 -42,-7 -49,-13 7,-6 28,-13 49,-13 20,0 37,6 37,13zm10 -24c-2,6 -15,7 -29,3 -14,-5 -26,-15 -30,-22 7,-3 23,-4 37,0 14,4 24,13 22,19zm16 -21c-3,5 -14,3 -24,-5 -10,-7 -18,-19 -18,-26 6,-1 20,2 30,9 10,7 16,17 12,22zm18 -18c-4,4 -14,-1 -22,-11 -7,-10 -11,-24 -10,-30 7,0 20,7 27,17 8,10 10,21 5,24zm19 -14c-6,2 -14,-8 -19,-22 -4,-13 -3,-30 0,-36 7,3 17,16 22,29 4,14 3,27 -3,29zm25 -11c-7,0 -13,-17 -13,-37 0,-21 7,-42 13,-49 6,7 13,28 13,49 0,20 -6,37 -13,37zm24 10c-5,-2 -7,-15 -2,-29 4,-14 14,-26 21,-30 3,7 4,23 0,37 -4,14 -13,24 -19,22zm21 16c-4,-3 -2,-14 5,-24 7,-10 19,-18 26,-18 1,6 -2,20 -9,30 -7,10 -17,16 -22,12zm18 18c-4,-4 1,-14 11,-22 10,-7 24,-11 30,-9 0,6 -7,19 -17,26 -10,8 -21,10 -24,5z"/>
    <path class="fil3" d="M511 393l-122 44 -1 -4c-4,-15 -6,-31 -6,-47 0,-16 2,-31 6,-47l1 -4 122 44 -44 -122 4 -1c16,-4 31,-6 47,-6 16,0 31,2 47,6l4 1 -44 122 122 -44 1 4c4,16 6,31 6,47 0,16 -2,32 -6,47l-1 4 -122 -44 44 122 -4 1c-16,4 -31,6 -47,6 -16,0 -31,-2 -47,-6l-4 -1 44 -122z"/>
    <path class="fil4" d="M479 509c12,3 26,4 39,4 13,0 27,-1 40,-4l-40 -109 -39 109zm53 -123l109 40c3,-13 4,-27 4,-40 0,-13 -1,-26 -4,-39l-109 39zm-14 -14l40 -109c-13,-3 -27,-4 -40,-4 -13,0 -27,1 -39,4l39 109zm-14 14l-109 -39c-3,13 -4,26 -4,39 0,13 1,27 4,40l109 -40z"/>
    <circle class="fil2" cx="518" cy="386" r="95"/>
    <circle class="fil1" cx="518" cy="386" r="60"/>
    <path class="fil5" d="M492 433l2 -4 1 0c0,1 0,2 0,3 0,0 1,1 2,1l0 0 3 -8c0,0 0,0 0,0 0,-1 0,-1 0,-1 0,0 0,0 -1,0 0,0 0,0 -1,-1l1 -1 7 3 0 1c-1,0 -1,0 -1,0 -1,0 -1,0 -1,0 0,0 0,0 0,0 -1,0 -1,0 -1,1l0 0 -3 8 0 0c1,0 2,0 3,0 0,-1 1,-1 1,-2l2 0 -2 5 -12 -5z"/>
    <path id="1" class="fil5" d="M486 422l-1 -1c-1,-1 -1,-1 -2,-1 0,0 0,0 -1,1 0,0 -1,1 -1,1 0,1 1,1 1,2l2 1 2 -3zm4 -3c0,-1 0,-1 0,-1 0,-1 0,-1 -1,-1l0 -1 1 -1 6 5 -1 2 -1 -1c0,0 -1,0 -1,0 0,0 0,0 -1,0l-5 6c0,0 0,0 0,0 0,1 0,1 0,1l1 1 -1 1 -7 -6c-1,-1 -2,-2 -2,-3 0,-1 0,-2 1,-3 0,0 1,-1 2,-1 1,0 1,1 2,1 0,-1 -1,-1 -1,-2 1,0 1,-1 1,-1l1 -1c1,-1 1,-1 1,-1 0,0 0,-1 0,-1 0,0 -1,0 -1,0 0,0 -1,1 -1,1l-1 -1c0,0 0,0 0,0 0,0 0,0 0,0 1,-1 2,-1 3,-1 0,-1 1,0 2,1 1,0 1,1 1,2 0,1 0,1 -1,2l-1 1c0,1 -1,1 -1,1 0,1 1,1 1,2l1 1 3 -2z"/>
    <path id="2" class="fil5" d="M485 409l-2 1 0 -1c0,-1 -1,-1 -1,-1 0,0 0,0 -1,0l-6 4c-1,0 -1,1 -1,1 0,0 0,0 0,1l1 0 -2 1 -4 -7 2 0 0 0c0,1 1,1 1,1 0,0 0,0 1,0l6 -4c1,0 1,0 1,-1 0,0 0,0 0,-1l-1 0 2 -1 4 7z"/>
    <path id="3" class="fil5" d="M473 395l-4 3 4 0 0 -3zm7 7l-1 0 0 0c0,-1 -1,-1 -1,-1 0,0 0,-1 -1,-1l-11 -1 -1 -3 10 -6c0,0 0,-1 0,-1 1,0 1,0 1,-1l-1 0 2 -1 2 8 -2 0 0 -1c0,0 0,0 0,-1 -1,0 -1,0 -1,0 0,0 0,0 0,0 0,0 0,0 0,0l-2 1 1 4 2 0c0,0 0,0 0,0 0,0 0,0 0,0 0,0 1,0 1,0 0,0 0,-1 0,-1l-1 -1 2 0 1 6z"/>
    <path id="4" class="fil5" d="M469 372c0,0 -1,0 -1,0 0,0 0,1 0,1l0 1 -2 -1 2 -7 2 0 0 1c-1,1 -1,1 -1,1 1,0 1,0 1,1l6 1c2,1 3,1 3,2 1,1 1,3 0,4 0,2 -1,3 -2,3 0,1 -1,1 -3,1 0,0 -1,-1 -1,-1 0,-1 -1,-1 0,-2 0,-1 0,-1 1,-1 0,0 0,0 1,0 0,0 1,0 1,0 0,1 0,1 0,2 0,0 0,0 0,0 0,0 0,0 0,0 0,0 0,0 1,0 0,-1 0,-1 0,-1 1,-1 0,-2 0,-2 0,0 -1,-1 -2,-1l-6 -2z"/>
    <path id="5" class="fil5" d="M472 362l-2 -1 5 -6 1 1c0,0 0,0 0,0 0,0 0,0 0,0 -1,1 -1,1 -1,1 0,1 1,1 1,2l5 3c1,0 1,1 2,1 0,0 1,-1 1,-1 1,-1 1,-2 1,-3 0,0 0,-1 -1,-1l-5 -3c0,-1 -1,-1 -1,-1 0,0 -1,0 -1,1 0,0 0,0 0,0 0,0 0,0 0,0l-2 -1 4 -5 1 1c0,1 0,1 -1,1 0,0 0,1 0,1 0,0 0,0 1,0 0,0 0,0 1,1l4 3c1,1 2,2 2,3 0,1 0,3 -1,4 -1,2 -2,2 -4,3 -1,0 -2,0 -3,-1l-5 -3c0,-1 -1,-1 -1,-1 -1,0 -1,0 -1,0 0,1 0,1 0,1 0,0 0,0 0,0z"/>
    <path id="6" class="fil5" d="M486 346c0,0 0,0 -1,0 0,0 0,0 0,0l-1 0 -1 -1 5 -3 10 5 -4 -6c0,0 0,0 0,0 -1,0 -1,0 -1,0l-1 0 -1 -1 5 -3 1 1 0 0c-1,1 -1,1 -1,1 0,0 0,1 0,1l6 9 -4 2 -10 -5 4 6c0,0 1,0 1,0 0,0 0,0 1,0l0 -1 1 2 -5 3 -1 -1 1 -1c0,0 0,0 1,0 0,-1 -1,-1 -1,-1l-4 -7z"/>
    <path id="7" class="fil5" d="M514 341l2 -1c1,2 0,4 0,5 -1,1 -3,1 -4,2 -3,0 -4,0 -6,-1 -1,-1 -2,-3 -3,-5 0,-1 0,-2 0,-3 0,-1 1,-2 1,-2 1,-1 2,-2 2,-2 1,-1 2,-1 3,-1 1,0 1,0 2,0 1,0 1,0 2,0l0 -1 2 0 1 5 -2 1c0,-1 -1,-2 -2,-3 0,0 -1,0 -2,0 -1,0 -2,0 -2,1 -1,1 -1,3 0,4 0,2 0,3 1,4 1,1 2,1 3,1 1,0 1,-1 2,-2 0,0 0,-1 0,-2z"/>
    <path id="8" class="fil5" d="M534 335l-1 5 -2 -1c0,-1 0,-2 0,-2 0,-1 -1,-1 -2,-1l0 -1 -1 9c-1,0 -1,1 -1,1 0,0 1,0 1,0 0,0 0,0 0,0 0,0 1,0 1,1l0 1 -8 -1 1 -2c0,0 0,0 1,0 0,0 0,0 0,0 1,0 1,0 1,0 0,0 0,0 0,-1l0 0 1 -8 0 0c-1,0 -1,0 -2,0 0,1 -1,2 -1,3l-2 -1 1 -5 13 3z"/>
    <path id="9" class="fil5" d="M541 346l1 -4 -3 3 2 1zm-10 1l1 -1 0 0c1,0 1,0 1,0 0,0 1,0 1,0l8 -8 4 2 -3 11c0,0 0,1 0,1 1,0 1,0 1,1l1 0 -1 1 -7 -3 1 -2 1 1c0,0 0,0 1,0 0,0 0,0 0,0 0,0 0,0 0,-1 0,0 0,0 0,0l0 -1 -3 -2 -1 1c0,0 0,0 0,0 0,0 0,0 0,0 0,0 0,1 0,1 0,0 0,0 0,0l1 1 -1 1 -5 -3z"/>
    <path id="10" class="fil5" d="M548 359l2 -1 0 1c1,0 1,1 1,1 0,0 0,0 1,-1l6 -4c0,0 1,-1 1,-1 0,0 -1,0 -1,-1l0 0 1 -2 5 7 -2 1 0 -1c0,0 -1,0 -1,0 0,-1 0,0 -1,0l-6 4c0,1 -1,1 -1,1 0,0 1,1 1,1l0 1 -1 1 -5 -7z"/>
    <path id="11" class="fil5" d="M564 365c1,0 1,-1 1,-1 0,0 0,0 0,-1l0 0 1 -1 2 6 -7 8 6 -2c1,0 1,0 1,-1 0,0 0,0 0,-1l0 0 1 -1 2 6 -1 0 -1 0c0,-1 0,-1 0,-1 0,0 -1,0 -1,0l-10 3 -1 -4 8 -8 -7 2c-1,0 -1,1 -1,1 0,0 0,0 0,1l0 1 -1 0 -2 -6 1 0 1 0c0,1 0,1 0,1 0,0 1,0 1,0l7 -2z"/>
    <path id="12" class="fil5" d="M570 391l2 0 -2 8 -2 -1c0,0 0,0 0,0 0,0 1,0 1,0 0,-1 0,-1 -1,-1 0,-1 0,-1 -1,-1l-5 -1c-1,0 -2,0 -2,0 -1,0 -1,1 -2,1 0,1 0,2 1,3 0,0 0,0 1,1l6 1c1,0 1,0 1,0 1,0 1,0 1,-1 0,0 0,0 0,0 0,0 0,0 0,-1l2 1 -2 6 -1 -1c0,0 0,-1 0,-1 0,0 0,0 0,0 0,-1 0,-1 -1,-1 0,0 0,0 -1,0l-5 -1c-2,-1 -3,-1 -3,-2 -1,-2 -1,-3 0,-5 0,-1 1,-3 2,-3 1,-1 2,-1 3,-1l6 1c1,1 1,1 1,0 1,0 1,0 1,0 0,-1 0,-1 0,-1 0,0 0,0 0,0z"/>
    <path id="13" class="fil5" d="M562 411c1,0 1,1 1,0 0,0 1,0 1,0l0 -1 2 1 -4 5 -10 -1 5 4c0,0 0,0 1,0 0,0 0,0 0,0l1 -1 1 1 -3 5 -2 -1 1 -1c0,0 0,0 0,-1 0,0 0,0 -1,0l-8 -6 2 -4 12 2 -6 -4c-1,-1 -1,-1 -1,-1 0,0 0,0 -1,1l0 0 -2 -1 4 -5 1 1 0 1c0,0 0,1 0,1 0,0 0,0 0,1l6 4z"/>
    <path id="14" class="fil5" d="M545 425c-1,-2 -2,-3 -3,-3 -1,-1 -2,-1 -3,0 -1,0 -1,1 -1,2 0,1 0,2 1,4 1,2 2,3 3,3 0,1 1,1 2,0 1,-1 2,-1 2,-2 0,-1 -1,-3 -1,-4zm3 -2c1,2 2,3 1,5 0,2 -2,3 -4,5 -2,1 -4,1 -5,1 -2,-1 -4,-2 -5,-4 -1,-2 -1,-4 -1,-5 1,-2 2,-4 4,-5 2,-1 4,-1 6,-1 2,1 3,2 4,4z"/>
    <circle class="fil6" cx="518" cy="386" r="40"/>
    <circle class="fil7" cx="518" cy="386" r="37"/>
    <circle class="fil1" cx="518" cy="386" r="34"/>
    <path class="fil8" d="M520 392c3,1 10,4 11,9l-4 11c-6,-1 -12,-1 -18,0l-4 -11c1,-5 8,-8 11,-9 0,0 0,0 0,0 0,-1 1,-2 2,-2 1,0 2,1 2,2 0,0 0,0 0,0z"/>
    <circle class="fil8" cx="518" cy="433" r="5"/>
    <path class="fil8" d="M505 366c4,1 10,4 11,9l-4 12c-6,-1 -12,-1 -17,0l-4 -12c0,-5 7,-8 11,-9 0,0 0,0 0,0 0,-1 0,-1 1,-1 1,0 2,0 2,1 0,0 0,0 0,0z"/>
    <path class="fil8" d="M534 366c4,1 11,4 12,9l-5 12c-5,-1 -11,-1 -17,0l-4 -12c1,-5 8,-8 11,-9 0,0 0,0 0,0 0,-1 1,-1 2,-1 1,0 1,0 1,1 0,0 0,0 0,0z"/>
    <g>
     <g>
      <path id="path2856" class="fil8" d="M489 318c10,9 20,4 29,-3 -11,-4 -22,-6 -29,3zm2 0c3,2 6,4 9,4 5,-1 10,-3 14,-6 -5,-2 -10,-4 -15,-2 -3,0 -6,2 -8,4z"/>
      <path id="path2874" class="fil8" d="M484 310c12,6 20,-2 27,-10 -11,-2 -22,-1 -27,10zm3 0c3,1 6,1 9,0 5,-1 9,-5 12,-9 -5,-1 -11,0 -15,2 -3,2 -5,4 -6,7z"/>
      <path id="path2856_0" class="fil8" d="M465 335c12,5 19,-4 26,-13 -12,0 -23,1 -26,13zm2 -1c3,1 7,1 10,0 4,-2 8,-7 11,-11 -6,0 -12,1 -16,4 -2,2 -4,4 -5,7z"/>
      <path id="path2874_1" class="fil8" d="M458 329c13,1 18,-9 21,-20 -11,3 -21,8 -21,20zm1 -1c4,0 7,-1 10,-3 4,-4 6,-9 7,-13 -5,1 -10,3 -13,7 -2,3 -3,6 -4,9z"/>
      <path id="path2856_2" class="fil8" d="M448 360c13,-1 17,-11 19,-22 -10,4 -20,9 -19,22zm2 -2c3,0 6,-1 9,-4 3,-3 5,-9 6,-14 -5,2 -10,5 -13,10 -2,2 -2,5 -2,8z"/>
      <path id="path2874_3" class="fil8" d="M439 357c13,-4 13,-15 13,-26 -9,6 -17,14 -13,26zm1 -2c4,-1 6,-3 8,-6 2,-5 3,-10 2,-15 -4,3 -8,7 -10,12 -1,3 -1,6 0,9z"/>
      <path id="path2856_4" class="fil8" d="M445 387c12,-6 10,-18 8,-28 -8,8 -15,17 -8,28zm0 -3c3,-1 6,-4 7,-7 2,-5 1,-10 0,-15 -4,4 -7,9 -8,14 -1,3 0,6 1,8z"/>
      <path id="path2874_5" class="fil8" d="M436 388c9,-9 5,-20 0,-30 -6,10 -9,21 0,30zm0 -3c2,-2 4,-5 4,-9 0,-5 -2,-10 -4,-14 -3,5 -5,10 -4,15 0,3 2,6 4,8z"/>
      <path id="path2856_6" class="fil8" d="M449 414c11,-9 7,-19 2,-29 -6,9 -10,20 -2,29zm1 -2c2,-3 4,-6 4,-9 1,-5 -1,-10 -3,-15 -3,5 -5,10 -5,15 0,4 2,6 4,9z"/>
      <path id="path2874_7" class="fil8" d="M440 416c8,-10 2,-20 -5,-28 -4,10 -6,21 5,28zm-1 -2c2,-3 3,-6 3,-9 -1,-5 -4,-10 -7,-14 -1,5 -2,11 -1,16 1,3 3,5 5,7z"/>
      <path id="path2856_8" class="fil8" d="M462 435c6,-11 -1,-20 -9,-28 -2,11 -3,23 9,28zm-1 -2c1,-3 2,-6 1,-10 -1,-4 -5,-9 -8,-12 -1,5 -1,11 1,16 1,2 3,5 6,6z"/>
      <path id="path2874_9" class="fil8" d="M456 441c2,-13 -8,-18 -18,-23 2,11 5,22 18,23zm-2 -2c1,-3 0,-6 -2,-9 -2,-4 -7,-7 -12,-9 1,5 3,11 6,14 3,3 5,4 8,4z"/>
      <path id="path2856_10" class="fil8" d="M478 451c4,-12 -5,-19 -14,-25 0,11 2,23 14,25zm-1 -2c1,-3 1,-6 -1,-9 -2,-5 -6,-8 -11,-11 1,6 2,11 5,16 2,2 4,4 7,4z"/>
      <path id="path2874_11" class="fil8" d="M476 458c-2,-13 -13,-15 -24,-17 5,10 11,20 24,17zm-2 -1c-1,-3 -2,-6 -5,-9 -4,-3 -9,-4 -14,-5 2,5 6,10 10,12 3,2 6,2 9,2z"/>
      <path id="path2856_12" class="fil8" d="M504 461c-3,-13 -14,-14 -25,-14 6,9 13,18 25,14zm-2 -1c-1,-4 -3,-6 -6,-8 -4,-3 -9,-4 -14,-4 3,5 7,9 11,11 3,1 6,1 9,1z"/>
      <path id="path2874_13" class="fil8" d="M501 471c-5,-12 -16,-12 -27,-10 7,8 16,16 27,10zm-2 -1c-2,-3 -4,-5 -7,-7 -5,-2 -10,-1 -15,-1 3,4 8,8 13,9 3,1 6,1 9,-1z"/>
     </g>
     <g>
      <path id="path2856_14" class="fil8" d="M547 318c-10,9 -19,4 -29,-3 11,-4 22,-6 29,3zm-2 0c-3,2 -6,4 -9,4 -5,-1 -10,-3 -14,-6 5,-2 10,-4 16,-2 3,0 5,2 7,4z"/>
      <path id="path2874_15" class="fil8" d="M552 310c-12,6 -20,-2 -27,-10 11,-2 22,-1 27,10zm-2 0c-4,1 -7,1 -10,0 -5,-1 -9,-5 -12,-9 5,-1 11,0 16,2 2,2 4,4 6,7z"/>
      <path id="path2856_16" class="fil8" d="M571 335c-12,5 -19,-4 -26,-13 12,0 23,1 26,13zm-2 -1c-3,1 -6,1 -10,0 -4,-2 -8,-7 -11,-11 6,0 12,1 16,4 2,2 4,4 5,7z"/>
      <path id="path2874_17" class="fil8" d="M578 329c-13,1 -17,-9 -21,-20 11,3 21,8 21,20zm-1 -1c-4,0 -7,-1 -10,-3 -4,-4 -6,-9 -7,-13 5,1 10,3 13,7 2,3 3,6 4,9z"/>
      <path id="path2856_18" class="fil8" d="M588 360c-13,-1 -17,-11 -19,-22 10,4 20,9 19,22zm-2 -2c-3,0 -6,-1 -9,-4 -3,-3 -5,-9 -6,-14 5,2 10,5 13,10 2,2 2,5 2,8z"/>
      <path id="path2874_19" class="fil8" d="M597 357c-13,-4 -13,-15 -13,-26 9,6 17,14 13,26zm-1 -2c-4,-1 -6,-3 -8,-6 -2,-5 -2,-10 -2,-15 4,3 8,7 10,12 1,3 1,6 0,9z"/>
      <path id="path2856_20" class="fil8" d="M591 387c-12,-6 -10,-18 -8,-28 8,8 15,17 8,28zm0 -3c-3,-1 -6,-4 -7,-7 -1,-5 -1,-10 0,-15 4,4 7,9 8,14 1,3 0,6 -1,8z"/>
      <path id="path2874_21" class="fil8" d="M600 388c-9,-9 -5,-20 0,-30 6,10 10,21 0,30zm0 -3c-2,-2 -4,-5 -4,-9 0,-5 2,-10 4,-14 3,5 5,10 4,15 0,3 -2,6 -4,8z"/>
      <path id="path2856_22" class="fil8" d="M587 414c-11,-9 -7,-19 -2,-29 6,9 10,20 2,29zm0 -2c-3,-3 -5,-6 -5,-9 -1,-5 1,-10 4,-15 2,5 4,10 4,15 0,4 -1,6 -3,9z"/>
      <path id="path2874_23" class="fil8" d="M597 416c-9,-10 -3,-20 4,-28 4,10 6,21 -4,28zm0 -2c-2,-3 -3,-6 -3,-9 1,-5 4,-10 7,-14 1,5 2,11 1,16 -1,3 -3,5 -5,7z"/>
      <path id="path2856_24" class="fil8" d="M574 435c-6,-11 1,-20 9,-28 2,11 3,23 -9,28zm1 -2c-1,-3 -2,-6 -1,-10 1,-4 5,-9 8,-12 1,5 1,11 -1,16 -1,2 -3,5 -6,6z"/>
      <path id="path2874_25" class="fil8" d="M580 441c-2,-13 8,-18 18,-23 -2,11 -5,22 -18,23zm2 -2c-1,-3 0,-6 2,-9 2,-4 7,-7 12,-9 -1,5 -3,11 -6,14 -3,3 -5,4 -8,4z"/>
      <path id="path2856_26" class="fil8" d="M558 451c-4,-12 5,-19 14,-25 0,11 -2,23 -14,25zm1 -2c-1,-3 -1,-6 1,-9 2,-5 6,-8 11,-11 -1,6 -2,11 -5,16 -2,2 -4,4 -7,4z"/>
      <path id="path2874_27" class="fil8" d="M560 458c2,-13 13,-15 24,-17 -5,10 -11,20 -24,17zm2 -1c1,-3 2,-6 5,-9 4,-3 9,-4 14,-5 -2,5 -6,10 -10,12 -3,2 -6,2 -9,2z"/>
      <path id="path2856_28" class="fil8" d="M532 461c3,-13 14,-14 25,-14 -6,9 -13,18 -25,14zm2 -1c1,-4 3,-6 6,-8 4,-3 9,-4 14,-4 -3,5 -7,9 -11,11 -3,1 -6,1 -9,1z"/>
      <path id="path2874_29" class="fil8" d="M535 471c5,-12 16,-12 27,-10 -7,8 -16,16 -27,10zm2 -1c2,-3 4,-5 7,-7 5,-2 10,-1 15,-1 -3,4 -8,8 -13,9 -3,1 -6,1 -9,-1z"/>
     </g>
    </g>
    <path class="fil8" d="M517 470c-1,0 -1,1 -2,1 -3,2 -6,3 -10,4l-1 0 0 -3 1 0c3,0 6,-2 9,-3 0,0 0,0 1,-1 -3,-2 -6,-5 -5,-9 0,-3 3,-6 7,-6 4,0 6,3 7,6 0,4 -2,7 -5,9 0,1 0,1 1,1 2,1 5,3 8,3l1 0 0 3 -1 0c-3,-1 -7,-2 -10,-4 0,0 -1,-1 -1,-1zm0 -3c2,-2 5,-5 4,-7 0,-3 -2,-5 -4,-5 -3,0 -4,2 -5,5 0,2 2,5 5,7z"/>
   </g>
   <g>
    <path class="fil1" d="M518 871c4,0 8,3 11,8 1,-5 4,-8 7,-9 3,-1 7,-1 10,1 0,-4 2,-8 5,-10 3,-2 8,-2 13,-1 -2,-5 -2,-9 1,-12 2,-4 8,-6 14,-5 -3,-4 -4,-8 -3,-12 1,-3 4,-6 8,-7 -5,-4 -8,-7 -8,-11 0,-4 3,-8 8,-11 -5,-2 -8,-4 -9,-8 -1,-3 0,-6 2,-9 -5,0 -9,-2 -11,-5 -2,-3 -2,-8 0,-13 -6,2 -10,2 -13,-1 -4,-2 -6,-8 -5,-14 -4,3 -8,4 -12,3 -3,-1 -6,-4 -7,-8 -3,5 -7,8 -11,8 -4,0 -8,-3 -11,-8 -1,5 -4,8 -7,9 -3,1 -7,0 -10,-2 0,5 -2,9 -4,11 -4,2 -9,2 -14,0 2,5 2,10 -1,13 -2,4 -8,5 -14,5 3,4 4,8 3,12 -1,3 -4,5 -8,7 5,3 8,7 8,11 0,4 -3,7 -8,11 5,1 8,4 9,7 1,3 1,7 -1,10 4,0 8,2 10,4 2,4 2,9 0,14 6,-2 10,-2 13,1 4,2 6,8 5,14 4,-3 8,-4 12,-3 3,1 6,4 7,8 3,-5 7,-8 11,-8zm53 -160c12,-10 26,-14 29,-11 4,2 5,18 -2,34 15,-7 30,-7 33,-3 3,3 0,15 -8,27 21,-4 41,2 42,7 2,4 -6,15 -19,24 36,1 64,17 64,24 0,6 -27,22 -61,23 12,9 19,19 18,23 -2,6 -24,12 -47,7 10,12 14,26 11,29 -3,4 -18,5 -34,-2 7,15 7,30 3,33 -3,2 -15,0 -27,-9 4,22 -2,42 -7,43 -4,2 -15,-6 -24,-19 -1,36 -17,64 -24,64 -7,0 -22,-27 -24,-61 -8,12 -19,19 -22,18 -6,-2 -13,-24 -7,-47 -12,10 -26,13 -29,11 -4,-3 -5,-18 2,-34 -15,7 -30,7 -33,3 -3,-3 0,-16 8,-27 -21,4 -41,-2 -42,-7 -2,-4 6,-15 19,-24 -36,-1 -64,-17 -64,-24 0,-7 27,-22 61,-24 -12,-8 -19,-19 -18,-22 2,-6 24,-13 47,-7 -10,-12 -14,-26 -11,-29 3,-4 18,-5 34,2 -7,-15 -7,-30 -3,-33 3,-3 15,0 27,8 -4,-21 2,-41 7,-42 4,-2 15,6 24,19 1,-36 17,-64 24,-64 7,0 22,26 24,61 8,-12 19,-19 22,-18 6,2 13,24 7,47z"/>
    <path class="fil2" d="M595 788c-2,-6 8,-14 22,-19 13,-4 30,-4 36,0 -3,7 -16,17 -29,21 -14,5 -27,4 -29,-2zm11 25c0,-7 17,-13 37,-13 21,0 42,7 50,13 -8,6 -29,13 -50,13 -20,0 -37,-6 -37,-13zm-10 24c2,-6 15,-7 29,-3 14,5 27,15 30,22 -7,3 -23,4 -37,0 -14,-4 -23,-13 -22,-19zm-16 21c3,-5 14,-3 24,5 10,7 18,19 18,26 -6,1 -20,-2 -30,-9 -10,-7 -16,-17 -12,-22zm-18 18c4,-4 14,1 22,11 7,10 11,24 10,30 -7,0 -19,-7 -27,-17 -8,-10 -10,-21 -5,-24zm-19 14c6,-2 14,8 19,22 4,13 3,30 0,36 -7,-3 -17,-16 -21,-30 -5,-13 -4,-26 2,-28zm-25 11c7,0 13,17 13,37 0,21 -7,42 -13,49 -6,-7 -13,-28 -13,-49 0,-20 6,-37 13,-37zm-24 -10c6,2 7,15 3,29 -5,14 -15,26 -22,30 -3,-7 -4,-23 0,-37 4,-14 13,-24 19,-22zm-21 -17c5,4 2,15 -5,25 -7,10 -19,18 -26,18 -1,-6 2,-20 9,-30 7,-10 17,-16 22,-13zm-18 -17c4,4 -1,14 -11,22 -10,7 -24,11 -30,9 0,-6 7,-19 17,-26 10,-8 21,-10 24,-5zm-14 -19c2,6 -8,14 -22,19 -13,4 -30,3 -36,0 3,-7 16,-17 29,-22 14,-4 27,-3 29,3zm-11 -25c0,7 -17,13 -37,13 -21,0 -42,-7 -49,-13 7,-6 28,-13 49,-13 20,0 37,6 37,13zm10 -24c-2,5 -15,7 -29,2 -14,-4 -26,-14 -30,-21 7,-3 23,-4 37,0 14,4 24,13 22,19zm16 -21c-3,4 -14,2 -24,-5 -10,-7 -18,-19 -18,-26 6,-1 20,2 30,9 10,7 16,17 12,22zm18 -18c-4,4 -14,-1 -22,-11 -7,-10 -11,-24 -10,-31 7,1 20,8 27,18 8,10 10,21 5,24zm19 -14c-6,2 -14,-8 -19,-22 -4,-13 -3,-30 0,-36 7,3 17,16 22,29 4,14 3,27 -3,29zm25 -12c-7,0 -13,-16 -13,-36 0,-21 7,-42 13,-50 6,8 13,29 13,50 0,20 -6,36 -13,36zm24 11c-5,-2 -7,-15 -2,-29 4,-14 14,-27 21,-30 3,7 4,23 0,37 -4,14 -13,23 -19,22zm21 16c-4,-3 -2,-14 5,-24 7,-10 19,-18 26,-18 1,6 -2,20 -9,30 -7,10 -17,16 -22,12zm18 18c-4,-4 1,-14 11,-22 10,-7 24,-11 30,-10 0,7 -7,19 -17,27 -10,8 -21,10 -24,5z"/>
    <path class="fil3" d="M511 820l-122 44 -1 -4c-4,-16 -6,-31 -6,-47 0,-16 2,-32 6,-47l1 -4 122 44 -44 -122 4 -1c16,-4 31,-6 47,-6 16,0 31,2 47,6l4 1 -44 122 122 -44 1 4c4,15 6,31 6,47 0,16 -2,31 -6,47l-1 4 -122 -44 44 122 -4 1c-16,4 -31,6 -47,6 -16,0 -31,-2 -47,-6l-4 -1 44 -122z"/>
    <path class="fil4" d="M479 936c12,2 26,4 39,4 13,0 27,-2 40,-4l-40 -109 -39 109zm53 -123l109 39c3,-13 4,-26 4,-39 0,-13 -1,-27 -4,-40l-109 40zm-14 -14l40 -109c-13,-3 -27,-4 -40,-4 -13,0 -27,1 -39,4l39 109zm-14 14l-109 -40c-3,13 -4,27 -4,40 0,13 1,26 4,39l109 -39z"/>
    <circle class="fil2" cx="518" cy="813" r="95"/>
    <circle class="fil1" cx="518" cy="813" r="60"/>
    <path class="fil5" d="M489 859l2 -5 2 1c-1,1 -1,1 -1,2 1,1 1,1 2,2l0 0 4 -8c0,0 0,-1 0,-1 0,0 0,0 0,0 0,0 0,0 -1,0 0,-1 0,-1 -1,-1l1 -2 7 4 0 1c-1,0 -1,0 -1,0 -1,0 -1,0 -1,0 0,0 0,0 -1,0 0,0 0,0 0,1l0 0 -4 7 1 0c0,1 1,1 2,1 0,-1 1,-1 1,-2l2 0 -2 5 -12 -5z"/>
    <path id="1" class="fil5" d="M484 847l-1 -1c0,-1 -1,-1 -1,-1 -1,0 -1,0 -2,0 0,1 -1,1 0,2 0,0 0,1 1,2l1 1 2 -3zm4 -3c0,-1 0,-1 0,-1 0,0 0,-1 0,-1l-1 -1 2 -1 5 6 -1 1 -1 0c0,-1 0,-1 -1,-1 0,0 0,0 -1,0l-5 6c0,0 -1,0 -1,0 0,1 1,1 1,1l0 1 -1 1 -6 -6c-1,-2 -2,-3 -2,-4 0,-1 1,-1 1,-2 1,-1 2,-1 2,-1 1,0 2,0 3,1 -1,-1 -1,-1 -1,-2 0,0 0,-1 1,-2l1 0c0,-1 1,-1 1,-1 0,-1 0,-1 0,-1 -1,0 -1,0 -1,0 0,0 -1,1 -1,1l-1 -1c0,0 0,0 0,0 0,0 0,0 0,0 1,-1 2,-2 2,-2 1,0 2,1 3,2 1,0 1,1 1,2 0,1 -1,1 -2,2l0 1c-1,1 -1,1 -1,1 0,1 0,1 0,2l2 1 2 -2z"/>
    <path id="2" class="fil5" d="M483 834l-1 0 -1 0c0,-1 0,-1 0,-1 0,0 -1,0 -1,0l-7 3c0,0 -1,1 -1,1 0,0 0,0 0,1l1 1 -2 0 -3 -7 2 -1 0 1c0,1 0,1 0,1 1,0 1,0 1,0l7 -3c1,-1 1,-1 1,-1 0,0 0,0 0,-1l-1 -1 2 0 3 7z"/>
    <path id="3" class="fil5" d="M472 820l-4 2 5 0 -1 -2zm8 7l-2 0 0 -1c0,0 0,0 -1,-1 0,0 0,0 -1,0l-10 -1 -1 -4 9 -5c1,-1 1,-1 1,-1 0,0 1,-1 0,-1l0 -1 2 0 1 7 -1 1 0 -1c-1,0 -1,-1 -1,-1 0,0 0,0 0,0 0,0 0,0 0,0 0,0 -1,0 -1,0l-1 1 1 4 1 0c0,0 0,0 0,0 1,0 1,0 1,0 0,0 0,0 0,0 0,-1 0,-1 0,-1l0 -1 2 0 1 6z"/>
    <path id="4" class="fil5" d="M470 797c0,-1 -1,-1 -1,-1 0,1 0,1 0,1l-1 1 -1 0 2 -8 2 1 0 0c-1,1 -1,1 -1,1 1,1 1,1 1,1l6 2c2,0 3,1 3,2 1,1 1,2 0,4 0,1 -1,2 -2,3 -1,1 -2,1 -3,0 -1,0 -1,0 -2,-1 0,0 0,-1 0,-2 0,0 1,0 1,-1 1,0 1,0 2,0 0,0 0,1 1,1 0,0 0,1 0,1 0,0 0,0 -1,1 0,0 0,0 0,0 1,0 1,0 1,-1 1,0 1,0 1,-1 0,0 0,-1 0,-1 -1,-1 -1,-1 -2,-2l-6 -1z"/>
    <path id="5" class="fil5" d="M473 786l-1 -1 4 -6 2 2c0,0 -1,0 -1,0 0,0 0,0 0,0 0,0 0,1 0,1 0,0 0,1 1,1l4 4c1,0 2,1 2,1 1,0 1,-1 2,-1 0,-1 1,-2 0,-2 0,-1 0,-2 -1,-2l-4 -4c-1,0 -1,0 -1,0 -1,0 -1,0 -1,0 -1,0 -1,0 -1,1 0,0 0,0 0,0l-1 -1 4 -5 1 1c0,0 -1,1 -1,1 0,0 0,0 0,1 0,0 0,0 0,0 1,0 1,0 1,1l5 3c1,1 2,2 2,3 0,2 -1,3 -2,4 -1,2 -2,2 -3,3 -2,0 -3,0 -4,-1l-4 -4c-1,0 -2,-1 -2,-1 0,0 0,1 -1,1 0,0 0,0 0,0 0,0 0,0 0,0z"/>
    <path id="6" class="fil5" d="M488 772c0,-1 0,-1 0,-1 -1,0 -1,0 -1,0l-1 1 -1 -2 6 -3 9 5 -3 -5c-1,-1 -1,-1 -1,-1 0,0 -1,0 -1,0l-1 1 -1 -2 6 -3 1 2 -1 0c0,0 -1,1 -1,1 0,0 0,0 1,1l5 9 -4 2 -9 -6 3 6c0,0 0,1 1,1 0,0 0,0 1,-1l0 0 1 2 -5 3 -1 -2 1 0c0,0 0,-1 0,-1 0,0 0,0 0,-1l-4 -6z"/>
    <path id="7" class="fil5" d="M517 767l2 0c0,2 0,3 -1,4 -1,1 -2,2 -4,2 -2,1 -4,0 -6,-1 -1,-1 -2,-3 -2,-5 0,-1 0,-2 0,-3 0,-1 0,-1 1,-2 1,-1 1,-1 2,-2 1,0 2,-1 3,-1 0,0 1,0 2,0 0,1 1,1 2,1l0 -1 2 0 0 5 -1 0c-1,-1 -1,-2 -2,-2 0,-1 -1,-1 -2,-1 -1,0 -2,1 -3,2 0,1 0,2 0,4 0,1 1,3 1,3 1,1 2,1 3,1 1,0 2,0 2,-1 1,-1 1,-2 1,-3z"/>
    <path id="8" class="fil5" d="M537 762l-1 5 -2 0c0,-1 0,-2 0,-3 -1,0 -1,-1 -2,-1l0 0 -2 8c0,1 0,1 0,1 0,0 0,0 0,0 0,1 0,1 0,1 1,0 1,0 2,0l-1 2 -8 -2 1 -2c0,0 1,0 1,0 0,0 0,1 1,0 0,0 0,0 0,0 0,0 0,0 0,-1l0 0 2 -8 0 0c-1,0 -2,0 -2,0 -1,1 -1,2 -1,3l-2 -1 1 -5 13 3z"/>
    <path id="9" class="fil5" d="M543 774l1 -4 -3 2 2 2zm-10 1l1 -2 0 1c1,0 1,0 1,0 1,0 1,0 1,-1l9 -7 3 3 -3 10c0,1 0,1 0,1 0,0 1,1 1,1l0 0 -1 2 -6 -4 1 -2 1 1c0,0 0,0 1,0 0,0 0,0 0,0 0,0 0,0 0,0 0,-1 0,-1 0,-1l1 -1 -4 -2 -1 1c0,0 0,0 0,0 0,0 0,0 0,0 0,0 0,0 0,1 0,0 0,0 0,0l1 0 -1 2 -5 -3z"/>
    <path id="10" class="fil5" d="M550 788l1 -1 1 1c0,0 0,0 0,0 0,0 1,0 1,0l7 -4c0,0 0,-1 0,-1 0,0 0,0 0,-1l0 0 1 -1 4 6 -1 1 -1 0c0,-1 0,-1 0,-1 -1,0 -1,0 -1,0l-7 4c0,1 0,1 0,1 0,0 0,0 0,1l0 1 -1 1 -4 -7z"/>
    <path id="11" class="fil5" d="M565 794c1,0 1,0 1,0 0,-1 0,-1 0,-1l0 -1 2 0 1 6 -7 7 6 -2c0,0 1,0 1,0 0,0 0,-1 0,-1l-1 -1 2 0 2 6 -2 0 0 -1c0,0 0,0 -1,-1 0,0 0,0 -1,1l-10 2 -1 -4 8 -8 -6 2c-1,0 -1,1 -1,1 0,0 0,0 0,1l0 1 -2 0 -1 -6 1 0 1 0c0,1 0,1 0,1 0,0 1,0 1,0l7 -2z"/>
    <path id="12" class="fil5" d="M570 821l1 0 -2 7 -1 0c0,0 0,0 0,0 0,0 0,-1 0,-1 0,0 0,-1 0,-1 0,0 -1,0 -2,-1l-5 -1c-1,0 -2,0 -2,0 -1,0 -1,1 -1,1 0,1 0,2 0,3 0,0 1,0 2,1l5 1c1,0 1,0 2,0 0,0 0,0 0,-1 0,0 0,0 0,0 0,0 0,0 0,0l2 0 -2 6 -1 0c0,-1 0,-1 0,-2 0,0 0,0 0,0 0,0 0,0 0,0 -1,0 -1,-1 -2,-1l-5 -1c-2,-1 -2,-1 -3,-3 0,-1 0,-2 0,-4 1,-1 1,-3 2,-3 1,-1 2,-1 4,-1l5 2c1,0 2,0 2,0 0,0 0,0 1,-1 0,0 0,0 0,0 0,0 0,0 0,0z"/>
    <path id="13" class="fil5" d="M561 840c0,1 1,1 1,1 0,0 0,-1 1,-1l0 -1 1 2 -4 5 -10 -2 5 4c0,0 1,0 1,0 0,0 0,0 1,-1l0 0 2 1 -4 5 -2 -1 1 -1c0,0 0,-1 0,-1 0,0 0,0 0,-1l-9 -6 3 -3 11 2 -5 -5c-1,0 -1,0 -1,0 0,0 -1,0 -1,1l-1 0 -1 -1 4 -5 1 1 0 1c0,0 -1,1 -1,1 0,0 1,0 1,1l6 4z"/>
    <path id="14" class="fil5" d="M542 853c0,-2 -1,-3 -2,-3 -1,-1 -2,-1 -3,0 -1,0 -1,1 -1,2 0,1 0,2 1,4 1,2 1,3 2,3 1,1 2,1 3,0 1,0 2,-1 2,-2 0,-1 -1,-2 -2,-4zm4 -2c1,2 2,4 1,6 -1,1 -2,3 -4,4 -2,1 -4,1 -6,1 -2,-1 -3,-2 -4,-4 -1,-2 -1,-4 -1,-6 1,-1 2,-3 4,-4 2,-1 4,-1 6,-1 2,1 3,2 4,4z"/>
    <circle class="fil6" cx="518" cy="813" r="40"/>
    <circle class="fil7" cx="518" cy="813" r="37"/>
    <circle class="fil1" cx="518" cy="813" r="34"/>
    <path class="fil8" d="M520 819c3,1 10,3 11,8l-4 12c-6,-1 -12,-1 -18,0l-4 -11c1,-6 8,-8 11,-9 0,0 0,0 0,0 0,-1 1,-2 2,-2 1,0 2,1 2,2 0,0 0,0 0,0z"/>
    <circle class="fil8" cx="518" cy="860" r="5"/>
    <path class="fil8" d="M505 793c4,1 10,4 11,9l-4 12c-6,-1 -12,-1 -17,0l-4 -12c0,-5 7,-8 11,-9 0,0 0,0 0,0 0,-1 0,-2 1,-2 1,0 2,1 2,2 0,0 0,0 0,0z"/>
    <path class="fil8" d="M534 793c4,1 11,4 12,9l-5 12c-5,-1 -11,-1 -17,0l-4 -12c1,-5 8,-8 11,-9 0,0 0,0 0,0 0,-1 1,-2 2,-2 1,0 1,1 1,2 0,0 0,0 0,0z"/>
    <g>
     <g>
      <path id="path2856_30" class="fil8" d="M489 745c10,9 20,4 29,-3 -11,-4 -22,-7 -29,3zm2 0c3,2 6,3 9,3 5,0 10,-3 14,-5 -5,-2 -10,-4 -15,-3 -3,1 -6,3 -8,5z"/>
      <path id="path2874_31" class="fil8" d="M484 737c12,6 20,-2 27,-11 -11,-1 -22,0 -27,11zm3 -1c3,2 6,2 9,1 5,-2 9,-5 12,-9 -5,-1 -11,-1 -15,2 -3,1 -5,4 -6,6z"/>
      <path id="path2856_32" class="fil8" d="M465 762c12,5 19,-4 26,-14 -12,0 -23,2 -26,14zm2 -1c3,1 7,1 10,0 4,-2 8,-7 11,-11 -6,0 -12,1 -16,4 -2,2 -4,4 -5,7z"/>
      <path id="path2874_33" class="fil8" d="M458 756c13,1 18,-9 21,-20 -11,3 -21,8 -21,20zm1 -1c4,0 7,-1 10,-4 4,-3 6,-8 7,-13 -5,2 -10,4 -13,8 -2,3 -3,6 -4,9z"/>
      <path id="path2856_34" class="fil8" d="M448 787c13,-1 17,-11 19,-22 -10,4 -20,9 -19,22zm2 -2c3,0 6,-2 9,-4 3,-4 5,-9 6,-14 -5,2 -10,5 -13,9 -2,3 -2,6 -2,9z"/>
      <path id="path2874_35" class="fil8" d="M439 784c13,-4 13,-15 13,-27 -9,7 -17,15 -13,27zm1 -2c4,-1 6,-3 8,-7 2,-4 3,-10 2,-15 -4,4 -8,8 -10,13 -1,3 -1,6 0,9z"/>
      <path id="path2856_36" class="fil8" d="M445 813c12,-6 10,-17 8,-28 -8,8 -15,18 -8,28zm0 -2c3,-1 6,-4 7,-7 2,-5 1,-10 0,-15 -4,4 -7,8 -8,14 -1,3 0,6 1,8z"/>
      <path id="path2874_37" class="fil8" d="M436 814c9,-9 5,-19 0,-29 -6,10 -9,21 0,29zm0 -2c2,-2 4,-5 4,-9 0,-5 -2,-10 -4,-14 -3,4 -5,10 -4,15 0,3 2,6 4,8z"/>
      <path id="path2856_38" class="fil8" d="M449 841c11,-9 7,-19 2,-29 -6,9 -10,20 -2,29zm1 -3c2,-2 4,-5 4,-8 1,-5 -1,-10 -3,-15 -3,5 -5,10 -5,15 0,3 2,6 4,8z"/>
      <path id="path2874_39" class="fil8" d="M440 843c8,-10 2,-20 -5,-29 -4,11 -6,22 5,29zm-1 -2c2,-3 3,-6 3,-10 -1,-4 -4,-9 -7,-13 -1,5 -2,11 -1,16 1,3 3,5 5,7z"/>
      <path id="path2856_40" class="fil8" d="M462 862c6,-11 -1,-20 -9,-28 -2,11 -3,23 9,28zm-1 -2c1,-3 2,-6 1,-10 -1,-5 -5,-9 -8,-12 -1,5 -1,11 1,15 1,3 3,5 6,7z"/>
      <path id="path2874_41" class="fil8" d="M456 868c2,-13 -8,-19 -18,-23 2,11 5,22 18,23zm-2 -2c1,-3 0,-6 -2,-9 -2,-4 -7,-7 -12,-10 1,6 3,11 6,15 3,2 5,4 8,4z"/>
      <path id="path2856_42" class="fil8" d="M478 878c4,-12 -5,-19 -14,-25 0,11 2,23 14,25zm-1 -2c1,-3 1,-6 -1,-10 -2,-4 -6,-7 -11,-10 1,5 2,11 5,15 2,3 4,4 7,5z"/>
      <path id="path2874_43" class="fil8" d="M476 885c-2,-13 -13,-15 -24,-17 5,10 11,20 24,17zm-2 -1c-1,-4 -2,-7 -5,-9 -4,-3 -9,-4 -14,-5 2,5 6,10 10,12 3,2 6,2 9,2z"/>
      <path id="path2856_44" class="fil8" d="M504 888c-3,-13 -14,-14 -25,-14 6,9 13,17 25,14zm-2 -1c-1,-4 -3,-7 -6,-8 -4,-3 -9,-4 -14,-4 3,5 7,9 11,11 3,1 6,1 9,1z"/>
      <path id="path2874_45" class="fil8" d="M501 898c-5,-12 -16,-12 -27,-10 7,8 16,16 27,10zm-2 -1c-2,-3 -4,-5 -7,-7 -5,-2 -10,-2 -15,-1 3,4 8,8 13,9 3,1 6,0 9,-1z"/>
     </g>
     <g>
      <path id="path2856_46" class="fil8" d="M547 745c-10,9 -19,4 -29,-3 11,-4 22,-7 29,3zm-2 0c-3,2 -6,3 -9,3 -5,0 -10,-3 -14,-5 5,-2 10,-4 16,-3 3,1 5,3 7,5z"/>
      <path id="path2874_47" class="fil8" d="M552 737c-12,6 -20,-2 -27,-11 11,-1 22,0 27,11zm-2 -1c-4,2 -7,2 -10,1 -5,-2 -9,-5 -12,-9 5,-1 11,-1 16,2 2,1 4,4 6,6z"/>
      <path id="path2856_48" class="fil8" d="M571 762c-12,5 -19,-4 -26,-14 12,0 23,2 26,14zm-2 -1c-3,1 -6,1 -10,0 -4,-2 -8,-7 -11,-11 6,0 12,1 16,4 2,2 4,4 5,7z"/>
      <path id="path2874_49" class="fil8" d="M578 756c-13,1 -17,-9 -21,-20 11,3 21,8 21,20zm-1 -1c-4,0 -7,-1 -10,-4 -4,-3 -6,-8 -7,-13 5,2 10,4 13,8 2,3 3,6 4,9z"/>
      <path id="path2856_50" class="fil8" d="M588 787c-13,-1 -17,-11 -19,-22 10,4 20,9 19,22zm-2 -2c-3,0 -6,-2 -9,-4 -3,-4 -5,-9 -6,-14 5,2 10,5 13,9 2,3 2,6 2,9z"/>
      <path id="path2874_51" class="fil8" d="M597 784c-13,-4 -13,-15 -13,-27 9,7 17,15 13,27zm-1 -2c-4,-1 -6,-3 -8,-7 -2,-4 -2,-10 -2,-15 4,4 8,8 10,13 1,3 1,6 0,9z"/>
      <path id="path2856_52" class="fil8" d="M591 813c-12,-6 -10,-17 -8,-28 8,8 15,18 8,28zm0 -2c-3,-1 -6,-4 -7,-7 -1,-5 -1,-10 0,-15 4,4 7,8 8,14 1,3 0,6 -1,8z"/>
      <path id="path2874_53" class="fil8" d="M600 814c-9,-9 -5,-19 0,-29 6,10 10,21 0,29zm0 -2c-2,-2 -4,-5 -4,-9 0,-5 2,-10 4,-14 3,4 5,10 4,15 0,3 -2,6 -4,8z"/>
      <path id="path2856_54" class="fil8" d="M587 841c-11,-9 -7,-19 -2,-29 6,9 10,20 2,29zm0 -3c-3,-2 -5,-5 -5,-8 -1,-5 1,-10 4,-15 2,5 4,10 4,15 0,3 -1,6 -3,8z"/>
      <path id="path2874_55" class="fil8" d="M597 843c-9,-10 -3,-20 4,-29 4,11 6,22 -4,29zm0 -2c-2,-3 -3,-6 -3,-10 1,-4 4,-9 7,-13 1,5 2,11 1,16 -1,3 -3,5 -5,7z"/>
      <path id="path2856_56" class="fil8" d="M574 862c-6,-11 1,-20 9,-28 2,11 3,23 -9,28zm1 -2c-1,-3 -2,-6 -1,-10 1,-5 5,-9 8,-12 1,5 1,11 -1,15 -1,3 -3,5 -6,7z"/>
      <path id="path2874_57" class="fil8" d="M580 868c-2,-13 8,-19 18,-23 -2,11 -5,22 -18,23zm2 -2c-1,-3 0,-6 2,-9 2,-4 7,-7 12,-10 -1,6 -3,11 -6,15 -3,2 -5,4 -8,4z"/>
      <path id="path2856_58" class="fil8" d="M558 878c-4,-12 5,-19 14,-25 0,11 -2,23 -14,25zm1 -2c-1,-3 -1,-6 1,-10 2,-4 6,-7 11,-10 -1,5 -2,11 -5,15 -2,3 -4,4 -7,5z"/>
      <path id="path2874_59" class="fil8" d="M560 885c2,-13 13,-15 24,-17 -5,10 -11,20 -24,17zm2 -1c1,-4 2,-7 5,-9 4,-3 9,-4 14,-5 -2,5 -6,10 -10,12 -3,2 -6,2 -9,2z"/>
      <path id="path2856_60" class="fil8" d="M532 888c3,-13 14,-14 25,-14 -6,9 -13,17 -25,14zm2 -1c1,-4 3,-7 6,-8 4,-3 9,-4 14,-4 -3,5 -7,9 -11,11 -3,1 -6,1 -9,1z"/>
      <path id="path2874_61" class="fil8" d="M535 898c5,-12 16,-12 27,-10 -7,8 -16,16 -27,10zm2 -1c2,-3 4,-5 7,-7 5,-2 10,-2 15,-1 -3,4 -8,8 -13,9 -3,1 -6,0 -9,-1z"/>
     </g>
    </g>
    <path class="fil8" d="M517 897c-1,0 -1,1 -2,1 -3,2 -6,3 -10,3l-1 1 0 -3 1 0c3,0 6,-2 9,-3 0,0 0,0 1,-1 -3,-2 -6,-5 -5,-9 0,-3 3,-6 7,-6 4,0 6,3 7,6 0,4 -2,7 -5,9 0,1 0,1 1,1 2,1 5,3 8,3l1 0 0 3 -1 -1c-3,0 -7,-1 -10,-3 0,0 -1,-1 -1,-1zm0 -3c2,-2 5,-5 4,-7 0,-3 -2,-5 -4,-5 -3,0 -4,2 -5,5 0,2 2,5 5,7z"/>
   </g>
   <g>
    <path class="fil1" d="M518 1298c4,0 8,3 11,8 1,-5 4,-8 7,-9 3,-1 7,-1 10,1 0,-4 2,-8 5,-10 3,-3 8,-3 13,-1 -2,-5 -2,-9 1,-13 2,-3 8,-5 14,-4 -3,-4 -4,-9 -3,-12 1,-3 4,-6 8,-7 -5,-4 -8,-7 -8,-11 0,-4 3,-8 8,-11 -5,-2 -8,-4 -9,-8 -1,-3 0,-6 2,-9 -5,-1 -9,-2 -11,-5 -2,-3 -2,-8 0,-13 -6,1 -10,1 -13,-1 -4,-3 -6,-8 -5,-15 -4,4 -8,5 -12,4 -3,-1 -6,-4 -7,-8 -3,5 -7,7 -11,7 -4,0 -8,-2 -11,-7 -1,5 -4,8 -7,9 -3,1 -7,0 -10,-2 0,5 -2,8 -4,11 -4,2 -9,2 -14,0 2,5 2,10 -1,13 -2,4 -8,5 -14,5 3,4 4,8 3,12 -1,3 -4,5 -8,7 5,3 8,7 8,11 0,4 -3,7 -8,11 5,1 8,4 9,7 1,3 1,7 -1,10 4,0 8,1 10,4 2,4 2,8 0,14 6,-2 10,-2 13,0 4,3 6,8 5,15 4,-3 8,-4 12,-3 3,1 6,3 7,7 3,-4 7,-7 11,-7zm53 -160c12,-10 26,-14 29,-11 4,2 5,18 -2,34 15,-7 30,-7 33,-3 3,3 0,15 -8,27 21,-4 41,2 42,7 2,4 -6,15 -19,24 36,1 64,17 64,24 0,6 -27,22 -61,23 12,9 19,19 18,23 -2,5 -24,12 -47,7 10,12 14,25 11,29 -3,4 -18,5 -34,-2 7,15 7,30 3,33 -3,2 -15,0 -27,-9 4,22 -2,41 -7,43 -4,1 -15,-6 -24,-19 -1,36 -17,64 -24,64 -7,0 -22,-27 -24,-61 -8,12 -19,19 -22,18 -6,-2 -13,-24 -7,-47 -12,10 -26,13 -29,11 -4,-3 -5,-18 2,-34 -15,7 -30,6 -33,3 -3,-3 0,-16 8,-27 -21,4 -41,-2 -42,-7 -2,-4 6,-15 19,-25 -36,0 -64,-17 -64,-23 0,-7 27,-22 61,-24 -12,-9 -19,-19 -18,-23 2,-5 24,-12 47,-6 -10,-12 -14,-26 -11,-29 3,-4 18,-5 34,2 -7,-15 -7,-31 -3,-33 3,-3 15,0 27,8 -4,-22 2,-41 7,-43 4,-1 15,6 24,20 1,-36 17,-65 24,-65 7,0 22,27 24,62 8,-13 19,-19 22,-18 6,2 13,23 7,47z"/>
    <path class="fil2" d="M595 1215c-2,-6 8,-15 22,-19 13,-5 30,-4 36,0 -3,6 -16,17 -29,21 -14,5 -27,4 -29,-2zm11 25c0,-7 17,-13 37,-13 21,0 42,7 50,13 -8,6 -29,13 -50,13 -20,0 -37,-6 -37,-13zm-10 24c2,-6 15,-7 29,-3 14,5 27,15 30,21 -7,4 -23,5 -37,1 -14,-5 -23,-13 -22,-19zm-16 21c3,-5 14,-3 24,5 10,7 18,19 18,26 -6,1 -20,-2 -30,-9 -10,-7 -16,-17 -12,-22zm-18 18c4,-4 14,1 22,11 7,10 11,24 10,30 -7,0 -19,-7 -27,-17 -8,-10 -10,-21 -5,-24zm-19 14c6,-2 14,8 19,21 4,14 3,31 0,37 -7,-3 -17,-16 -21,-30 -5,-13 -4,-26 2,-28zm-25 11c7,0 13,17 13,37 0,21 -7,42 -13,49 -6,-7 -13,-28 -13,-49 0,-20 6,-37 13,-37zm-24 -10c6,2 7,15 3,29 -5,13 -15,26 -22,30 -3,-7 -4,-23 0,-37 4,-14 13,-24 19,-22zm-21 -17c5,4 2,15 -5,25 -7,10 -19,17 -26,18 -1,-6 2,-20 9,-31 7,-10 17,-15 22,-12zm-18 -18c4,5 -1,15 -11,22 -10,8 -24,12 -30,10 0,-6 7,-19 17,-26 10,-8 21,-10 24,-6zm-14 -18c2,6 -8,14 -22,19 -13,4 -30,3 -36,0 3,-7 16,-17 29,-22 14,-4 27,-3 29,3zm-11 -25c0,7 -17,13 -37,13 -21,0 -42,-7 -49,-13 7,-6 28,-13 49,-13 20,0 37,6 37,13zm10 -25c-2,6 -15,8 -29,3 -14,-4 -26,-14 -30,-21 7,-3 23,-4 37,0 14,4 24,12 22,18zm16 -21c-3,5 -14,3 -24,-4 -10,-7 -18,-19 -18,-26 6,-2 20,2 30,9 10,7 16,17 12,21zm18 -17c-4,4 -14,-2 -22,-11 -7,-10 -11,-24 -10,-31 7,1 20,8 27,18 8,10 10,20 5,24zm19 -14c-6,2 -14,-8 -19,-22 -4,-14 -3,-30 0,-37 7,4 17,16 22,30 4,14 3,27 -3,29zm25 -12c-7,0 -13,-16 -13,-37 0,-20 7,-42 13,-49 6,7 13,29 13,49 0,21 -6,37 -13,37zm24 10c-5,-1 -7,-14 -2,-28 4,-14 14,-27 21,-30 3,6 4,23 0,37 -4,14 -13,23 -19,21zm21 17c-4,-3 -2,-14 5,-24 7,-10 19,-18 26,-18 1,6 -2,20 -9,30 -7,10 -17,16 -22,12zm18 18c-4,-4 1,-14 11,-22 10,-8 24,-11 30,-10 0,7 -7,19 -17,27 -10,7 -21,10 -24,5z"/>
    <path class="fil3" d="M511 1247l-122 44 -1 -5c-4,-15 -6,-31 -6,-46 0,-16 2,-32 6,-47l1 -4 122 44 -44 -122 4 -1c16,-4 31,-6 47,-6 16,0 31,2 47,6l4 1 -44 122 122 -44 1 4c4,15 6,31 6,47 0,15 -2,31 -6,46l-1 5 -122 -44 44 122 -4 1c-16,4 -31,6 -47,6 -16,0 -31,-2 -47,-6l-4 -1 44 -122z"/>
    <path class="fil4" d="M479 1363c12,2 26,4 39,4 13,0 27,-2 40,-4l-40 -109 -39 109zm53 -123l109 39c3,-13 4,-26 4,-39 0,-14 -1,-27 -4,-40l-109 40zm-14 -14l40 -109c-13,-3 -27,-4 -40,-4 -13,0 -27,1 -39,4l39 109zm-14 14l-109 -40c-3,13 -4,26 -4,40 0,13 1,26 4,39l109 -39z"/>
    <circle class="fil2" cx="518" cy="1240" r="95"/>
    <circle class="fil1" cx="518" cy="1240" r="60"/>
    <path class="fil5" d="M489 1285l2 -4 2 0c-1,1 -1,2 -1,3 1,1 1,1 2,2l0 0 4 -8c0,0 0,-1 0,-1 0,0 0,0 0,0 0,0 0,0 -1,-1 0,0 0,0 -1,0l1 -2 7 4 0 1c-1,0 -1,0 -1,0 -1,0 -1,0 -1,0 0,0 0,0 -1,0 0,0 0,0 0,0l0 1 -4 7 1 0c0,1 1,1 2,0 0,0 1,-1 2,-2l1 1 -2 5 -12 -6z"/>
    <path id="1" class="fil5" d="M484 1274l-1 -1c0,-1 -1,-1 -1,-1 -1,0 -1,0 -2,0 0,1 -1,1 0,2 0,0 0,1 1,1l1 1 2 -2zm4 -3c0,-1 0,-1 0,-1 0,0 0,-1 0,-1l-1 -1 2 -1 5 6 -1 1 -1 -1c0,0 0,0 -1,0 0,0 0,0 -1,0l-5 5c0,1 -1,1 -1,1 0,0 1,1 1,1l0 1 -1 1 -6 -7c-1,-1 -2,-2 -2,-3 0,-1 0,-2 1,-2 1,-1 2,-1 2,-1 1,0 2,0 3,1 -1,-1 -1,-1 -1,-2 0,-1 0,-1 1,-2l1 -1c0,0 1,0 1,0 0,-1 0,-1 0,-1 -1,0 -1,0 -1,0 0,0 -1,0 -1,1l-1 -1c0,0 0,0 0,0 0,0 0,0 0,0 1,-1 2,-2 2,-2 1,0 2,1 3,1 1,1 1,2 1,3 0,1 -1,1 -2,2l0 1c-1,1 -1,1 -1,1 0,1 0,1 0,2l2 1 2 -2z"/>
    <path id="2" class="fil5" d="M483 1261l-1 0 -1 0c0,-1 0,-1 0,-1 0,0 -1,0 -1,0l-7 3c0,0 -1,1 -1,1 0,0 0,0 0,1l1 0 -2 1 -3 -7 2 -1 0 1c0,0 0,1 0,1 1,0 1,0 1,0l7 -3c1,-1 1,-1 1,-1 0,0 0,-1 0,-1l0 -1 1 -1 3 8z"/>
    <path id="3" class="fil5" d="M472 1247l-4 2 5 0 -1 -2zm8 6l-2 1 0 -1c0,0 0,-1 -1,-1 0,0 0,0 -1,0l-10 -2 -1 -4 9 -5c1,0 1,0 1,0 0,-1 1,-1 0,-1l0 -1 2 0 1 7 -1 0 0 0c-1,-1 -1,-1 -1,-1 0,0 0,0 0,0 0,0 0,0 0,0 0,0 -1,0 -1,0l-1 1 1 3 1 1c0,0 0,0 0,0 1,0 1,0 1,0 0,0 0,0 0,-1 0,0 0,0 0,0l0 -1 2 0 1 5z"/>
    <path id="4" class="fil5" d="M470 1223c0,0 -1,0 -1,0 0,0 0,1 0,1l-1 1 -1 -1 2 -7 2 1 0 0c-1,1 -1,1 -1,1 1,0 1,1 1,1l6 2c2,0 3,1 3,2 1,1 1,2 0,4 0,1 -1,2 -2,3 -1,0 -2,1 -3,0 -1,0 -1,0 -2,-1 0,0 0,-1 0,-2 0,0 1,-1 1,-1 1,0 1,0 2,0 0,0 0,0 1,1 0,0 0,1 0,1 0,0 0,0 -1,0 0,1 0,1 0,1 1,0 1,-1 1,-1 1,0 1,0 1,-1 0,-1 0,-1 0,-2 -1,0 -1,0 -2,-1l-6 -2z"/>
    <path id="5" class="fil5" d="M473 1213l-1 -1 4 -6 2 1c0,0 -1,0 -1,1 0,0 0,0 0,0 0,0 0,1 0,1 0,0 0,1 1,1l4 3c1,1 2,1 2,1 1,0 1,0 2,-1 0,0 1,-1 0,-2 0,0 0,-1 -1,-1l-4 -4c-1,0 -1,-1 -1,-1 -1,0 -1,1 -1,1 -1,0 -1,0 -1,0 0,0 0,0 0,1l-1 -2 4 -4 1 1c0,0 -1,1 -1,1 0,0 0,0 0,0 0,0 0,1 0,1 1,0 1,0 1,1l5 3c1,1 2,2 2,3 0,1 -1,3 -2,4 -1,1 -2,2 -3,3 -2,0 -3,0 -4,-1l-4 -4c-1,0 -2,-1 -2,-1 0,0 0,0 -1,1 0,0 0,0 0,0 0,0 0,0 0,0z"/>
    <path id="6" class="fil5" d="M488 1198c0,0 0,0 0,0 -1,0 -1,0 -1,0l-1 0 -1 -1 6 -3 9 5 -3 -5c-1,-1 -1,-1 -1,-1 0,0 -1,0 -1,0l-1 1 -1 -2 6 -3 1 2 -1 0c0,0 -1,0 -1,1 0,0 0,0 1,1l5 9 -4 2 -9 -6 3 6c0,0 0,1 1,1 0,0 0,0 1,-1l0 0 1 1 -5 3 -1 -1 1 0c0,-1 0,-1 0,-1 0,0 0,-1 0,-1l-4 -7z"/>
    <path id="7" class="fil5" d="M517 1194l2 0c0,2 0,3 -1,4 -1,1 -2,2 -4,2 -2,0 -4,0 -6,-1 -1,-1 -2,-3 -2,-5 0,-1 0,-2 0,-3 0,-1 0,-2 1,-2 1,-1 1,-2 2,-2 1,0 2,-1 3,-1 0,0 1,0 2,0 0,0 1,1 2,1l0 -1 2 0 0 5 -1 0c-1,-1 -1,-2 -2,-2 0,-1 -1,-1 -2,-1 -1,0 -2,1 -3,2 0,1 0,2 0,4 0,1 1,2 1,3 1,1 2,1 3,1 1,0 2,0 2,-1 1,-1 1,-2 1,-3z"/>
    <path id="8" class="fil5" d="M537 1189l-1 5 -2 0c0,-1 0,-2 0,-3 -1,0 -1,-1 -2,-1l0 0 -2 8c0,1 0,1 0,1 0,0 0,0 0,0 0,0 0,0 0,1 1,0 1,0 2,0l-1 2 -8 -2 1 -2c0,0 1,0 1,0 0,0 0,0 1,0 0,0 0,0 0,0 0,0 0,0 0,-1l0 0 2 -8 0 0c-1,0 -2,0 -2,0 -1,1 -1,2 -1,3l-2 -1 1 -5 13 3z"/>
    <path id="9" class="fil5" d="M543 1201l1 -4 -3 2 2 2zm-10 1l1 -2 0 0c1,1 1,1 1,1 1,0 1,0 1,-1l9 -7 3 2 -3 11c0,0 0,1 0,1 0,0 1,1 1,1l0 0 -1 2 -6 -4 1 -2 1 0c0,1 0,1 1,1 0,0 0,0 0,0 0,0 0,0 0,-1 0,0 0,0 0,0l1 -1 -4 -2 -1 1c0,0 0,0 0,0 0,0 0,0 0,0 0,0 0,0 0,0 0,1 0,1 0,1l1 0 -1 2 -5 -3z"/>
    <path id="10" class="fil5" d="M550 1215l1 -1 1 0c0,1 0,1 0,1 0,0 1,0 1,0l7 -4c0,0 0,-1 0,-1 0,0 0,0 0,-1l0 0 1 -1 4 6 -1 1 -1 0c0,-1 0,-1 0,-1 -1,0 -1,0 -1,0l-7 4c0,0 0,1 0,1 0,0 0,0 0,1l0 0 -1 1 -4 -6z"/>
    <path id="11" class="fil5" d="M565 1221c1,0 1,0 1,0 0,-1 0,-1 0,-1l0 -1 2 -1 1 7 -7 7 6 -2c0,0 1,0 1,0 0,0 0,-1 0,-1l-1 -1 2 0 2 5 -2 1 0 -1c0,0 0,-1 -1,-1 0,0 0,0 -1,0l-10 3 -1 -4 8 -8 -6 2c-1,0 -1,0 -1,1 0,0 0,0 0,1l0 0 -2 1 -1 -6 1 -1 1 1c0,1 0,1 0,1 0,0 1,0 1,0l7 -2z"/>
    <path id="12" class="fil5" d="M570 1247l1 1 -2 7 -1 0c0,0 0,0 0,-1 0,0 0,0 0,0 0,0 0,-1 0,-1 0,0 -1,-1 -2,-1l-5 -1c-1,0 -2,-1 -2,0 -1,0 -1,0 -1,1 0,1 0,2 0,2 0,1 1,1 2,2l5 1c1,0 1,0 2,0 0,0 0,0 0,-1 0,0 0,0 0,0 0,0 0,0 0,0l2 0 -2 6 -1 -1c0,0 0,0 0,-1 0,0 0,0 0,0 0,0 0,0 0,0 -1,-1 -1,-1 -2,-1l-5 -1c-2,-1 -2,-2 -3,-3 0,-1 0,-2 0,-4 1,-2 1,-3 2,-3 1,-1 2,-1 4,-1l5 2c1,0 2,0 2,0 0,0 0,-1 1,-1 0,0 0,0 0,0 0,0 0,0 0,-1z"/>
    <path id="13" class="fil5" d="M561 1267c0,0 1,1 1,0 0,0 0,0 1,0l0 -1 1 1 -4 5 -10 -1 5 4c0,0 1,0 1,0 0,0 0,0 1,-1l0 0 2 1 -4 5 -2 -1 1 -1c0,0 0,-1 0,-1 0,0 0,0 0,-1l-9 -6 3 -3 11 2 -5 -5c-1,0 -1,0 -1,0 0,0 -1,0 -1,0l-1 1 -1 -1 4 -5 1 1 0 1c0,0 -1,0 -1,1 0,0 1,0 1,0l6 5z"/>
    <path id="14" class="fil5" d="M542 1280c0,-2 -1,-3 -2,-3 -1,-1 -2,-1 -3,0 -1,0 -1,1 -1,2 0,1 0,2 1,4 1,1 1,2 2,3 1,1 2,1 3,0 1,0 2,-1 2,-2 0,-1 -1,-2 -2,-4zm4 -2c1,2 2,4 1,5 -1,2 -2,4 -4,5 -2,1 -4,1 -6,0 -2,0 -3,-1 -4,-3 -1,-2 -1,-4 -1,-6 1,-1 2,-3 4,-4 2,-1 4,-1 6,-1 2,1 3,2 4,4z"/>
    <circle class="fil6" cx="518" cy="1240" r="40"/>
    <circle class="fil7" cx="518" cy="1240" r="37"/>
    <circle class="fil1" cx="518" cy="1240" r="34"/>
    <path class="fil8" d="M520 1246c3,1 10,3 11,8l-4 12c-6,-1 -12,-1 -18,0l-4 -12c1,-5 8,-7 11,-8 0,0 0,0 0,0 0,-1 1,-2 2,-2 1,0 2,1 2,2 0,0 0,0 0,0z"/>
    <circle class="fil8" cx="518" cy="1287" r="5"/>
    <path class="fil8" d="M505 1220c4,1 10,4 11,9l-4 12c-6,-1 -12,-1 -17,0l-4 -12c0,-5 7,-8 11,-9 0,0 0,0 0,0 0,-1 0,-2 1,-2 1,0 2,1 2,2 0,0 0,0 0,0z"/>
    <path class="fil8" d="M534 1220c4,1 11,4 12,9l-5 12c-5,-1 -11,-1 -17,0l-4 -12c1,-5 8,-8 11,-9 0,0 0,0 0,0 0,-1 1,-2 2,-2 1,0 1,1 1,2 0,0 0,0 0,0z"/>
    <g>
     <g>
      <path id="path2856_62" class="fil8" d="M489 1172c10,9 20,4 29,-3 -11,-4 -22,-7 -29,3zm2 0c3,2 6,3 9,3 5,0 10,-3 14,-5 -5,-2 -10,-4 -15,-3 -3,1 -6,3 -8,5z"/>
      <path id="path2874_63" class="fil8" d="M484 1164c12,6 20,-2 27,-11 -11,-1 -22,-1 -27,11zm3 -1c3,2 6,2 9,1 5,-2 9,-6 12,-9 -5,-1 -11,-1 -15,2 -3,1 -5,3 -6,6z"/>
      <path id="path2856_64" class="fil8" d="M465 1189c12,4 19,-4 26,-14 -12,0 -23,2 -26,14zm2 -1c3,1 7,1 10,-1 4,-2 8,-6 11,-10 -6,0 -12,1 -16,4 -2,2 -4,4 -5,7z"/>
      <path id="path2874_65" class="fil8" d="M458 1183c13,1 18,-9 21,-20 -11,3 -21,8 -21,20zm1 -1c4,-1 7,-1 10,-4 4,-3 6,-8 7,-13 -5,2 -10,4 -13,8 -2,3 -3,5 -4,9z"/>
      <path id="path2856_66" class="fil8" d="M448 1214c13,-1 17,-12 19,-23 -10,4 -20,10 -19,23zm2 -2c3,0 6,-2 9,-4 3,-4 5,-9 6,-14 -5,2 -10,5 -13,9 -2,3 -2,6 -2,9z"/>
      <path id="path2874_67" class="fil8" d="M439 1211c13,-4 13,-16 13,-27 -9,7 -17,15 -13,27zm1 -2c4,-2 6,-4 8,-7 2,-4 3,-10 2,-15 -4,4 -8,8 -10,13 -1,3 -1,6 0,9z"/>
      <path id="path2856_68" class="fil8" d="M445 1240c12,-6 10,-17 8,-28 -8,8 -15,18 -8,28zm0 -2c3,-2 6,-4 7,-7 2,-5 1,-11 0,-15 -4,3 -7,8 -8,13 -1,3 0,6 1,9z"/>
      <path id="path2874_69" class="fil8" d="M436 1241c9,-9 5,-19 0,-29 -6,10 -9,21 0,29zm0 -2c2,-2 4,-5 4,-9 0,-5 -2,-10 -4,-14 -3,4 -5,10 -4,15 0,3 2,6 4,8z"/>
      <path id="path2856_70" class="fil8" d="M449 1268c11,-9 7,-20 2,-30 -6,10 -10,21 -2,30zm1 -3c2,-2 4,-5 4,-8 1,-5 -1,-11 -3,-15 -3,4 -5,10 -5,15 0,3 2,6 4,8z"/>
      <path id="path2874_71" class="fil8" d="M440 1270c8,-10 2,-20 -5,-29 -4,11 -6,22 5,29zm-1 -2c2,-3 3,-6 3,-10 -1,-5 -4,-9 -7,-13 -1,5 -2,11 -1,15 1,4 3,6 5,8z"/>
      <path id="path2856_72" class="fil8" d="M462 1289c6,-12 -1,-20 -9,-28 -2,11 -3,23 9,28zm-1 -2c1,-3 2,-7 1,-10 -1,-5 -5,-9 -8,-13 -1,6 -1,12 1,16 1,3 3,5 6,7z"/>
      <path id="path2874_73" class="fil8" d="M456 1295c2,-13 -8,-19 -18,-23 2,11 5,22 18,23zm-2 -2c1,-3 0,-7 -2,-10 -2,-4 -7,-6 -12,-9 1,6 3,11 6,15 3,2 5,4 8,4z"/>
      <path id="path2856_74" class="fil8" d="M478 1305c4,-13 -5,-19 -14,-25 0,11 2,22 14,25zm-1 -2c1,-3 1,-6 -1,-10 -2,-4 -6,-7 -11,-10 1,5 2,11 5,15 2,3 4,4 7,5z"/>
      <path id="path2874_75" class="fil8" d="M476 1312c-2,-13 -13,-16 -24,-17 5,10 11,19 24,17zm-2 -1c-1,-4 -2,-7 -5,-9 -4,-3 -9,-4 -14,-5 2,5 6,10 10,12 3,2 6,2 9,2z"/>
      <path id="path2856_76" class="fil8" d="M504 1314c-3,-12 -14,-14 -25,-14 6,10 13,18 25,14zm-2 -1c-1,-3 -3,-6 -6,-8 -4,-2 -9,-3 -14,-3 3,4 7,9 11,11 3,1 6,1 9,0z"/>
      <path id="path2874_77" class="fil8" d="M501 1325c-5,-12 -16,-12 -27,-10 7,8 16,16 27,10zm-2 -1c-2,-3 -4,-5 -7,-7 -5,-2 -10,-2 -15,-1 3,4 8,8 13,9 3,1 6,0 9,-1z"/>
     </g>
     <g>
      <path id="path2856_78" class="fil8" d="M547 1172c-10,9 -19,4 -29,-3 11,-4 22,-7 29,3zm-2 0c-3,2 -6,3 -9,3 -5,0 -10,-3 -14,-5 5,-2 10,-4 16,-3 3,1 5,3 7,5z"/>
      <path id="path2874_79" class="fil8" d="M552 1164c-12,6 -20,-2 -27,-11 11,-1 22,-1 27,11zm-2 -1c-4,2 -7,2 -10,1 -5,-2 -9,-6 -12,-9 5,-1 11,-1 16,2 2,1 4,3 6,6z"/>
      <path id="path2856_80" class="fil8" d="M571 1189c-12,4 -19,-4 -26,-14 12,0 23,2 26,14zm-2 -1c-3,1 -6,1 -10,-1 -4,-2 -8,-6 -11,-10 6,0 12,1 16,4 2,2 4,4 5,7z"/>
      <path id="path2874_81" class="fil8" d="M578 1183c-13,1 -17,-9 -21,-20 11,3 21,8 21,20zm-1 -1c-4,-1 -7,-1 -10,-4 -4,-3 -6,-8 -7,-13 5,2 10,4 13,8 2,3 3,5 4,9z"/>
      <path id="path2856_82" class="fil8" d="M588 1214c-13,-1 -17,-12 -19,-23 10,4 20,10 19,23zm-2 -2c-3,0 -6,-2 -9,-4 -3,-4 -5,-9 -6,-14 5,2 10,5 13,9 2,3 2,6 2,9z"/>
      <path id="path2874_83" class="fil8" d="M597 1211c-13,-4 -13,-16 -13,-27 9,7 17,15 13,27zm-1 -2c-4,-2 -6,-4 -8,-7 -2,-4 -2,-10 -2,-15 4,4 8,8 10,13 1,3 1,6 0,9z"/>
      <path id="path2856_84" class="fil8" d="M591 1240c-12,-6 -10,-17 -8,-28 8,8 15,18 8,28zm0 -2c-3,-2 -6,-4 -7,-7 -1,-5 -1,-11 0,-15 4,3 7,8 8,13 1,3 0,6 -1,9z"/>
      <path id="path2874_85" class="fil8" d="M600 1241c-9,-9 -5,-19 0,-29 6,10 10,21 0,29zm0 -2c-2,-2 -4,-5 -4,-9 0,-5 2,-10 4,-14 3,4 5,10 4,15 0,3 -2,6 -4,8z"/>
      <path id="path2856_86" class="fil8" d="M587 1268c-11,-9 -7,-20 -2,-30 6,10 10,21 2,30zm0 -3c-3,-2 -5,-5 -5,-8 -1,-5 1,-11 4,-15 2,4 4,10 4,15 0,3 -1,6 -3,8z"/>
      <path id="path2874_87" class="fil8" d="M597 1270c-9,-10 -3,-20 4,-29 4,11 6,22 -4,29zm0 -2c-2,-3 -3,-6 -3,-10 1,-5 4,-9 7,-13 1,5 2,11 1,15 -1,4 -3,6 -5,8z"/>
      <path id="path2856_88" class="fil8" d="M574 1289c-6,-12 1,-20 9,-28 2,11 3,23 -9,28zm1 -2c-1,-3 -2,-7 -1,-10 1,-5 5,-9 8,-13 1,6 1,12 -1,16 -1,3 -3,5 -6,7z"/>
      <path id="path2874_89" class="fil8" d="M580 1295c-2,-13 8,-19 18,-23 -2,11 -5,22 -18,23zm2 -2c-1,-3 0,-7 2,-10 2,-4 7,-6 12,-9 -1,6 -3,11 -6,15 -3,2 -5,4 -8,4z"/>
      <path id="path2856_90" class="fil8" d="M558 1305c-4,-13 5,-19 14,-25 0,11 -2,22 -14,25zm1 -2c-1,-3 -1,-6 1,-10 2,-4 6,-7 11,-10 -1,5 -2,11 -5,15 -2,3 -4,4 -7,5z"/>
      <path id="path2874_91" class="fil8" d="M560 1312c2,-13 13,-16 24,-17 -5,10 -11,19 -24,17zm2 -1c1,-4 2,-7 5,-9 4,-3 9,-4 14,-5 -2,5 -6,10 -10,12 -3,2 -6,2 -9,2z"/>
      <path id="path2856_92" class="fil8" d="M532 1314c3,-12 14,-14 25,-14 -6,10 -13,18 -25,14zm2 -1c1,-3 3,-6 6,-8 4,-2 9,-3 14,-3 -3,4 -7,9 -11,11 -3,1 -6,1 -9,0z"/>
      <path id="path2874_93" class="fil8" d="M535 1325c5,-12 16,-12 27,-10 -7,8 -16,16 -27,10zm2 -1c2,-3 4,-5 7,-7 5,-2 10,-2 15,-1 -3,4 -8,8 -13,9 -3,1 -6,0 -9,-1z"/>
     </g>
    </g>
    <path class="fil8" d="M517 1324c-1,0 -1,1 -2,1 -3,1 -6,3 -10,3l-1 0 0 -2 1 0c3,0 6,-2 9,-3 0,0 0,-1 1,-1 -3,-2 -6,-5 -5,-9 0,-3 3,-7 7,-7 4,0 6,4 7,7 0,4 -2,7 -5,9 0,0 0,1 1,1 2,1 5,3 8,3l1 0 0 2 -1 0c-3,0 -7,-2 -10,-3 0,0 -1,-1 -1,-1zm0 -3c2,-2 5,-5 4,-8 0,-2 -2,-4 -4,-4 -3,0 -4,2 -5,4 0,3 2,6 5,8z"/>
   </g>
  </g>
 </g>
</svg>