<?xml version="1.0" encoding="UTF-8"?>
<!DOCTYPE svg PUBLIC "-//W3C//DTD SVG 1.1//EN" "http://www.w3.org/Graphics/SVG/1.1/DTD/svg11.dtd">
<!-- Creator: CorelDRAW X8 -->
<svg xmlns="http://www.w3.org/2000/svg" xml:space="preserve" width="100mm" height="100mm" version="1.1" style="shape-rendering:geometricPrecision; text-rendering:geometricPrecision; image-rendering:optimizeQuality; fill-rule:evenodd; clip-rule:evenodd" viewBox="0 0 10000 10000" xmlns:xlink="http://www.w3.org/1999/xlink">
 <defs>
  <style type="text/css">
   <![CDATA[
    .str0 {stroke:#FEFEFE;stroke-width:25}
    .fil6 {fill:none}
    .fil0 {fill:#2B2A29}
    .fil3 {fill:#CFB500}
    .fil2 {fill:#E6CD54}
    .fil1 {fill:#F6DF77}
    .fil4 {fill:#FFEFA7}
    .fil7 {fill:#E6CD54;fill-rule:nonzero}
    .fil5 {fill:#FFEFA7;fill-rule:nonzero}
   ]]>
  </style>
 </defs>
 <g id="Layer_x0020_1">
  <metadata id="CorelCorpID_0Corel-Layer"/>
  <rect class="fil0 str0" width="10000" height="10000"/>
  <g id="_1992215820928">
   <path class="fil1" d="M5000 3237c22,0 42,15 60,41 9,-26 24,-44 43,-50 16,-5 35,-2 54,9 1,-25 8,-45 24,-57 19,-14 46,-14 76,-4 -10,-28 -10,-54 3,-72 15,-21 45,-29 82,-25 -18,-23 -25,-47 -19,-67 6,-18 21,-31 43,-41 -26,-18 -41,-38 -41,-60 0,-21 15,-42 41,-60 -25,-9 -43,-23 -49,-43 -6,-16 -2,-35 9,-54 -25,0 -45,-8 -57,-24 -14,-18 -15,-45 -4,-76 -28,10 -54,10 -72,-3 -21,-15 -29,-45 -25,-82 -24,18 -47,26 -67,19 -18,-5 -32,-20 -41,-43 -18,26 -38,41 -60,41 -22,0 -42,-15 -60,-41 -9,26 -24,43 -43,50 -16,5 -35,1 -54,-10 -1,25 -8,46 -24,57 -19,15 -46,15 -76,4 10,29 10,54 -3,72 -15,21 -45,29 -82,25 18,24 25,47 19,68 -6,17 -21,31 -43,40 26,18 41,39 41,60 0,22 -15,43 -41,61 25,9 43,23 49,42 6,17 2,35 -9,54 25,1 45,9 57,24 14,19 15,46 4,77 28,-11 54,-11 72,2 21,15 29,45 25,82 24,-18 47,-25 67,-19 18,6 32,21 41,43 18,-26 38,-40 60,-40zm295 -894c67,-56 143,-76 163,-62 20,15 26,102 -13,189 85,-39 170,-36 185,-17 14,18 -1,87 -47,153 121,-24 229,11 238,39 7,22 -34,84 -107,134 199,5 358,95 358,132 0,37 -150,123 -341,132 67,48 105,106 99,127 -10,29 -131,68 -262,36 56,68 76,144 62,163 -15,21 -102,26 -189,-12 39,84 37,169 17,184 -18,14 -87,0 -153,-47 24,121 -10,229 -38,238 -22,8 -84,-33 -135,-106 -5,198 -94,357 -132,357 -37,0 -123,-150 -131,-341 -49,68 -106,106 -127,99 -30,-9 -68,-131 -37,-262 -67,57 -143,76 -163,62 -20,-14 -26,-102 13,-189 -85,40 -170,37 -185,17 -14,-18 1,-87 47,-152 -121,23 -229,-11 -238,-39 -7,-22 34,-84 107,-135 -199,-4 -358,-94 -358,-132 0,-36 150,-122 341,-131 -67,-49 -105,-106 -99,-127 10,-30 131,-68 262,-36 -56,-68 -76,-144 -62,-164 15,-20 102,-26 189,13 -39,-85 -37,-170 -17,-185 18,-14 87,1 153,48 -24,-121 10,-230 38,-239 22,-7 84,34 135,107 5,-199 94,-357 132,-357 37,0 123,150 131,341 49,-68 106,-106 127,-99 30,9 68,131 37,261z"/>
   <path class="fil2" d="M5430 2772c-11,-33 43,-80 120,-105 76,-25 168,-20 204,-1 -18,37 -89,95 -166,120 -77,25 -148,19 -158,-14zm63 139c0,-40 92,-73 206,-73 113,0 233,39 274,73 -41,35 -161,73 -274,73 -114,0 -206,-32 -206,-73zm-56 136c10,-33 81,-40 158,-16 77,24 149,81 167,118 -36,20 -127,26 -204,2 -77,-24 -132,-71 -121,-104zm-94 117c19,-27 80,-16 136,25 57,40 98,108 102,145 -36,8 -114,-9 -170,-49 -57,-41 -87,-95 -68,-121zm-100 97c26,-20 81,9 123,64 42,55 62,132 55,168 -37,-2 -106,-41 -148,-96 -43,-55 -56,-116 -30,-136zm-103 80c33,-11 79,43 104,120 25,77 20,168 1,204 -37,-18 -95,-89 -120,-165 -25,-77 -18,-148 15,-159zm-140 63c40,0 73,92 73,206 0,114 -38,234 -73,274 -35,-40 -73,-160 -73,-274 0,-114 33,-206 73,-206zm-136 -56c33,10 40,81 16,158 -24,77 -81,149 -117,168 -20,-36 -26,-128 -2,-205 24,-77 70,-131 103,-121zm-116 -94c26,19 15,80 -25,137 -41,56 -109,98 -146,101 -8,-36 9,-114 50,-170 40,-56 94,-87 121,-68zm-98 -100c20,26 -9,81 -64,124 -55,42 -132,62 -168,54 2,-37 42,-106 97,-148 55,-42 115,-55 135,-30zm-80 -103c11,33 -43,80 -120,105 -76,25 -168,20 -204,0 18,-37 89,-94 166,-119 77,-25 148,-19 158,14zm-63 -140c0,41 -92,73 -206,73 -113,0 -233,-38 -274,-73 41,-34 161,-73 274,-73 114,0 206,33 206,73zm56 -136c-10,33 -81,41 -158,17 -77,-24 -149,-81 -167,-118 36,-20 127,-26 204,-2 77,24 132,70 121,103zm94 -116c-19,26 -80,15 -136,-25 -57,-40 -98,-108 -102,-145 36,-9 114,9 170,49 57,40 87,95 68,121zm100 -98c-26,20 -81,-8 -123,-63 -42,-55 -62,-132 -55,-169 37,3 106,42 148,97 43,55 56,116 30,135zm103 -79c-33,10 -79,-43 -104,-120 -25,-77 -20,-168 -1,-205 37,18 95,89 120,166 25,77 18,148 -15,159zm140 -63c-40,0 -73,-93 -73,-206 0,-114 38,-234 73,-274 35,40 73,160 73,274 0,113 -33,206 -73,206zm136 56c-33,-11 -40,-82 -16,-159 24,-77 81,-149 117,-167 20,36 26,127 2,205 -24,77 -70,131 -103,121zm116 93c-26,-19 -15,-80 25,-136 41,-56 109,-98 146,-102 8,37 -9,114 -50,171 -40,56 -94,86 -121,67zm98 100c-20,-26 9,-81 64,-123 55,-42 132,-62 168,-55 -2,37 -42,107 -97,149 -55,42 -115,55 -135,29z"/>
   <path class="fil3" d="M4961 2950l-681 247 -6 -25c-20,-85 -31,-173 -31,-261 0,-87 11,-175 31,-260l6 -25 681 247 -246 -681 25 -6c85,-21 172,-31 260,-31 88,0 175,10 260,31l25 6 -246 681 681 -247 6 25c20,85 31,173 31,260 0,88 -11,176 -31,261l-6 25 -681 -247 246 681 -25 6c-85,21 -172,31 -260,31 -88,0 -175,-10 -260,-31l-25 -6 246 -681z"/>
   <path class="fil4" d="M4780 3596c72,15 146,23 220,23 74,0 148,-8 220,-23l-220 -608 -220 608zm297 -685l607 220c16,-72 23,-146 23,-220 0,-74 -7,-148 -23,-220l-607 220zm-77 -77l220 -607c-72,-15 -146,-23 -220,-23 -74,0 -148,8 -220,23l220 607zm-77 77l-607 -220c-16,72 -23,146 -23,220 0,74 7,148 23,220l607 -220z"/>
   <circle class="fil2" cx="5000" cy="2911" r="530"/>
   <circle class="fil1" cx="5000" cy="2911" r="333"/>
   <path class="fil5" d="M4839 3166l12 -26 9 4c-2,6 -3,11 -2,14 1,4 3,7 8,9l1 1 19 -43c2,-3 2,-4 2,-5 0,-1 0,-2 0,-2 -1,-1 -2,-1 -3,-2 -1,-1 -3,-2 -6,-3l4 -9 40 18 -4 9c-2,-1 -4,-2 -5,-2 -2,-1 -3,-1 -5,-1 0,0 -1,0 -1,1 -1,0 -2,2 -3,4l0 1 -19 42 1 1c4,2 8,2 12,0 3,-2 6,-6 9,-11l9 4 -12 26 -66 -30zm-27 -64l-5 -6c-4,-4 -7,-6 -10,-6 -2,-1 -5,0 -8,3 -2,3 -4,5 -4,8 1,2 3,6 6,9l6 7 15 -15zm20 -19c2,-2 3,-3 3,-4 0,-2 -1,-3 -3,-5l-3 -3 7 -7 30 31 -7 7 -3 -3c-2,-2 -4,-4 -5,-4 -1,0 -2,1 -4,3l-31 29c-2,2 -3,4 -3,5 0,1 1,3 3,5l3 3 -7 6 -34 -35c-6,-7 -10,-13 -11,-18 0,-5 1,-10 6,-14 3,-3 7,-5 11,-5 4,0 8,2 13,5 -3,-4 -4,-7 -4,-10 1,-3 2,-6 6,-9l5 -5c2,-3 3,-4 4,-5 0,-1 0,-2 -1,-3 -1,-1 -2,-1 -3,-1 -2,1 -4,3 -8,6l-5 -5c0,-1 1,-1 1,-1 1,-1 1,-1 1,-1 5,-5 10,-8 14,-8 4,0 9,2 13,6 4,5 6,9 6,13 0,5 -3,9 -8,14l-5 4c-3,3 -4,6 -4,8 0,1 1,4 4,7l6 6 13 -12zm-25 -55l-9 4 -2 -5c-1,-2 -2,-4 -3,-4 -1,-1 -3,0 -6,1l-38 17c-3,1 -4,3 -4,4 -1,1 0,2 1,5l2 4 -9 4 -18 -40 9 -4 2 4c1,3 2,5 3,5 1,0 3,0 5,-1l39 -17c2,-2 4,-3 4,-4 0,-1 0,-3 -1,-5l-2 -4 9 -5 18 41zm-62 -79l-22 12 25 3 -3 -15zm41 38l-9 2 -1 -3c0,-2 -1,-4 -2,-5 -1,-1 -3,-2 -7,-2l-60 -9 -3 -22 53 -28c3,-1 5,-3 5,-4 1,-1 1,-2 1,-5l-1 -3 10 -2 7 40 -10 2 0 -3c-1,-3 -1,-4 -2,-5 0,-1 -1,-1 -2,-1 0,0 -1,0 -2,1 0,0 0,0 0,0l-9 4 4 21 9 2c0,0 1,0 1,0 1,0 1,0 2,0 1,-1 1,-1 2,-2 0,-1 0,-2 -1,-5l0 -3 9 -2 6 32zm-53 -167c-3,-1 -4,-1 -5,-1 -1,1 -2,3 -3,5l-2 5 -9 -3 14 -42 9 3 -1 4c-1,3 -1,5 -1,6 1,1 2,2 5,3l31 10c9,3 15,8 18,13 3,6 2,13 -1,22 -2,8 -6,13 -11,16 -6,4 -11,4 -17,2 -4,-1 -7,-3 -9,-6 -1,-3 -2,-6 -1,-9 1,-3 3,-6 6,-7 2,-1 5,-1 8,0 2,0 4,2 5,4 1,2 1,4 0,7 0,0 0,1 -1,2 0,0 0,1 -1,2 2,-1 4,-2 6,-3 2,-2 3,-4 3,-6 2,-4 2,-7 0,-10 -2,-2 -6,-5 -11,-6l-32 -11zm15 -56l-7 -6 26 -33 7 6c0,0 0,1 -1,1 0,0 0,1 -1,2 -2,2 -3,4 -2,6 0,1 2,3 6,7l23 18c5,3 9,5 12,5 3,0 6,-2 9,-6 3,-4 4,-8 4,-11 0,-3 -2,-6 -7,-10l-23 -18c-4,-3 -7,-5 -9,-5 -1,0 -3,1 -5,4 -1,0 -1,1 -1,1 -1,1 -1,1 -1,1l-7 -6 20 -26 8 6c-2,2 -3,4 -4,5 -1,2 -1,3 -1,4 0,0 1,1 1,2 1,0 3,2 6,4l25 20c6,5 9,11 9,17 0,7 -3,14 -9,22 -6,8 -12,12 -18,14 -7,1 -13,0 -19,-5l-25 -20c-4,-3 -7,-4 -9,-5 -1,0 -3,1 -5,3 0,1 -1,2 -1,2 0,0 0,1 -1,1zm86 -83c-1,-2 -3,-4 -4,-4 -1,0 -3,1 -5,2l-3 2 -5 -8 31 -18 50 31 -18 -31c-1,-3 -2,-4 -3,-4 -1,-1 -3,0 -6,1l-3 3 -5 -9 29 -17 5 9 -3 1c-3,2 -4,3 -4,4 -1,1 0,3 1,5l29 51 -20 11 -54 -33 20 34c1,3 3,4 4,4 1,1 3,0 5,-1l4 -3 5 9 -30 17 -5 -8 3 -2c3,-2 4,-3 5,-4 0,-1 -1,-3 -2,-5l-21 -37zm159 -24l12 -1c1,10 -1,18 -6,24 -5,6 -13,10 -23,11 -12,2 -22,-1 -30,-7 -8,-6 -13,-15 -15,-27 0,-6 0,-12 1,-17 1,-4 4,-9 7,-13 3,-4 7,-7 11,-10 4,-2 9,-3 15,-4 4,-1 8,-1 11,0 4,1 8,2 11,4l2 -6 10 -1 4 30 -11 1c-1,-6 -4,-11 -8,-14 -3,-3 -8,-5 -13,-4 -6,1 -11,4 -13,9 -3,6 -4,13 -3,22 1,9 4,15 8,20 4,4 9,6 15,6 5,-1 9,-3 12,-7 2,-4 3,-9 3,-16zm111 -28l-7 28 -10 -2c2,-6 2,-11 0,-15 -2,-3 -5,-6 -10,-7l-1 0 -10 46c-1,3 -1,4 -1,5 0,1 0,2 1,2 1,0 1,1 3,1 1,1 3,1 6,2l-2 9 -43 -9 2 -10c3,1 4,1 6,1 2,1 3,1 4,0 1,0 2,0 2,-1 0,0 1,-2 2,-4l0 -2 10 -45 -1 0c-5,-1 -9,0 -12,2 -3,2 -5,7 -7,13l-9 -2 6 -28 71 16zm35 66l6 -24 -19 15 13 9zm-56 4l6 -8 2 1c2,1 4,2 5,2 1,0 3,-1 6,-3l47 -38 19 12 -16 58c-1,3 -1,5 0,6 0,2 1,3 3,4l3 2 -5 8 -35 -22 5 -8 3 2c2,1 4,2 5,2 1,0 2,0 2,-1 0,0 0,-1 1,-2 0,0 0,0 0,0l2 -10 -18 -11 -7 6c0,0 0,0 -1,1 0,0 0,0 -1,1 0,1 0,1 0,2 1,1 2,2 4,3l3 2 -5 8 -28 -17zm93 73l9 -6 2 4c2,3 3,4 4,4 1,1 3,0 5,-2l35 -22c3,-2 4,-3 4,-4 1,-1 0,-3 -2,-6l-2 -3 8 -6 24 37 -8 6 -3 -4c-2,-3 -3,-4 -4,-4 -1,-1 -3,0 -5,2l-35 22c-3,2 -4,3 -4,4 0,1 0,3 2,5l2 4 -8 6 -24 -37zm87 34c3,0 5,-1 5,-2 1,-1 1,-3 0,-6l-1 -4 9 -2 10 34 -42 41 34 -9c3,-1 4,-2 5,-3 0,-1 0,-3 -1,-6l-1 -4 10 -2 9 32 -9 3 -1 -3c-1,-3 -2,-5 -3,-6 -1,0 -3,0 -6,1l-56 16 -6 -22 45 -45 -38 11c-2,1 -4,2 -4,3 -1,1 -1,2 0,5l1 4 -9 3 -10 -33 10 -3 1 4c1,3 2,4 3,5 1,1 2,1 5,0l40 -12zm25 148l9 3 -11 40 -9 -2c0,-1 0,-1 0,-2 0,0 1,-1 1,-2 1,-3 1,-5 0,-6 -1,-2 -4,-3 -9,-4l-28 -8c-6,-2 -10,-2 -13,-1 -3,1 -5,4 -6,9 -1,5 -1,9 0,12 2,3 5,5 10,6l29 9c5,1 8,1 10,1 1,-1 2,-3 3,-6 1,-1 1,-1 1,-2 0,0 0,0 0,-1l9 3 -9 32 -9 -3c1,-2 1,-4 1,-6 0,-2 0,-3 0,-3 0,-1 -1,-1 -2,-2 -1,0 -4,-1 -7,-2l-31 -8c-7,-3 -12,-7 -15,-13 -2,-6 -2,-14 1,-24 2,-9 6,-15 11,-19 6,-4 12,-5 19,-3l32 9c4,1 7,2 9,1 1,-1 3,-2 3,-5 1,-1 1,-1 1,-2 0,0 0,-1 0,-1zm-49 109c3,2 4,3 5,3 1,-1 3,-2 5,-4l2 -3 8 6 -22 28 -59 -10 28 22c3,2 4,3 5,3 1,-1 3,-2 5,-4l2 -3 8 6 -21 26 -8 -6 2 -3c2,-2 3,-4 3,-5 0,-1 -1,-2 -3,-4l-46 -36 14 -18 62 10 -30 -24c-3,-2 -4,-2 -5,-2 -1,0 -3,1 -5,4l-2 3 -8 -6 21 -27 8 6 -2 3c-2,2 -3,4 -3,5 0,1 1,3 3,4l33 26zm-103 72c-4,-9 -9,-15 -14,-18 -4,-3 -9,-3 -15,0 -5,3 -8,7 -9,12 0,6 2,13 7,22 4,9 9,15 14,18 4,3 9,3 15,0 5,-3 8,-7 9,-12 0,-6 -2,-13 -7,-22zm22 -11c5,11 6,21 3,31 -3,9 -11,17 -23,23 -11,6 -22,8 -32,5 -9,-3 -17,-10 -23,-21 -5,-11 -6,-21 -3,-31 3,-9 11,-17 23,-23 11,-6 22,-8 32,-5 9,3 17,10 23,21z"/>
   <circle class="fil6" cx="5000" cy="2911" r="224"/>
   <circle class="fil3" cx="5000" cy="2911" r="207"/>
   <circle class="fil1" cx="5000" cy="2911" r="188"/>
   <path class="fil4" d="M5009 2945c20,4 57,19 62,47l-23 66c-32,-5 -64,-5 -96,0l-23 -65c4,-28 42,-44 62,-48 0,0 0,-1 0,-1 0,-6 4,-10 9,-10 5,0 9,4 9,10 0,0 0,1 0,1z"/>
   <circle class="fil4" cx="5000" cy="3174" r="29"/>
   <path class="fil4" d="M4928 2802c19,5 57,20 62,48l-23 66c-33,-6 -65,-6 -97,0l-23 -66c5,-28 42,-43 62,-48 0,0 0,-1 0,-1 0,-5 4,-9 9,-9 6,0 10,4 10,9 0,0 0,1 0,1z"/>
   <path class="fil4" d="M5091 2802c20,5 57,20 62,48l-23 66c-32,-6 -64,-6 -96,0l-23 -66c4,-28 42,-43 62,-48 0,0 0,-1 0,-1 0,-5 4,-9 9,-9 5,0 10,4 10,9 0,0 0,1 -1,1z"/>
   <g>
    <g>
     <path id="path2856" class="fil4" d="M4837 2535c55,49 110,19 161,-17 -57,-24 -119,-39 -161,17zm12 -1c16,11 33,18 53,18 27,-1 54,-16 78,-32 -28,-10 -60,-19 -88,-12 -18,4 -31,13 -43,26z"/>
     <path id="path2874" class="fil4" d="M4813 2489c67,33 111,-11 150,-60 -61,-7 -125,-4 -150,60zm11 -4c18,7 37,9 56,3 25,-8 48,-30 66,-52 -29,-2 -63,-1 -88,13 -15,8 -26,21 -34,36z"/>
     <path id="path2856_0" class="fil4" d="M4704 2628c70,25 109,-24 143,-76 -62,0 -125,9 -143,76zm11 -6c18,6 37,6 55,-3 25,-11 45,-35 61,-58 -30,1 -63,5 -87,22 -14,10 -23,23 -29,39z"/>
     <path id="path2874_1" class="fil4" d="M4665 2595c73,5 98,-53 116,-112 -59,17 -117,43 -116,112zm8 -8c20,0 38,-5 53,-18 21,-18 33,-46 42,-73 -28,9 -59,22 -77,44 -11,14 -16,30 -18,47z"/>
     <path id="path2856_2" class="fil4" d="M4611 2765c74,-2 93,-62 105,-123 -57,23 -113,54 -105,123zm8 -9c19,-2 36,-9 50,-23 19,-19 29,-49 35,-77 -27,12 -56,28 -72,52 -10,15 -14,31 -13,48z"/>
     <path id="path2874_3" class="fil4" d="M4562 2749c71,-22 73,-85 68,-147 -49,37 -94,83 -68,147zm6 -11c17,-7 32,-18 42,-36 13,-24 14,-55 13,-83 -24,18 -47,42 -56,69 -5,17 -5,34 1,50z"/>
     <path id="path2856_4" class="fil4" d="M4592 2914c66,-33 58,-95 44,-156 -43,45 -80,97 -44,156zm3 -12c17,-10 30,-23 36,-42 10,-25 6,-56 0,-84 -20,22 -40,49 -44,77 -3,18 1,34 8,49z"/>
     <path id="path2874_5" class="fil4" d="M4541 2920c55,-50 30,-108 0,-162 -29,54 -51,114 0,162zm0 -13c13,-14 22,-30 23,-50 2,-27 -10,-56 -23,-81 -13,27 -25,58 -21,87 2,17 9,32 21,44z"/>
     <path id="path2856_6" class="fil4" d="M4618 3066c56,-47 34,-106 7,-162 -32,53 -56,112 -7,162zm0 -12c14,-14 24,-30 26,-49 3,-27 -8,-57 -20,-82 -14,26 -27,56 -25,85 1,18 8,33 19,46z"/>
     <path id="path2874_7" class="fil4" d="M4563 3080c45,-59 12,-111 -27,-160 -20,58 -31,121 27,160zm-2 -13c11,-15 17,-33 15,-53 -3,-27 -20,-53 -37,-76 -8,29 -15,61 -7,89 5,17 15,30 29,40z"/>
     <path id="path2856_8" class="fil4" d="M4685 3185c37,-64 -3,-111 -48,-154 -12,61 -14,124 48,154zm-3 -11c8,-18 12,-36 7,-55 -6,-27 -27,-51 -47,-70 -4,29 -6,62 6,88 7,16 19,28 34,37z"/>
     <path id="path2874_9" class="fil4" d="M4652 3219c14,-73 -40,-104 -97,-130 10,61 28,122 97,130zm-7 -10c2,-19 0,-37 -11,-54 -15,-23 -42,-39 -67,-51 5,29 14,61 34,82 13,13 27,20 44,23z"/>
     <path id="path2856_10" class="fil4" d="M4779 3275c22,-70 -28,-108 -82,-139 2,62 14,124 82,139zm-6 -10c4,-19 3,-37 -5,-55 -12,-25 -38,-43 -61,-58 2,29 7,62 25,85 10,14 24,23 41,28z"/>
     <path id="path2874_11" class="fil4" d="M4764 3314c-9,-74 -70,-87 -132,-94 27,56 64,108 132,94zm-10 -8c-4,-18 -12,-35 -27,-48 -21,-17 -52,-23 -80,-27 14,26 33,53 58,67 16,8 32,11 49,8z"/>
     <path id="path2856_12" class="fil4" d="M4923 3328c-17,-72 -80,-79 -142,-79 33,52 76,100 142,79zm-11 -6c-6,-19 -16,-34 -32,-45 -23,-15 -55,-18 -83,-19 17,25 39,50 66,61 16,6 32,7 49,3z"/>
     <path id="path2874_13" class="fil4" d="M4904 3386c-27,-68 -90,-66 -151,-57 41,47 89,88 151,57zm-11 -4c-8,-17 -21,-31 -39,-40 -24,-11 -56,-10 -84,-6 21,21 46,43 74,50 17,4 33,2 49,-4z"/>
    </g>
    <g>
     <path id="path2856_14" class="fil4" d="M5163 2535c-55,49 -110,19 -161,-17 57,-24 119,-39 161,17zm-12 -1c-16,11 -33,18 -53,18 -27,-1 -54,-16 -78,-32 28,-10 60,-19 88,-12 18,4 31,13 43,26z"/>
     <path id="path2874_15" class="fil4" d="M5187 2489c-67,33 -111,-11 -150,-60 61,-7 125,-4 150,60zm-11 -4c-18,7 -37,9 -56,3 -25,-8 -48,-30 -66,-52 29,-2 63,-1 88,13 15,8 26,21 34,36z"/>
     <path id="path2856_16" class="fil4" d="M5296 2628c-70,25 -109,-24 -143,-76 62,0 125,9 143,76zm-11 -6c-18,6 -37,6 -55,-3 -25,-11 -45,-35 -61,-58 30,1 63,5 87,22 14,10 23,23 29,39z"/>
     <path id="path2874_17" class="fil4" d="M5335 2595c-73,5 -98,-53 -116,-112 59,17 117,43 116,112zm-8 -8c-20,0 -38,-5 -53,-18 -21,-18 -33,-46 -42,-73 28,9 59,22 77,44 11,14 16,30 18,47z"/>
     <path id="path2856_18" class="fil4" d="M5389 2765c-74,-2 -93,-62 -105,-123 57,23 113,54 105,123zm-8 -9c-19,-2 -36,-9 -50,-23 -19,-19 -29,-49 -35,-77 27,12 56,28 72,52 10,15 14,31 13,48z"/>
     <path id="path2874_19" class="fil4" d="M5438 2749c-71,-22 -73,-85 -68,-147 49,37 94,83 68,147zm-6 -11c-17,-7 -32,-18 -42,-36 -13,-24 -14,-55 -13,-83 24,18 47,42 56,69 5,17 5,34 -1,50z"/>
     <path id="path2856_20" class="fil4" d="M5408 2914c-66,-33 -58,-95 -44,-156 43,45 80,97 44,156zm-3 -12c-17,-10 -30,-23 -36,-42 -10,-25 -6,-56 0,-84 20,22 40,49 44,77 3,18 -1,34 -8,49z"/>
     <path id="path2874_21" class="fil4" d="M5459 2920c-54,-50 -30,-108 0,-162 29,54 51,114 0,162zm0 -13c-13,-14 -22,-30 -23,-50 -2,-27 10,-56 23,-81 13,27 25,58 21,87 -2,17 -9,32 -21,44z"/>
     <path id="path2856_22" class="fil4" d="M5382 3066c-56,-47 -34,-106 -7,-162 32,53 56,112 7,162zm0 -12c-14,-14 -23,-30 -26,-49 -3,-27 8,-57 20,-82 14,26 27,56 25,85 -1,18 -8,33 -19,46z"/>
     <path id="path2874_23" class="fil4" d="M5437 3080c-45,-59 -12,-111 27,-160 20,58 31,121 -27,160zm2 -13c-11,-15 -17,-33 -15,-53 3,-27 20,-53 37,-76 8,29 15,61 7,89 -5,17 -15,30 -29,40z"/>
     <path id="path2856_24" class="fil4" d="M5315 3185c-37,-64 3,-111 48,-154 12,61 14,124 -48,154zm3 -11c-8,-18 -12,-36 -7,-55 6,-27 27,-51 47,-70 4,29 6,62 -6,88 -7,16 -19,28 -34,37z"/>
     <path id="path2874_25" class="fil4" d="M5348 3219c-14,-73 40,-104 97,-130 -10,61 -28,122 -97,130zm7 -10c-2,-19 0,-37 11,-54 15,-23 42,-39 67,-51 -5,29 -14,61 -34,82 -13,13 -27,20 -44,23z"/>
     <path id="path2856_26" class="fil4" d="M5221 3275c-22,-70 28,-108 82,-139 -2,62 -14,124 -82,139zm6 -10c-4,-19 -3,-37 5,-55 12,-25 38,-43 61,-58 -2,29 -7,62 -25,85 -10,14 -24,23 -41,28z"/>
     <path id="path2874_27" class="fil4" d="M5236 3314c9,-74 70,-87 132,-94 -27,56 -64,108 -132,94zm10 -8c4,-18 12,-35 27,-48 21,-17 52,-23 80,-27 -14,26 -33,53 -58,67 -16,8 -32,11 -49,8z"/>
     <path id="path2856_28" class="fil4" d="M5077 3328c17,-72 80,-79 142,-79 -33,52 -76,100 -142,79zm11 -6c6,-19 16,-34 33,-45 22,-15 54,-18 82,-19 -17,25 -39,50 -66,61 -16,6 -32,7 -49,3z"/>
     <path id="path2874_29" class="fil4" d="M5096 3386c27,-68 90,-66 151,-57 -41,47 -89,88 -151,57zm11 -4c8,-17 21,-31 39,-40 24,-11 56,-10 84,-6 -21,21 -46,43 -74,50 -17,4 -33,2 -49,-4z"/>
    </g>
   </g>
   <path class="fil4" d="M4993 3379c-4,3 -7,5 -10,6 -15,10 -35,18 -53,20l-7 1 -1 -14 6 -1c16,-1 35,-9 48,-17 2,-1 3,-2 5,-3 -16,-14 -29,-31 -27,-51 3,-20 17,-37 39,-37 21,0 35,17 38,37 2,20 -11,37 -27,51 2,1 3,2 5,3 14,8 32,16 48,17l7 1 -2 14 -6 -1c-19,-2 -39,-10 -54,-20 -3,-1 -6,-3 -9,-6zm0 -16c13,-11 26,-26 24,-41 -1,-13 -10,-26 -24,-26 -15,0 -24,13 -25,26 -2,15 11,30 25,41z"/>
  </g>
  <g id="_1992215802368">
   <path class="fil1" d="M5000 5735c22,0 42,15 60,41 9,-26 24,-43 43,-50 16,-5 35,-1 54,10 1,-26 8,-46 24,-57 19,-15 46,-15 76,-4 -10,-29 -10,-54 3,-72 15,-21 45,-29 82,-25 -18,-24 -25,-47 -19,-68 6,-17 21,-31 43,-40 -26,-18 -41,-39 -41,-60 0,-22 15,-43 41,-61 -25,-9 -43,-23 -49,-42 -6,-17 -2,-35 9,-54 -25,-1 -45,-9 -57,-24 -14,-19 -15,-46 -4,-77 -28,11 -54,11 -72,-2 -21,-15 -29,-45 -25,-82 -24,18 -47,25 -67,19 -18,-6 -32,-21 -41,-43 -18,26 -38,40 -60,40 -22,0 -42,-15 -60,-41 -9,26 -24,44 -43,50 -16,5 -35,2 -54,-9 -1,25 -8,45 -24,57 -19,14 -46,14 -76,3 10,29 10,54 -3,73 -15,21 -45,29 -82,25 18,23 25,47 19,67 -6,18 -21,31 -43,41 26,18 41,38 41,60 0,21 -15,42 -41,60 25,9 43,23 49,43 6,16 2,35 -9,54 25,0 45,8 57,24 14,18 15,45 4,76 28,-10 54,-10 72,3 21,15 29,44 25,82 24,-18 47,-26 67,-19 18,5 32,20 41,43 18,-26 38,-41 60,-41zm295 -893c67,-57 143,-76 163,-62 20,14 26,102 -13,189 85,-40 170,-37 185,-17 14,18 -1,87 -47,152 121,-23 229,11 238,39 7,22 -34,84 -107,135 199,4 358,94 358,132 0,36 -150,122 -341,131 67,49 105,106 99,127 -10,30 -131,68 -262,36 56,68 76,144 62,163 -15,21 -102,26 -189,-12 39,85 37,170 17,185 -18,14 -87,-1 -153,-48 24,121 -10,230 -38,239 -22,7 -84,-34 -135,-107 -5,199 -94,357 -132,357 -37,0 -123,-150 -131,-341 -49,68 -106,106 -127,99 -30,-9 -68,-131 -37,-261 -67,56 -143,76 -163,62 -20,-15 -26,-102 13,-189 -85,39 -170,36 -185,16 -14,-17 1,-86 47,-152 -121,23 -229,-11 -238,-39 -7,-22 34,-84 107,-134 -199,-5 -358,-95 -358,-132 0,-37 150,-123 341,-132 -67,-48 -105,-106 -99,-127 10,-29 131,-68 262,-36 -56,-68 -76,-144 -62,-163 15,-21 102,-26 189,12 -39,-84 -37,-169 -17,-184 18,-14 87,0 153,47 -24,-121 10,-229 38,-239 22,-7 84,34 135,107 5,-199 94,-357 132,-357 37,0 123,150 131,341 49,-68 106,-106 127,-99 30,9 68,131 37,262z"/>
   <path class="fil2" d="M5430 5270c-11,-33 43,-80 120,-105 76,-25 168,-20 204,0 -18,37 -89,94 -166,119 -77,25 -148,19 -158,-14zm63 140c0,-41 92,-73 206,-73 113,0 233,38 274,73 -41,34 -161,73 -274,73 -114,0 -206,-33 -206,-73zm-56 136c10,-33 81,-41 158,-17 77,24 149,81 167,118 -36,20 -127,26 -204,2 -77,-24 -132,-70 -121,-103zm-94 116c19,-27 80,-15 136,25 57,40 98,108 102,145 -36,9 -114,-9 -170,-49 -57,-40 -87,-95 -68,-121zm-100 98c26,-20 81,8 123,63 42,55 62,132 55,169 -37,-3 -106,-42 -148,-97 -43,-55 -56,-116 -30,-135zm-103 79c33,-10 79,43 104,120 25,77 20,168 1,205 -37,-18 -95,-89 -120,-166 -25,-77 -18,-148 15,-159zm-140 63c40,0 73,93 73,206 0,114 -38,234 -73,274 -35,-40 -73,-160 -73,-274 0,-113 33,-206 73,-206zm-136 -56c33,11 40,81 16,159 -24,77 -81,149 -117,167 -20,-36 -26,-127 -2,-205 24,-77 70,-131 103,-121zm-116 -93c26,19 15,80 -25,136 -41,56 -109,98 -146,102 -8,-37 9,-114 50,-171 40,-56 94,-86 121,-67zm-98 -100c20,26 -9,81 -64,123 -55,42 -132,62 -168,55 2,-37 42,-107 97,-149 55,-42 115,-55 135,-29zm-80 -104c11,33 -43,80 -120,105 -76,25 -168,20 -204,1 18,-37 89,-95 166,-120 77,-25 148,-19 158,14zm-63 -139c0,40 -92,73 -206,73 -113,0 -233,-39 -274,-73 41,-35 161,-73 274,-73 114,0 206,32 206,73zm56 -136c-10,33 -81,40 -158,16 -77,-24 -149,-81 -167,-118 36,-20 127,-26 204,-2 77,24 132,71 121,104zm94 -117c-19,27 -80,16 -136,-25 -57,-40 -98,-108 -102,-145 36,-8 114,9 170,49 57,41 87,95 68,121zm100 -97c-26,20 -81,-9 -123,-64 -42,-55 -62,-132 -55,-168 37,2 106,41 148,96 43,55 56,116 30,136zm103 -80c-33,11 -79,-43 -104,-120 -25,-77 -20,-168 -1,-204 37,18 95,89 120,165 25,77 18,148 -15,159zm140 -63c-40,0 -73,-92 -73,-206 0,-114 38,-234 73,-274 35,40 73,160 73,274 0,114 -33,206 -73,206zm136 56c-33,-10 -40,-81 -16,-158 24,-78 81,-149 117,-168 20,36 26,128 2,205 -24,77 -70,131 -103,121zm116 94c-26,-19 -15,-80 25,-137 41,-56 109,-98 146,-101 8,36 -9,114 -50,170 -40,56 -94,87 -121,68zm98 100c-20,-26 9,-81 64,-124 55,-42 132,-62 168,-54 -2,37 -42,106 -97,148 -55,42 -115,55 -135,30z"/>
   <path class="fil3" d="M4961 5448l-681 247 -6 -25c-20,-85 -31,-173 -31,-260 0,-88 11,-176 31,-261l6 -25 681 247 -246 -681 25 -6c85,-21 172,-31 260,-31 88,0 175,10 260,31l25 6 -246 681 681 -247 6 25c20,85 31,173 31,261 0,87 -11,175 -31,260l-6 25 -681 -247 246 681 -25 6c-85,21 -172,31 -260,31 -88,0 -175,-10 -260,-31l-25 -6 246 -681z"/>
   <path class="fil4" d="M4780 6094c72,15 146,23 220,23 74,0 148,-8 220,-23l-220 -607 -220 607zm297 -684l607 220c16,-72 23,-146 23,-220 0,-74 -7,-148 -23,-221l-607 221zm-77 -77l220 -608c-72,-15 -146,-23 -220,-23 -74,0 -148,8 -220,23l220 608zm-77 77l-607 -221c-16,73 -23,147 -23,221 0,74 7,148 23,220l607 -220z"/>
   <circle class="fil2" cx="5000" cy="5410" r="530"/>
   <circle class="fil1" cx="5000" cy="5410" r="333"/>
   <path class="fil5" d="M4839 5664l12 -26 9 4c-2,6 -3,11 -2,15 1,4 3,6 8,9l1 0 19 -43c2,-2 2,-4 2,-5 0,-1 0,-1 0,-2 -1,0 -2,-1 -3,-2 -1,0 -3,-1 -6,-3l4 -9 40 19 -4 8c-2,-1 -4,-1 -5,-2 -2,0 -3,-1 -5,-1 0,0 -1,0 -1,1 -1,1 -2,2 -3,4l0 2 -19 41 1 1c4,2 8,2 12,0 3,-1 6,-5 9,-11l9 4 -12 26 -66 -30zm-27 -64l-5 -5c-4,-4 -7,-7 -10,-7 -2,0 -5,1 -8,3 -2,3 -4,6 -4,8 1,3 3,6 6,10l6 6 15 -15zm20 -19c2,-1 3,-3 3,-4 0,-1 -1,-3 -3,-5l-3 -3 7 -7 30 31 -7 7 -3 -3c-2,-2 -4,-3 -5,-3 -1,0 -2,1 -4,3l-31 29c-2,2 -3,3 -3,4 0,1 1,3 3,5l3 3 -7 7 -34 -36c-6,-6 -10,-12 -11,-18 0,-5 1,-10 6,-14 3,-3 7,-4 11,-4 4,0 8,2 13,5 -3,-4 -4,-8 -4,-11 1,-3 2,-6 6,-9l5 -5c2,-2 3,-4 4,-5 0,-1 0,-2 -1,-3 -1,-1 -2,-1 -3,0 -2,0 -4,2 -8,5l-5 -5c0,0 1,-1 1,-1 1,-1 1,-1 1,-1 5,-5 10,-7 14,-7 4,-1 9,1 13,6 4,4 6,9 6,13 0,4 -3,8 -8,13l-5 5c-3,3 -4,5 -4,7 0,2 1,4 4,7l6 7 13 -13zm-25 -55l-9 4 -2 -4c-1,-3 -2,-4 -3,-5 -1,0 -3,0 -6,1l-38 18c-3,1 -4,2 -4,3 -1,1 0,3 1,5l2 5 -9 4 -18 -40 9 -4 2 4c1,2 2,4 3,4 1,1 3,0 5,-1l39 -17c2,-1 4,-2 4,-3 0,-1 0,-3 -1,-6l-2 -4 9 -4 18 40zm-62 -79l-22 12 25 3 -3 -15zm41 38l-9 2 -1 -2c0,-3 -1,-5 -2,-6 -1,0 -3,-1 -7,-2l-60 -8 -3 -22 53 -28c3,-2 5,-3 5,-4 1,-2 1,-3 1,-5l-1 -4 10 -2 7 41 -10 2 0 -4c-1,-2 -1,-4 -2,-5 0,-1 -1,-1 -2,-1 0,0 -1,1 -2,1 0,0 0,0 0,0l-9 5 4 21 9 1c0,0 1,0 1,0 1,0 1,0 2,0 1,0 1,-1 2,-1 0,-1 0,-3 -1,-5l0 -4 9 -2 6 32zm-53 -167c-3,-1 -4,-1 -5,0 -1,0 -2,2 -3,5l-2 4 -9 -3 14 -41 9 3 -1 4c-1,2 -1,4 -1,5 1,1 2,2 5,3l31 11c9,3 15,7 18,13 3,5 2,13 -1,22 -2,7 -6,12 -11,16 -6,3 -11,4 -17,2 -4,-2 -7,-4 -9,-7 -1,-3 -2,-6 -1,-9 1,-3 3,-5 6,-7 2,-1 5,-1 8,0 2,1 4,2 5,4 1,2 1,4 0,7 0,1 0,1 -1,2 0,1 0,1 -1,2 2,-1 4,-2 6,-3 2,-2 3,-4 3,-6 2,-4 2,-7 0,-9 -2,-3 -6,-5 -11,-7l-32 -11zm15 -56l-7 -5 26 -34 7 6c0,1 0,1 -1,1 0,1 0,1 -1,2 -2,2 -3,4 -2,6 0,1 2,4 6,7l23 18c5,4 9,5 12,5 3,0 6,-2 9,-5 3,-4 4,-8 4,-11 0,-4 -2,-7 -7,-10l-23 -19c-4,-3 -7,-5 -9,-5 -1,0 -3,2 -5,4 -1,1 -1,1 -1,2 -1,0 -1,0 -1,1l-7 -6 20 -26 8 5c-2,3 -3,4 -4,6 -1,1 -1,2 -1,3 0,0 1,1 1,2 1,1 3,2 6,5l25 19c6,5 9,11 9,18 0,6 -3,14 -9,22 -6,7 -12,11 -18,13 -7,2 -13,0 -19,-5l-25 -20c-4,-3 -7,-4 -9,-4 -1,0 -3,1 -5,3 0,0 -1,1 -1,1 0,1 0,1 -1,1zm86 -82c-1,-3 -3,-4 -4,-4 -1,-1 -3,0 -5,1l-3 2 -5 -8 31 -18 50 31 -18 -31c-1,-2 -2,-4 -3,-4 -1,0 -3,0 -6,2l-3 2 -5 -9 29 -16 5 8 -3 2c-3,1 -4,2 -4,3 -1,2 0,3 1,6l29 50 -20 12 -54 -33 20 34c1,2 3,4 4,4 1,0 3,-1 5,-2l4 -2 5 8 -30 17 -5 -8 3 -2c3,-1 4,-3 5,-4 0,-1 -1,-3 -2,-5l-21 -36zm159 -24l12 -2c1,11 -1,19 -6,25 -5,5 -13,9 -23,10 -12,2 -22,0 -30,-7 -8,-6 -13,-15 -15,-27 0,-6 0,-11 1,-16 1,-5 4,-10 7,-14 3,-4 7,-7 11,-9 4,-3 9,-4 15,-5 4,0 8,0 11,0 4,1 8,3 11,5l2 -7 10 -1 4 30 -11 2c-1,-7 -4,-12 -8,-15 -3,-3 -8,-4 -13,-4 -6,1 -11,4 -13,10 -3,5 -4,12 -3,21 1,9 4,16 8,20 4,5 9,7 15,6 5,-1 9,-3 12,-7 2,-4 3,-9 3,-15zm111 -29l-7 28 -10 -2c2,-6 2,-11 0,-14 -2,-4 -5,-6 -10,-7l-1 -1 -10 46c-1,3 -1,5 -1,5 0,1 0,2 1,2 1,1 1,1 3,2 1,0 3,1 6,1l-2 10 -43 -10 2 -9c3,0 4,0 6,1 2,0 3,0 4,0 1,0 2,-1 2,-1 0,-1 1,-3 2,-5l0 -2 10 -44 -1 -1c-5,-1 -9,0 -12,2 -3,3 -5,7 -7,13l-9 -2 6 -28 71 16zm35 66l6 -24 -19 16 13 8zm-56 4l6 -8 2 1c2,2 4,2 5,2 1,0 3,-1 6,-3l47 -38 19 12 -16 58c-1,3 -1,5 0,7 0,1 1,2 3,3l3 2 -5 9 -35 -23 5 -8 3 2c2,1 4,2 5,2 1,1 2,0 2,-1 0,0 0,0 1,-1 0,-1 0,-1 0,-1l2 -9 -18 -12 -7 6c0,0 0,1 -1,1 0,0 0,1 -1,1 0,1 0,2 0,2 1,1 2,2 4,4l3 2 -5 8 -28 -18zm93 73l9 -5 2 3c2,3 3,4 4,5 1,0 3,-1 5,-2l35 -23c3,-2 4,-3 4,-4 1,-1 0,-3 -2,-5l-2 -4 8 -5 24 37 -8 5 -3 -4c-2,-2 -3,-4 -4,-4 -1,0 -3,0 -5,2l-35 23c-3,1 -4,2 -4,3 0,2 0,3 2,6l2 4 -8 5 -24 -37zm87 35c3,-1 5,-2 5,-3 1,-1 1,-3 0,-6l-1 -3 9 -3 10 34 -42 42 34 -10c3,-1 4,-2 5,-3 0,-1 0,-3 -1,-5l-1 -4 10 -3 9 33 -9 2 -1 -3c-1,-3 -2,-5 -3,-5 -1,-1 -3,-1 -6,0l-56 16 -6 -22 45 -44 -38 10c-2,1 -4,2 -4,3 -1,1 -1,3 0,6l1 4 -9 2 -10 -33 10 -2 1 3c1,3 2,5 3,5 1,1 2,1 5,0l40 -11zm25 147l9 3 -11 41 -9 -3c0,0 0,-1 0,-1 0,-1 1,-2 1,-3 1,-3 1,-5 0,-6 -1,-1 -4,-2 -9,-4l-28 -8c-6,-2 -10,-2 -13,0 -3,1 -5,4 -6,8 -1,5 -1,9 0,12 2,3 5,5 10,7l29 8c5,1 8,2 10,1 1,-1 2,-2 3,-5 1,-1 1,-2 1,-2 0,-1 0,-1 0,-1l9 2 -9 32 -9 -2c1,-3 1,-5 1,-7 0,-1 0,-2 0,-3 0,0 -1,-1 -2,-1 -1,-1 -4,-1 -7,-2l-31 -9c-7,-2 -12,-6 -15,-13 -2,-6 -2,-14 1,-24 2,-9 6,-15 11,-19 6,-4 12,-5 19,-3l32 9c4,2 7,2 9,1 1,0 3,-2 3,-4 1,-1 1,-2 1,-2 0,-1 0,-1 0,-2zm-49 110c3,1 4,2 5,2 1,0 3,-1 5,-4l2 -3 8 6 -22 28 -59 -10 28 23c3,1 4,2 5,2 1,0 3,-2 5,-4l2 -3 8 6 -21 27 -8 -6 2 -3c2,-2 3,-4 3,-5 0,-1 -1,-3 -3,-5l-46 -36 14 -18 62 11 -30 -25c-3,-1 -4,-2 -5,-2 -1,0 -3,2 -5,4l-2 3 -8 -6 21 -27 8 6 -2 3c-2,3 -3,4 -3,5 0,1 1,3 3,5l33 26zm-103 71c-4,-9 -9,-15 -14,-18 -4,-2 -9,-3 -15,0 -5,3 -8,7 -9,13 0,5 2,12 7,21 4,9 9,15 14,18 4,3 9,3 15,0 5,-3 8,-7 9,-12 0,-6 -2,-13 -7,-22zm22 -11c5,11 6,21 3,31 -3,10 -11,17 -23,23 -11,6 -22,8 -32,5 -9,-3 -17,-10 -23,-21 -5,-11 -6,-21 -3,-31 3,-9 11,-17 23,-23 11,-6 22,-7 32,-4 9,2 17,9 23,20z"/>
   <circle class="fil6" cx="5000" cy="5410" r="224"/>
   <circle class="fil3" cx="5000" cy="5410" r="207"/>
   <circle class="fil1" cx="5000" cy="5410" r="188"/>
   <path class="fil4" d="M5009 5443c20,5 57,20 62,48l-23 66c-32,-6 -64,-6 -96,0l-23 -66c4,-28 42,-43 62,-48 0,0 0,-1 0,-1 0,-5 4,-9 9,-9 5,0 9,4 9,9 0,0 0,1 0,1z"/>
   <circle class="fil4" cx="5000" cy="5673" r="29"/>
   <path class="fil4" d="M4928 5301c19,4 57,19 62,47l-23 66c-33,-5 -65,-5 -97,0l-23 -65c5,-29 42,-44 62,-48 0,-1 0,-1 0,-2 0,-5 4,-9 9,-9 6,0 10,4 10,9 0,1 0,1 0,2z"/>
   <path class="fil4" d="M5091 5301c20,4 57,19 62,47l-23 66c-32,-5 -64,-5 -96,0l-23 -65c4,-29 42,-44 62,-48 0,-1 0,-1 0,-2 0,-5 4,-9 9,-9 5,0 10,4 10,9 0,1 0,1 -1,2z"/>
   <g>
    <g>
     <path id="path2856_30" class="fil4" d="M4837 5033c55,49 110,19 161,-17 -57,-23 -119,-38 -161,17zm12 -1c16,12 33,19 53,18 27,-1 54,-16 78,-32 -28,-10 -60,-18 -88,-12 -18,4 -31,13 -43,26z"/>
     <path id="path2874_31" class="fil4" d="M4813 4988c67,32 111,-12 150,-60 -61,-7 -125,-5 -150,60zm11 -5c18,7 37,10 56,3 25,-8 48,-30 66,-51 -29,-3 -63,-2 -88,12 -15,8 -26,21 -34,36z"/>
     <path id="path2856_32" class="fil4" d="M4704 5126c70,25 109,-24 143,-76 -62,0 -125,9 -143,76zm11 -5c18,5 37,5 55,-3 25,-11 45,-36 61,-59 -30,1 -63,5 -87,22 -14,10 -23,24 -29,40z"/>
     <path id="path2874_33" class="fil4" d="M4665 5093c73,5 98,-52 116,-112 -59,17 -117,43 -116,112zm8 -8c20,0 38,-5 53,-18 21,-17 33,-46 42,-73 -28,9 -59,22 -77,45 -11,13 -16,29 -18,46z"/>
     <path id="path2856_34" class="fil4" d="M4611 5264c74,-3 93,-62 105,-123 -57,22 -113,54 -105,123zm8 -10c19,-2 36,-8 50,-23 19,-19 29,-49 35,-76 -27,11 -56,27 -72,52 -10,14 -14,30 -13,47z"/>
     <path id="path2874_35" class="fil4" d="M4562 5247c71,-22 73,-85 68,-147 -49,37 -94,83 -68,147zm6 -11c17,-7 32,-18 42,-36 13,-23 14,-55 13,-83 -24,19 -47,42 -56,70 -5,16 -5,33 1,49z"/>
     <path id="path2856_36" class="fil4" d="M4592 5412c66,-33 58,-95 44,-156 -43,45 -80,97 -44,156zm3 -11c17,-10 30,-23 36,-42 10,-26 6,-57 0,-84 -20,22 -40,48 -44,77 -3,17 1,33 8,49z"/>
     <path id="path2874_37" class="fil4" d="M4541 5418c55,-50 30,-108 0,-162 -29,54 -51,115 0,162zm0 -12c13,-14 22,-31 23,-50 2,-27 -10,-56 -23,-81 -13,26 -25,57 -21,86 2,17 9,32 21,45z"/>
     <path id="path2856_38" class="fil4" d="M4618 5564c56,-47 34,-106 7,-162 -32,54 -56,113 -7,162zm0 -12c14,-13 24,-29 26,-49 3,-27 -8,-56 -20,-82 -14,26 -27,57 -25,86 1,17 8,32 19,45z"/>
     <path id="path2874_39" class="fil4" d="M4563 5578c45,-58 12,-111 -27,-160 -20,59 -31,121 27,160zm-2 -12c11,-16 17,-34 15,-54 -3,-27 -20,-53 -37,-76 -8,29 -15,61 -7,89 5,17 15,30 29,41z"/>
     <path id="path2856_40" class="fil4" d="M4685 5684c37,-64 -3,-112 -48,-155 -12,61 -14,125 48,155zm-3 -12c8,-17 12,-36 7,-55 -6,-26 -27,-50 -47,-70 -4,29 -6,62 6,89 7,16 19,27 34,36z"/>
     <path id="path2874_41" class="fil4" d="M4652 5717c14,-72 -40,-104 -97,-130 10,62 28,123 97,130zm-7 -10c2,-19 0,-37 -11,-54 -15,-23 -42,-38 -67,-51 5,30 14,61 34,82 13,13 27,20 44,23z"/>
     <path id="path2856_42" class="fil4" d="M4779 5774c22,-71 -28,-108 -82,-140 2,62 14,125 82,140zm-6 -11c4,-19 3,-37 -5,-55 -12,-24 -38,-43 -61,-58 2,30 7,62 25,85 10,14 24,23 41,28z"/>
     <path id="path2874_43" class="fil4" d="M4764 5812c-9,-74 -70,-87 -132,-94 27,56 64,108 132,94zm-10 -7c-4,-19 -12,-36 -27,-48 -21,-17 -52,-24 -80,-28 14,26 33,54 58,67 16,9 32,11 49,9z"/>
     <path id="path2856_44" class="fil4" d="M4923 5826c-17,-72 -80,-78 -142,-79 33,53 76,101 142,79zm-11 -6c-6,-18 -16,-34 -32,-45 -23,-14 -55,-18 -83,-19 17,25 39,50 66,61 16,7 32,7 49,3z"/>
     <path id="path2874_45" class="fil4" d="M4904 5885c-27,-69 -90,-66 -151,-57 41,46 89,87 151,57zm-11 -5c-8,-17 -21,-31 -39,-39 -24,-12 -56,-10 -84,-7 21,22 46,44 74,50 17,5 33,3 49,-4z"/>
    </g>
    <g>
     <path id="path2856_46" class="fil4" d="M5163 5033c-55,49 -110,19 -161,-17 57,-23 119,-38 161,17zm-12 -1c-16,12 -33,19 -53,18 -27,-1 -54,-16 -78,-32 28,-10 60,-18 88,-12 18,4 31,13 43,26z"/>
     <path id="path2874_47" class="fil4" d="M5187 4988c-67,32 -111,-12 -150,-60 61,-7 125,-5 150,60zm-11 -5c-18,7 -37,10 -56,3 -25,-8 -48,-30 -66,-51 29,-3 63,-2 88,12 15,8 26,21 34,36z"/>
     <path id="path2856_48" class="fil4" d="M5296 5126c-70,25 -109,-24 -143,-76 62,0 125,9 143,76zm-11 -5c-18,5 -37,5 -55,-3 -25,-11 -45,-36 -61,-59 30,1 63,5 87,22 14,10 23,24 29,40z"/>
     <path id="path2874_49" class="fil4" d="M5335 5093c-73,5 -98,-52 -116,-112 59,17 117,43 116,112zm-8 -8c-20,0 -38,-5 -53,-18 -21,-17 -33,-46 -42,-73 28,9 59,22 77,45 11,13 16,29 18,46z"/>
     <path id="path2856_50" class="fil4" d="M5389 5264c-74,-3 -93,-62 -105,-123 57,22 113,54 105,123zm-8 -10c-19,-2 -36,-8 -50,-23 -19,-19 -29,-49 -35,-76 27,11 56,27 72,52 10,14 14,30 13,47z"/>
     <path id="path2874_51" class="fil4" d="M5438 5247c-71,-22 -73,-85 -68,-147 49,37 94,83 68,147zm-6 -11c-17,-7 -32,-18 -42,-36 -13,-23 -14,-55 -13,-83 24,19 47,42 56,70 5,16 5,33 -1,49z"/>
     <path id="path2856_52" class="fil4" d="M5408 5412c-66,-33 -58,-95 -44,-156 43,45 80,97 44,156zm-3 -11c-17,-10 -30,-23 -36,-42 -10,-26 -6,-57 0,-84 20,22 40,48 44,77 3,17 -1,33 -8,49z"/>
     <path id="path2874_53" class="fil4" d="M5459 5418c-54,-50 -30,-108 0,-162 29,54 51,115 0,162zm0 -12c-13,-14 -22,-31 -23,-50 -2,-27 10,-56 23,-81 13,26 25,57 21,86 -2,17 -9,32 -21,45z"/>
     <path id="path2856_54" class="fil4" d="M5382 5564c-56,-47 -34,-106 -7,-162 32,54 56,113 7,162zm0 -12c-14,-13 -23,-29 -26,-49 -3,-27 8,-56 20,-82 14,26 27,57 25,86 -1,17 -8,32 -19,45z"/>
     <path id="path2874_55" class="fil4" d="M5437 5578c-45,-58 -12,-111 27,-160 20,59 31,121 -27,160zm2 -12c-11,-16 -17,-34 -15,-54 3,-27 20,-53 37,-76 8,29 15,61 7,89 -5,17 -15,30 -29,41z"/>
     <path id="path2856_56" class="fil4" d="M5315 5684c-37,-64 3,-112 48,-155 12,61 14,125 -48,155zm3 -12c-8,-17 -12,-36 -7,-55 6,-26 27,-50 47,-70 4,29 6,62 -6,89 -7,16 -19,27 -34,36z"/>
     <path id="path2874_57" class="fil4" d="M5348 5717c-14,-72 40,-104 97,-130 -10,62 -28,123 -97,130zm7 -10c-2,-19 0,-37 11,-54 15,-23 42,-38 67,-51 -5,30 -14,61 -34,82 -13,13 -27,20 -44,23z"/>
     <path id="path2856_58" class="fil4" d="M5221 5774c-22,-71 28,-108 82,-140 -2,62 -14,125 -82,140zm6 -11c-4,-19 -3,-37 5,-55 12,-24 38,-43 61,-58 -2,30 -7,62 -25,85 -10,14 -24,23 -41,28z"/>
     <path id="path2874_59" class="fil4" d="M5236 5812c9,-74 70,-87 132,-94 -27,56 -64,108 -132,94zm10 -7c4,-19 12,-36 27,-48 21,-17 52,-24 80,-28 -14,26 -33,54 -58,67 -16,9 -32,11 -49,9z"/>
     <path id="path2856_60" class="fil4" d="M5077 5826c17,-72 80,-78 142,-79 -33,53 -76,101 -142,79zm11 -6c6,-18 16,-34 33,-45 22,-14 54,-18 82,-19 -17,25 -39,50 -66,61 -16,7 -32,7 -49,3z"/>
     <path id="path2874_61" class="fil4" d="M5096 5885c27,-69 90,-66 151,-57 -41,46 -89,87 -151,57zm11 -5c8,-17 21,-31 39,-39 24,-12 56,-10 84,-7 -21,22 -46,44 -74,50 -17,5 -33,3 -49,-4z"/>
    </g>
   </g>
   <path class="fil4" d="M4993 5878c-4,2 -7,4 -10,6 -15,9 -35,17 -53,19l-7 1 -1 -14 6 0c16,-2 35,-10 48,-18 2,-1 3,-2 5,-3 -16,-13 -29,-31 -27,-50 3,-21 17,-38 39,-38 21,0 35,17 38,38 2,19 -11,37 -27,50 2,1 3,2 5,3 14,8 32,16 48,18l7 0 -2 14 -6 -1c-19,-2 -39,-10 -54,-19 -3,-2 -6,-4 -9,-6zm0 -17c13,-11 26,-26 24,-41 -1,-13 -10,-26 -24,-26 -15,0 -24,13 -25,26 -2,15 11,30 25,41z"/>
  </g>
  <path class="fil7" d="M3515 8144l-124 0 0 -791c-30,29 -69,57 -118,85 -48,29 -92,50 -130,64l0 -119c69,-33 130,-72 182,-119 52,-46 88,-91 110,-135l80 0 0 1015z"/>
  <path id="1" class="fil7" d="M4485 8025l0 119 -669 0c-1,-30 4,-59 14,-87 18,-45 45,-90 83,-134 38,-44 92,-95 162,-152 110,-91 184,-162 223,-214 39,-53 58,-103 58,-150 0,-49 -17,-91 -53,-124 -35,-34 -81,-51 -138,-51 -60,0 -108,18 -144,54 -36,35 -54,85 -54,148l-127 -13c9,-95 41,-167 98,-217 58,-50 134,-75 230,-75 97,0 174,27 230,81 57,54 85,120 85,200 0,40 -8,80 -25,119 -16,39 -44,80 -82,124 -39,43 -102,102 -191,178 -75,62 -123,104 -144,127 -21,22 -38,44 -52,67l496 0z"/>
  <path id="2" class="fil7" d="M4619 7875l124 -16c15,70 39,121 73,152 34,31 76,46 125,46 59,0 109,-20 149,-60 40,-41 60,-91 60,-150 0,-57 -19,-104 -56,-142 -38,-36 -85,-55 -142,-55 -24,0 -53,5 -88,14l14 -109c8,1 15,2 20,2 53,0 100,-14 143,-42 42,-27 63,-70 63,-127 0,-45 -15,-83 -46,-113 -31,-30 -70,-44 -119,-44 -49,0 -89,15 -121,45 -32,31 -53,77 -62,138l-124 -23c15,-83 49,-147 103,-193 54,-46 121,-69 201,-69 55,0 106,12 152,35 47,24 82,56 106,97 25,41 37,84 37,130 0,43 -11,83 -35,119 -23,35 -58,64 -104,85 60,14 106,42 139,86 33,43 50,98 50,163 0,88 -32,163 -97,225 -64,61 -145,92 -244,92 -88,0 -162,-27 -221,-80 -58,-53 -92,-121 -100,-206z"/>
  <path id="3" class="fil7" d="M5800 8144l0 -242 -439 0 0 -114 462 -655 102 0 0 655 136 0 0 114 -136 0 0 242 -125 0zm0 -356l0 -455 -316 455 316 0z"/>
  <path id="4" class="fil7" d="M6189 7878l129 -10c10,64 32,111 67,143 35,32 78,48 128,48 60,0 111,-23 152,-68 41,-45 61,-104 61,-179 0,-71 -19,-126 -59,-167 -39,-41 -91,-62 -155,-62 -41,0 -77,10 -109,28 -31,18 -56,42 -75,71l-117 -17 98 -519 501 0 0 118 -402 0 -54 273c60,-43 124,-64 190,-64 88,0 162,31 223,92 60,61 90,140 90,236 0,91 -26,170 -79,237 -65,82 -153,123 -265,123 -92,0 -167,-26 -225,-78 -58,-51 -91,-120 -99,-205z"/>
 </g>
</svg>