<?xml version="1.0" encoding="UTF-8"?>
<!DOCTYPE svg PUBLIC "-//W3C//DTD SVG 1.1//EN" "http://www.w3.org/Graphics/SVG/1.1/DTD/svg11.dtd">
<!-- Creator: CorelDRAW X8 -->
<svg xmlns="http://www.w3.org/2000/svg" xml:space="preserve" width="100mm" height="100mm" version="1.1" style="shape-rendering:geometricPrecision; text-rendering:geometricPrecision; image-rendering:optimizeQuality; fill-rule:evenodd; clip-rule:evenodd" viewBox="0 0 10000 10000" xmlns:xlink="http://www.w3.org/1999/xlink">
 <defs>
  <style type="text/css">
   <![CDATA[
    .str0 {stroke:#FEFEFE;stroke-width:25}
    .str1 {stroke:#FEFEFE;stroke-width:25}
    .fil2 {fill:none}
    .fil0 {fill:#2B2A29}
    .fil1 {fill:#E6CD54;fill-rule:nonzero}
   ]]>
  </style>
 </defs>
 <g id="Layer_x0020_1">
  <metadata id="CorelCorpID_0Corel-Layer"/>
  <rect class="fil0 str0" width="10000" height="10000"/>
  <path class="fil1" d="M4547 6145l0 119 -669 0c-1,-30 4,-59 14,-86 17,-46 45,-91 83,-135 38,-44 92,-95 162,-152 109,-90 184,-161 223,-214 39,-53 58,-103 58,-150 0,-49 -17,-90 -53,-124 -35,-34 -81,-51 -138,-51 -60,0 -108,18 -144,54 -36,35 -54,85 -54,148l-127 -13c8,-95 41,-167 98,-217 57,-50 134,-75 230,-75 97,0 174,27 230,81 57,54 85,121 85,200 0,41 -8,80 -25,119 -16,40 -44,81 -82,124 -39,43 -102,103 -191,178 -75,62 -123,105 -144,127 -21,22 -39,45 -52,67l496 0z"/>
  <path id="1" class="fil1" d="M4681 5996l124 -17c14,70 38,121 72,152 35,31 76,47 126,47 59,0 108,-20 148,-61 40,-40 60,-90 60,-150 0,-57 -18,-104 -56,-141 -37,-37 -84,-56 -142,-56 -23,0 -52,5 -87,14l14 -109c8,1 15,2 20,2 53,0 100,-14 143,-42 42,-27 63,-69 63,-127 0,-45 -15,-83 -46,-112 -31,-30 -71,-45 -119,-45 -49,0 -89,15 -121,46 -32,30 -53,76 -62,137l-124 -22c15,-84 49,-148 103,-194 54,-46 121,-69 201,-69 55,0 105,12 152,36 46,23 82,56 106,96 25,41 37,84 37,130 0,44 -11,83 -35,119 -23,36 -58,64 -104,85 60,14 106,43 139,86 33,44 50,98 50,163 0,88 -33,163 -97,225 -64,61 -146,92 -244,92 -89,0 -162,-27 -221,-80 -59,-53 -92,-121 -100,-205z"/>
  <path id="2" class="fil1" d="M5862 6264l0 -241 -439 0 0 -115 462 -655 101 0 0 655 137 0 0 115 -137 0 0 241 -124 0zm0 -356l0 -454 -317 454 317 0z"/>
  <path class="fil1" d="M4843 4392l134 34c-28,110 -78,193 -151,251 -72,58 -161,86 -266,86 -109,0 -197,-22 -266,-66 -68,-44 -120,-108 -155,-192 -36,-85 -54,-175 -54,-271 0,-105 20,-197 61,-275 40,-79 97,-138 171,-179 74,-41 156,-61 245,-61 101,0 186,26 254,77 69,52 117,124 144,217l-131 31c-23,-73 -57,-127 -102,-160 -44,-34 -100,-50 -168,-50 -77,0 -142,18 -194,55 -52,37 -89,88 -109,150 -22,63 -32,128 -32,194 0,86 12,161 37,225 25,64 64,112 117,144 52,31 109,47 171,47 74,0 137,-21 189,-64 52,-44 87,-108 105,-193z"/>
  <path id="1" class="fil1" d="M5143 4747l0 -1011 381 0c67,0 118,3 154,10 50,8 91,24 125,47 33,23 60,56 81,97 20,42 31,88 31,138 0,85 -28,158 -83,217 -54,60 -153,90 -296,90l-259 0 0 412 -134 0zm134 -531l261 0c86,0 147,-16 184,-48 36,-32 54,-78 54,-136 0,-42 -10,-78 -32,-109 -21,-30 -49,-50 -84,-59 -23,-6 -64,-9 -125,-9l-258 0 0 361z"/>
  <g id="_2464141207456">
   <line class="fil2 str1" x1="5000" y1="0" x2="5000" y2="0"/>
  </g>
  <g id="_2464141207392">
   <line class="fil2 str1" x1="5000" y1="0" x2="5000" y2="0"/>
  </g>
 </g>
</svg>