<?xml version="1.0" encoding="UTF-8"?>
<!DOCTYPE svg PUBLIC "-//W3C//DTD SVG 1.1//EN" "http://www.w3.org/Graphics/SVG/1.1/DTD/svg11.dtd">
<!-- Creator: CorelDRAW X8 -->
<svg xmlns="http://www.w3.org/2000/svg" xml:space="preserve" width="100mm" height="100mm" version="1.1" style="shape-rendering:geometricPrecision; text-rendering:geometricPrecision; image-rendering:optimizeQuality; fill-rule:evenodd; clip-rule:evenodd" viewBox="0 0 10000 10000" xmlns:xlink="http://www.w3.org/1999/xlink">
 <defs>
  <style type="text/css">
   <![CDATA[
    .str4 {stroke:#806729;stroke-width:5.16}
    .str1 {stroke:#CFB500;stroke-width:5.16}
    .str5 {stroke:#CFB500;stroke-width:7.76}
    .str3 {stroke:#433185;stroke-width:10.6}
    .str9 {stroke:#806729;stroke-width:5.84}
    .str8 {stroke:#CFB500;stroke-width:7.05}
    .str0 {stroke:#FEFEFE;stroke-width:25}
    .str7 {stroke:#806729;stroke-width:5.06}
    .str6 {stroke:#CFB500;stroke-width:7.62}
    .str2 {stroke:#E6CD54;stroke-width:7.62}
    .fil5 {fill:none}
    .fil0 {fill:#2B2A29}
    .fil7 {fill:#CFB500}
    .fil6 {fill:#E6CD54}
    .fil4 {fill:#EBEBEB}
    .fil9 {fill:#F6DF77}
    .fil8 {fill:#FFEFA7}
    .fil3 {fill:white}
    .fil2 {fill:#772121;fill-rule:nonzero}
    .fil10 {fill:#E6CD54;fill-rule:nonzero}
    .fil1 {fill:#E8001A;fill-rule:nonzero}
   ]]>
  </style>
 </defs>
 <g id="Layer_x0020_1">
  <metadata id="CorelCorpID_0Corel-Layer"/>
  <rect class="fil0 str0" x="11" y="-10" width="10000" height="10000"/>
  <g id="_1992307932576">
   <g>
    <path class="fil1" d="M6111 5011l98 -287 40 -119 98 -61 100 -226 46 -59 8 -209c0,0 -69,-148 -176,-201 -152,-76 -358,-65 -358,-65 0,0 -48,-127 -136,-176 -87,-49 -185,-61 -287,-61 -102,0 -285,92 -384,118 -51,14 -168,61 -168,61 0,0 -116,-47 -167,-61 -99,-26 -282,-118 -384,-118 -103,0 -197,10 -287,61 -85,48 -201,176 -201,176 0,0 -132,-18 -225,38 -117,70 -198,217 -198,217l8 228 18 87 75 86 98 174 70 172 75 225 2237 0z"/>
    <g>
     <path class="fil2" d="M6230 4731l-98 287 -42 -15 98 -286 42 14 0 0zm0 0l0 0 0 1 0 -1zm40 -119l-40 119 -42 -14 40 -119 9 -12 33 26zm-42 -14l2 -8 7 -4 -9 12zm131 -35l-99 61 -23 -38 98 -61 32 28 -8 10zm8 -10l-2 6 -6 4 8 -10zm100 -226l-100 226 -40 -18 99 -226 3 -5 38 23zm-41 -18l1 -3 2 -2 -3 5zm85 -36l-47 59 -35 -28 47 -59 40 14 -5 14zm5 -14l-1 8 -4 6 5 -14zm7 -208l-7 208 -45 -1 7 -209 45 2z"/>
    </g>
    <g>
     <path class="fil2" d="M6315 3869l20 -40 0 0 11 6 11 6 10 7 10 7 10 8 9 8 9 8 8 8 9 9 8 8 8 9 7 9 7 9 7 9 6 8 6 9 6 8 5 8 6 8 4 8 5 7 4 7 3 6 4 6 3 6 2 5 3 4 1 4 2 3 1 2 1 1 0 1 -41 19 0 -1 0 -1 -1 -2 -1 -2 -2 -3 -2 -4 -3 -5 -2 -5 -3 -6 -4 -6 -4 -6 -4 -7 -4 -7 -5 -7 -5 -8 -5 -8 -6 -8 -6 -8 -6 -8 -7 -8 -6 -8 -7 -8 -8 -8 -7 -7 -8 -8 -8 -7 -8 -7 -8 -6 -8 -6 -9 -6 -9 -5 -9 -5 0 0zm-369 -77l41 -16 -22 -15 1 0 2 0 3 0 4 0 5 0 6 0 7 0 8 0 9 0 10 0 10 1 11 0 12 1 12 1 13 1 13 1 14 1 14 2 15 2 14 2 16 3 15 2 16 4 15 3 16 4 16 4 16 5 16 5 15 6 16 6 15 7 15 7 -20 40 -13 -6 -14 -6 -15 -6 -14 -5 -15 -5 -14 -5 -15 -4 -15 -3 -15 -4 -15 -3 -14 -2 -15 -3 -14 -2 -14 -2 -13 -1 -13 -2 -13 -1 -12 -1 -12 -1 -11 0 -11 -1 -10 0 -9 0 -8 0 -8 0 -6 0 -6 0 -5 0 -4 0 -2 0 -2 0 0 0 -22 -14zm22 14l-17 1 -5 -15 22 14zm-148 -178l22 -39 0 0 9 5 9 6 8 6 9 7 7 7 8 7 7 7 7 8 7 7 6 8 6 8 6 7 5 8 5 8 5 7 5 8 4 7 4 7 4 7 4 7 3 6 3 6 3 6 2 5 2 5 2 4 2 3 1 4 1 2 1 2 0 1 0 1 -41 16 0 -1 -1 -1 0 -1 -1 -2 -1 -3 -2 -3 -2 -4 -2 -4 -2 -5 -2 -5 -3 -6 -3 -5 -3 -7 -4 -6 -3 -6 -4 -7 -5 -7 -4 -7 -5 -7 -5 -7 -5 -6 -5 -7 -6 -7 -5 -7 -6 -6 -6 -6 -7 -6 -6 -6 -7 -5 -7 -5 -7 -5 -7 -4 0 0zm-276 -58l0 -45 0 0 10 0 10 0 10 0 9 1 10 0 9 0 10 1 10 1 9 0 10 1 9 1 10 2 9 1 10 1 9 2 9 1 10 2 9 2 9 2 10 3 9 2 9 3 9 3 9 3 9 3 9 4 9 3 9 4 9 4 9 5 8 4 9 5 -22 39 -7 -4 -8 -5 -8 -3 -8 -4 -8 -4 -8 -3 -8 -3 -9 -3 -8 -3 -8 -2 -8 -3 -9 -2 -8 -2 -9 -2 -8 -2 -9 -2 -9 -1 -8 -2 -9 -1 -9 -1 -9 -1 -9 -1 -9 -1 -9 -1 -9 0 -9 -1 -9 0 -9 -1 -10 0 -9 0 -9 0 -10 0 0 0zm-378 117l-12 -43 0 0 9 -3 10 -3 10 -3 11 -3 11 -4 11 -4 12 -5 12 -4 12 -5 13 -5 12 -5 13 -5 14 -5 13 -5 13 -5 13 -5 14 -5 13 -4 14 -5 13 -5 13 -4 14 -4 13 -4 12 -4 13 -3 13 -3 12 -2 12 -3 12 -2 11 -1 11 -1 11 0 0 45 -8 0 -9 1 -10 1 -11 1 -10 2 -11 3 -12 2 -12 4 -12 3 -12 4 -13 4 -13 4 -13 4 -13 5 -13 4 -13 5 -13 5 -13 5 -14 5 -13 5 -13 5 -12 5 -13 5 -12 5 -13 4 -12 5 -11 4 -12 4 -11 3 -11 4 -10 3 -10 3 0 0zm-182 60l17 -41 -17 0 1 -1 1 0 1 -1 2 0 3 -2 3 -1 4 -1 4 -2 5 -2 5 -2 5 -2 6 -2 6 -2 6 -3 6 -2 7 -3 7 -2 7 -3 7 -3 7 -2 7 -3 7 -2 7 -3 7 -2 7 -3 6 -2 7 -2 6 -2 7 -2 5 -2 6 -2 5 -1 12 43 -5 1 -5 2 -5 1 -6 2 -6 2 -6 2 -7 3 -6 2 -7 2 -7 3 -7 2 -7 3 -7 2 -7 3 -6 2 -7 3 -7 2 -6 3 -6 2 -6 3 -6 2 -5 2 -5 2 -4 2 -4 1 -4 2 -3 1 -3 1 -2 1 -2 1 -1 0 0 0 -17 0zm17 0l-9 3 -8 -3 17 0zm-182 -60l12 -43 0 0 5 1 6 2 5 2 7 2 6 2 6 2 7 2 7 3 7 2 7 3 7 2 7 3 7 2 7 3 7 3 7 2 6 3 7 2 6 3 6 2 6 2 5 2 5 2 5 2 4 2 4 1 3 1 3 2 2 0 1 1 1 0 1 1 -17 41 0 0 -1 0 -2 -1 -2 -1 -3 -1 -3 -1 -4 -2 -4 -1 -4 -2 -5 -2 -5 -2 -6 -2 -6 -3 -6 -2 -6 -3 -7 -2 -7 -3 -6 -2 -7 -3 -7 -2 -7 -3 -7 -2 -7 -3 -7 -2 -6 -2 -7 -3 -6 -2 -6 -2 -6 -2 -5 -1 -5 -2 -5 -1 0 0zm-378 -117l0 -45 0 0 10 0 12 1 11 1 12 2 12 3 12 2 13 3 13 3 12 4 13 4 14 4 13 4 13 5 14 5 13 4 13 5 14 5 13 5 13 5 14 5 12 5 13 5 13 5 12 5 12 4 12 5 11 4 11 4 11 3 10 3 10 3 9 3 -12 43 -10 -3 -10 -3 -11 -4 -11 -3 -12 -4 -11 -4 -12 -5 -13 -4 -12 -5 -13 -5 -13 -5 -12 -5 -13 -5 -14 -5 -13 -5 -13 -5 -13 -5 -13 -4 -13 -5 -13 -4 -13 -4 -13 -4 -12 -4 -12 -3 -12 -4 -12 -2 -11 -3 -10 -2 -11 -1 -10 -1 -9 -1 -8 0 0 0zm-276 58l-22 -39 0 0 9 -5 9 -5 9 -4 9 -4 9 -4 9 -4 9 -3 9 -4 9 -3 9 -3 10 -2 9 -3 9 -2 9 -2 9 -2 10 -2 9 -2 9 -1 10 -2 9 -1 10 -1 9 -1 9 -1 10 -1 9 0 10 -1 9 0 10 0 10 -1 9 0 10 0 10 0 0 45 -10 0 -9 0 -9 0 -10 0 -9 0 -9 1 -9 0 -9 1 -9 1 -9 0 -9 1 -8 1 -9 1 -9 2 -8 1 -9 2 -9 1 -8 2 -9 2 -8 2 -8 3 -9 2 -8 3 -8 2 -8 3 -9 4 -8 3 -8 3 -8 4 -8 4 -8 4 -8 5 0 0zm-215 178l6 -44 -19 7 0 -1 1 -1 2 -2 2 -2 3 -3 3 -4 4 -4 5 -4 5 -6 5 -5 6 -6 6 -6 6 -7 7 -6 7 -7 7 -7 8 -8 8 -7 8 -8 8 -7 9 -8 8 -7 9 -7 9 -8 8 -7 9 -7 9 -6 9 -7 9 -6 8 -6 9 -5 9 -5 22 39 -8 4 -7 5 -8 5 -8 6 -8 6 -8 6 -9 6 -8 7 -8 7 -9 7 -8 7 -8 7 -8 7 -8 8 -7 7 -8 7 -7 7 -7 7 -6 6 -7 6 -5 6 -6 6 -5 5 -5 5 -4 5 -4 4 -3 3 -3 3 -2 3 -2 1 -1 1 0 1 -20 7zm20 -7l-8 8 -12 -1 20 -7zm-231 42l-23 -38 0 0 10 -6 10 -5 10 -5 10 -4 10 -4 11 -3 10 -3 10 -3 10 -2 10 -2 10 -2 10 -1 10 -1 9 -1 9 -1 9 -1 9 0 8 0 8 0 8 0 7 0 7 0 6 0 6 0 5 1 4 0 4 0 4 1 3 0 2 0 1 0 0 1 -6 44 0 0 -1 0 -1 -1 -3 0 -3 0 -3 0 -4 -1 -5 0 -5 0 -6 0 -6 -1 -7 0 -6 0 -8 0 -7 1 -8 0 -8 1 -9 0 -8 1 -9 1 -9 1 -9 2 -9 2 -8 2 -9 2 -9 3 -9 3 -9 3 -8 3 -9 4 -8 4 -8 5 0 0zm-190 209l-39 -22 0 -1 1 -1 1 -2 2 -3 2 -4 3 -4 3 -5 3 -5 4 -6 5 -7 4 -7 5 -7 6 -8 6 -8 6 -8 6 -9 7 -9 8 -9 7 -9 8 -10 8 -9 9 -9 9 -10 9 -9 10 -9 9 -9 10 -9 11 -8 11 -9 10 -8 12 -7 11 -7 23 38 -10 6 -10 7 -10 7 -9 8 -10 7 -9 8 -9 9 -9 8 -8 9 -8 8 -8 9 -8 9 -8 9 -7 8 -7 9 -6 8 -6 8 -6 8 -6 8 -5 7 -5 7 -4 7 -4 6 -4 6 -3 5 -3 4 -2 4 -2 4 -2 2 -1 2 -1 1 0 1z"/>
    </g>
    <g>
     <path class="fil2" d="M3515 4267l-8 -227 45 -2 8 228 -44 5 -1 -4zm1 4l-1 -2 0 -2 1 4zm18 87l-18 -87 43 -9 19 87 -39 19 -5 -10zm5 10l-4 -4 -1 -6 5 10zm75 87l-75 -87 34 -29 75 86 2 4 -36 26zm34 -30l1 2 1 2 -2 -4zm61 200l-97 -174 38 -22 98 174 2 3 -41 19zm39 -22l1 2 1 1 -2 -3zm30 192l-70 -172 42 -17 70 172 0 1 -42 16zm42 -17l0 0 0 1 0 -1zm33 240l-75 -225 42 -14 75 225 -21 29 -21 -15zm21 15l-16 0 -5 -15 21 15zm2237 0l-2237 0 0 -45 2237 0 0 45z"/>
    </g>
   </g>
   <path class="fil3" d="M4199 5104c0,0 0,0 0,0 0,0 0,0 0,0 -152,8 -345,92 -496,117 -34,17 -50,34 -59,51 -17,25 -25,50 -17,75 0,25 9,51 42,76 17,8 42,25 76,33 638,-100 1596,-159 2554,0 34,-8 59,-16 76,-33 25,-17 42,-42 42,-67 0,-26 0,-68 -26,-93 -16,-17 -33,-33 -67,-42 0,0 -260,-101 -495,-117 -236,-17 -496,-17 -614,-17 -126,0 -260,0 -386,0 0,0 0,0 0,0 0,0 0,0 0,0 -219,0 -446,-76 -630,17z"/>
   <path class="fil4" d="M3627 5347c0,25 9,51 42,76 17,8 42,25 76,33 638,-100 1596,-159 2554,0 34,-8 59,-16 76,-33 25,-17 42,-42 42,-67 33,-185 -2840,-152 -2790,-9z"/>
   <path class="fil5 str1" d="M4199 5104c0,0 0,0 0,0 0,0 0,0 0,0 -152,8 -345,92 -496,117 -34,17 -50,34 -59,51 -17,25 -25,50 -17,75 0,25 9,51 42,76 17,8 42,25 76,33 638,-100 1596,-159 2554,0 34,-8 59,-16 76,-33 25,-17 42,-42 42,-67 0,-26 0,-68 -26,-93 -16,-17 -33,-33 -67,-42 0,0 -260,-101 -495,-117 -236,-17 -496,-17 -614,-17 -126,0 -260,0 -386,0 0,0 0,0 0,0 0,0 0,0 0,0 -219,0 -446,-76 -630,17"/>
   <path class="fil6 str2" d="M5148 5246c-50,-8 -101,-16 -143,-25 -42,-8 -75,-17 -109,-33 8,16 25,33 67,42 -33,0 -67,16 -84,16 17,9 59,17 84,17 -33,17 -50,34 -59,51 34,-9 68,-26 101,-34 42,-17 93,-25 143,-34z"/>
   <path class="fil6 str2" d="M4089 5297c-50,0 -100,-9 -142,-17 -42,-8 -76,-17 -110,-25 9,17 26,33 68,42 -34,0 -68,17 -84,25 16,8 58,8 84,8 -34,17 -51,34 -51,51 34,-17 59,-25 101,-42 34,-17 84,-34 134,-42z"/>
   <path class="fil6 str2" d="M6207 5347c-51,-17 -93,-25 -135,-42 -33,-17 -75,-33 -101,-50 9,17 26,33 59,50 -33,0 -67,0 -84,9 17,8 51,25 84,25 -33,8 -50,25 -59,42 34,-9 68,-17 101,-17 34,-17 84,-17 135,-17z"/>
   <path class="fil6" d="M4619 5263c-51,-8 -101,-17 -143,-25 -42,-8 -76,-17 -109,-34 8,17 25,34 67,42 -34,0 -67,17 -84,17 17,9 59,17 84,17 -34,17 -51,34 -59,50 34,-8 67,-25 101,-33 42,-9 92,-25 143,-34z"/>
   <path class="fil6" d="M5677 5272c-50,-9 -100,-17 -143,-34 -42,-8 -75,-25 -109,-34 9,17 25,34 59,51 -34,0 -67,8 -84,17 17,8 50,17 84,17 -34,8 -50,25 -59,42 34,-9 67,-26 101,-34 51,-9 101,-17 151,-25z"/>
   <polyline class="fil5 str3" points="6114,4978 6215,4692 6249,4574 6349,4507 6450,4280 6501,4221 6509,4011 "/>
   <path class="fil7" d="M6240 2978c109,25 219,67 311,160 84,84 135,176 168,294 34,109 34,176 17,285 -17,143 -101,286 -101,286l-151 -25c0,0 92,-193 101,-277 8,-101 8,-135 -17,-227 -25,-93 -67,-160 -126,-227 -59,-59 -151,-101 -235,-118 -76,-17 -168,-25 -236,-8 -134,25 -218,67 -361,117 -101,34 -185,42 -286,51 -67,0 -134,-9 -210,-25 -67,-17 -126,-34 -126,-34l42 -151c0,0 59,17 118,25 67,17 143,25 168,25 101,-8 160,-17 252,-42 135,-42 227,-84 378,-117 93,-26 193,-17 294,8z"/>
   <path class="fil6" d="M5005 3146l17 -76c0,0 59,17 118,26 67,16 142,25 168,25 100,-9 159,-17 252,-42 134,-42 227,-84 378,-118 101,-17 201,-8 302,17 109,25 219,67 311,160 84,84 135,176 168,294 34,109 34,176 17,285 -17,143 -101,286 -101,286l-75 -17c33,-67 92,-185 100,-277 34,-227 -33,-386 -117,-479 -93,-101 -311,-218 -488,-210 -210,8 -403,126 -647,168 -134,25 -268,25 -403,-42z"/>
   <line class="fil5 str4" x1="6635" y1="4003" x2="6484" y2="3978"/>
   <line class="fil5 str4" x1="4988" y1="3222" x2="5030" y2="3079"/>
   <path class="fil8" d="M6652 3835c0,50 34,84 84,84 50,0 84,-34 84,-84 0,-50 -34,-84 -84,-84 -42,0 -84,42 -84,84z"/>
   <path class="fil5 str5" d="M6652 3835c0,50 34,84 84,84 50,0 84,-34 84,-84 0,-50 -34,-84 -84,-84 -42,0 -84,42 -84,84"/>
   <path class="fil8" d="M6694 3633c0,51 34,84 84,84 50,0 84,-33 84,-84 0,-50 -34,-84 -84,-84 -50,0 -84,42 -84,84z"/>
   <path class="fil5 str5" d="M6694 3633c0,51 34,84 84,84 42,0 84,-33 84,-84 0,-50 -34,-84 -84,-84 -50,0 -84,42 -84,84"/>
   <path class="fil8" d="M6686 3423c0,51 33,84 84,84 42,0 84,-33 84,-84 0,-50 -34,-84 -84,-84 -51,0 -84,42 -84,84z"/>
   <path class="fil5 str5" d="M6686 3423c0,51 33,84 84,84 42,0 84,-33 84,-84 0,-50 -34,-84 -84,-84 -51,0 -84,42 -84,84"/>
   <path class="fil8" d="M6601 3230c0,50 34,84 85,84 42,0 84,-34 84,-84 0,-50 -34,-84 -84,-84 -51,0 -85,34 -85,84z"/>
   <path class="fil5 str5" d="M6601 3230c0,50 34,84 85,84 42,0 84,-34 84,-84 0,-50 -34,-84 -84,-84 -51,0 -85,34 -85,84"/>
   <path class="fil8" d="M6450 3070c0,51 34,84 84,84 42,0 84,-33 84,-84 0,-50 -33,-84 -84,-84 -50,0 -84,42 -84,84z"/>
   <path class="fil5 str5" d="M6450 3070c0,51 34,84 84,84 42,0 84,-33 84,-84 0,-50 -33,-84 -84,-84 -50,0 -84,42 -84,84"/>
   <path class="fil8" d="M6265 2970c0,50 34,84 84,84 51,0 84,-34 84,-84 0,-51 -33,-84 -84,-84 -50,0 -84,33 -84,84z"/>
   <path class="fil5 str5" d="M6265 2970c0,50 34,84 84,84 51,0 84,-34 84,-84 0,-51 -33,-84 -84,-84 -50,0 -84,33 -84,84"/>
   <path class="fil8" d="M6047 2919c0,51 34,84 84,84 50,0 84,-33 84,-84 0,-50 -34,-84 -84,-84 -50,0 -84,34 -84,84z"/>
   <path class="fil5 str5" d="M6047 2911c0,50 34,84 84,84 50,0 84,-34 84,-84 0,-51 -34,-84 -84,-84 -50,0 -84,42 -84,84"/>
   <path class="fil8" d="M5829 2928c0,50 33,84 84,84 42,0 84,-34 84,-84 0,-51 -34,-84 -84,-84 -51,0 -84,33 -84,84z"/>
   <path class="fil5 str5" d="M5829 2928c0,50 33,84 84,84 42,0 84,-34 84,-84 0,-51 -34,-84 -84,-84 -51,0 -84,33 -84,84"/>
   <path class="fil8" d="M5224 3079c0,50 33,84 84,84 50,0 84,-34 84,-84 0,-51 -34,-84 -84,-84 -51,0 -84,42 -84,84z"/>
   <path class="fil5 str5" d="M5232 3079c0,50 34,84 84,84 42,0 84,-34 84,-84 0,-51 -34,-84 -84,-84 -50,0 -84,42 -84,84"/>
   <path class="fil8" d="M5619 2986c0,51 33,84 84,84 42,0 84,-33 84,-84 0,-50 -34,-84 -84,-84 -51,0 -84,34 -84,84z"/>
   <path class="fil5 str5" d="M5619 2986c0,51 33,84 84,84 42,0 84,-33 84,-84 0,-50 -34,-84 -84,-84 -51,0 -84,34 -84,84"/>
   <path class="fil8" d="M5425 3045c0,51 34,84 84,84 42,0 84,-33 84,-84 0,-50 -33,-84 -84,-84 -50,0 -84,34 -84,84z"/>
   <path class="fil5 str5" d="M5425 3045c0,51 34,84 84,84 42,0 84,-33 84,-84 0,-50 -33,-84 -84,-84 -50,0 -84,34 -84,84"/>
   <path class="fil7" d="M3787 2978c-109,25 -218,67 -311,160 -84,84 -134,176 -168,294 -34,109 -34,176 -17,285 17,143 101,286 101,286l151 -25c0,0 -92,-193 -100,-277 -9,-101 -9,-135 16,-227 26,-93 68,-160 126,-227 59,-59 152,-101 236,-118 75,-17 168,-25 235,-8 134,25 218,67 361,117 101,34 185,42 286,51 67,0 134,-9 210,-25 67,-17 126,-34 126,-34l-42 -151c0,0 -59,17 -118,25 -67,17 -143,25 -168,25 -101,-8 -159,-17 -252,-42 -134,-42 -227,-84 -378,-117 -92,-26 -193,-17 -294,8z"/>
   <path class="fil6" d="M5022 3146l-17 -76c0,0 -59,17 -117,26 -68,16 -143,25 -168,25 -101,-9 -160,-17 -253,-42 -134,-42 -226,-84 -378,-118 -100,-17 -201,-8 -302,17 -109,25 -218,67 -311,160 -84,84 -134,176 -168,294 -34,109 -34,176 -17,285 17,143 101,286 101,286l76 -17c-34,-67 -93,-185 -101,-277 -34,-227 33,-386 117,-479 93,-101 311,-218 488,-210 210,8 403,126 647,168 134,25 269,25 403,-42z"/>
   <line class="fil5 str4" x1="3392" y1="4003" x2="3543" y2="3978"/>
   <line class="fil5 str4" x1="5039" y1="3222" x2="4997" y2="3079"/>
   <path class="fil8" d="M3375 3835c0,50 -33,84 -84,84 -50,0 -84,-34 -84,-84 0,-50 34,-84 84,-84 51,0 84,42 84,84z"/>
   <path class="fil5 str5" d="M3375 3835c0,50 -33,84 -84,84 -42,0 -84,-34 -84,-84 0,-50 34,-84 84,-84 42,0 84,42 84,84"/>
   <path class="fil8" d="M3333 3633c0,51 -33,84 -84,84 -50,0 -84,-33 -84,-84 0,-50 34,-84 84,-84 51,0 84,42 84,84z"/>
   <path class="fil5 str5" d="M3329 3632c0,51 -34,84 -84,84 -51,0 -84,-33 -84,-84 0,-50 33,-84 84,-84 50,0 84,42 84,84"/>
   <path class="fil8" d="M3342 3423c0,51 -34,84 -84,84 -42,0 -84,-33 -84,-84 0,-50 33,-84 84,-84 50,0 84,42 84,84z"/>
   <path class="fil5 str5" d="M3350 3423c0,51 -33,84 -84,84 -42,0 -84,-33 -84,-84 0,-50 34,-84 84,-84 42,0 84,42 84,84"/>
   <path class="fil8" d="M3426 3230c0,50 -34,84 -84,84 -51,0 -84,-34 -84,-84 0,-50 33,-84 84,-84 50,0 84,34 84,84z"/>
   <path class="fil5 str5" d="M3426 3230c0,50 -34,84 -84,84 -42,0 -84,-34 -84,-84 0,-50 33,-84 84,-84 50,0 84,34 84,84"/>
   <path class="fil8" d="M3577 3070c0,51 -34,84 -84,84 -51,0 -84,-33 -84,-84 0,-50 33,-84 84,-84 50,0 84,42 84,84z"/>
   <path class="fil5 str5" d="M3577 3070c0,51 -34,84 -84,84 -42,0 -84,-33 -84,-84 0,-50 33,-84 84,-84 50,0 84,42 84,84"/>
   <path class="fil8" d="M3762 2970c0,50 -34,84 -84,84 -51,0 -84,-34 -84,-84 0,-51 33,-84 84,-84 50,0 84,33 84,84z"/>
   <path class="fil5 str5" d="M3770 2970c0,50 -33,84 -84,84 -42,0 -84,-34 -84,-84 0,-51 34,-84 84,-84 42,0 84,33 84,84"/>
   <path class="fil8" d="M3980 2919c0,51 -33,84 -84,84 -50,0 -84,-33 -84,-84 0,-50 34,-84 84,-84 51,0 84,34 84,84z"/>
   <path class="fil5 str5" d="M3980 2911c0,50 -33,84 -84,84 -50,0 -84,-34 -84,-84 0,-51 34,-84 84,-84 51,0 84,42 84,84"/>
   <path class="fil8" d="M4199 2928c0,50 -34,84 -84,84 -42,0 -84,-34 -84,-84 0,-51 33,-84 84,-84 50,0 84,33 84,84z"/>
   <path class="fil5 str5" d="M4199 2928c0,50 -34,84 -84,84 -42,0 -84,-34 -84,-84 0,-51 33,-84 84,-84 50,0 84,33 84,84"/>
   <path class="fil8" d="M4804 3079c0,50 -34,84 -84,84 -51,0 -84,-34 -84,-84 0,-51 33,-84 84,-84 50,0 84,42 84,84z"/>
   <path class="fil5 str5" d="M4804 3079c0,50 -34,84 -84,84 -42,0 -84,-34 -84,-84 0,-51 33,-84 84,-84 42,0 84,42 84,84"/>
   <path class="fil8" d="M4409 2986c0,51 -34,84 -84,84 -51,0 -84,-33 -84,-84 0,-50 33,-84 84,-84 50,0 84,34 84,84z"/>
   <path class="fil5 str5" d="M4409 2986c0,51 -34,84 -84,84 -42,0 -84,-33 -84,-84 0,-50 33,-84 84,-84 50,0 84,34 84,84"/>
   <path class="fil8" d="M4602 3045c0,51 -34,84 -84,84 -42,0 -84,-33 -84,-84 0,-50 33,-84 84,-84 50,0 84,34 84,84z"/>
   <path class="fil5 str5" d="M4610 3045c0,51 -33,84 -84,84 -42,0 -84,-33 -84,-84 0,-50 34,-84 84,-84 42,0 84,34 84,84"/>
   <path class="fil6" d="M4812 2701c25,-25 50,-51 67,-76 25,-33 42,-67 51,-109 -42,8 -76,25 -110,50 -25,26 -50,51 -75,68l0 -362c25,26 50,51 75,68 34,25 68,42 110,50 -9,-42 -26,-76 -51,-109 -25,-25 -50,-51 -67,-76l403 0c-25,25 -50,51 -67,76 -25,33 -42,67 -50,109 42,-8 75,-25 109,-51 25,-25 50,-50 75,-67l0 362c-25,-26 -50,-51 -75,-68 -34,-25 -67,-42 -109,-50 8,42 25,76 50,109 25,25 50,51 67,76l-403 0z"/>
   <path class="fil6" d="M5114 2449c0,59 -42,101 -100,101 -59,0 -101,-42 -101,-101 0,-59 42,-101 101,-101 58,0 100,50 100,101z"/>
   <path class="fil6 str6" d="M5240 2928c0,126 -100,226 -226,226 -126,0 -227,-100 -227,-226 0,-126 101,-227 227,-227 126,0 226,101 226,227z"/>
   <path class="fil6" d="M4938 3104l151 0c42,0 76,34 76,76l0 697c0,42 -34,76 -76,76l-151 0c-42,0 -76,-34 -76,-76l0 -697c0,-34 34,-76 76,-76z"/>
   <path class="fil6" d="M4938 3104l151 0c42,0 76,34 76,76l0 252 -303 84 0 -336c0,-42 34,-76 76,-76z"/>
   <line class="fil5 str4" x1="5165" y1="3180" x2="5165" y2="3885"/>
   <path class="fil5 str4" d="M5165 3885c0,42 -34,76 -76,76"/>
   <line class="fil5 str4" x1="5089" y1="3961" x2="4938" y2="3961"/>
   <path class="fil5 str4" d="M4938 3961c-42,0 -76,-34 -76,-76"/>
   <line class="fil5 str4" x1="4862" y1="3885" x2="4862" y2="3180"/>
   <path class="fil6 str6" d="M4854 3104l0 0c25,0 50,17 50,42l0 773c0,25 -25,42 -50,42 -25,0 -50,-17 -50,-42l0 -773c0,-17 25,-42 50,-42z"/>
   <path class="fil5 str7" d="M4904 3919c0,25 -25,42 -50,42 -25,0 -50,-17 -50,-42"/>
   <path class="fil6 str6" d="M5173 3104c25,0 51,17 51,42l0 773c0,25 -26,42 -51,42 -25,0 -50,-17 -50,-42l0 -773c8,-17 25,-42 50,-42z"/>
   <path class="fil5 str7" d="M5224 3919c0,25 -26,42 -51,42"/>
   <path class="fil5 str7" d="M5173 3961c-25,0 -50,-17 -50,-42"/>
   <path class="fil8" d="M5098 3129c0,51 -34,84 -84,84 -42,0 -84,-33 -84,-84 0,-50 33,-84 84,-84 42,0 84,34 84,84z"/>
   <path class="fil5 str5" d="M5098 3129c0,51 -34,84 -84,84 -42,0 -84,-33 -84,-84 0,-50 33,-84 84,-84 50,0 84,34 84,84"/>
   <path class="fil8" d="M5098 3297c0,51 -34,84 -84,84 -42,0 -84,-33 -84,-84 0,-50 33,-84 84,-84 42,0 84,34 84,84z"/>
   <path class="fil5 str5" d="M5098 3289c0,50 -34,84 -84,84 -42,0 -84,-34 -84,-84 0,-51 33,-84 84,-84 50,0 84,42 84,84"/>
   <path class="fil8" d="M5098 3457c0,50 -34,84 -84,84 -42,0 -84,-34 -84,-84 0,-50 33,-84 84,-84 42,0 84,42 84,84z"/>
   <path class="fil5 str5" d="M5098 3457c0,50 -34,84 -84,84 -42,0 -84,-34 -84,-84 0,-50 33,-84 84,-84 50,0 84,42 84,84"/>
   <path class="fil8" d="M5098 3625c0,50 -34,84 -84,84 -42,0 -84,-34 -84,-84 0,-50 33,-84 84,-84 42,0 84,42 84,84z"/>
   <path class="fil5 str5" d="M5098 3625c0,50 -34,84 -84,84 -42,0 -84,-34 -84,-84 0,-50 33,-84 84,-84 50,0 84,42 84,84"/>
   <path class="fil8" d="M5098 3793c0,50 -34,84 -84,84 -42,0 -84,-34 -84,-84 0,-50 33,-84 84,-84 42,0 84,42 84,84z"/>
   <path class="fil5 str5" d="M5098 3793c0,50 -34,84 -84,84 -42,0 -84,-34 -84,-84 0,-50 33,-84 84,-84 50,0 84,42 84,84"/>
   <path class="fil6" d="M6501 4322c-76,177 -143,353 -202,530l-1285 0 -1286 0c-59,-177 -126,-362 -201,-530 0,0 159,227 277,278 67,33 151,42 218,16 93,-33 210,-193 210,-193 0,0 109,126 185,160 67,33 151,33 227,25 67,0 143,-8 193,-42 84,-59 168,-252 168,-252 0,0 84,151 143,210 50,50 118,84 193,92 67,17 143,9 210,-16 93,-34 236,-169 236,-169 0,0 100,126 168,152 67,33 151,42 218,25 76,-17 134,-76 193,-126 51,-42 135,-160 135,-160z"/>
   <polyline class="fil5 str4" points="6291,4860 5955,4860 5014,4860 4031,4860 3728,4860 "/>
   <path class="fil9" d="M5014 4423c0,0 -59,93 -93,118 -50,42 -84,67 -143,92 -67,17 -151,34 -218,25 -67,0 -134,-25 -193,-50 -51,-25 -135,-92 -135,-92 -42,50 -92,84 -134,117 -59,34 -118,34 -185,34 -126,-9 -252,-84 -344,-252 -59,-152 -135,-294 -227,-454 101,-34 227,-59 361,-59 -50,151 -109,303 -92,429 109,-84 151,-202 184,-311l135 462c-76,-17 -34,-34 -244,-67 42,75 135,176 244,184 67,9 126,-16 168,-50 33,-25 59,-67 59,-109 0,-25 0,-51 0,-76 0,-17 -17,-33 -34,-33 -17,0 -17,25 -25,33 -9,25 8,59 0,84 -9,34 -25,59 -51,76 -25,17 -75,17 -75,17l17 -68c8,-50 -34,-84 -42,-134 -9,-34 -9,-67 0,-92 8,-34 33,-68 67,-76 8,-8 25,-8 33,-8 17,0 51,8 51,8 0,0 -9,-50 -9,-76 0,-33 34,-100 51,-134 25,-50 75,-101 75,-101 9,9 51,51 85,101 16,34 42,76 42,109 8,25 0,93 0,93 0,0 50,-26 67,-26 8,0 25,0 42,0 33,9 59,42 75,76 17,25 9,67 9,92 -9,51 -34,84 -17,135l25 67c0,0 -59,0 -75,-8 -26,-17 -51,-42 -59,-68 -9,-25 0,-58 -25,-84 -9,-8 -17,-25 -34,-16 -17,0 -25,25 -25,42l0 67c0,17 8,42 17,59 25,42 67,67 109,84 50,16 92,25 143,25 42,0 117,-9 159,-17 51,-17 76,-42 118,-76 25,-16 33,-50 42,-75 8,-34 8,-84 8,-84 -50,17 -92,42 -134,75 -42,34 -84,76 -118,110l0 -555c51,59 93,109 143,151 42,34 67,51 109,68 -8,-42 -16,-76 -50,-118 -42,-59 -84,-126 -143,-193 101,-17 202,-17 294,-17 101,0 202,8 294,17 -50,59 -101,126 -143,193 -33,42 -33,76 -50,118 42,-17 67,-26 109,-68 51,-42 93,-92 143,-151l0 555c-34,-42 -76,-76 -118,-110 -42,-33 -84,-58 -134,-75 0,0 0,59 8,84 9,25 26,59 42,75 42,34 68,59 118,76 42,17 118,17 160,17 50,0 92,-9 142,-25 42,-17 84,-42 110,-84 8,-17 16,-34 16,-59l0 -67c0,-17 -8,-42 -25,-42 -17,0 -25,8 -33,16 -17,26 -9,59 -26,84 -8,34 -25,51 -58,68 -26,16 -76,8 -76,8l25 -67c17,-51 -17,-84 -17,-135 -8,-33 -8,-67 9,-92 17,-34 42,-59 75,-76 9,-8 26,0 42,0 17,0 68,26 68,26 0,0 0,-59 0,-93 8,-33 25,-75 42,-109 33,-50 84,-92 84,-101 8,9 50,51 75,101 17,34 51,101 51,134 0,26 -9,76 -9,76 0,0 34,-8 51,-8 8,0 25,0 33,8 34,17 59,42 68,76 8,33 8,67 0,92 -9,50 -59,84 -42,134l16 68c0,0 -58,0 -75,-17 -25,-17 -42,-42 -51,-76 -8,-25 9,-59 0,-84 0,-17 -8,-42 -25,-33 -17,0 -33,25 -33,33 0,25 0,51 0,76 0,42 25,75 58,109 42,42 93,59 168,50 110,-8 202,-109 244,-184 -210,42 -168,58 -244,67l135 -462c42,117 75,227 185,311 16,-126 -34,-269 -93,-429 135,9 252,25 362,59 -93,160 -160,302 -227,454 -93,159 -219,243 -345,252 -67,0 -126,0 -185,-34 -50,-25 -100,-59 -134,-117 0,0 -84,75 -134,92 -59,25 -127,50 -194,50 -67,0 -159,-8 -218,-25 -67,-17 -101,-42 -143,-92 -51,-25 -109,-118 -109,-118z"/>
   <path class="fil9" d="M6106 4583l0 0c109,-9 201,-109 243,-185 -210,42 -168,59 -243,67l134 -462c42,118 76,227 185,311 17,-126 -34,-269 -92,-429 134,9 252,26 361,59 -92,160 -160,303 -227,454 -92,160 -218,244 -344,252l0 8 -17 -75zm-2201 84c-126,-9 -252,-84 -345,-252 -59,-152 -134,-294 -227,-454 101,-34 227,-59 362,-59 -51,151 -110,303 -93,429 109,-84 151,-202 185,-311l134 462c-75,-17 -33,-34 -243,-67 42,75 134,176 243,185l-16 67z"/>
   <path class="fil8" d="M5106 4238c0,51 -42,93 -92,93 -51,0 -93,-42 -93,-93 0,-50 42,-92 93,-92 50,0 92,42 92,92z"/>
   <path class="fil5 str8" d="M5106 4238c0,51 -42,93 -92,93 -51,0 -93,-42 -93,-93 0,-50 42,-92 93,-92 50,0 92,42 92,92"/>
   <path class="fil8" d="M3669 4364c0,51 -42,93 -92,93 -50,0 -92,-42 -92,-93 0,-50 42,-92 92,-92 50,0 92,42 92,92z"/>
   <path class="fil5 str8" d="M3669 4364c0,51 -42,93 -92,93 -50,0 -92,-42 -92,-93 0,-50 42,-92 92,-92 50,0 92,42 92,92"/>
   <path class="fil8" d="M6358 4364c0,51 42,93 92,93 51,0 93,-42 93,-93 0,-50 -42,-92 -93,-92 -50,0 -92,42 -92,92z"/>
   <path class="fil5 str8" d="M6366 4364c0,51 42,93 93,93 50,0 92,-42 92,-93 0,-50 -50,-92 -101,-92 -50,0 -84,42 -84,92"/>
   <polygon class="fil6" points="4140,4381 4341,4364 4367,4406 4341,4457 4140,4465 4106,4423 "/>
   <polygon class="fil6" points="5887,4381 5686,4364 5661,4406 5686,4457 5887,4465 5921,4423 "/>
   <path class="fil9" d="M3752 5129c0,0 143,-9 395,-25 252,-17 521,-26 655,-26 25,0 395,0 420,0 135,0 412,9 655,26 253,16 395,25 395,25l84 -395c0,0 -899,-84 -1344,-84 -454,0 -1344,84 -1344,84l84 395z"/>
   <path class="fil7" d="M4804 5062c-143,0 -412,8 -664,25 -160,8 -244,25 -403,42l16 33c160,-16 236,-16 395,-25 252,-17 521,-25 656,-25 25,0 394,0 420,0 134,0 411,8 655,25 252,17 403,25 403,25l9 -33c0,0 -152,-25 -404,-42 -252,-17 -529,-25 -663,-25 -26,0 -404,0 -420,0z"/>
   <path class="fil5 str4" d="M5005 4684c454,0 899,25 1353,75"/>
   <path class="fil5 str4" d="M6274 5154c-445,-42 -807,-50 -1260,-50"/>
   <path class="fil5 str4" d="M5022 4684c-454,0 -899,25 -1353,75"/>
   <path class="fil5 str4" d="M3753 5154c446,-42 807,-50 1261,-50"/>
   <path class="fil6" d="M4140 4700l0 0 0 0c-160,9 -345,26 -504,51 -25,25 -25,50 17,75 151,-25 336,-33 495,-42 219,-8 437,-16 656,-25l420 0c134,0 403,9 655,25 244,17 496,42 496,42 42,-25 42,-50 16,-75 0,0 -252,-34 -504,-51 -252,-16 -529,-25 -663,-25l-420 0c-219,0 -446,9 -664,25z"/>
   <path class="fil7" d="M6408 4768c0,-9 -8,-17 -17,-26 0,0 -252,-33 -504,-50 -252,-17 -529,-25 -663,-25l-420 0c-219,0 -446,8 -664,25l0 0 0 0c-160,8 -345,25 -504,42 -9,17 -17,17 -17,25 185,-17 344,-33 529,-50 286,-17 597,-17 866,-25 268,0 537,8 798,25 201,25 403,42 596,59z"/>
   <path class="fil6" d="M3627 4801c9,9 17,9 26,17 151,-25 336,-34 495,-42 219,-8 437,-17 656,-25l420 0c134,0 403,8 655,25 244,17 496,42 496,42 16,-8 16,-8 25,-17 -479,-67 -916,-75 -1370,-75 -445,-9 -949,16 -1403,75z"/>
   <polyline class="fil5 str9" points="4140,4692 4140,4700 4140,4700 "/>
   <path class="fil7" d="M4199 5104l0 0 0 0c-152,8 -320,25 -471,50 -25,25 -25,50 17,76 143,-26 311,-34 462,-42 202,-9 403,-17 605,-26l386 0c118,0 379,9 605,26 227,16 462,42 462,42 42,-26 34,-51 17,-76 0,0 -235,-34 -470,-50 -235,-17 -488,-26 -614,-26l-386 0c-202,0 -403,17 -613,26z"/>
   <path class="fil6" d="M6307 5179c0,-8 -8,-17 -16,-25 0,0 -236,-34 -471,-50 -235,-17 -487,-26 -613,-26l-387 0c-201,0 -411,9 -613,26l0 0 0 0c-151,8 -319,25 -470,42 -9,16 -17,16 -17,25 176,-17 319,-34 487,-51 269,-16 555,-16 807,-25 252,0 504,9 747,25 185,17 370,34 546,59z"/>
   <path class="fil6" d="M3728 5204c9,9 9,9 25,17 143,-25 311,-33 462,-42 202,-8 404,-17 605,-25l387 0c117,0 378,8 605,25 227,17 462,42 462,42 8,-8 17,-8 17,-17 -446,-67 -849,-75 -1277,-75 -404,0 -866,17 -1286,75z"/>
   <polygon class="fil6" points="3720,5104 3930,4936 3678,4843 3669,4986 "/>
   <polygon class="fil7" points="3711,5070 3863,4944 3678,4885 3644,4986 "/>
   <path class="fil7" d="M4661 4843c0,25 -17,42 -42,42 -26,0 -42,-17 -42,-42 0,-25 16,-42 42,-42 25,-8 42,17 42,42z"/>
   <polygon class="fil6" points="6307,5104 6106,4936 6358,4843 6358,4986 "/>
   <polygon class="fil7" points="6316,5070 6165,4944 6349,4885 6383,4986 "/>
   <path class="fil7" d="M5366 4843c0,25 17,42 42,42 26,0 43,-17 43,-42 0,-25 -17,-42 -43,-42 -25,-8 -42,17 -42,42z"/>
   <path class="fil7" d="M4661 4989c0,26 -17,42 -42,42 -26,0 -42,-16 -42,-42 0,-25 16,-42 42,-42 25,-8 42,17 42,42z"/>
   <path class="fil7" d="M5366 4989c0,26 17,42 42,42 26,0 43,-16 43,-42 0,-25 -17,-42 -43,-42 -25,-8 -42,17 -42,42z"/>
  </g>
  <path class="fil10" d="M3526 7714l-124 0 0 -791c-30,29 -69,57 -117,86 -49,28 -93,49 -131,64l0 -120c69,-33 130,-72 182,-119 52,-46 89,-91 110,-135l80 0 0 1015z"/>
  <path id="1" class="fil10" d="M4496 7595l0 119 -669 0c-1,-30 4,-59 15,-87 17,-45 44,-90 82,-134 38,-44 92,-95 163,-152 109,-90 183,-162 222,-214 39,-53 59,-103 59,-150 0,-49 -18,-91 -53,-124 -36,-34 -82,-51 -138,-51 -60,0 -108,18 -144,54 -36,35 -54,85 -55,148l-127 -13c9,-95 42,-167 99,-217 57,-50 133,-75 229,-75 97,0 174,27 231,81 56,54 85,120 85,200 0,40 -9,80 -25,119 -17,39 -44,81 -83,124 -38,43 -102,102 -191,178 -74,62 -122,104 -144,127 -21,22 -38,45 -52,67l496 0z"/>
  <path id="2" class="fil10" d="M4630 7446l125 -17c14,70 38,121 72,152 34,31 76,47 126,47 58,0 108,-21 148,-61 40,-41 60,-91 60,-150 0,-57 -19,-104 -56,-142 -37,-36 -84,-55 -142,-55 -24,0 -53,5 -88,14l14 -109c8,1 15,2 20,2 53,0 101,-14 143,-42 43,-27 64,-70 64,-127 0,-45 -16,-83 -47,-113 -30,-30 -70,-44 -119,-44 -48,0 -88,15 -121,46 -32,30 -53,76 -62,137l-124 -22c15,-84 50,-148 104,-194 53,-46 120,-69 200,-69 55,0 106,12 152,36 47,23 82,55 107,96 25,41 37,84 37,130 0,44 -12,83 -35,119 -24,36 -59,64 -104,85 59,14 106,43 139,86 33,43 49,98 49,163 0,88 -32,163 -96,225 -65,61 -146,92 -244,92 -89,0 -163,-27 -221,-80 -59,-53 -92,-121 -101,-205z"/>
  <path id="3" class="fil10" d="M5812 7714l0 -242 -439 0 0 -114 461 -655 102 0 0 655 137 0 0 114 -137 0 0 242 -124 0zm0 -356l0 -455 -317 455 317 0z"/>
  <path id="4" class="fil10" d="M6200 7448l130 -10c9,64 32,111 67,143 34,32 77,48 127,48 60,0 111,-23 152,-68 41,-45 62,-104 62,-179 0,-71 -20,-126 -59,-167 -39,-41 -91,-62 -156,-62 -40,0 -76,10 -108,28 -32,18 -57,42 -75,71l-117 -17 97 -519 501 0 0 119 -402 0 -54 272c61,-42 124,-64 190,-64 88,0 163,31 223,92 60,61 91,140 91,236 0,91 -27,170 -80,237 -65,82 -153,123 -265,123 -92,0 -166,-26 -225,-78 -58,-51 -91,-120 -99,-205z"/>
 </g>
</svg>