<?xml version="1.0" encoding="UTF-8"?>
<!DOCTYPE svg PUBLIC "-//W3C//DTD SVG 1.1//EN" "http://www.w3.org/Graphics/SVG/1.1/DTD/svg11.dtd">
<!-- Creator: CorelDRAW X8 -->
<svg xmlns="http://www.w3.org/2000/svg" xml:space="preserve" width="100mm" height="100mm" version="1.1" style="shape-rendering:geometricPrecision; text-rendering:geometricPrecision; image-rendering:optimizeQuality; fill-rule:evenodd; clip-rule:evenodd" viewBox="0 0 10000 10000" xmlns:xlink="http://www.w3.org/1999/xlink">
 <defs>
  <style type="text/css">
   <![CDATA[
    .str0 {stroke:#FEFEFE;stroke-width:25}
    .str1 {stroke:#FEFEFE;stroke-width:25}
    .fil2 {fill:none}
    .fil0 {fill:#2B2A29}
    .fil1 {fill:#E6CD54;fill-rule:nonzero}
   ]]>
  </style>
 </defs>
 <g id="Layer_x0020_1">
  <metadata id="CorelCorpID_0Corel-Layer"/>
  <rect class="fil0 str0" width="10000" height="10000"/>
  <path class="fil1" d="M2927 6264l-124 0 0 -791c-30,29 -69,57 -117,86 -49,28 -93,50 -131,64l0 -120c69,-33 130,-72 182,-119 52,-46 89,-91 110,-135l80 0 0 1015z"/>
  <path id="1" class="fil1" d="M3897 6145l0 119 -669 0c-1,-30 4,-59 15,-86 17,-46 44,-91 82,-135 38,-44 92,-95 163,-152 109,-90 183,-161 222,-214 39,-53 59,-103 59,-150 0,-49 -18,-90 -53,-124 -36,-34 -82,-51 -138,-51 -60,0 -108,18 -144,54 -36,35 -54,85 -55,148l-127 -13c9,-95 42,-167 99,-217 57,-50 133,-75 229,-75 97,0 174,27 231,81 56,54 85,121 85,200 0,41 -9,80 -25,119 -17,40 -44,81 -83,124 -38,43 -102,103 -191,178 -74,62 -122,105 -144,127 -21,22 -38,45 -52,67l496 0z"/>
  <path id="2" class="fil1" d="M4031 5996l124 -17c15,70 39,121 73,152 34,31 76,47 125,47 59,0 109,-20 149,-61 40,-40 60,-90 60,-150 0,-57 -19,-104 -56,-141 -37,-37 -85,-56 -142,-56 -24,0 -53,5 -88,14l14 -109c8,1 15,2 20,2 53,0 101,-14 143,-42 43,-27 64,-69 64,-127 0,-45 -16,-83 -47,-112 -30,-30 -70,-45 -119,-45 -48,0 -89,15 -121,46 -32,30 -53,76 -62,137l-124 -22c15,-84 50,-148 103,-194 54,-46 121,-69 201,-69 55,0 106,12 152,36 47,23 82,56 107,96 24,41 37,84 37,130 0,44 -12,83 -35,119 -24,36 -59,64 -105,85 60,14 107,43 140,86 33,44 49,98 49,163 0,88 -32,163 -96,225 -65,61 -146,92 -244,92 -89,0 -163,-27 -221,-80 -59,-53 -92,-121 -101,-205z"/>
  <path id="3" class="fil1" d="M5213 6264l0 -241 -439 0 0 -115 461 -655 102 0 0 655 137 0 0 115 -137 0 0 241 -124 0zm0 -356l0 -454 -317 454 317 0z"/>
  <path id="4" class="fil1" d="M5607 5939l125 -11c6,51 20,92 42,125 22,33 56,59 101,79 46,20 98,30 155,30 51,0 96,-7 135,-23 39,-15 68,-36 87,-62 19,-27 29,-56 29,-87 0,-31 -9,-59 -27,-83 -19,-23 -49,-43 -91,-59 -28,-11 -87,-27 -180,-49 -93,-23 -158,-44 -195,-63 -49,-26 -84,-57 -108,-95 -24,-37 -35,-79 -35,-126 0,-51 14,-99 43,-143 29,-44 71,-78 127,-101 55,-23 117,-34 185,-34 75,0 141,12 198,36 57,24 101,59 132,106 31,47 47,100 50,160l-129 9c-6,-63 -30,-112 -69,-144 -40,-33 -99,-49 -177,-49 -80,0 -140,15 -176,45 -37,29 -56,65 -56,107 0,36 13,66 39,89 26,24 93,48 202,72 109,25 183,46 224,65 58,27 102,61 130,103 28,41 41,89 41,143 0,54 -15,104 -46,151 -30,48 -74,85 -132,111 -58,27 -122,40 -195,40 -91,0 -167,-14 -229,-40 -62,-27 -110,-67 -145,-120 -35,-54 -54,-114 -55,-182z"/>
  <path id="5" class="fil1" d="M7311 5909l134 34c-28,110 -78,194 -151,251 -72,58 -161,87 -266,87 -109,0 -198,-22 -266,-67 -68,-44 -120,-108 -155,-192 -36,-84 -54,-174 -54,-271 0,-105 20,-197 61,-275 40,-78 97,-138 171,-179 74,-40 156,-60 245,-60 101,0 186,25 254,77 69,51 117,123 144,217l-131 31c-23,-74 -57,-127 -102,-161 -44,-33 -100,-50 -168,-50 -77,0 -142,18 -194,56 -52,37 -89,87 -110,149 -21,63 -31,128 -31,194 0,86 12,161 37,225 25,64 64,112 117,144 52,32 109,47 170,47 75,0 138,-21 190,-64 52,-43 87,-107 105,-193z"/>
  <path class="fil1" d="M4843 4392l134 34c-28,110 -78,193 -151,251 -72,58 -161,86 -266,86 -109,0 -197,-22 -266,-66 -68,-44 -120,-108 -155,-192 -36,-85 -54,-175 -54,-271 0,-105 20,-197 61,-275 40,-79 97,-138 171,-179 74,-41 156,-61 245,-61 101,0 186,26 254,77 69,52 117,124 144,217l-131 31c-23,-73 -57,-127 -102,-160 -44,-34 -100,-50 -168,-50 -77,0 -142,18 -194,55 -52,37 -89,88 -109,150 -22,63 -32,128 -32,194 0,86 12,161 37,225 25,64 64,112 117,144 52,31 109,47 171,47 74,0 137,-21 189,-64 52,-44 87,-108 105,-193z"/>
  <path id="1" class="fil1" d="M5143 4747l0 -1011 381 0c67,0 118,3 154,10 50,8 91,24 125,47 33,23 60,56 81,97 20,42 31,88 31,138 0,85 -28,158 -83,217 -54,60 -153,90 -296,90l-259 0 0 412 -134 0zm134 -531l261 0c86,0 147,-16 184,-48 36,-32 54,-78 54,-136 0,-42 -10,-78 -32,-109 -21,-30 -49,-50 -84,-59 -23,-6 -64,-9 -125,-9l-258 0 0 361z"/>
  <g id="_2464251001360">
   <line class="fil2 str1" x1="5000" y1="0" x2="5000" y2="0"/>
  </g>
  <g id="_2464251002352">
   <line class="fil2 str1" x1="5000" y1="0" x2="5000" y2="0"/>
  </g>
 </g>
</svg>