<?xml version="1.0" encoding="UTF-8"?>
<!DOCTYPE svg PUBLIC "-//W3C//DTD SVG 1.1//EN" "http://www.w3.org/Graphics/SVG/1.1/DTD/svg11.dtd">
<!-- Creator: CorelDRAW X8 -->
<svg xmlns="http://www.w3.org/2000/svg" xml:space="preserve" width="100mm" height="100mm" version="1.1" style="shape-rendering:geometricPrecision; text-rendering:geometricPrecision; image-rendering:optimizeQuality; fill-rule:evenodd; clip-rule:evenodd" viewBox="0 0 10000 10000" xmlns:xlink="http://www.w3.org/1999/xlink">
 <defs>
  <style type="text/css">
   <![CDATA[
    .str0 {stroke:#FEFEFE;stroke-width:25}
    .str1 {stroke:#FEFEFE;stroke-width:25}
    .fil2 {fill:none}
    .fil0 {fill:#2B2A29}
    .fil3 {fill:#D8B834}
    .fil1 {fill:#E6CD54;fill-rule:nonzero}
   ]]>
  </style>
 </defs>
 <g id="Layer_x0020_1">
  <metadata id="CorelCorpID_0Corel-Layer"/>
  <rect class="fil0 str0" width="10000" height="10000"/>
  <path class="fil1" d="M2927 4015l-124 0 0 -791c-30,29 -69,57 -117,86 -49,28 -93,49 -131,63l0 -119c69,-33 130,-72 182,-119 52,-46 89,-91 110,-135l80 0 0 1015z"/>
  <path id="1" class="fil1" d="M3246 3516c0,-119 13,-216 37,-289 25,-73 61,-129 110,-168 48,-39 109,-59 182,-59 54,0 102,11 143,33 41,22 75,53 101,94 26,41 47,91 62,150 16,59 23,139 23,239 0,119 -12,215 -36,287 -25,74 -61,130 -110,169 -48,40 -109,60 -183,60 -97,0 -173,-35 -229,-104 -66,-85 -100,-222 -100,-412zm127 0c0,167 20,277 59,332 38,55 86,82 143,82 57,0 105,-28 144,-82 39,-55 58,-166 58,-332 0,-166 -19,-276 -58,-331 -39,-55 -87,-82 -145,-82 -57,0 -103,24 -137,72 -42,62 -64,176 -64,341z"/>
  <path id="2" class="fil1" d="M4497 4015l-124 0 0 -791c-30,29 -69,57 -118,86 -48,28 -92,49 -131,63l0 -119c70,-33 130,-72 182,-119 52,-46 89,-91 111,-135l80 0 0 1015z"/>
  <path id="3" class="fil1" d="M5467 3896l0 119 -669 0c-1,-30 4,-59 14,-87 17,-45 45,-90 83,-134 38,-44 92,-95 162,-152 110,-90 184,-162 223,-214 39,-53 58,-103 58,-150 0,-49 -17,-91 -53,-124 -35,-34 -81,-51 -138,-51 -60,0 -108,18 -144,54 -36,35 -54,85 -54,148l-127 -13c8,-95 41,-167 98,-217 57,-50 134,-75 230,-75 97,0 174,27 230,81 57,54 85,120 85,200 0,40 -8,80 -25,119 -16,39 -44,80 -82,124 -39,43 -102,102 -191,178 -75,62 -123,104 -144,127 -21,22 -39,44 -52,67l496 0z"/>
  <path id="4" class="fil1" d="M5607 3690l125 -11c6,51 20,92 42,125 22,32 56,59 101,79 46,20 98,30 155,30 51,0 96,-8 135,-23 39,-15 68,-36 87,-63 19,-26 29,-55 29,-86 0,-32 -9,-59 -27,-83 -19,-23 -49,-43 -91,-59 -28,-11 -87,-27 -180,-50 -93,-22 -158,-43 -195,-63 -49,-25 -84,-57 -108,-94 -24,-37 -35,-79 -35,-126 0,-51 14,-99 43,-143 29,-44 71,-78 127,-101 55,-23 117,-35 185,-35 75,0 141,12 198,37 57,24 101,59 132,106 31,47 47,100 50,159l-129 10c-6,-64 -30,-112 -69,-144 -40,-33 -99,-49 -177,-49 -80,0 -140,15 -176,44 -37,30 -56,66 -56,108 0,36 13,66 39,89 26,23 93,48 202,72 109,25 183,46 224,65 58,27 102,61 130,102 28,42 41,89 41,144 0,53 -15,104 -46,151 -30,48 -74,85 -132,111 -58,26 -122,40 -195,40 -91,0 -167,-14 -229,-40 -62,-27 -110,-67 -145,-121 -35,-53 -54,-113 -55,-181z"/>
  <path id="5" class="fil1" d="M7311 3660l134 34c-28,110 -78,193 -151,251 -72,58 -161,87 -266,87 -109,0 -198,-23 -266,-67 -68,-44 -120,-108 -155,-192 -36,-85 -54,-175 -54,-271 0,-105 20,-197 61,-275 40,-79 97,-138 171,-179 74,-40 156,-61 245,-61 101,0 186,26 254,77 69,52 117,124 144,217l-131 31c-23,-73 -57,-127 -102,-160 -44,-34 -100,-50 -168,-50 -77,0 -142,18 -194,55 -52,38 -89,88 -110,150 -21,63 -31,128 -31,194 0,86 12,161 37,225 25,64 64,112 117,144 52,31 109,47 170,47 75,0 138,-21 190,-64 52,-44 87,-108 105,-193z"/>
  <path class="fil1" d="M4843 2173l134 34c-28,110 -78,193 -151,251 -72,57 -161,86 -266,86 -109,0 -197,-22 -266,-66 -68,-45 -120,-109 -155,-193 -36,-84 -54,-174 -54,-270 0,-106 20,-197 61,-276 40,-78 97,-137 171,-178 74,-41 156,-61 245,-61 101,0 186,26 254,77 69,52 117,124 144,217l-131 31c-23,-73 -57,-127 -102,-160 -44,-34 -100,-51 -168,-51 -77,0 -142,19 -194,56 -52,37 -89,87 -109,150 -22,63 -32,127 -32,194 0,86 12,161 37,225 25,64 64,112 117,143 52,32 109,48 171,48 74,0 137,-22 189,-65 52,-43 87,-107 105,-192z"/>
  <path id="1" class="fil1" d="M5143 2527l0 -1010 381 0c67,0 118,3 154,10 50,8 91,24 125,47 33,23 60,55 81,97 20,42 31,87 31,138 0,85 -28,158 -83,217 -54,60 -153,89 -296,89l-259 0 0 412 -134 0zm134 -530l261 0c86,0 147,-16 184,-48 36,-33 54,-78 54,-136 0,-43 -10,-79 -32,-109 -21,-30 -49,-50 -84,-60 -23,-5 -64,-9 -125,-9l-258 0 0 362z"/>
  <g id="_2464322620816">
   <line class="fil2 str1" x1="5000" y1="0" x2="5000" y2="0"/>
  </g>
  <g id="_2464322619056">
   <line class="fil2 str1" x1="5000" y1="0" x2="5000" y2="0"/>
  </g>
  <path class="fil3" d="M7898 4530l2 787c-275,139 -577,305 -903,503 -1596,966 -1997,1269 -1997,1269 0,0 -402,-303 -1997,-1269 -325,-197 -626,-363 -901,-502l0 -788c363,165 743,352 1097,552 1247,705 1801,1183 1801,1183 0,0 554,-478 1802,-1183 353,-200 734,-387 1096,-552z"/>
  <path class="fil3" d="M7900 5579l1 788c-275,139 -578,306 -904,503 -1595,966 -1997,1270 -1997,1270 0,0 -402,-304 -1997,-1270 -325,-196 -626,-362 -900,-501l0 -789c362,166 742,352 1096,552 1248,706 1801,1183 1801,1183 0,0 553,-477 1801,-1183 355,-200 735,-387 1099,-553z"/>
  <path class="fil3" d="M7895 6614l-1 789c-273,139 -574,304 -899,501 -1595,965 -1996,1269 -1996,1269 0,0 -402,-304 -1997,-1269 -324,-197 -625,-362 -899,-501l0 -788c362,165 741,351 1094,551 1248,705 1802,1182 1802,1182 0,0 553,-477 1801,-1182 353,-200 733,-387 1095,-552z"/>
 </g>
</svg>