<?xml version="1.0" encoding="UTF-8"?>
<!DOCTYPE svg PUBLIC "-//W3C//DTD SVG 1.1//EN" "http://www.w3.org/Graphics/SVG/1.1/DTD/svg11.dtd">
<!-- Creator: CorelDRAW X8 -->
<svg xmlns="http://www.w3.org/2000/svg" xml:space="preserve" width="100mm" height="100mm" version="1.1" style="shape-rendering:geometricPrecision; text-rendering:geometricPrecision; image-rendering:optimizeQuality; fill-rule:evenodd; clip-rule:evenodd" viewBox="0 0 10000 10000" xmlns:xlink="http://www.w3.org/1999/xlink">
 <defs>
  <style type="text/css">
   <![CDATA[
    .str4 {stroke:#806729;stroke-width:5.16}
    .str1 {stroke:#CFB500;stroke-width:5.16}
    .str5 {stroke:#CFB500;stroke-width:7.76}
    .str3 {stroke:#433185;stroke-width:10.6}
    .str9 {stroke:#806729;stroke-width:5.84}
    .str8 {stroke:#CFB500;stroke-width:7.05}
    .str0 {stroke:#FEFEFE;stroke-width:25}
    .str7 {stroke:#806729;stroke-width:5.06}
    .str6 {stroke:#CFB500;stroke-width:7.62}
    .str2 {stroke:#E6CD54;stroke-width:7.62}
    .fil5 {fill:none}
    .fil0 {fill:#2B2A29}
    .fil7 {fill:#CFB500}
    .fil6 {fill:#E6CD54}
    .fil4 {fill:#EBEBEB}
    .fil9 {fill:#F6DF77}
    .fil8 {fill:#FFEFA7}
    .fil3 {fill:white}
    .fil2 {fill:#772121;fill-rule:nonzero}
    .fil10 {fill:#E6CD54;fill-rule:nonzero}
    .fil1 {fill:#E8001A;fill-rule:nonzero}
   ]]>
  </style>
 </defs>
 <g id="Layer_x0020_1">
  <metadata id="CorelCorpID_0Corel-Layer"/>
  <rect class="fil0 str0" width="10000" height="10000"/>
  <g id="_2464129051392">
   <g>
    <path class="fil1" d="M6100 5021l98 -287 39 -119 99 -61 99 -226 47 -59 7 -209c0,0 -68,-148 -175,-201 -152,-76 -359,-65 -359,-65 0,0 -48,-126 -135,-176 -88,-49 -185,-60 -287,-60 -102,0 -285,91 -384,118 -52,14 -168,61 -168,61 0,0 -116,-47 -168,-61 -99,-27 -282,-118 -384,-118 -102,0 -196,10 -287,60 -84,48 -200,176 -200,176 0,0 -132,-18 -226,38 -116,70 -198,217 -198,217l8 228 19 87 75 86 98 174 70 172 75 225 2237 0z"/>
    <g>
     <path class="fil2" d="M6219 4741l-98 287 -43 -14 99 -287 42 14 0 0zm0 0l0 0 0 1 0 -1zm40 -119l-40 119 -42 -14 39 -119 10 -12 33 26zm-43 -14l3 -7 7 -5 -10 12zm131 -35l-98 61 -23 -38 98 -61 32 28 -9 10zm9 -10l-3 7 -6 3 9 -10zm100 -226l-100 226 -41 -18 100 -226 3 -5 38 23zm-41 -18l1 -3 2 -2 -3 5zm85 -36l-47 59 -35 -28 47 -59 39 15 -4 13zm4 -13l0 7 -4 6 4 -13zm8 -209l-8 209 -44 -2 7 -208 45 1z"/>
    </g>
    <g>
     <path class="fil2" d="M6304 3879l20 -40 0 0 11 6 10 6 11 7 10 7 9 8 10 8 8 8 9 8 8 9 8 9 8 8 8 9 7 9 6 9 7 8 6 9 6 8 5 9 5 7 5 8 4 7 4 7 4 7 3 6 3 5 3 5 2 4 2 4 2 3 1 2 0 1 1 1 -41 19 0 0 -1 -2 -1 -1 -1 -3 -1 -3 -3 -4 -2 -5 -3 -5 -3 -5 -3 -6 -4 -7 -4 -7 -5 -7 -4 -7 -5 -8 -6 -7 -5 -8 -6 -8 -6 -8 -7 -9 -7 -8 -7 -8 -7 -7 -7 -8 -8 -7 -8 -8 -8 -6 -8 -7 -9 -6 -8 -6 -9 -5 -9 -5 0 0zm-370 -77l42 -16 -22 -14 1 0 2 -1 3 0 4 0 5 0 6 0 7 0 8 0 9 0 9 0 11 1 11 0 11 1 13 1 12 1 14 1 14 1 14 2 14 2 15 2 15 3 16 3 15 3 16 3 16 4 16 5 15 4 16 6 16 5 16 7 15 6 15 7 -20 40 -14 -6 -14 -6 -14 -6 -14 -5 -15 -5 -15 -4 -15 -4 -14 -4 -15 -4 -15 -3 -14 -2 -15 -3 -14 -2 -14 -2 -13 -1 -14 -2 -12 -1 -13 -1 -11 -1 -11 0 -11 -1 -10 0 -9 0 -8 0 -8 0 -7 0 -5 0 -5 0 -4 0 -3 0 -1 0 -1 0 -22 -14zm22 14l-16 1 -6 -15 22 14zm-147 -178l22 -39 0 0 9 5 9 6 8 6 8 7 8 7 8 7 7 7 7 8 6 7 7 8 6 8 5 7 6 8 5 8 5 8 4 7 5 7 4 7 4 7 3 7 4 6 2 6 3 6 3 5 2 5 2 4 1 4 2 3 1 2 0 2 1 1 0 1 -42 16 0 0 0 -1 -1 -2 -1 -2 -1 -3 -1 -3 -2 -4 -2 -4 -2 -5 -3 -5 -2 -6 -3 -5 -4 -6 -3 -7 -4 -6 -4 -7 -4 -7 -4 -6 -5 -7 -5 -7 -5 -7 -5 -7 -6 -7 -6 -6 -6 -7 -6 -6 -6 -6 -7 -6 -6 -5 -7 -5 -7 -5 -7 -4 0 0zm-276 -58l0 -45 0 0 10 0 10 0 9 1 10 0 10 0 9 1 10 0 9 1 10 1 9 1 10 1 9 1 10 1 9 1 10 2 9 2 9 1 10 2 9 3 9 2 9 3 10 2 9 3 9 3 9 3 9 4 9 3 9 4 9 4 8 5 9 4 9 5 -22 39 -8 -4 -8 -4 -8 -4 -7 -4 -8 -3 -9 -4 -8 -3 -8 -3 -8 -2 -8 -3 -9 -3 -8 -2 -9 -2 -8 -2 -9 -2 -8 -1 -9 -2 -9 -2 -8 -1 -9 -1 -9 -1 -9 -1 -9 -1 -9 -1 -9 0 -9 -1 -9 0 -10 -1 -9 0 -9 0 -10 0 -9 0 0 0zm-378 117l-12 -43 0 0 9 -3 10 -2 10 -4 10 -3 11 -4 12 -4 11 -5 12 -4 13 -5 12 -5 13 -4 13 -5 13 -5 13 -5 14 -5 13 -5 14 -5 13 -5 13 -5 14 -4 13 -5 13 -4 13 -4 13 -3 13 -4 12 -3 13 -2 12 -3 11 -1 12 -2 11 -1 11 0 0 45 -9 0 -9 1 -10 1 -10 1 -11 2 -11 3 -11 3 -12 3 -12 3 -13 4 -12 4 -13 4 -13 4 -13 5 -13 5 -13 4 -14 5 -13 5 -13 5 -13 5 -13 5 -13 5 -12 5 -13 5 -12 4 -12 5 -12 4 -11 4 -11 4 -11 3 -10 3 -10 3 0 0zm-182 60l17 -41 -17 0 0 0 1 -1 2 0 2 -1 3 -1 3 -2 4 -1 4 -2 5 -2 5 -2 5 -2 6 -2 6 -2 6 -3 6 -2 7 -3 7 -2 6 -3 7 -2 7 -3 8 -3 7 -2 7 -3 7 -2 6 -2 7 -3 7 -2 6 -2 6 -2 6 -2 6 -1 5 -2 12 43 -5 1 -5 2 -5 2 -6 1 -6 2 -7 3 -6 2 -7 2 -6 2 -7 3 -7 2 -7 3 -7 3 -7 2 -7 3 -6 2 -7 3 -6 2 -6 2 -6 3 -6 2 -5 2 -5 2 -5 2 -4 1 -4 2 -3 1 -2 1 -3 1 -1 1 -1 0 0 0 -17 0zm17 0l-9 4 -8 -4 17 0zm-182 -60l11 -43 0 0 6 2 5 1 6 2 6 2 7 2 6 2 7 3 7 2 7 2 7 3 7 2 7 3 7 3 7 2 7 3 7 2 6 3 7 2 6 3 6 2 5 2 6 2 5 2 4 2 5 2 3 1 4 2 2 1 3 1 1 0 1 1 1 0 -17 41 -1 0 0 0 -2 -1 -2 -1 -3 -1 -3 -1 -4 -2 -4 -1 -5 -2 -5 -2 -5 -2 -5 -2 -6 -3 -6 -2 -7 -2 -6 -3 -7 -2 -7 -3 -7 -2 -7 -3 -7 -3 -6 -2 -7 -3 -7 -2 -7 -2 -6 -2 -6 -3 -6 -2 -6 -1 -6 -2 -5 -2 -4 -1 0 0zm-379 -117l0 -45 0 0 11 0 11 1 12 2 12 1 12 3 12 2 12 3 13 4 13 3 13 4 13 4 14 5 13 4 13 5 14 5 13 5 14 5 13 5 13 5 13 5 13 5 13 4 12 5 13 5 12 4 12 5 11 4 11 4 10 3 11 4 9 2 9 3 -11 43 -10 -3 -11 -3 -11 -3 -11 -4 -11 -4 -12 -4 -12 -5 -12 -4 -12 -5 -13 -5 -13 -5 -13 -5 -13 -5 -13 -5 -13 -5 -13 -5 -13 -4 -14 -5 -13 -5 -13 -4 -12 -4 -13 -4 -12 -4 -13 -3 -11 -3 -12 -3 -11 -3 -11 -2 -10 -1 -10 -1 -9 -1 -9 0 0 0zm-276 58l-22 -39 0 0 9 -5 9 -5 9 -4 9 -4 9 -4 10 -4 9 -3 9 -4 9 -3 9 -3 9 -2 9 -3 10 -2 9 -2 9 -2 9 -2 10 -2 9 -1 9 -2 10 -1 9 -1 10 -1 9 -1 10 0 9 -1 9 -1 10 0 10 0 9 -1 10 0 9 0 10 0 0 45 -9 0 -10 0 -9 0 -9 0 -9 1 -9 0 -9 1 -9 0 -9 1 -9 1 -9 1 -9 1 -8 1 -9 1 -9 1 -8 2 -9 2 -8 1 -9 2 -8 2 -9 3 -8 2 -8 3 -9 3 -8 3 -8 3 -8 3 -8 4 -8 3 -9 4 -8 5 -8 4 0 0zm-214 178l6 -44 -19 7 0 -1 1 -1 2 -1 2 -3 3 -3 3 -4 4 -4 4 -4 5 -5 6 -6 5 -6 6 -6 7 -6 7 -7 7 -7 7 -7 8 -7 8 -8 8 -7 8 -8 8 -7 9 -8 9 -7 8 -7 9 -8 9 -6 9 -7 9 -7 8 -6 9 -6 9 -5 8 -5 22 39 -7 4 -8 5 -8 5 -7 6 -9 6 -8 6 -8 6 -8 7 -9 7 -8 7 -8 7 -8 7 -8 8 -8 7 -8 7 -7 7 -7 7 -7 7 -7 6 -6 7 -6 6 -5 5 -6 6 -4 5 -5 4 -3 4 -4 4 -2 2 -3 3 -1 2 -1 1 0 0 -20 7zm20 -7l-8 9 -12 -2 20 -7zm-231 42l-23 -38 0 0 10 -6 9 -5 11 -4 10 -5 10 -3 10 -4 10 -3 11 -2 10 -3 10 -2 10 -1 10 -2 9 -1 10 -1 9 -1 9 0 9 -1 8 0 8 0 7 0 8 0 6 0 7 0 5 1 5 0 5 0 4 1 3 0 3 0 2 0 2 1 0 0 -6 44 0 0 -1 0 -2 0 -2 -1 -3 0 -3 0 -5 0 -4 -1 -6 0 -5 0 -6 0 -7 -1 -7 0 -7 1 -8 0 -8 0 -8 1 -8 0 -9 1 -8 1 -9 2 -9 1 -9 2 -9 2 -9 2 -9 3 -8 3 -9 3 -9 4 -8 3 -8 5 -8 4 0 0zm-190 209l-39 -22 0 -1 1 -1 1 -2 2 -3 2 -4 3 -4 3 -5 3 -5 4 -6 4 -7 5 -7 5 -7 5 -8 6 -8 6 -8 7 -9 7 -9 7 -9 8 -9 8 -9 8 -10 9 -9 8 -9 10 -10 9 -9 10 -9 10 -9 11 -8 10 -8 11 -8 11 -8 12 -7 23 38 -10 6 -10 7 -10 7 -10 8 -9 8 -9 8 -9 8 -9 8 -9 9 -8 9 -8 8 -8 9 -7 9 -7 8 -7 9 -7 8 -6 8 -6 8 -5 8 -5 7 -5 7 -5 7 -4 6 -3 6 -4 5 -2 5 -3 4 -2 3 -1 3 -1 1 -1 2 0 0z"/>
    </g>
    <g>
     <path class="fil2" d="M3504 4278l-8 -228 45 -2 8 228 -45 5 0 -3zm0 3l0 -2 0 -1 0 3zm19 87l-19 -87 44 -9 18 87 -38 19 -5 -10zm5 10l-4 -4 -1 -6 5 10zm75 87l-75 -87 33 -29 76 86 2 4 -36 26zm34 -30l1 2 1 2 -2 -4zm61 200l-98 -174 39 -22 98 175 1 2 -40 19zm39 -21l1 1 0 1 -1 -2zm30 191l-70 -172 41 -17 70 172 1 1 -42 16zm41 -17l1 1 0 0 -1 -1zm34 240l-75 -224 42 -15 75 225 -21 29 -21 -15zm21 15l-16 0 -5 -15 21 15zm2237 0l-2237 0 0 -44 2237 0 0 44z"/>
    </g>
   </g>
   <path class="fil3" d="M4187 5114c0,0 0,0 0,0 0,0 0,0 0,0 -151,8 -344,92 -495,117 -34,17 -51,34 -59,51 -17,25 -25,50 -17,75 0,26 8,51 42,76 17,8 42,25 76,34 638,-101 1596,-160 2554,0 33,-9 59,-17 75,-34 26,-17 42,-42 42,-67 0,-25 0,-67 -25,-93 -17,-16 -33,-33 -67,-42 0,0 -261,-100 -496,-117 -235,-17 -495,-17 -613,-17 -126,0 -261,0 -387,0 0,0 0,0 0,0 0,0 0,0 0,0 -218,0 -445,-76 -630,17z"/>
   <path class="fil4" d="M3616 5357c0,26 8,51 42,76 17,8 42,25 76,34 638,-101 1596,-160 2554,0 33,-9 59,-17 75,-34 26,-17 42,-42 42,-67 34,-185 -2839,-151 -2789,-9z"/>
   <path class="fil5 str1" d="M4187 5114c0,0 0,0 0,0 0,0 0,0 0,0 -151,8 -344,92 -495,117 -34,17 -51,34 -59,51 -17,25 -25,50 -17,75 0,26 8,51 42,76 17,8 42,25 76,34 638,-101 1596,-160 2554,0 33,-9 59,-17 75,-34 26,-17 42,-42 42,-67 0,-25 0,-67 -25,-93 -17,-16 -33,-33 -67,-42 0,0 -261,-100 -496,-117 -235,-17 -495,-17 -613,-17 -126,0 -261,0 -387,0 0,0 0,0 0,0 0,0 0,0 0,0 -218,0 -445,-76 -630,17"/>
   <path class="fil6 str2" d="M5137 5257c-51,-9 -101,-17 -143,-26 -42,-8 -76,-16 -109,-33 8,17 25,33 67,42 -34,0 -67,17 -84,17 17,8 59,16 84,16 -34,17 -51,34 -59,51 34,-9 67,-25 101,-34 42,-17 92,-25 143,-33z"/>
   <path class="fil6 str2" d="M4078 5307c-50,0 -101,-8 -143,-17 -42,-8 -75,-17 -109,-25 8,17 25,34 67,42 -33,0 -67,17 -84,25 17,9 59,9 84,9 -33,16 -50,33 -50,50 33,-17 59,-25 101,-42 33,-17 84,-34 134,-42z"/>
   <path class="fil6 str2" d="M6195 5357c-50,-16 -92,-25 -134,-42 -34,-16 -76,-33 -101,-50 8,17 25,34 59,50 -34,0 -67,0 -84,9 17,8 50,25 84,25 -34,8 -51,25 -59,42 34,-8 67,-17 101,-17 33,-17 84,-17 134,-17z"/>
   <path class="fil6" d="M4607 5273c-50,-8 -100,-16 -142,-25 -42,-8 -76,-17 -110,-33 9,16 26,33 68,42 -34,0 -68,16 -84,16 16,9 58,17 84,17 -34,17 -51,34 -59,51 33,-9 67,-26 101,-34 42,-8 92,-25 142,-34z"/>
   <path class="fil6" d="M5666 5282c-50,-9 -101,-17 -143,-34 -42,-8 -75,-25 -109,-33 8,16 25,33 59,50 -34,0 -67,8 -84,17 17,8 50,17 84,17 -34,8 -51,25 -59,42 34,-9 67,-26 101,-34 50,-8 101,-17 151,-25z"/>
   <polyline class="fil5 str3" points="6103,4988 6204,4702 6237,4584 6338,4517 6439,4290 6489,4232 6498,4022 "/>
   <path class="fil7" d="M6229 2988c109,25 218,67 311,160 84,84 134,176 168,294 33,109 33,176 17,286 -17,142 -101,285 -101,285l-151 -25c0,0 92,-193 100,-277 9,-101 9,-135 -16,-227 -26,-93 -68,-160 -126,-227 -59,-59 -152,-101 -236,-118 -75,-16 -168,-25 -235,-8 -134,25 -218,67 -361,118 -101,33 -185,42 -286,50 -67,0 -134,-8 -210,-25 -67,-17 -126,-34 -126,-34l42 -151c0,0 59,17 118,25 67,17 143,25 168,25 101,-8 159,-16 252,-42 134,-42 227,-84 378,-117 92,-25 193,-17 294,8z"/>
   <path class="fil6" d="M4994 3156l17 -75c0,0 58,16 117,25 67,17 143,25 168,25 101,-8 160,-17 252,-42 135,-42 227,-84 378,-118 101,-16 202,-8 303,17 109,25 218,67 311,160 84,84 134,176 168,294 33,109 33,176 17,286 -17,142 -101,285 -101,285l-76 -17c34,-67 93,-184 101,-277 34,-227 -34,-386 -118,-479 -92,-101 -310,-218 -487,-210 -210,9 -403,126 -647,168 -134,25 -269,25 -403,-42z"/>
   <line class="fil5 str4" x1="6624" y1="4013" x2="6473" y2="3988"/>
   <line class="fil5 str4" x1="4977" y1="3232" x2="5019" y2="3089"/>
   <path class="fil8" d="M6641 3845c0,51 33,84 84,84 50,0 84,-33 84,-84 0,-50 -34,-84 -84,-84 -42,0 -84,42 -84,84z"/>
   <path class="fil5 str5" d="M6641 3845c0,51 33,84 84,84 50,0 84,-33 84,-84 0,-50 -34,-84 -84,-84 -42,0 -84,42 -84,84"/>
   <path class="fil8" d="M6683 3644c0,50 33,84 84,84 50,0 84,-34 84,-84 0,-51 -34,-84 -84,-84 -51,0 -84,42 -84,84z"/>
   <path class="fil5 str5" d="M6683 3644c0,50 33,84 84,84 42,0 84,-34 84,-84 0,-51 -34,-84 -84,-84 -51,0 -84,42 -84,84"/>
   <path class="fil8" d="M6674 3433c0,51 34,84 84,84 42,0 84,-33 84,-84 0,-50 -33,-84 -84,-84 -50,0 -84,42 -84,84z"/>
   <path class="fil5 str5" d="M6674 3433c0,51 34,84 84,84 42,0 84,-33 84,-84 0,-50 -33,-84 -84,-84 -50,0 -84,42 -84,84"/>
   <path class="fil8" d="M6590 3240c0,51 34,84 84,84 42,0 84,-33 84,-84 0,-50 -33,-84 -84,-84 -50,0 -84,34 -84,84z"/>
   <path class="fil5 str5" d="M6590 3240c0,51 34,84 84,84 42,0 84,-33 84,-84 0,-50 -33,-84 -84,-84 -50,0 -84,34 -84,84"/>
   <path class="fil8" d="M6439 3081c0,50 34,84 84,84 42,0 84,-34 84,-84 0,-51 -34,-84 -84,-84 -50,0 -84,42 -84,84z"/>
   <path class="fil5 str5" d="M6439 3081c0,50 34,84 84,84 42,0 84,-34 84,-84 0,-51 -34,-84 -84,-84 -50,0 -84,42 -84,84"/>
   <path class="fil8" d="M6254 2980c0,50 34,84 84,84 51,0 84,-34 84,-84 0,-51 -33,-84 -84,-84 -50,0 -84,33 -84,84z"/>
   <path class="fil5 str5" d="M6254 2980c0,50 34,84 84,84 51,0 84,-34 84,-84 0,-51 -33,-84 -84,-84 -50,0 -84,33 -84,84"/>
   <path class="fil8" d="M6036 2929c0,51 33,84 84,84 50,0 84,-33 84,-84 0,-50 -34,-84 -84,-84 -51,0 -84,34 -84,84z"/>
   <path class="fil5 str5" d="M6036 2921c0,50 33,84 84,84 50,0 84,-34 84,-84 0,-50 -34,-84 -84,-84 -51,0 -84,42 -84,84"/>
   <path class="fil8" d="M5817 2938c0,50 34,84 84,84 42,0 84,-34 84,-84 0,-51 -33,-84 -84,-84 -50,0 -84,33 -84,84z"/>
   <path class="fil5 str5" d="M5817 2938c0,50 34,84 84,84 42,0 84,-34 84,-84 0,-51 -33,-84 -84,-84 -50,0 -84,33 -84,84"/>
   <path class="fil8" d="M5212 3089c0,50 34,84 84,84 51,0 84,-34 84,-84 0,-50 -33,-84 -84,-84 -50,0 -84,42 -84,84z"/>
   <path class="fil5 str5" d="M5221 3089c0,50 33,84 84,84 42,0 84,-34 84,-84 0,-50 -34,-84 -84,-84 -51,0 -84,42 -84,84"/>
   <path class="fil8" d="M5607 2997c0,50 34,84 84,84 42,0 84,-34 84,-84 0,-51 -33,-84 -84,-84 -50,0 -84,33 -84,84z"/>
   <path class="fil5 str5" d="M5607 2997c0,50 34,84 84,84 42,0 84,-34 84,-84 0,-51 -33,-84 -84,-84 -50,0 -84,33 -84,84"/>
   <path class="fil8" d="M5414 3055c0,51 34,84 84,84 42,0 84,-33 84,-84 0,-50 -34,-84 -84,-84 -50,0 -84,34 -84,84z"/>
   <path class="fil5 str5" d="M5414 3055c0,51 34,84 84,84 42,0 84,-33 84,-84 0,-50 -34,-84 -84,-84 -50,0 -84,34 -84,84"/>
   <path class="fil7" d="M3776 2988c-110,25 -219,67 -311,160 -84,84 -135,176 -168,294 -34,109 -34,176 -17,286 17,142 101,285 101,285l151 -25c0,0 -92,-193 -101,-277 -8,-101 -8,-135 17,-227 25,-93 67,-160 126,-227 59,-59 151,-101 235,-118 76,-16 168,-25 235,-8 135,25 219,67 362,118 101,33 185,42 285,50 68,0 135,-8 210,-25 68,-17 126,-34 126,-34l-42 -151c0,0 -58,17 -117,25 -67,17 -143,25 -168,25 -101,-8 -160,-16 -252,-42 -135,-42 -227,-84 -378,-117 -93,-25 -194,-17 -294,8z"/>
   <path class="fil6" d="M5011 3156l-17 -75c0,0 -59,16 -118,25 -67,17 -143,25 -168,25 -101,-8 -159,-17 -252,-42 -134,-42 -227,-84 -378,-118 -101,-16 -202,-8 -302,17 -110,25 -219,67 -311,160 -84,84 -135,176 -168,294 -34,109 -34,176 -17,286 17,142 101,285 101,285l75 -17c-33,-67 -92,-184 -100,-277 -34,-227 33,-386 117,-479 93,-101 311,-218 487,-210 210,9 404,126 647,168 135,25 269,25 404,-42z"/>
   <line class="fil5 str4" x1="3381" y1="4013" x2="3532" y2="3988"/>
   <line class="fil5 str4" x1="5027" y1="3232" x2="4985" y2="3089"/>
   <path class="fil8" d="M3364 3845c0,51 -34,84 -84,84 -51,0 -84,-33 -84,-84 0,-50 33,-84 84,-84 50,0 84,42 84,84z"/>
   <path class="fil5 str5" d="M3364 3845c0,51 -34,84 -84,84 -42,0 -84,-33 -84,-84 0,-50 33,-84 84,-84 42,0 84,42 84,84"/>
   <path class="fil8" d="M3322 3644c0,50 -34,84 -84,84 -51,0 -84,-34 -84,-84 0,-51 33,-84 84,-84 50,0 84,42 84,84z"/>
   <path class="fil5 str5" d="M3317 3643c0,50 -33,84 -84,84 -50,0 -84,-34 -84,-84 0,-51 34,-84 84,-84 51,0 84,42 84,84"/>
   <path class="fil8" d="M3330 3433c0,51 -33,84 -84,84 -42,0 -84,-33 -84,-84 0,-50 34,-84 84,-84 51,0 84,42 84,84z"/>
   <path class="fil5 str5" d="M3339 3433c0,51 -34,84 -84,84 -42,0 -84,-33 -84,-84 0,-50 33,-84 84,-84 42,0 84,42 84,84"/>
   <path class="fil8" d="M3414 3240c0,51 -33,84 -84,84 -50,0 -84,-33 -84,-84 0,-50 34,-84 84,-84 51,0 84,34 84,84z"/>
   <path class="fil5 str5" d="M3414 3240c0,51 -33,84 -84,84 -42,0 -84,-33 -84,-84 0,-50 34,-84 84,-84 51,0 84,34 84,84"/>
   <path class="fil8" d="M3566 3081c0,50 -34,84 -84,84 -51,0 -84,-34 -84,-84 0,-51 33,-84 84,-84 50,0 84,42 84,84z"/>
   <path class="fil5 str5" d="M3566 3081c0,50 -34,84 -84,84 -42,0 -84,-34 -84,-84 0,-51 33,-84 84,-84 50,0 84,42 84,84"/>
   <path class="fil8" d="M3750 2980c0,50 -33,84 -84,84 -50,0 -84,-34 -84,-84 0,-51 34,-84 84,-84 51,0 84,33 84,84z"/>
   <path class="fil5 str5" d="M3759 2980c0,50 -34,84 -84,84 -42,0 -84,-34 -84,-84 0,-51 33,-84 84,-84 42,0 84,33 84,84"/>
   <path class="fil8" d="M3969 2929c0,51 -34,84 -84,84 -51,0 -84,-33 -84,-84 0,-50 33,-84 84,-84 50,0 84,34 84,84z"/>
   <path class="fil5 str5" d="M3969 2921c0,50 -34,84 -84,84 -51,0 -84,-34 -84,-84 0,-50 33,-84 84,-84 50,0 84,42 84,84"/>
   <path class="fil8" d="M4187 2938c0,50 -33,84 -84,84 -42,0 -84,-34 -84,-84 0,-51 34,-84 84,-84 51,0 84,33 84,84z"/>
   <path class="fil5 str5" d="M4187 2938c0,50 -33,84 -84,84 -42,0 -84,-34 -84,-84 0,-51 34,-84 84,-84 51,0 84,33 84,84"/>
   <path class="fil8" d="M4792 3089c0,50 -33,84 -84,84 -50,0 -84,-34 -84,-84 0,-50 34,-84 84,-84 51,0 84,42 84,84z"/>
   <path class="fil5 str5" d="M4792 3089c0,50 -33,84 -84,84 -42,0 -84,-34 -84,-84 0,-50 34,-84 84,-84 42,0 84,42 84,84"/>
   <path class="fil8" d="M4397 2997c0,50 -33,84 -84,84 -50,0 -84,-34 -84,-84 0,-51 34,-84 84,-84 51,0 84,33 84,84z"/>
   <path class="fil5 str5" d="M4397 2997c0,50 -33,84 -84,84 -42,0 -84,-34 -84,-84 0,-51 34,-84 84,-84 51,0 84,33 84,84"/>
   <path class="fil8" d="M4591 3055c0,51 -34,84 -84,84 -42,0 -84,-33 -84,-84 0,-50 33,-84 84,-84 50,0 84,34 84,84z"/>
   <path class="fil5 str5" d="M4599 3055c0,51 -34,84 -84,84 -42,0 -84,-33 -84,-84 0,-50 34,-84 84,-84 42,0 84,34 84,84"/>
   <path class="fil6" d="M4801 2711c25,-25 50,-50 67,-76 25,-33 42,-67 50,-109 -42,9 -75,25 -109,51 -25,25 -50,50 -76,67l0 -362c26,26 51,51 76,68 34,25 67,42 109,50 -8,-42 -25,-75 -50,-109 -25,-25 -51,-51 -67,-76l403 0c-25,25 -51,51 -67,76 -26,33 -42,67 -51,109 42,-8 76,-25 109,-50 26,-26 51,-51 76,-68l0 362c-25,-25 -50,-51 -76,-68 -33,-25 -67,-42 -109,-50 9,42 25,76 51,109 25,26 50,51 67,76l-403 0z"/>
   <path class="fil6" d="M5103 2459c0,59 -42,101 -101,101 -59,0 -101,-42 -101,-101 0,-59 42,-101 101,-101 59,0 101,50 101,101z"/>
   <path class="fil6 str6" d="M5229 2938c0,126 -101,227 -227,227 -126,0 -227,-101 -227,-227 0,-126 101,-227 227,-227 126,0 227,101 227,227z"/>
   <path class="fil6" d="M4927 3114l151 0c42,0 75,34 75,76l0 697c0,42 -33,76 -75,76l-151 0c-42,0 -76,-34 -76,-76l0 -697c0,-34 34,-76 76,-76z"/>
   <path class="fil6" d="M4927 3114l151 0c42,0 75,34 75,76l0 252 -302 84 0 -336c0,-42 34,-76 76,-76z"/>
   <line class="fil5 str4" x1="5153" y1="3190" x2="5153" y2="3896"/>
   <path class="fil5 str4" d="M5154 3896c0,42 -34,75 -76,75"/>
   <line class="fil5 str4" x1="5078" y1="3971" x2="4927" y2="3971"/>
   <path class="fil5 str4" d="M4927 3971c-42,0 -76,-33 -76,-75"/>
   <line class="fil5 str4" x1="4851" y1="3896" x2="4851" y2="3190"/>
   <path class="fil6 str6" d="M4843 3114l0 0c25,0 50,17 50,42l0 773c0,25 -25,42 -50,42 -26,0 -51,-17 -51,-42l0 -773c0,-17 25,-42 51,-42z"/>
   <path class="fil5 str7" d="M4893 3929c0,25 -25,42 -50,42 -26,0 -51,-17 -51,-42"/>
   <path class="fil6 str6" d="M5162 3114c25,0 50,17 50,42l0 773c0,25 -25,42 -50,42 -25,0 -51,-17 -51,-42l0 -773c9,-17 26,-42 51,-42z"/>
   <path class="fil5 str7" d="M5212 3929c0,25 -25,42 -50,42"/>
   <path class="fil5 str7" d="M5162 3971c-25,0 -51,-17 -51,-42"/>
   <path class="fil8" d="M5086 3139c0,51 -33,84 -84,84 -42,0 -84,-33 -84,-84 0,-50 34,-84 84,-84 42,0 84,34 84,84z"/>
   <path class="fil5 str5" d="M5086 3139c0,51 -33,84 -84,84 -42,0 -84,-33 -84,-84 0,-50 34,-84 84,-84 51,0 84,34 84,84"/>
   <path class="fil8" d="M5086 3307c0,51 -33,84 -84,84 -42,0 -84,-33 -84,-84 0,-50 34,-84 84,-84 42,0 84,34 84,84z"/>
   <path class="fil5 str5" d="M5086 3299c0,50 -33,84 -84,84 -42,0 -84,-34 -84,-84 0,-50 34,-84 84,-84 51,0 84,42 84,84"/>
   <path class="fil8" d="M5086 3467c0,51 -33,84 -84,84 -42,0 -84,-33 -84,-84 0,-50 34,-84 84,-84 42,0 84,42 84,84z"/>
   <path class="fil5 str5" d="M5086 3467c0,51 -33,84 -84,84 -42,0 -84,-33 -84,-84 0,-50 34,-84 84,-84 51,0 84,42 84,84"/>
   <path class="fil8" d="M5086 3635c0,51 -33,84 -84,84 -42,0 -84,-33 -84,-84 0,-50 34,-84 84,-84 42,0 84,42 84,84z"/>
   <path class="fil5 str5" d="M5086 3635c0,51 -33,84 -84,84 -42,0 -84,-33 -84,-84 0,-50 34,-84 84,-84 51,0 84,42 84,84"/>
   <path class="fil8" d="M5086 3803c0,51 -33,84 -84,84 -42,0 -84,-33 -84,-84 0,-50 34,-84 84,-84 42,0 84,42 84,84z"/>
   <path class="fil5 str5" d="M5086 3803c0,51 -33,84 -84,84 -42,0 -84,-33 -84,-84 0,-50 34,-84 84,-84 51,0 84,42 84,84"/>
   <path class="fil6" d="M6489 4332c-75,177 -142,353 -201,530l-1286 0 -1285 0c-59,-177 -126,-362 -202,-530 0,0 160,227 277,278 68,33 152,42 219,16 92,-33 210,-193 210,-193 0,0 109,126 185,160 67,33 151,33 227,25 67,0 142,-8 193,-42 84,-59 168,-252 168,-252 0,0 84,151 143,210 50,50 117,84 193,92 67,17 143,9 210,-16 92,-34 235,-168 235,-168 0,0 101,126 168,151 67,33 152,42 219,25 75,-17 134,-76 193,-126 50,-42 134,-160 134,-160z"/>
   <polyline class="fil5 str4" points="6279,4870 5943,4870 5002,4870 4019,4870 3717,4870 "/>
   <path class="fil9" d="M5002 4433c0,0 -59,93 -92,118 -51,42 -84,67 -143,92 -67,17 -151,34 -218,26 -68,0 -135,-26 -194,-51 -50,-25 -134,-92 -134,-92 -42,50 -92,84 -134,117 -59,34 -118,34 -185,34 -126,-9 -252,-84 -345,-252 -59,-151 -134,-294 -227,-454 101,-33 227,-59 362,-59 -51,152 -110,303 -93,429 109,-84 151,-202 185,-311l134 462c-75,-17 -33,-34 -243,-67 42,75 134,176 243,185 68,8 127,-17 169,-51 33,-25 58,-67 58,-109 0,-25 0,-50 0,-76 0,-16 -16,-33 -33,-33 -17,0 -17,25 -25,33 -9,26 8,59 0,84 -9,34 -26,59 -51,76 -25,17 -75,17 -75,17l16 -67c9,-51 -33,-84 -42,-135 -8,-33 -8,-67 0,-92 9,-34 34,-67 68,-76 8,-8 25,-8 33,-8 17,0 51,8 51,8 0,0 -9,-50 -9,-75 0,-34 34,-101 51,-135 25,-50 75,-101 75,-101 9,9 51,51 84,101 17,34 42,76 42,109 9,26 0,93 0,93 0,0 51,-25 67,-25 9,0 26,0 42,0 34,8 59,42 76,75 17,25 8,67 8,93 -8,50 -33,84 -16,134l25 67c0,0 -59,0 -76,-8 -25,-17 -50,-42 -59,-67 -8,-26 0,-59 -25,-84 -8,-9 -17,-26 -33,-17 -17,0 -26,25 -26,42l0 67c0,17 9,42 17,59 25,42 67,67 109,84 51,17 93,25 143,25 42,0 118,-8 160,-17 50,-17 76,-42 118,-75 25,-17 33,-51 42,-76 8,-34 8,-84 8,-84 -50,17 -92,42 -134,76 -42,33 -84,75 -118,109l0 -555c50,59 92,110 143,152 42,33 67,50 109,67 -8,-42 -17,-76 -50,-118 -42,-59 -84,-126 -143,-193 101,-17 201,-17 294,-17 101,0 201,9 294,17 -51,59 -101,126 -143,193 -34,42 -34,76 -50,118 42,-17 67,-25 109,-67 50,-42 92,-93 143,-152l0 555c-34,-42 -76,-76 -118,-109 -42,-34 -84,-59 -134,-76 0,0 0,59 8,84 8,25 25,59 42,76 42,33 67,58 118,75 42,17 117,17 159,17 51,0 93,-8 143,-25 42,-17 84,-42 109,-84 9,-17 17,-34 17,-59l0 -67c0,-17 -8,-42 -25,-42 -17,0 -25,8 -34,17 -16,25 -8,58 -25,84 -8,33 -25,50 -59,67 -25,17 -75,8 -75,8l25 -67c17,-50 -17,-84 -17,-134 -8,-34 -8,-68 9,-93 16,-33 42,-59 75,-75 9,-9 25,0 42,0 17,0 67,25 67,25 0,0 0,-59 0,-93 9,-33 26,-75 42,-109 34,-50 84,-92 84,-101 9,9 51,51 76,101 17,34 50,101 50,135 0,25 -8,75 -8,75 0,0 34,-8 50,-8 9,0 26,0 34,8 34,17 59,42 67,76 9,33 9,67 0,92 -8,51 -59,84 -42,135l17 67c0,0 -59,0 -76,-17 -25,-17 -42,-42 -50,-76 -8,-25 8,-58 0,-84 0,-16 -8,-42 -25,-33 -17,0 -34,25 -34,33 0,26 0,51 0,76 0,42 25,76 59,109 42,42 92,59 168,51 109,-9 202,-110 244,-185 -210,42 -168,59 -244,67l134 -462c42,118 76,227 185,311 17,-126 -33,-269 -92,-429 134,9 252,26 361,59 -92,160 -159,303 -227,454 -92,159 -218,243 -344,252 -67,0 -126,0 -185,-34 -50,-25 -101,-59 -134,-117 0,0 -84,75 -135,92 -59,25 -126,51 -193,51 -67,0 -160,-9 -218,-26 -68,-16 -101,-42 -143,-92 -51,-25 -110,-118 -110,-118z"/>
   <path class="fil9" d="M6094 4593l0 0c110,-9 202,-109 244,-185 -210,42 -168,59 -244,67l135 -462c42,118 75,227 185,311 17,-126 -34,-269 -93,-428 135,8 252,25 362,58 -93,160 -160,303 -227,454 -93,160 -219,244 -345,252l0 9 -17 -76zm-2201 84c-126,-8 -252,-84 -344,-252 -59,-151 -135,-294 -227,-454 101,-33 227,-59 361,-59 -50,152 -109,303 -92,429 109,-84 151,-202 185,-311l134 462c-76,-17 -34,-34 -244,-67 42,75 135,176 244,185l-17 67z"/>
   <path class="fil8" d="M5095 4248c0,51 -42,93 -93,93 -50,0 -92,-42 -92,-93 0,-50 42,-92 92,-92 51,0 93,42 93,92z"/>
   <path class="fil5 str8" d="M5095 4248c0,51 -42,93 -93,93 -50,0 -92,-42 -92,-93 0,-50 42,-92 92,-92 51,0 93,42 93,92"/>
   <path class="fil8" d="M3658 4374c0,51 -42,93 -92,93 -51,0 -93,-42 -93,-93 0,-50 42,-92 93,-92 50,0 92,42 92,92z"/>
   <path class="fil5 str8" d="M3658 4374c0,51 -42,93 -92,93 -51,0 -93,-42 -93,-93 0,-50 42,-92 93,-92 50,0 92,42 92,92"/>
   <path class="fil8" d="M6347 4374c0,51 42,93 92,93 50,0 92,-42 92,-93 0,-50 -42,-92 -92,-92 -50,0 -92,42 -92,92z"/>
   <path class="fil5 str8" d="M6355 4374c0,51 42,93 92,93 51,0 93,-42 93,-93 0,-50 -51,-92 -101,-92 -50,0 -84,42 -84,92"/>
   <polygon class="fil6" points="4128,4391 4330,4374 4355,4416 4330,4467 4128,4475 4095,4433 "/>
   <polygon class="fil6" points="5876,4391 5674,4374 5649,4416 5674,4467 5876,4475 5910,4433 "/>
   <path class="fil9" d="M3741 5139c0,0 142,-8 394,-25 252,-17 521,-25 656,-25 25,0 395,0 420,0 134,0 412,8 655,25 252,17 395,25 395,25l84 -395c0,0 -899,-84 -1344,-84 -454,0 -1344,84 -1344,84l84 395z"/>
   <path class="fil7" d="M4792 5072c-143,0 -411,8 -664,25 -159,8 -243,25 -403,42l17 34c160,-17 235,-17 395,-26 252,-16 521,-25 655,-25 25,0 395,0 420,0 135,0 412,9 656,25 252,17 403,26 403,26l8 -34c0,0 -151,-25 -403,-42 -252,-17 -529,-25 -664,-25 -25,0 -403,0 -420,0z"/>
   <path class="fil5 str4" d="M4994 4694c454,0 899,25 1353,75"/>
   <path class="fil5 str4" d="M6263 5164c-446,-42 -807,-50 -1261,-50"/>
   <path class="fil5 str4" d="M5011 4694c-454,0 -899,25 -1353,75"/>
   <path class="fil5 str4" d="M3742 5164c445,-42 807,-50 1260,-50"/>
   <path class="fil6" d="M4128 4711l0 0 0 0c-159,8 -344,25 -504,50 -25,25 -25,50 17,76 151,-26 336,-34 496,-42 218,-9 437,-17 655,-26l420 0c135,0 404,9 656,26 243,16 495,42 495,42 42,-26 42,-51 17,-76 0,0 -252,-34 -504,-50 -252,-17 -529,-26 -664,-26l-420 0c-218,0 -445,9 -664,26z"/>
   <path class="fil7" d="M6397 4778c0,-9 -8,-17 -17,-25 0,0 -252,-34 -504,-51 -252,-17 -529,-25 -664,-25l-420 0c-218,0 -445,8 -664,25l0 0 0 0c-159,9 -344,25 -504,42 -8,17 -16,17 -16,25 184,-16 344,-33 529,-50 286,-17 596,-17 865,-25 269,0 538,8 798,25 202,25 404,42 597,59z"/>
   <path class="fil6" d="M3616 4811c8,9 17,9 25,17 151,-25 336,-33 496,-42 218,-8 437,-17 655,-25l420 0c135,0 404,8 656,25 243,17 495,42 495,42 17,-8 17,-8 26,-17 -479,-67 -916,-75 -1370,-75 -445,-9 -949,17 -1403,75z"/>
   <polyline class="fil5 str9" points="4128,4702 4128,4711 4128,4711 "/>
   <path class="fil7" d="M4187 5114l0 0 0 0c-151,8 -319,25 -470,50 -25,25 -25,51 17,76 142,-25 310,-34 462,-42 201,-9 403,-17 605,-25l386 0c118,0 378,8 605,25 227,17 462,42 462,42 42,-25 34,-51 17,-76 0,0 -235,-33 -471,-50 -235,-17 -487,-25 -613,-25l-386 0c-202,0 -404,16 -614,25z"/>
   <path class="fil6" d="M6296 5189c0,-8 -8,-16 -17,-25 0,0 -235,-33 -470,-50 -235,-17 -487,-25 -614,-25l-386 0c-202,0 -412,8 -613,25l0 0 0 0c-152,8 -320,25 -471,42 -8,17 -17,17 -17,25 177,-17 320,-34 488,-50 269,-17 554,-17 806,-26 252,0 504,9 748,26 185,16 370,33 546,58z"/>
   <path class="fil6" d="M3717 5215c8,8 8,8 25,16 143,-25 311,-33 462,-42 202,-8 403,-16 605,-25l386 0c118,0 379,9 605,25 227,17 462,42 462,42 9,-8 17,-8 17,-16 -445,-68 -848,-76 -1277,-76 -403,0 -865,17 -1285,76z"/>
   <polygon class="fil6" points="3708,5114 3918,4946 3666,4853 3658,4996 "/>
   <polygon class="fil7" points="3700,5080 3851,4954 3666,4895 3633,4996 "/>
   <path class="fil7" d="M4649 4853c0,26 -16,42 -42,42 -25,0 -42,-16 -42,-42 0,-25 17,-42 42,-42 26,-8 42,17 42,42z"/>
   <polygon class="fil6" points="6296,5114 6094,4946 6347,4853 6347,4996 "/>
   <polygon class="fil7" points="6304,5080 6153,4954 6338,4895 6372,4996 "/>
   <path class="fil7" d="M5355 4853c0,26 17,42 42,42 25,0 42,-16 42,-42 0,-25 -17,-42 -42,-42 -25,-8 -42,17 -42,42z"/>
   <path class="fil7" d="M4649 5000c0,25 -16,42 -42,42 -25,0 -42,-17 -42,-42 0,-26 17,-42 42,-42 26,-9 42,16 42,42z"/>
   <path class="fil7" d="M5355 5000c0,25 17,42 42,42 25,0 42,-17 42,-42 0,-26 -17,-42 -42,-42 -25,-9 -42,16 -42,42z"/>
  </g>
  <path class="fil10" d="M2700 7176c-51,-19 -89,-46 -114,-81 -25,-35 -38,-77 -38,-125 0,-74 27,-135 79,-186 53,-50 123,-75 211,-75 88,0 159,26 213,77 53,51 80,114 80,187 0,47 -12,88 -36,123 -25,34 -62,61 -112,80 62,20 108,53 141,98 32,45 48,98 48,161 0,86 -30,159 -91,218 -61,58 -142,88 -241,88 -100,0 -180,-30 -241,-89 -61,-59 -91,-132 -91,-221 0,-65 16,-120 50,-164 33,-45 81,-75 142,-91zm-25 -211c0,48 16,87 46,118 31,30 71,45 120,45 48,0 87,-15 118,-45 30,-30 45,-67 45,-111 0,-45 -15,-84 -47,-115 -31,-31 -70,-46 -117,-46 -48,0 -87,15 -118,45 -31,31 -47,67 -47,109zm-40 467c0,36 8,70 24,103 17,33 42,59 75,77 33,18 69,27 107,27 60,0 108,-19 147,-57 38,-38 57,-87 57,-145 0,-60 -20,-109 -59,-149 -39,-39 -89,-58 -149,-58 -59,0 -107,19 -145,58 -38,38 -57,87 -57,144z"/>
  <path id="1" class="fil10" d="M3759 7724l-124 0 0 -791c-30,29 -69,57 -117,86 -49,28 -93,50 -131,64l0 -120c69,-33 130,-72 182,-119 52,-46 89,-91 110,-135l80 0 0 1015z"/>
  <path id="2" class="fil10" d="M4729 7605l0 119 -669 0c-1,-30 4,-59 15,-86 17,-46 44,-91 82,-135 38,-44 92,-95 163,-152 109,-90 183,-162 222,-214 39,-53 59,-103 59,-150 0,-49 -18,-90 -53,-124 -36,-34 -82,-51 -138,-51 -60,0 -108,18 -144,54 -36,35 -54,85 -55,148l-127 -13c9,-95 42,-167 99,-217 57,-50 133,-75 230,-75 96,0 173,27 230,81 56,54 85,121 85,200 0,40 -9,80 -25,119 -17,40 -44,81 -83,124 -38,43 -102,103 -191,178 -74,62 -122,105 -143,127 -22,22 -39,45 -53,67l496 0z"/>
  <path id="3" class="fil10" d="M4863 7456l125 -17c14,70 38,121 72,152 34,31 76,47 126,47 58,0 108,-20 148,-61 40,-40 60,-90 60,-150 0,-57 -19,-104 -56,-141 -37,-37 -84,-56 -142,-56 -24,0 -53,5 -88,14l14 -109c8,1 15,2 20,2 53,0 101,-14 143,-42 43,-27 64,-69 64,-127 0,-45 -16,-83 -47,-112 -30,-30 -70,-45 -119,-45 -48,0 -88,15 -121,46 -32,30 -53,76 -62,137l-124 -22c15,-84 50,-148 104,-194 53,-46 120,-69 200,-69 55,0 106,12 152,36 47,23 82,55 107,96 25,41 37,84 37,130 0,44 -12,83 -35,119 -24,36 -59,64 -104,85 59,14 106,43 139,86 33,43 49,98 49,163 0,88 -32,163 -96,225 -65,61 -146,92 -244,92 -89,0 -163,-27 -221,-80 -59,-53 -92,-121 -101,-205z"/>
  <path id="4" class="fil10" d="M5654 7399l125 -11c6,51 20,92 42,125 22,33 56,59 102,79 45,20 97,30 155,30 51,0 96,-7 135,-23 39,-15 68,-36 87,-62 19,-27 28,-56 28,-87 0,-31 -9,-59 -27,-83 -19,-23 -49,-43 -91,-59 -27,-11 -87,-27 -180,-49 -93,-23 -158,-44 -195,-63 -48,-26 -84,-57 -108,-95 -23,-37 -35,-79 -35,-126 0,-51 14,-99 43,-143 29,-44 71,-78 127,-101 56,-23 118,-34 186,-34 74,0 140,12 198,36 57,24 101,59 131,106 31,47 48,100 50,160l-128 9c-7,-63 -30,-112 -70,-144 -40,-33 -99,-49 -176,-49 -81,0 -140,15 -177,45 -37,29 -56,65 -56,107 0,36 13,66 40,89 25,24 92,48 201,72 109,25 183,46 224,65 58,27 102,61 130,103 28,41 42,89 42,143 0,54 -16,104 -46,151 -31,48 -75,85 -133,111 -57,27 -122,40 -194,40 -92,0 -168,-14 -230,-40 -61,-27 -110,-67 -145,-120 -35,-54 -53,-114 -55,-182z"/>
  <path id="5" class="fil10" d="M7358 7369l134 34c-28,110 -78,194 -151,251 -72,58 -161,87 -266,87 -109,0 -197,-22 -265,-67 -69,-44 -120,-108 -156,-192 -35,-84 -53,-174 -53,-271 0,-105 20,-197 60,-275 40,-78 97,-138 171,-179 74,-40 156,-60 245,-60 101,0 186,25 255,77 69,51 117,123 144,217l-132 31c-23,-74 -57,-127 -102,-161 -44,-33 -100,-50 -167,-50 -78,0 -143,18 -195,56 -52,37 -88,87 -109,149 -21,63 -32,128 -32,194 0,86 12,161 37,225 25,64 64,112 117,144 52,32 109,47 171,47 75,0 138,-21 189,-64 52,-44 87,-107 105,-193z"/>
 </g>
</svg>