<?xml version="1.0" encoding="UTF-8"?>
<!DOCTYPE svg PUBLIC "-//W3C//DTD SVG 1.1//EN" "http://www.w3.org/Graphics/SVG/1.1/DTD/svg11.dtd">
<!-- Creator: CorelDRAW X8 -->
<svg xmlns="http://www.w3.org/2000/svg" xml:space="preserve" width="100mm" height="100mm" version="1.1" style="shape-rendering:geometricPrecision; text-rendering:geometricPrecision; image-rendering:optimizeQuality; fill-rule:evenodd; clip-rule:evenodd" viewBox="0 0 10000 10000" xmlns:xlink="http://www.w3.org/1999/xlink">
 <defs>
  <style type="text/css">
   <![CDATA[
    .str4 {stroke:#806729;stroke-width:5.16}
    .str1 {stroke:#CFB500;stroke-width:5.16}
    .str5 {stroke:#CFB500;stroke-width:7.76}
    .str3 {stroke:#433185;stroke-width:10.6}
    .str9 {stroke:#806729;stroke-width:5.84}
    .str8 {stroke:#CFB500;stroke-width:7.05}
    .str0 {stroke:#FEFEFE;stroke-width:25}
    .str7 {stroke:#806729;stroke-width:5.06}
    .str6 {stroke:#CFB500;stroke-width:7.62}
    .str2 {stroke:#E6CD54;stroke-width:7.62}
    .fil5 {fill:none}
    .fil0 {fill:#2B2A29}
    .fil13 {fill:#CFB500}
    .fil7 {fill:#CFB500}
    .fil12 {fill:#E6CD54}
    .fil6 {fill:#E6CD54}
    .fil4 {fill:#EBEBEB}
    .fil11 {fill:#F6DF77}
    .fil9 {fill:#F6DF77}
    .fil14 {fill:#FFEFA7}
    .fil8 {fill:#FFEFA7}
    .fil3 {fill:white}
    .fil2 {fill:#772121;fill-rule:nonzero}
    .fil10 {fill:#E6CD54;fill-rule:nonzero}
    .fil1 {fill:#E8001A;fill-rule:nonzero}
    .fil15 {fill:#FFEFA7;fill-rule:nonzero}
   ]]>
  </style>
 </defs>
 <g id="Layer_x0020_1">
  <metadata id="CorelCorpID_0Corel-Layer"/>
  <rect class="fil0 str0" width="10000" height="10000"/>
  <g id="_2464331074000">
   <g>
    <path class="fil1" d="M6100 3818l98 -287 39 -119 99 -61 99 -226 47 -59 7 -209c0,0 -68,-147 -175,-201 -152,-76 -359,-65 -359,-65 0,0 -48,-126 -135,-175 -88,-50 -185,-61 -287,-61 -102,0 -285,91 -384,118 -52,14 -168,61 -168,61 0,0 -116,-47 -168,-61 -99,-27 -282,-118 -384,-118 -102,0 -196,10 -287,61 -84,47 -200,175 -200,175 0,0 -132,-18 -226,38 -116,70 -198,217 -198,217l8 228 19 87 75 86 98 175 70 171 75 225 2237 0z"/>
    <g>
     <path class="fil2" d="M6219 3538l-98 287 -43 -14 99 -287 42 14 0 0zm0 0l0 0 0 1 0 -1zm40 -119l-40 119 -42 -14 39 -119 10 -12 33 26zm-43 -14l3 -7 7 -5 -10 12zm131 -35l-98 61 -23 -38 98 -61 32 28 -9 10zm9 -10l-3 7 -6 3 9 -10zm100 -226l-100 226 -41 -18 100 -226 3 -5 38 23zm-41 -18l1 -3 2 -2 -3 5zm85 -36l-47 59 -35 -28 47 -59 39 15 -4 13zm4 -13l0 7 -4 6 4 -13zm8 -209l-8 209 -44 -2 7 -208 45 1z"/>
    </g>
    <g>
     <path class="fil2" d="M6304 2676l20 -40 0 0 11 6 10 7 11 6 10 7 9 8 10 8 8 8 9 8 8 9 8 9 8 8 8 9 7 9 6 9 7 8 6 9 6 8 5 9 5 8 5 7 4 7 4 7 4 7 3 6 3 5 3 5 2 4 2 4 2 3 1 2 0 1 1 1 -41 19 0 0 -1 -1 -1 -2 -1 -3 -1 -3 -3 -4 -2 -5 -3 -5 -3 -5 -3 -6 -4 -7 -4 -6 -5 -8 -4 -7 -5 -8 -6 -7 -5 -8 -6 -8 -6 -8 -7 -8 -7 -9 -7 -7 -7 -8 -7 -8 -8 -7 -8 -8 -8 -6 -8 -7 -9 -6 -8 -6 -9 -5 -9 -5 0 0zm-370 -77l42 -16 -22 -14 1 0 2 -1 3 0 4 0 5 0 6 0 7 0 8 0 9 0 9 0 11 1 11 0 11 1 13 1 12 1 14 1 14 1 14 2 14 2 15 2 15 3 16 3 15 3 16 3 16 4 16 5 15 4 16 6 16 5 16 7 15 6 15 7 -20 40 -14 -6 -14 -6 -14 -6 -14 -5 -15 -5 -15 -4 -15 -4 -14 -4 -15 -3 -15 -4 -14 -2 -15 -3 -14 -2 -14 -2 -13 -1 -14 -2 -12 -1 -13 -1 -11 0 -11 -1 -11 -1 -10 0 -9 0 -8 0 -8 0 -7 0 -5 0 -5 0 -4 0 -3 0 -1 0 -1 0 -22 -14zm22 14l-16 1 -6 -15 22 14zm-147 -178l22 -39 0 0 9 5 9 6 8 7 8 6 8 7 8 7 7 7 7 8 6 7 7 8 6 8 5 8 6 7 5 8 5 8 4 7 5 7 4 8 4 6 3 7 4 6 2 6 3 6 3 5 2 5 2 4 1 4 2 3 1 2 0 2 1 1 0 1 -42 16 0 0 0 -1 -1 -2 -1 -2 -1 -3 -1 -3 -2 -4 -2 -4 -2 -5 -3 -5 -2 -5 -3 -6 -4 -6 -3 -7 -4 -6 -4 -7 -4 -7 -4 -6 -5 -7 -5 -7 -5 -7 -5 -7 -6 -7 -6 -6 -6 -7 -6 -6 -6 -6 -7 -6 -6 -5 -7 -5 -7 -5 -7 -4 0 0zm-276 -58l0 -45 0 0 10 0 10 0 9 1 10 0 10 0 9 1 10 0 9 1 10 1 9 1 10 1 9 1 10 1 9 1 10 2 9 2 9 2 10 2 9 2 9 2 9 3 10 2 9 3 9 3 9 3 9 4 9 4 9 3 9 5 8 4 9 4 9 5 -22 39 -8 -4 -8 -4 -8 -4 -7 -4 -8 -3 -9 -4 -8 -3 -8 -3 -8 -2 -8 -3 -9 -2 -8 -3 -9 -2 -8 -2 -9 -2 -8 -1 -9 -2 -9 -1 -8 -2 -9 -1 -9 -1 -9 -1 -9 -1 -9 -1 -9 0 -9 -1 -9 0 -10 -1 -9 0 -9 0 -10 0 -9 0 0 0zm-378 117l-12 -43 0 0 9 -2 10 -3 10 -4 10 -3 11 -4 12 -4 11 -5 12 -4 13 -5 12 -4 13 -5 13 -5 13 -5 13 -5 14 -5 13 -5 14 -5 13 -5 13 -5 14 -4 13 -5 13 -4 13 -4 13 -3 13 -4 12 -3 13 -2 12 -2 11 -2 12 -2 11 0 11 -1 0 45 -9 0 -9 1 -10 1 -10 2 -11 2 -11 2 -11 3 -12 3 -12 3 -13 4 -12 4 -13 4 -13 4 -13 5 -13 5 -13 4 -14 5 -13 5 -13 5 -13 5 -13 5 -13 5 -12 5 -13 5 -12 4 -12 5 -12 4 -11 4 -11 4 -11 3 -10 3 -10 3 0 0zm-182 60l17 -41 -17 0 0 0 1 -1 2 0 2 -1 3 -1 3 -2 4 -1 4 -2 5 -2 5 -2 5 -2 6 -2 6 -2 6 -3 6 -2 7 -3 7 -2 6 -3 7 -2 7 -3 8 -2 7 -3 7 -3 7 -2 6 -2 7 -3 7 -2 6 -2 6 -2 6 -2 6 -1 5 -2 12 43 -5 1 -5 2 -5 2 -6 1 -6 2 -7 3 -6 2 -7 2 -6 3 -7 2 -7 2 -7 3 -7 3 -7 2 -7 3 -6 2 -7 3 -6 2 -6 3 -6 2 -6 2 -5 2 -5 2 -5 2 -4 1 -4 2 -3 1 -2 1 -3 1 -1 1 -1 0 0 0 -17 0zm17 0l-9 4 -8 -4 17 0zm-182 -60l11 -43 0 0 6 2 5 1 6 2 6 2 7 2 6 2 7 3 7 2 7 2 7 3 7 3 7 2 7 3 7 2 7 3 7 2 6 3 7 2 6 3 6 2 5 2 6 2 5 2 4 2 5 2 3 1 4 2 2 1 3 1 1 0 1 1 1 0 -17 41 -1 0 0 0 -2 -1 -2 -1 -3 -1 -3 -1 -4 -2 -4 -1 -5 -2 -5 -2 -5 -2 -5 -2 -6 -2 -6 -3 -7 -2 -6 -3 -7 -2 -7 -3 -7 -2 -7 -3 -7 -3 -6 -2 -7 -2 -7 -3 -7 -2 -6 -2 -6 -3 -6 -2 -6 -1 -6 -2 -5 -2 -4 -1 0 0zm-379 -117l0 -45 0 0 11 1 11 0 12 2 12 2 12 2 12 2 12 3 13 4 13 3 13 4 13 4 14 5 13 4 13 5 14 5 13 5 14 5 13 5 13 5 13 5 13 5 13 5 12 4 13 5 12 4 12 5 11 4 11 4 10 3 11 4 9 3 9 2 -11 43 -10 -3 -11 -3 -11 -3 -11 -4 -11 -4 -12 -4 -12 -5 -12 -4 -12 -5 -13 -5 -13 -5 -13 -5 -13 -5 -13 -5 -13 -5 -13 -5 -13 -4 -14 -5 -13 -5 -13 -4 -12 -4 -13 -4 -12 -4 -13 -3 -11 -3 -12 -3 -11 -2 -11 -2 -10 -2 -10 -1 -9 -1 -9 0 0 0zm-276 58l-22 -39 0 0 9 -5 9 -4 9 -5 9 -4 9 -4 10 -4 9 -3 9 -4 9 -3 9 -3 9 -2 9 -3 10 -2 9 -2 9 -2 9 -2 10 -2 9 -1 9 -2 10 -1 9 -1 10 -1 9 -1 10 0 9 -1 9 0 10 -1 10 0 9 0 10 -1 9 0 10 0 0 45 -9 0 -10 0 -9 0 -9 0 -9 1 -9 0 -9 1 -9 0 -9 1 -9 1 -9 1 -9 1 -8 1 -9 1 -9 1 -8 2 -9 2 -8 1 -9 2 -8 2 -9 3 -8 2 -8 3 -9 3 -8 3 -8 3 -8 3 -8 4 -8 3 -9 4 -8 5 -8 4 0 0zm-214 178l6 -44 -19 7 0 0 1 -2 2 -1 2 -3 3 -3 3 -4 4 -4 4 -4 5 -5 6 -6 5 -6 6 -6 7 -6 7 -7 7 -7 7 -7 8 -7 8 -8 8 -7 8 -8 8 -7 9 -8 9 -7 8 -7 9 -7 9 -7 9 -7 9 -7 8 -6 9 -5 9 -6 8 -5 22 39 -7 4 -8 5 -8 5 -7 6 -9 6 -8 6 -8 6 -8 7 -9 7 -8 7 -8 7 -8 7 -8 8 -8 7 -8 7 -7 7 -7 7 -7 7 -7 6 -6 7 -6 6 -5 5 -6 6 -4 5 -5 4 -3 4 -4 4 -2 3 -3 2 -1 2 -1 1 0 0 -20 7zm20 -7l-8 9 -12 -2 20 -7zm-231 42l-23 -38 0 0 10 -6 9 -5 11 -4 10 -5 10 -3 10 -4 10 -3 11 -2 10 -3 10 -2 10 -1 10 -2 9 -1 10 -1 9 -1 9 0 9 -1 8 0 8 0 7 0 8 0 6 0 7 0 5 1 5 0 5 0 4 1 3 0 3 0 2 1 2 0 0 0 -6 44 0 0 -1 0 -2 0 -2 -1 -3 0 -3 0 -5 0 -4 -1 -6 0 -5 0 -6 0 -7 0 -7 0 -7 0 -8 0 -8 0 -8 1 -8 0 -9 1 -8 1 -9 2 -9 1 -9 2 -9 2 -9 2 -9 3 -8 3 -9 3 -9 4 -8 3 -8 5 -8 4 0 0zm-190 209l-39 -22 0 0 1 -2 1 -2 2 -3 2 -3 3 -5 3 -5 3 -5 4 -6 4 -7 5 -7 5 -7 5 -8 6 -8 6 -8 7 -9 7 -9 7 -9 8 -9 8 -9 8 -10 9 -9 8 -9 10 -10 9 -9 10 -9 10 -8 11 -9 10 -8 11 -8 11 -8 12 -7 23 38 -10 6 -10 7 -10 7 -10 8 -9 8 -9 8 -9 8 -9 8 -9 9 -8 9 -8 8 -8 9 -7 9 -7 8 -7 9 -7 8 -6 9 -6 7 -5 8 -5 8 -5 7 -5 6 -4 6 -3 6 -4 5 -2 5 -3 4 -2 3 -1 3 -1 1 -1 2 0 0z"/>
    </g>
    <g>
     <path class="fil2" d="M3504 3075l-8 -228 45 -2 8 228 -45 5 0 -3zm0 3l0 -2 0 -1 0 3zm19 87l-19 -87 44 -9 18 87 -38 19 -5 -10zm5 10l-4 -4 -1 -6 5 10zm75 87l-75 -87 33 -29 76 87 2 3 -36 26zm34 -29l1 1 1 2 -2 -3zm61 199l-98 -174 39 -22 98 175 1 2 -40 19zm39 -21l1 1 0 1 -1 -2zm30 191l-70 -172 41 -17 70 172 1 1 -42 16zm41 -17l1 1 0 0 -1 -1zm34 240l-75 -224 42 -15 75 225 -21 29 -21 -15zm21 15l-16 0 -5 -15 21 15zm2237 0l-2237 0 0 -44 2237 0 0 44z"/>
    </g>
   </g>
   <path class="fil3" d="M4187 3911c0,0 0,0 0,0 0,0 0,0 0,0 -151,8 -344,92 -495,117 -34,17 -51,34 -59,51 -17,25 -25,50 -17,76 0,25 8,50 42,75 17,9 42,25 76,34 638,-101 1596,-160 2554,0 33,-9 59,-17 75,-34 26,-17 42,-42 42,-67 0,-25 0,-67 -25,-93 -17,-16 -33,-33 -67,-42 0,0 -261,-100 -496,-117 -235,-17 -495,-17 -613,-17 -126,0 -261,0 -387,0 0,0 0,0 0,0 0,0 0,0 0,0 -218,0 -445,-76 -630,17z"/>
   <path class="fil4" d="M3616 4155c0,25 8,50 42,75 17,9 42,25 76,34 638,-101 1596,-160 2554,0 33,-9 59,-17 75,-34 26,-17 42,-42 42,-67 34,-185 -2839,-151 -2789,-8z"/>
   <path class="fil5 str1" d="M4187 3911c0,0 0,0 0,0 0,0 0,0 0,0 -151,8 -344,92 -495,117 -34,17 -51,34 -59,51 -17,25 -25,50 -17,76 0,25 8,50 42,75 17,9 42,25 76,34 638,-101 1596,-160 2554,0 33,-9 59,-17 75,-34 26,-17 42,-42 42,-67 0,-25 0,-67 -25,-93 -17,-16 -33,-33 -67,-42 0,0 -261,-100 -496,-117 -235,-17 -495,-17 -613,-17 -126,0 -261,0 -387,0 0,0 0,0 0,0 0,0 0,0 0,0 -218,0 -445,-76 -630,17"/>
   <path class="fil6 str2" d="M5137 4054c-51,-9 -101,-17 -143,-26 -42,-8 -76,-16 -109,-33 8,17 25,33 67,42 -34,0 -67,17 -84,17 17,8 59,16 84,16 -34,17 -51,34 -59,51 34,-8 67,-25 101,-34 42,-17 92,-25 143,-33z"/>
   <path class="fil6 str2" d="M4078 4104c-50,0 -101,-8 -143,-17 -42,-8 -75,-17 -109,-25 8,17 25,34 67,42 -33,0 -67,17 -84,25 17,9 59,9 84,9 -33,17 -50,33 -50,50 33,-17 59,-25 101,-42 33,-17 84,-33 134,-42z"/>
   <path class="fil6 str2" d="M6195 4155c-50,-17 -92,-26 -134,-42 -34,-17 -76,-34 -101,-51 8,17 25,34 59,51 -34,0 -67,0 -84,8 17,8 50,25 84,25 -34,9 -51,25 -59,42 34,-8 67,-17 101,-17 33,-16 84,-16 134,-16z"/>
   <path class="fil6" d="M4607 4070c-50,-8 -100,-16 -142,-25 -42,-8 -76,-17 -110,-33 9,16 26,33 68,42 -34,0 -68,16 -84,16 16,9 58,17 84,17 -34,17 -51,34 -59,51 33,-9 67,-25 101,-34 42,-8 92,-25 142,-34z"/>
   <path class="fil6" d="M5666 4079c-50,-9 -101,-17 -143,-34 -42,-8 -75,-25 -109,-33 8,17 25,33 59,50 -34,0 -67,9 -84,17 17,8 50,17 84,17 -34,8 -51,25 -59,42 34,-9 67,-25 101,-34 50,-8 101,-17 151,-25z"/>
   <polyline class="fil5 str3" points="6103,3785 6204,3499 6237,3382 6338,3314 6439,3088 6489,3029 6498,2819 "/>
   <path class="fil7" d="M6229 1785c109,25 218,67 311,160 84,84 134,176 168,294 33,109 33,176 17,286 -17,142 -101,285 -101,285l-151 -25c0,0 92,-193 100,-277 9,-101 9,-135 -16,-227 -26,-92 -68,-160 -126,-227 -59,-59 -152,-101 -236,-118 -75,-16 -168,-25 -235,-8 -134,25 -218,67 -361,118 -101,33 -185,42 -286,50 -67,0 -134,-8 -210,-25 -67,-17 -126,-34 -126,-34l42 -151c0,0 59,17 118,25 67,17 143,25 168,25 101,-8 159,-16 252,-42 134,-42 227,-84 378,-117 92,-25 193,-17 294,8z"/>
   <path class="fil6" d="M4994 1953l17 -75c0,0 58,16 117,25 67,17 143,25 168,25 101,-8 160,-17 252,-42 135,-42 227,-84 378,-118 101,-16 202,-8 303,17 109,25 218,68 311,160 84,84 134,176 168,294 33,109 33,176 17,286 -17,142 -101,285 -101,285l-76 -17c34,-67 93,-184 101,-277 34,-227 -34,-386 -118,-479 -92,-100 -310,-218 -487,-210 -210,9 -403,126 -647,168 -134,26 -269,26 -403,-42z"/>
   <line class="fil5 str4" x1="6624" y1="2810" x2="6473" y2="2785"/>
   <line class="fil5 str4" x1="4977" y1="2029" x2="5019" y2="1886"/>
   <path class="fil8" d="M6641 2642c0,51 33,84 84,84 50,0 84,-33 84,-84 0,-50 -34,-84 -84,-84 -42,0 -84,42 -84,84z"/>
   <path class="fil5 str5" d="M6641 2642c0,51 33,84 84,84 50,0 84,-33 84,-84 0,-50 -34,-84 -84,-84 -42,0 -84,42 -84,84"/>
   <path class="fil8" d="M6683 2441c0,50 33,84 84,84 50,0 84,-34 84,-84 0,-51 -34,-84 -84,-84 -51,0 -84,42 -84,84z"/>
   <path class="fil5 str5" d="M6683 2441c0,50 33,84 84,84 42,0 84,-34 84,-84 0,-51 -34,-84 -84,-84 -51,0 -84,42 -84,84"/>
   <path class="fil8" d="M6674 2231c0,50 34,84 84,84 42,0 84,-34 84,-84 0,-51 -33,-84 -84,-84 -50,0 -84,42 -84,84z"/>
   <path class="fil5 str5" d="M6674 2231c0,50 34,84 84,84 42,0 84,-34 84,-84 0,-51 -33,-84 -84,-84 -50,0 -84,42 -84,84"/>
   <path class="fil8" d="M6590 2037c0,51 34,84 84,84 42,0 84,-33 84,-84 0,-50 -33,-84 -84,-84 -50,0 -84,34 -84,84z"/>
   <path class="fil5 str5" d="M6590 2037c0,51 34,84 84,84 42,0 84,-33 84,-84 0,-50 -33,-84 -84,-84 -50,0 -84,34 -84,84"/>
   <path class="fil8" d="M6439 1878c0,50 34,84 84,84 42,0 84,-34 84,-84 0,-51 -34,-84 -84,-84 -50,0 -84,42 -84,84z"/>
   <path class="fil5 str5" d="M6439 1878c0,50 34,84 84,84 42,0 84,-34 84,-84 0,-51 -34,-84 -84,-84 -50,0 -84,42 -84,84"/>
   <path class="fil8" d="M6254 1777c0,50 34,84 84,84 51,0 84,-34 84,-84 0,-51 -33,-84 -84,-84 -50,0 -84,33 -84,84z"/>
   <path class="fil5 str5" d="M6254 1777c0,50 34,84 84,84 51,0 84,-34 84,-84 0,-51 -33,-84 -84,-84 -50,0 -84,33 -84,84"/>
   <path class="fil8" d="M6036 1726c0,51 33,84 84,84 50,0 84,-33 84,-84 0,-50 -34,-84 -84,-84 -51,0 -84,34 -84,84z"/>
   <path class="fil5 str5" d="M6036 1718c0,50 33,84 84,84 50,0 84,-34 84,-84 0,-50 -34,-84 -84,-84 -51,0 -84,42 -84,84"/>
   <path class="fil8" d="M5817 1735c0,50 34,84 84,84 42,0 84,-34 84,-84 0,-51 -33,-84 -84,-84 -50,0 -84,33 -84,84z"/>
   <path class="fil5 str5" d="M5817 1735c0,50 34,84 84,84 42,0 84,-34 84,-84 0,-51 -33,-84 -84,-84 -50,0 -84,33 -84,84"/>
   <path class="fil8" d="M5212 1886c0,50 34,84 84,84 51,0 84,-34 84,-84 0,-50 -33,-84 -84,-84 -50,0 -84,42 -84,84z"/>
   <path class="fil5 str5" d="M5221 1886c0,50 33,84 84,84 42,0 84,-34 84,-84 0,-50 -34,-84 -84,-84 -51,0 -84,42 -84,84"/>
   <path class="fil8" d="M5607 1794c0,50 34,84 84,84 42,0 84,-34 84,-84 0,-51 -33,-84 -84,-84 -50,0 -84,33 -84,84z"/>
   <path class="fil5 str5" d="M5607 1794c0,50 34,84 84,84 42,0 84,-34 84,-84 0,-51 -33,-84 -84,-84 -50,0 -84,33 -84,84"/>
   <path class="fil8" d="M5414 1852c0,51 34,84 84,84 42,0 84,-33 84,-84 0,-50 -34,-84 -84,-84 -50,0 -84,34 -84,84z"/>
   <path class="fil5 str5" d="M5414 1852c0,51 34,84 84,84 42,0 84,-33 84,-84 0,-50 -34,-84 -84,-84 -50,0 -84,34 -84,84"/>
   <path class="fil7" d="M3776 1785c-110,25 -219,67 -311,160 -84,84 -135,176 -168,294 -34,109 -34,176 -17,286 17,142 101,285 101,285l151 -25c0,0 -92,-193 -101,-277 -8,-101 -8,-135 17,-227 25,-92 67,-160 126,-227 59,-59 151,-101 235,-118 76,-16 168,-25 235,-8 135,25 219,67 362,118 101,33 185,42 285,50 68,0 135,-8 210,-25 68,-17 126,-34 126,-34l-42 -151c0,0 -58,17 -117,25 -67,17 -143,25 -168,25 -101,-8 -160,-16 -252,-42 -135,-42 -227,-84 -378,-117 -93,-25 -194,-17 -294,8z"/>
   <path class="fil6" d="M5011 1953l-17 -75c0,0 -59,16 -118,25 -67,17 -143,25 -168,25 -101,-8 -159,-17 -252,-42 -134,-42 -227,-84 -378,-118 -101,-16 -202,-8 -302,17 -110,25 -219,68 -311,160 -84,84 -135,176 -168,294 -34,109 -34,176 -17,286 17,142 101,285 101,285l75 -17c-33,-67 -92,-184 -100,-277 -34,-227 33,-386 117,-479 93,-100 311,-218 487,-210 210,9 404,126 647,168 135,26 269,26 404,-42z"/>
   <line class="fil5 str4" x1="3381" y1="2810" x2="3532" y2="2785"/>
   <line class="fil5 str4" x1="5027" y1="2029" x2="4985" y2="1886"/>
   <path class="fil8" d="M3364 2642c0,51 -34,84 -84,84 -51,0 -84,-33 -84,-84 0,-50 33,-84 84,-84 50,0 84,42 84,84z"/>
   <path class="fil5 str5" d="M3364 2642c0,51 -34,84 -84,84 -42,0 -84,-33 -84,-84 0,-50 33,-84 84,-84 42,0 84,42 84,84"/>
   <path class="fil8" d="M3322 2441c0,50 -34,84 -84,84 -51,0 -84,-34 -84,-84 0,-51 33,-84 84,-84 50,0 84,42 84,84z"/>
   <path class="fil5 str5" d="M3317 2440c0,50 -33,84 -84,84 -50,0 -84,-34 -84,-84 0,-51 34,-84 84,-84 51,0 84,42 84,84"/>
   <path class="fil8" d="M3330 2231c0,50 -33,84 -84,84 -42,0 -84,-34 -84,-84 0,-51 34,-84 84,-84 51,0 84,42 84,84z"/>
   <path class="fil5 str5" d="M3339 2231c0,50 -34,84 -84,84 -42,0 -84,-34 -84,-84 0,-51 33,-84 84,-84 42,0 84,42 84,84"/>
   <path class="fil8" d="M3414 2037c0,51 -33,84 -84,84 -50,0 -84,-33 -84,-84 0,-50 34,-84 84,-84 51,0 84,34 84,84z"/>
   <path class="fil5 str5" d="M3414 2037c0,51 -33,84 -84,84 -42,0 -84,-33 -84,-84 0,-50 34,-84 84,-84 51,0 84,34 84,84"/>
   <path class="fil8" d="M3566 1878c0,50 -34,84 -84,84 -51,0 -84,-34 -84,-84 0,-51 33,-84 84,-84 50,0 84,42 84,84z"/>
   <path class="fil5 str5" d="M3566 1878c0,50 -34,84 -84,84 -42,0 -84,-34 -84,-84 0,-51 33,-84 84,-84 50,0 84,42 84,84"/>
   <path class="fil8" d="M3750 1777c0,50 -33,84 -84,84 -50,0 -84,-34 -84,-84 0,-51 34,-84 84,-84 51,0 84,33 84,84z"/>
   <path class="fil5 str5" d="M3759 1777c0,50 -34,84 -84,84 -42,0 -84,-34 -84,-84 0,-51 33,-84 84,-84 42,0 84,33 84,84"/>
   <path class="fil8" d="M3969 1726c0,51 -34,84 -84,84 -51,0 -84,-33 -84,-84 0,-50 33,-84 84,-84 50,0 84,34 84,84z"/>
   <path class="fil5 str5" d="M3969 1718c0,50 -34,84 -84,84 -51,0 -84,-34 -84,-84 0,-50 33,-84 84,-84 50,0 84,42 84,84"/>
   <path class="fil8" d="M4187 1735c0,50 -33,84 -84,84 -42,0 -84,-34 -84,-84 0,-51 34,-84 84,-84 51,0 84,33 84,84z"/>
   <path class="fil5 str5" d="M4187 1735c0,50 -33,84 -84,84 -42,0 -84,-34 -84,-84 0,-51 34,-84 84,-84 51,0 84,33 84,84"/>
   <path class="fil8" d="M4792 1886c0,50 -33,84 -84,84 -50,0 -84,-34 -84,-84 0,-50 34,-84 84,-84 51,0 84,42 84,84z"/>
   <path class="fil5 str5" d="M4792 1886c0,50 -33,84 -84,84 -42,0 -84,-34 -84,-84 0,-50 34,-84 84,-84 42,0 84,42 84,84"/>
   <path class="fil8" d="M4397 1794c0,50 -33,84 -84,84 -50,0 -84,-34 -84,-84 0,-51 34,-84 84,-84 51,0 84,33 84,84z"/>
   <path class="fil5 str5" d="M4397 1794c0,50 -33,84 -84,84 -42,0 -84,-34 -84,-84 0,-51 34,-84 84,-84 51,0 84,33 84,84"/>
   <path class="fil8" d="M4591 1852c0,51 -34,84 -84,84 -42,0 -84,-33 -84,-84 0,-50 33,-84 84,-84 50,0 84,34 84,84z"/>
   <path class="fil5 str5" d="M4599 1852c0,51 -34,84 -84,84 -42,0 -84,-33 -84,-84 0,-50 34,-84 84,-84 42,0 84,34 84,84"/>
   <path class="fil6" d="M4801 1508c25,-25 50,-50 67,-76 25,-33 42,-67 50,-109 -42,9 -75,25 -109,51 -25,25 -50,50 -76,67l0 -361c26,25 51,50 76,67 34,25 67,42 109,50 -8,-42 -25,-75 -50,-109 -25,-25 -51,-50 -67,-76l403 0c-25,26 -51,51 -67,76 -26,34 -42,67 -51,109 42,-8 76,-25 109,-50 26,-25 51,-51 76,-67l0 361c-25,-25 -50,-51 -76,-67 -33,-26 -67,-42 -109,-51 9,42 25,76 51,109 25,26 50,51 67,76l-403 0z"/>
   <path class="fil6" d="M5103 1256c0,59 -42,101 -101,101 -59,0 -101,-42 -101,-101 0,-59 42,-101 101,-101 59,0 101,51 101,101z"/>
   <path class="fil6 str6" d="M5229 1735c0,126 -101,227 -227,227 -126,0 -227,-101 -227,-227 0,-126 101,-227 227,-227 126,0 227,101 227,227z"/>
   <path class="fil6" d="M4927 1911l151 0c42,0 75,34 75,76l0 697c0,42 -33,76 -75,76l-151 0c-42,0 -76,-34 -76,-76l0 -697c0,-34 34,-76 76,-76z"/>
   <path class="fil6" d="M4927 1911l151 0c42,0 75,34 75,76l0 252 -302 84 0 -336c0,-42 34,-76 76,-76z"/>
   <line class="fil5 str4" x1="5153" y1="1987" x2="5153" y2="2693"/>
   <path class="fil5 str4" d="M5154 2693c0,42 -34,75 -76,75"/>
   <line class="fil5 str4" x1="5078" y1="2768" x2="4927" y2="2768"/>
   <path class="fil5 str4" d="M4927 2768c-42,0 -76,-33 -76,-75"/>
   <line class="fil5 str4" x1="4851" y1="2693" x2="4851" y2="1987"/>
   <path class="fil6 str6" d="M4843 1911l0 0c25,0 50,17 50,42l0 773c0,25 -25,42 -50,42 -26,0 -51,-17 -51,-42l0 -773c0,-17 25,-42 51,-42z"/>
   <path class="fil5 str7" d="M4893 2726c0,25 -25,42 -50,42 -26,0 -51,-17 -51,-42"/>
   <path class="fil6 str6" d="M5162 1911c25,0 50,17 50,42l0 773c0,25 -25,42 -50,42 -25,0 -51,-17 -51,-42l0 -773c9,-17 26,-42 51,-42z"/>
   <path class="fil5 str7" d="M5212 2726c0,25 -25,42 -50,42"/>
   <path class="fil5 str7" d="M5162 2768c-25,0 -51,-17 -51,-42"/>
   <path class="fil8" d="M5086 1936c0,51 -33,85 -84,85 -42,0 -84,-34 -84,-85 0,-50 34,-84 84,-84 42,0 84,34 84,84z"/>
   <path class="fil5 str5" d="M5086 1936c0,51 -33,85 -84,85 -42,0 -84,-34 -84,-85 0,-50 34,-84 84,-84 51,0 84,34 84,84"/>
   <path class="fil8" d="M5086 2105c0,50 -33,84 -84,84 -42,0 -84,-34 -84,-84 0,-51 34,-84 84,-84 42,0 84,33 84,84z"/>
   <path class="fil5 str5" d="M5086 2096c0,51 -33,84 -84,84 -42,0 -84,-33 -84,-84 0,-50 34,-84 84,-84 51,0 84,42 84,84"/>
   <path class="fil8" d="M5086 2264c0,51 -33,84 -84,84 -42,0 -84,-33 -84,-84 0,-50 34,-84 84,-84 42,0 84,42 84,84z"/>
   <path class="fil5 str5" d="M5086 2264c0,51 -33,84 -84,84 -42,0 -84,-33 -84,-84 0,-50 34,-84 84,-84 51,0 84,42 84,84"/>
   <path class="fil8" d="M5086 2432c0,51 -33,84 -84,84 -42,0 -84,-33 -84,-84 0,-50 34,-84 84,-84 42,0 84,42 84,84z"/>
   <path class="fil5 str5" d="M5086 2432c0,51 -33,84 -84,84 -42,0 -84,-33 -84,-84 0,-50 34,-84 84,-84 51,0 84,42 84,84"/>
   <path class="fil8" d="M5086 2600c0,51 -33,84 -84,84 -42,0 -84,-33 -84,-84 0,-50 34,-84 84,-84 42,0 84,42 84,84z"/>
   <path class="fil5 str5" d="M5086 2600c0,51 -33,84 -84,84 -42,0 -84,-33 -84,-84 0,-50 34,-84 84,-84 51,0 84,42 84,84"/>
   <path class="fil6" d="M6489 3130c-75,176 -142,352 -201,529l-1286 0 -1285 0c-59,-177 -126,-361 -202,-530 0,0 160,227 277,278 68,33 152,42 219,17 92,-34 210,-194 210,-194 0,0 109,126 185,160 67,34 151,34 227,25 67,0 142,-8 193,-42 84,-59 168,-252 168,-252 0,0 84,151 143,210 50,51 117,84 193,93 67,16 143,8 210,-17 92,-34 235,-168 235,-168 0,0 101,126 168,151 67,34 152,42 219,25 75,-17 134,-75 193,-126 50,-42 134,-159 134,-159z"/>
   <polyline class="fil5 str4" points="6279,3667 5943,3667 5002,3667 4019,3667 3717,3667 "/>
   <path class="fil9" d="M5002 3230c0,0 -59,93 -92,118 -51,42 -84,67 -143,92 -67,17 -151,34 -218,26 -68,0 -135,-26 -194,-51 -50,-25 -134,-92 -134,-92 -42,50 -92,84 -134,117 -59,34 -118,34 -185,34 -126,-8 -252,-84 -345,-252 -59,-151 -134,-294 -227,-454 101,-33 227,-59 362,-59 -51,152 -110,303 -93,429 109,-84 151,-202 185,-311l134 462c-75,-17 -33,-34 -243,-67 42,75 134,176 243,185 68,8 127,-17 169,-51 33,-25 58,-67 58,-109 0,-25 0,-50 0,-76 0,-16 -16,-33 -33,-33 -17,0 -17,25 -25,33 -9,26 8,59 0,84 -9,34 -26,59 -51,76 -25,17 -75,17 -75,17l16 -67c9,-51 -33,-84 -42,-135 -8,-33 -8,-67 0,-92 9,-34 34,-67 68,-76 8,-8 25,-8 33,-8 17,0 51,8 51,8 0,0 -9,-50 -9,-75 0,-34 34,-101 51,-135 25,-50 75,-101 75,-101 9,9 51,51 84,101 17,34 42,76 42,109 9,26 0,93 0,93 0,0 51,-25 67,-25 9,0 26,0 42,0 34,8 59,42 76,75 17,25 8,67 8,93 -8,50 -33,84 -16,134l25 67c0,0 -59,0 -76,-8 -25,-17 -50,-42 -59,-67 -8,-26 0,-59 -25,-84 -8,-9 -17,-26 -33,-17 -17,0 -26,25 -26,42l0 67c0,17 9,42 17,59 25,42 67,67 109,84 51,17 93,25 143,25 42,0 118,-8 160,-17 50,-17 76,-42 118,-75 25,-17 33,-51 42,-76 8,-34 8,-84 8,-84 -50,17 -92,42 -134,76 -42,33 -84,75 -118,109l0 -555c50,59 92,110 143,152 42,33 67,50 109,67 -8,-42 -17,-76 -50,-118 -42,-59 -84,-126 -143,-193 101,-17 201,-17 294,-17 101,0 201,9 294,17 -51,59 -101,126 -143,193 -34,42 -34,76 -50,118 42,-17 67,-25 109,-67 50,-42 92,-93 143,-152l0 555c-34,-42 -76,-76 -118,-109 -42,-34 -84,-59 -134,-76 0,0 0,59 8,84 8,25 25,59 42,76 42,33 67,58 118,75 42,17 117,17 159,17 51,0 93,-8 143,-25 42,-17 84,-42 109,-84 9,-17 17,-34 17,-59l0 -67c0,-17 -8,-42 -25,-42 -17,0 -25,8 -34,17 -16,25 -8,58 -25,84 -8,33 -25,50 -59,67 -25,17 -75,8 -75,8l25 -67c17,-50 -17,-84 -17,-134 -8,-34 -8,-68 9,-93 16,-33 42,-59 75,-75 9,-9 25,0 42,0 17,0 67,25 67,25 0,0 0,-59 0,-93 9,-33 26,-75 42,-109 34,-50 84,-92 84,-101 9,9 51,51 76,101 17,34 50,101 50,135 0,25 -8,75 -8,75 0,0 34,-8 50,-8 9,0 26,0 34,8 34,17 59,42 67,76 9,33 9,67 0,92 -8,51 -59,84 -42,135l17 67c0,0 -59,0 -76,-17 -25,-17 -42,-42 -50,-76 -8,-25 8,-58 0,-84 0,-16 -8,-42 -25,-33 -17,0 -34,25 -34,33 0,26 0,51 0,76 0,42 25,76 59,109 42,42 92,59 168,51 109,-9 202,-110 244,-185 -210,42 -168,59 -244,67l134 -462c42,118 76,227 185,311 17,-126 -33,-269 -92,-429 134,9 252,26 361,59 -92,160 -159,303 -227,454 -92,160 -218,244 -344,252 -67,0 -126,0 -185,-34 -50,-25 -101,-58 -134,-117 0,0 -84,75 -135,92 -59,25 -126,51 -193,51 -67,0 -160,-9 -218,-26 -68,-16 -101,-42 -143,-92 -51,-25 -110,-118 -110,-118z"/>
   <path class="fil9" d="M6094 3390l0 0c110,-8 202,-109 244,-185 -210,42 -168,59 -244,67l135 -462c42,118 75,227 185,311 17,-126 -34,-269 -93,-428 135,8 252,25 362,58 -93,160 -160,303 -227,454 -93,160 -219,244 -345,252l0 9 -17 -76zm-2201 84c-126,-8 -252,-84 -344,-252 -59,-151 -135,-294 -227,-454 101,-33 227,-59 361,-59 -50,152 -109,303 -92,429 109,-84 151,-202 185,-311l134 462c-76,-17 -34,-33 -244,-67 42,76 135,176 244,185l-17 67z"/>
   <path class="fil8" d="M5095 3046c0,50 -42,92 -93,92 -50,0 -92,-42 -92,-92 0,-51 42,-93 92,-93 51,0 93,42 93,93z"/>
   <path class="fil5 str8" d="M5095 3046c0,50 -42,92 -93,92 -50,0 -92,-42 -92,-92 0,-51 42,-93 92,-93 51,0 93,42 93,93"/>
   <path class="fil8" d="M3658 3172c0,50 -42,92 -92,92 -51,0 -93,-42 -93,-92 0,-51 42,-93 93,-93 50,0 92,42 92,93z"/>
   <path class="fil5 str8" d="M3658 3172c0,50 -42,92 -92,92 -51,0 -93,-42 -93,-92 0,-51 42,-93 93,-93 50,0 92,42 92,93"/>
   <path class="fil8" d="M6347 3172c0,50 42,92 92,92 50,0 92,-42 92,-92 0,-51 -42,-93 -92,-93 -50,0 -92,42 -92,93z"/>
   <path class="fil5 str8" d="M6355 3172c0,50 42,92 92,92 51,0 93,-42 93,-92 0,-51 -51,-93 -101,-93 -50,0 -84,42 -84,93"/>
   <polygon class="fil6" points="4128,3188 4330,3172 4355,3214 4330,3264 4128,3272 4095,3230 "/>
   <polygon class="fil6" points="5876,3188 5674,3172 5649,3214 5674,3264 5876,3272 5910,3230 "/>
   <path class="fil9" d="M3741 3936c0,0 142,-8 394,-25 252,-17 521,-25 656,-25 25,0 395,0 420,0 134,0 412,8 655,25 252,17 395,25 395,25l84 -395c0,0 -899,-84 -1344,-84 -454,0 -1344,84 -1344,84l84 395z"/>
   <path class="fil7" d="M4792 3869c-143,0 -411,8 -664,25 -159,8 -243,25 -403,42l17 34c160,-17 235,-17 395,-26 252,-16 521,-25 655,-25 25,0 395,0 420,0 135,0 412,9 656,25 252,17 403,26 403,26l8 -34c0,0 -151,-25 -403,-42 -252,-17 -529,-25 -664,-25 -25,0 -403,0 -420,0z"/>
   <path class="fil5 str4" d="M4994 3491c454,0 899,25 1353,75"/>
   <path class="fil5 str4" d="M6263 3961c-446,-42 -807,-50 -1261,-50"/>
   <path class="fil5 str4" d="M5011 3491c-454,0 -899,25 -1353,75"/>
   <path class="fil5 str4" d="M3742 3961c445,-42 807,-50 1260,-50"/>
   <path class="fil6" d="M4128 3508l0 0 0 0c-159,8 -344,25 -504,50 -25,25 -25,50 17,76 151,-26 336,-34 496,-42 218,-9 437,-17 655,-26l420 0c135,0 404,9 656,26 243,16 495,42 495,42 42,-26 42,-51 17,-76 0,0 -252,-34 -504,-50 -252,-17 -529,-26 -664,-26l-420 0c-218,0 -445,9 -664,26z"/>
   <path class="fil7" d="M6397 3575c0,-9 -8,-17 -17,-25 0,0 -252,-34 -504,-51 -252,-17 -529,-25 -664,-25l-420 0c-218,0 -445,8 -664,25l0 0 0 0c-159,9 -344,25 -504,42 -8,17 -16,17 -16,25 184,-16 344,-33 529,-50 286,-17 596,-17 865,-25 269,0 538,8 798,25 202,25 404,42 597,59z"/>
   <path class="fil6" d="M3616 3608c8,9 17,9 25,17 151,-25 336,-33 496,-42 218,-8 437,-17 655,-25l420 0c135,0 404,8 656,25 243,17 495,42 495,42 17,-8 17,-8 26,-17 -479,-67 -916,-75 -1370,-75 -445,-9 -949,17 -1403,75z"/>
   <polyline class="fil5 str9" points="4128,3499 4128,3508 4128,3508 "/>
   <path class="fil7" d="M4187 3911l0 0 0 0c-151,8 -319,25 -470,50 -25,26 -25,51 17,76 142,-25 310,-34 462,-42 201,-9 403,-17 605,-25l386 0c118,0 378,8 605,25 227,17 462,42 462,42 42,-25 34,-51 17,-76 0,0 -235,-33 -471,-50 -235,-17 -487,-25 -613,-25l-386 0c-202,0 -404,16 -614,25z"/>
   <path class="fil6" d="M6296 3986c0,-8 -8,-16 -17,-25 0,0 -235,-33 -470,-50 -235,-17 -487,-25 -614,-25l-386 0c-202,0 -412,8 -613,25l0 0 0 0c-152,8 -320,25 -471,42 -8,17 -17,17 -17,25 177,-17 320,-34 488,-50 269,-17 554,-17 806,-26 252,0 504,9 748,26 185,16 370,33 546,58z"/>
   <path class="fil6" d="M3717 4012c8,8 8,8 25,16 143,-25 311,-33 462,-42 202,-8 403,-16 605,-25l386 0c118,0 379,9 605,25 227,17 462,42 462,42 9,-8 17,-8 17,-16 -445,-68 -848,-76 -1277,-76 -403,0 -865,17 -1285,76z"/>
   <polygon class="fil6" points="3708,3911 3918,3743 3666,3650 3658,3793 "/>
   <polygon class="fil7" points="3700,3877 3851,3751 3666,3692 3633,3793 "/>
   <path class="fil7" d="M4649 3650c0,26 -16,42 -42,42 -25,0 -42,-16 -42,-42 0,-25 17,-42 42,-42 26,-8 42,17 42,42z"/>
   <polygon class="fil6" points="6296,3911 6094,3743 6347,3650 6347,3793 "/>
   <polygon class="fil7" points="6304,3877 6153,3751 6338,3692 6372,3793 "/>
   <path class="fil7" d="M5355 3650c0,26 17,42 42,42 25,0 42,-16 42,-42 0,-25 -17,-42 -42,-42 -25,-8 -42,17 -42,42z"/>
   <path class="fil7" d="M4649 3797c0,25 -16,42 -42,42 -25,0 -42,-17 -42,-42 0,-26 17,-42 42,-42 26,-9 42,16 42,42z"/>
   <path class="fil7" d="M5355 3797c0,25 17,42 42,42 25,0 42,-17 42,-42 0,-26 -17,-42 -42,-42 -25,-9 -42,16 -42,42z"/>
  </g>
  <path class="fil10" d="M2700 8951c-51,-19 -89,-46 -114,-81 -25,-35 -38,-76 -38,-125 0,-74 27,-135 79,-185 53,-51 123,-76 211,-76 88,0 159,26 213,77 53,51 80,114 80,187 0,47 -12,88 -36,123 -25,34 -62,61 -112,80 62,20 108,53 141,98 32,45 48,98 48,161 0,86 -30,159 -91,218 -61,58 -142,88 -241,88 -100,0 -180,-30 -241,-89 -61,-59 -91,-132 -91,-220 0,-66 16,-121 50,-165 33,-45 81,-75 142,-91zm-25 -211c0,48 16,87 46,118 31,30 71,45 120,45 48,0 88,-15 118,-45 30,-30 45,-67 45,-111 0,-45 -15,-84 -47,-115 -31,-31 -70,-46 -117,-46 -48,0 -87,15 -118,45 -31,31 -47,67 -47,109zm-40 467c0,36 8,70 24,103 17,33 42,59 75,77 33,18 69,27 107,27 60,0 108,-19 147,-57 38,-38 57,-87 57,-145 0,-60 -20,-109 -59,-148 -39,-40 -89,-59 -149,-59 -59,0 -107,19 -145,58 -38,38 -57,87 -57,144z"/>
  <path id="1" class="fil10" d="M3759 9499l-124 0 0 -791c-30,29 -69,57 -117,86 -49,28 -93,50 -131,64l0 -120c69,-33 130,-72 182,-119 52,-46 89,-91 110,-135l80 0 0 1015z"/>
  <path id="2" class="fil10" d="M4729 9380l0 119 -669 0c-1,-30 4,-59 15,-86 17,-46 44,-91 82,-135 38,-44 92,-95 163,-152 109,-90 183,-162 222,-214 39,-53 59,-103 59,-150 0,-49 -18,-90 -53,-124 -36,-34 -82,-51 -138,-51 -60,0 -108,18 -144,54 -36,35 -54,85 -55,148l-127 -13c9,-95 42,-167 99,-217 57,-50 133,-75 230,-75 96,0 173,27 230,81 56,54 85,121 85,200 0,41 -9,80 -25,119 -17,40 -44,81 -83,124 -38,43 -102,103 -191,178 -74,62 -122,105 -143,127 -22,22 -39,45 -53,67l496 0z"/>
  <path id="3" class="fil10" d="M4863 9231l125 -17c14,70 38,121 72,152 34,31 76,47 126,47 58,0 108,-20 148,-61 40,-40 60,-90 60,-150 0,-57 -19,-104 -56,-141 -37,-37 -84,-56 -142,-56 -24,0 -53,5 -88,14l14 -109c8,1 15,2 20,2 53,0 101,-14 143,-42 43,-27 64,-69 64,-127 0,-45 -16,-83 -47,-112 -30,-30 -70,-45 -119,-45 -48,0 -88,15 -121,46 -32,30 -53,76 -62,137l-124 -22c15,-84 50,-148 104,-194 53,-46 120,-69 200,-69 55,0 106,12 152,36 47,23 82,55 107,96 25,41 37,84 37,130 0,44 -12,83 -35,119 -24,36 -59,64 -104,85 59,14 106,43 139,86 33,44 49,98 49,163 0,88 -32,163 -96,225 -65,61 -146,92 -244,92 -89,0 -163,-27 -221,-80 -59,-53 -92,-121 -101,-205z"/>
  <path id="4" class="fil10" d="M5654 9174l125 -11c6,51 20,92 42,125 22,33 56,59 102,79 45,20 97,30 155,30 51,0 96,-7 135,-23 39,-15 68,-36 87,-62 19,-27 28,-56 28,-87 0,-31 -9,-59 -27,-83 -19,-23 -49,-43 -91,-59 -27,-11 -87,-27 -180,-49 -93,-23 -158,-44 -195,-63 -48,-26 -84,-57 -108,-95 -23,-37 -35,-79 -35,-126 0,-51 14,-99 43,-143 29,-44 71,-78 127,-101 56,-23 118,-34 186,-34 74,0 140,12 198,36 57,24 101,59 131,106 31,47 48,100 50,160l-128 9c-7,-63 -30,-112 -70,-144 -40,-33 -99,-49 -176,-49 -81,0 -140,15 -177,45 -37,29 -56,65 -56,107 0,36 13,66 40,89 25,24 93,48 201,72 109,25 183,46 224,65 58,27 102,61 130,103 28,41 42,89 42,143 0,54 -16,104 -46,151 -31,48 -75,85 -133,111 -57,27 -122,40 -194,40 -92,0 -168,-14 -230,-40 -61,-27 -110,-67 -145,-120 -35,-54 -53,-114 -55,-182z"/>
  <path id="5" class="fil10" d="M7358 9144l134 34c-27,110 -78,194 -150,251 -73,58 -162,87 -267,87 -109,0 -197,-22 -265,-67 -69,-44 -120,-108 -156,-192 -35,-84 -53,-174 -53,-271 0,-105 20,-197 60,-275 40,-78 97,-138 171,-179 74,-40 156,-60 245,-60 101,0 186,25 255,77 69,51 117,123 144,217l-132 31c-23,-74 -57,-127 -102,-161 -44,-33 -100,-50 -167,-50 -78,0 -143,18 -195,56 -52,37 -88,87 -109,149 -21,63 -32,128 -32,194 0,86 12,161 37,225 25,64 64,112 117,144 52,32 109,47 171,47 75,0 138,-21 189,-64 52,-43 87,-107 105,-193z"/>
  <g>
   <path class="fil11" d="M5000 6520c26,0 50,17 71,48 10,-30 27,-51 50,-58 19,-7 41,-2 63,11 1,-30 10,-53 28,-67 22,-17 54,-17 90,-5 -12,-33 -12,-63 3,-84 18,-25 53,-34 96,-30 -21,-27 -29,-55 -22,-79 7,-21 24,-37 50,-47 -30,-22 -47,-45 -47,-71 0,-25 17,-49 48,-71 -30,-10 -51,-27 -58,-50 -7,-19 -2,-41 10,-63 -29,-1 -52,-10 -66,-28 -17,-22 -18,-54 -5,-90 -33,12 -63,12 -85,-3 -24,-18 -34,-53 -29,-96 -28,21 -55,29 -79,22 -21,-7 -37,-24 -48,-50 -21,30 -45,47 -70,47 -26,0 -50,-17 -71,-48 -10,30 -27,51 -50,59 -19,6 -41,2 -63,-11 -1,29 -10,53 -28,67 -22,16 -54,17 -90,4 12,34 12,63 -3,85 -18,24 -53,34 -96,29 21,28 29,55 22,79 -7,21 -24,37 -50,48 30,21 47,45 47,70 0,26 -17,50 -48,71 30,11 51,27 58,50 7,19 2,41 -10,64 29,0 52,9 66,28 17,21 18,53 5,89 33,-12 63,-12 85,3 24,18 34,53 29,97 28,-21 55,-30 79,-23 21,7 37,25 48,51 21,-31 45,-48 70,-48zm346 -1048c79,-67 168,-90 191,-73 25,17 31,119 -14,222 99,-47 199,-43 217,-20 16,21 -1,102 -56,179 142,-28 269,12 280,45 8,26 -40,99 -126,158 234,6 420,111 420,155 0,43 -176,144 -400,154 79,57 123,125 116,149 -11,35 -154,80 -307,43 66,79 89,169 73,191 -18,25 -120,31 -222,-14 46,99 43,199 19,217 -21,16 -102,-1 -179,-56 28,142 -12,269 -45,280 -26,8 -98,-40 -158,-125 -5,233 -111,419 -155,419 -43,0 -144,-176 -154,-400 -57,79 -124,124 -149,116 -35,-11 -80,-154 -43,-307 -79,66 -168,89 -191,73 -25,-18 -31,-120 14,-222 -99,46 -199,43 -217,19 -16,-21 1,-101 56,-178 -142,27 -269,-13 -280,-46 -8,-26 40,-98 126,-158 -234,-5 -420,-111 -420,-155 0,-43 176,-144 400,-154 -79,-57 -123,-124 -116,-149 11,-35 154,-80 308,-43 -67,-79 -90,-168 -74,-191 18,-24 120,-31 222,14 -46,-99 -43,-198 -19,-216 21,-16 102,0 179,55 -28,-142 12,-269 45,-280 26,-8 98,40 158,126 5,-234 111,-420 155,-420 43,0 144,176 154,401 57,-80 124,-124 149,-116 35,10 80,153 43,307z"/>
   <path class="fil12" d="M5504 5974c-12,-38 51,-93 141,-123 90,-29 197,-23 240,0 -21,43 -104,111 -195,140 -90,29 -173,22 -186,-17zm74 164c0,-47 108,-85 242,-85 133,0 274,45 321,85 -47,41 -188,86 -321,86 -134,0 -242,-39 -242,-86zm-66 160c13,-39 96,-48 186,-19 91,28 175,95 197,138 -43,23 -150,30 -240,2 -91,-28 -155,-83 -143,-121zm-109 136c22,-31 94,-18 160,30 66,47 115,127 119,170 -43,10 -134,-10 -200,-58 -66,-47 -102,-111 -79,-142zm-118 115c31,-23 95,10 145,75 49,64 73,155 64,197 -43,-3 -125,-49 -174,-113 -50,-65 -65,-136 -35,-159zm-121 94c38,-13 94,50 123,140 29,90 23,198 1,240 -44,-21 -112,-104 -141,-194 -29,-91 -22,-174 17,-186zm-164 73c47,0 86,109 86,242 0,134 -45,274 -86,322 -41,-48 -86,-188 -86,-322 0,-133 39,-242 86,-242zm-160 -65c39,12 48,95 20,185 -29,91 -95,175 -139,197 -23,-43 -30,-150 -2,-240 28,-91 83,-154 121,-142zm-136 -110c31,22 18,94 -30,160 -47,66 -127,115 -170,119 -10,-42 10,-134 58,-200 47,-66 111,-101 142,-79zm-115 -118c24,31 -10,95 -74,145 -65,49 -155,73 -198,64 3,-43 49,-124 113,-174 65,-49 136,-65 159,-35zm-93 -121c12,39 -51,94 -141,123 -90,29 -197,23 -240,1 21,-44 104,-111 195,-141 90,-29 173,-22 186,17zm-74 -164c0,47 -108,86 -242,86 -133,0 -274,-45 -321,-86 47,-40 188,-85 321,-85 134,0 242,38 242,85zm66 -159c-13,38 -96,47 -186,19 -91,-28 -175,-95 -197,-138 43,-24 150,-31 240,-3 91,29 155,83 143,122zm109 -137c-22,31 -93,18 -160,-29 -66,-48 -115,-127 -119,-171 43,-10 134,11 200,58 66,47 102,111 79,142zm118 -114c-31,23 -95,-11 -145,-75 -49,-65 -73,-155 -64,-198 43,3 125,49 174,113 50,65 65,136 35,160zm121 -94c-38,12 -94,-51 -123,-141 -29,-90 -23,-197 -1,-240 44,21 112,105 141,195 29,90 22,173 -17,186zm164 -74c-47,0 -86,-108 -86,-242 0,-133 45,-274 86,-321 41,47 86,188 86,321 0,134 -39,242 -86,242zm160 66c-39,-12 -48,-96 -20,-186 29,-91 95,-175 139,-196 23,42 30,149 2,240 -28,90 -83,154 -121,142zm136 110c-31,-23 -18,-94 30,-160 47,-67 127,-115 170,-120 10,43 -10,134 -58,200 -47,66 -111,102 -142,80zm115 117c-24,-30 10,-95 74,-145 65,-49 155,-72 198,-64 -3,44 -49,125 -113,174 -65,50 -136,65 -159,35z"/>
   <path class="fil13" d="M4955 6183l-799 290 -8 -29c-24,-100 -36,-203 -36,-306 0,-103 12,-205 36,-305l8 -30 799 290 -290 -799 29 -7c100,-25 203,-37 306,-37 103,0 206,12 306,37l29 7 -290 799 799 -290 8 30c24,100 36,202 36,305 0,103 -12,206 -36,306l-8 29 -799 -290 290 800 -29 7c-100,24 -203,36 -306,36 -103,0 -206,-12 -306,-36l-29 -7 290 -800z"/>
   <path class="fil14" d="M4742 6941c84,18 171,27 258,27 87,0 174,-9 258,-27l-258 -713 -258 713zm348 -803l713 259c18,-85 27,-172 27,-259 0,-87 -9,-173 -27,-258l-713 258zm-90 -90l258 -713c-84,-18 -171,-27 -258,-27 -87,0 -174,9 -258,27l258 713zm-90 90l-713 -258c-18,85 -27,171 -27,258 0,87 9,174 27,259l713 -259z"/>
   <circle class="fil12" cx="5000" cy="6138" r="622"/>
   <circle class="fil11" cx="5000" cy="6138" r="391"/>
   <path class="fil15" d="M4811 6437l14 -31 11 5c-3,7 -4,13 -3,17 1,5 4,8 10,10l1 1 23 -51c1,-2 2,-4 2,-5 0,-1 0,-2 -1,-2 -1,-1 -2,-2 -3,-3 -1,-1 -4,-2 -7,-3l5 -11 47 22 -5 10c-2,-1 -5,-2 -6,-3 -2,0 -4,-1 -5,-1 -1,0 -2,0 -2,1 -1,1 -2,3 -3,5l-1 2 -22 49 1 0c5,3 10,3 14,1 4,-2 8,-7 11,-13l11 4 -14 31 -78 -35zm-31 -75l-7 -7c-4,-4 -8,-7 -11,-8 -3,0 -6,1 -9,4 -3,3 -5,7 -5,10 0,3 3,6 7,11l7 7 18 -17zm23 -22c2,-2 4,-4 4,-6 0,-1 -2,-3 -4,-5l-3 -4 8 -8 34 37 -8 8 -3 -4c-2,-2 -4,-4 -6,-4 -1,0 -3,1 -5,4l-36 34c-2,2 -3,4 -3,5 0,1 1,3 3,6l3 3 -8 8 -39 -42c-8,-7 -12,-14 -13,-21 -1,-6 1,-11 7,-16 3,-4 8,-6 12,-6 5,1 10,3 16,6 -4,-4 -5,-8 -5,-12 1,-4 3,-7 7,-11l6 -6c2,-2 4,-4 5,-5 0,-2 0,-3 -1,-4 -1,-1 -3,-1 -4,0 -2,0 -5,3 -9,6l-6 -6c0,0 1,-1 1,-1 1,-1 1,-1 1,-1 6,-6 12,-9 17,-9 5,0 10,2 14,7 5,5 8,11 8,15 -1,5 -4,11 -9,16l-6 6c-4,3 -5,6 -6,8 0,2 2,5 6,8l7 8 15 -14zm-30 -65l-10 4 -2 -5c-2,-3 -3,-4 -4,-5 -1,-1 -3,0 -7,1l-44 21c-4,1 -5,2 -6,4 0,1 1,3 2,6l2 5 -10 5 -22 -47 11 -5 2 5c1,3 3,5 4,5 1,1 3,0 6,-1l45 -20c3,-2 5,-3 5,-4 1,-2 0,-4 -1,-7l-2 -5 10 -4 21 47zm-72 -93l-26 14 29 4 -3 -18zm48 45l-11 2 -1 -3c0,-3 -1,-5 -2,-6 -1,-1 -4,-2 -8,-2l-70 -11 -5 -25 63 -33c3,-2 5,-4 6,-5 1,-1 1,-3 1,-6l-1 -4 11 -2 8 47 -11 2 0 -3c-1,-3 -2,-5 -2,-6 -1,-1 -2,-2 -3,-1 0,0 -1,0 -2,0 0,0 0,1 -1,1l-10 5 5 25 10 1c1,0 2,0 2,0 1,0 1,0 2,0 1,0 2,-1 2,-2 0,-1 0,-3 0,-5l-1 -5 11 -2 7 38zm-62 -196c-3,-1 -6,-1 -7,-1 -1,1 -2,3 -3,6l-2 5 -11 -3 17 -49 11 4 -2 4c-1,3 -1,6 -1,7 1,1 3,2 6,3l37 13c10,3 17,8 20,15 3,7 3,15 0,26 -3,8 -8,15 -14,19 -6,4 -13,4 -20,2 -5,-2 -8,-4 -10,-8 -2,-3 -2,-7 -1,-11 1,-3 3,-6 6,-7 3,-2 6,-2 10,-1 3,1 5,3 6,5 1,3 1,5 0,8 0,1 -1,2 -1,3 0,0 -1,1 -1,2 2,-1 5,-2 7,-4 1,-2 3,-4 4,-6 1,-5 1,-9 -1,-12 -2,-3 -7,-5 -13,-8l-37 -12zm18 -66l-9 -6 30 -39 9 6c0,1 -1,1 -1,2 0,0 -1,1 -2,2 -2,3 -3,5 -2,7 0,1 2,4 7,8l28 21c5,5 9,7 13,6 3,0 7,-2 10,-6 4,-5 6,-10 6,-13 -1,-4 -3,-8 -8,-12l-28 -22c-5,-3 -8,-5 -10,-5 -2,0 -4,1 -6,4 -1,1 -1,1 -2,2 0,0 0,1 0,1l-9 -7 24 -31 9 7c-2,3 -4,5 -5,7 -1,1 -1,2 -1,3 0,1 1,2 2,3 1,0 3,2 7,5l29 23c7,6 11,13 11,21 0,7 -4,16 -11,25 -7,9 -14,14 -22,16 -7,2 -14,0 -21,-5l-31 -24c-4,-3 -7,-5 -9,-5 -2,0 -4,1 -6,3 -1,1 -1,2 -2,2 0,1 0,1 0,1zm100 -97c-1,-3 -3,-4 -4,-5 -1,0 -3,1 -6,3l-4 2 -6 -10 36 -21 60 36 -21 -36c-2,-3 -3,-5 -5,-5 -1,0 -3,1 -6,2l-4 3 -6 -10 34 -20 6 10 -3 2c-3,2 -5,3 -5,4 -1,2 0,4 1,7l34 59 -23 13 -63 -38 23 40c1,2 3,4 4,4 1,1 4,0 6,-2l5 -2 5 10 -35 20 -5 -10 4 -2c3,-2 4,-4 5,-5 0,-1 0,-3 -2,-6l-25 -43zm187 -28l13 -1c2,12 -1,21 -6,28 -6,7 -15,11 -28,13 -14,1 -25,-1 -35,-9 -9,-7 -15,-17 -17,-32 -1,-6 0,-13 1,-19 2,-5 4,-11 8,-16 4,-5 8,-8 13,-11 5,-3 11,-4 18,-5 4,-1 9,-1 13,0 4,1 9,3 13,5l2 -7 11 -2 5 36 -13 1c-1,-7 -4,-13 -8,-17 -5,-3 -10,-5 -17,-4 -7,1 -12,4 -15,11 -3,6 -4,14 -2,25 1,10 4,18 8,24 5,5 11,7 18,6 6,-1 11,-3 14,-8 3,-4 4,-10 4,-18zm130 -33l-8 33 -11 -3c1,-7 1,-13 -1,-17 -2,-4 -6,-7 -11,-8l-2 -1 -12 55c-1,3 -1,4 -1,5 0,1 1,2 1,3 1,0 2,1 4,1 1,1 4,1 7,2l-2 11 -51 -11 3 -11c3,0 5,1 7,1 2,0 3,0 5,0 1,0 1,0 2,-1 0,-1 1,-3 1,-6l1 -1 12 -53 -1 0c-6,-2 -11,-1 -14,2 -4,3 -7,8 -8,15l-12 -2 8 -33 83 19zm41 77l8 -28 -23 18 15 10zm-65 5l6 -10 3 2c2,1 4,2 6,2 1,0 4,-1 7,-4l55 -45 22 15 -19 68c0,4 -1,6 0,8 0,1 2,3 4,4l3 2 -6 10 -40 -26 6 -10 3 2c3,2 4,3 6,3 1,0 2,0 2,-1 0,0 1,-1 1,-2 0,0 0,-1 0,-1l3 -11 -21 -13 -8 6c-1,1 -1,1 -2,2 0,0 0,1 -1,1 0,1 0,2 0,3 1,1 2,2 5,3l3 3 -6 9 -32 -20zm109 85l10 -6 2 5c2,2 4,4 5,4 1,1 3,0 6,-2l42 -26c3,-2 4,-4 4,-5 0,-1 0,-3 -2,-6l-3 -5 10 -6 27 43 -9 7 -3 -5c-2,-3 -4,-4 -5,-5 -1,0 -3,1 -6,2l-41 27c-3,2 -5,3 -5,5 0,1 1,3 3,6l2 4 -9 7 -28 -44zm102 41c3,-1 5,-2 6,-3 0,-1 0,-4 -1,-7l-1 -4 11 -3 12 40 -50 49 40 -12c4,-1 5,-2 6,-3 1,-1 0,-3 -1,-7l-1 -4 11 -3 11 38 -11 3 -1 -4c-1,-3 -2,-5 -3,-6 -1,-1 -3,0 -7,0l-65 19 -8 -26 53 -52 -44 13c-3,1 -5,2 -6,3 0,1 0,3 1,6l1 5 -11 3 -11 -38 11 -4 1 5c1,3 2,5 3,6 1,0 4,0 7,-1l47 -13zm29 173l11 3 -14 48 -10 -3c0,-1 0,-1 0,-2 1,0 1,-1 1,-2 1,-4 1,-6 0,-8 -1,-1 -4,-3 -10,-4l-34 -10c-6,-2 -11,-2 -14,0 -3,1 -6,4 -7,10 -2,6 -2,11 0,14 2,3 5,6 11,8l34 9c6,2 10,2 12,2 2,-1 3,-3 4,-7 0,-1 0,-2 1,-2 0,0 0,-1 0,-1l10 3 -10 37 -11 -3c1,-3 2,-5 2,-7 0,-2 0,-3 -1,-4 0,-1 -1,-1 -2,-2 -1,0 -4,-1 -9,-2l-35 -10c-9,-3 -15,-8 -18,-15 -3,-7 -3,-17 0,-28 3,-11 8,-18 14,-23 7,-4 14,-5 22,-3l37 10c6,2 9,2 11,2 2,-1 3,-3 4,-6 1,-1 1,-2 1,-2 0,-1 0,-1 0,-2zm-57 128c3,3 4,3 6,3 1,0 3,-1 5,-4l3 -4 9 7 -26 33 -69 -11 33 26c3,2 5,3 6,2 1,0 3,-1 5,-4l3 -4 9 7 -24 32 -9 -7 2 -4c2,-2 3,-4 3,-6 0,-1 -1,-3 -4,-5l-54 -42 17 -21 73 12 -36 -28c-3,-2 -4,-3 -6,-3 -1,0 -3,2 -5,4l-3 4 -9 -7 25 -32 9 7 -3 4c-2,3 -3,5 -3,6 0,1 2,3 4,5l39 30zm-121 85c-6,-11 -11,-18 -16,-21 -6,-4 -12,-4 -18,0 -7,3 -10,8 -11,14 0,6 3,15 8,25 5,11 11,18 16,21 6,4 12,4 18,0 6,-3 10,-8 10,-14 1,-6 -2,-15 -7,-25zm25 -13c7,12 8,24 4,36 -4,11 -13,20 -26,27 -14,7 -27,9 -38,6 -12,-4 -21,-12 -27,-25 -7,-12 -8,-25 -4,-36 4,-11 13,-20 26,-27 14,-7 26,-9 38,-6 11,4 21,12 27,25z"/>
   <circle class="fil5" cx="5000" cy="6138" r="263"/>
   <circle class="fil13" cx="5000" cy="6138" r="243"/>
   <circle class="fil11" cx="5000" cy="6138" r="221"/>
   <path class="fil14" d="M5011 6178c23,5 67,22 73,55l-27 78c-38,-7 -76,-7 -114,0l-27 -77c6,-33 50,-51 73,-56 0,-1 0,-1 0,-2 0,-6 5,-11 11,-11 6,0 11,5 11,11 0,1 0,1 0,2z"/>
   <circle class="fil14" cx="5000" cy="6447" r="34"/>
   <path class="fil14" d="M4915 6010c23,5 67,23 73,56l-27 77c-38,-6 -76,-6 -114,0l-26 -76c5,-34 49,-52 72,-57 0,0 0,-1 0,-1 0,-6 5,-11 11,-11 6,0 11,5 11,11 0,0 0,1 0,1z"/>
   <path class="fil14" d="M5107 6010c23,5 67,23 73,56l-27 77c-38,-6 -76,-6 -114,0l-26 -76c5,-34 49,-52 72,-57 0,0 0,-1 0,-1 0,-6 5,-11 11,-11 6,0 11,5 11,11 0,0 0,1 0,1z"/>
   <g>
    <g>
     <path id="path2856" class="fil14" d="M4809 5696c65,58 129,22 189,-20 -67,-27 -140,-45 -189,20zm14 -1c18,14 38,22 62,21 31,-1 64,-19 91,-37 -33,-12 -70,-22 -103,-14 -20,4 -37,15 -50,30z"/>
     <path id="path2874" class="fil14" d="M4780 5643c79,38 131,-14 177,-70 -72,-9 -147,-6 -177,70zm14 -5c21,8 42,11 65,4 30,-10 56,-36 78,-61 -35,-3 -74,-2 -104,14 -18,10 -30,25 -39,43z"/>
     <path id="path2856_0" class="fil14" d="M4653 5806c81,29 128,-28 167,-90 -72,0 -146,11 -167,90zm12 -7c22,6 44,6 65,-3 29,-13 53,-42 71,-69 -35,1 -73,6 -101,25 -17,12 -28,28 -35,47z"/>
     <path id="path2874_1" class="fil14" d="M4606 5767c87,6 116,-62 138,-132 -71,20 -139,51 -138,132zm11 -10c22,0 43,-6 61,-21 25,-20 39,-54 50,-85 -33,10 -69,26 -91,52 -13,16 -19,34 -20,54z"/>
     <path id="path2856_2" class="fil14" d="M4543 5967c87,-3 109,-73 124,-145 -68,27 -133,64 -124,145zm10 -11c22,-2 43,-10 59,-27 22,-23 34,-58 41,-90 -32,14 -66,33 -85,61 -11,17 -16,36 -15,56z"/>
     <path id="path2874_3" class="fil14" d="M4486 5948c83,-27 85,-100 80,-173 -58,44 -110,97 -80,173zm6 -13c21,-9 39,-22 50,-42 15,-28 17,-65 15,-98 -27,22 -55,49 -65,81 -7,20 -6,39 0,59z"/>
     <path id="path2856_4" class="fil14" d="M4521 6141c78,-38 68,-111 52,-183 -51,53 -94,114 -52,183zm4 -13c19,-12 35,-28 43,-50 10,-30 6,-66 -1,-98 -23,25 -47,57 -52,90 -3,21 1,40 10,58z"/>
     <path id="path2874_5" class="fil14" d="M4461 6148c64,-59 36,-126 0,-190 -34,64 -59,134 0,190zm0 -14c16,-17 26,-36 28,-59 2,-32 -12,-66 -28,-95 -15,31 -29,67 -25,101 3,21 12,38 25,53z"/>
     <path id="path2856_6" class="fil14" d="M4551 6320c67,-56 41,-125 8,-190 -37,62 -65,132 -8,190zm1 -15c16,-15 27,-34 30,-57 3,-32 -9,-66 -23,-96 -17,30 -32,66 -30,100 2,20 10,38 23,53z"/>
     <path id="path2874_7" class="fil14" d="M4487 6336c53,-69 14,-131 -31,-188 -24,69 -37,143 31,188zm-2 -15c12,-18 19,-39 17,-62 -3,-32 -23,-63 -43,-89 -10,33 -17,71 -8,104 6,20 18,35 34,47z"/>
     <path id="path2856_8" class="fil14" d="M4631 6460c43,-75 -4,-131 -57,-182 -14,72 -17,147 57,182zm-4 -14c9,-20 14,-42 8,-64 -7,-31 -31,-59 -55,-83 -5,35 -7,74 7,104 8,19 22,33 40,43z"/>
     <path id="path2874_9" class="fil14" d="M4592 6499c16,-85 -47,-122 -114,-152 11,72 33,143 114,152zm-8 -11c2,-23 -1,-44 -14,-64 -17,-27 -49,-45 -78,-60 6,35 17,72 40,97 14,14 32,23 52,27z"/>
     <path id="path2856_10" class="fil14" d="M4740 6566c26,-83 -33,-127 -96,-165 3,73 17,147 96,165zm-7 -13c5,-22 5,-44 -6,-65 -14,-28 -43,-50 -71,-68 2,35 9,73 29,100 13,17 29,27 48,33z"/>
     <path id="path2874_11" class="fil14" d="M4723 6610c-11,-86 -83,-101 -155,-109 32,65 75,126 155,109zm-12 -8c-4,-22 -14,-42 -32,-57 -25,-20 -61,-27 -93,-32 16,31 38,63 68,79 18,10 38,12 57,10z"/>
     <path id="path2856_12" class="fil14" d="M4909 6627c-20,-85 -93,-92 -166,-92 39,61 89,117 166,92zm-12 -7c-7,-22 -19,-40 -38,-53 -27,-17 -64,-21 -97,-22 20,29 45,59 77,71 19,8 38,8 58,4z"/>
     <path id="path2874_13" class="fil14" d="M4888 6696c-32,-81 -106,-78 -178,-67 48,54 105,103 178,67zm-14 -6c-9,-20 -24,-36 -45,-46 -29,-13 -66,-12 -99,-8 24,26 54,51 87,59 20,5 39,3 57,-5z"/>
    </g>
    <g>
     <path id="path2856_14" class="fil14" d="M5191 5696c-65,58 -129,22 -189,-20 67,-27 140,-45 189,20zm-14 -1c-18,14 -38,22 -62,21 -31,-1 -64,-19 -91,-37 33,-12 70,-22 103,-14 20,4 37,15 50,30z"/>
     <path id="path2874_15" class="fil14" d="M5220 5643c-79,38 -131,-14 -177,-70 72,-9 147,-6 177,70zm-14 -5c-21,8 -42,11 -65,4 -30,-10 -56,-36 -78,-61 35,-3 74,-2 104,14 18,10 30,25 39,43z"/>
     <path id="path2856_16" class="fil14" d="M5347 5806c-81,29 -128,-28 -167,-90 72,0 146,11 167,90zm-12 -7c-22,6 -44,6 -65,-3 -29,-13 -53,-42 -71,-69 35,1 73,6 101,25 17,12 28,28 35,47z"/>
     <path id="path2874_17" class="fil14" d="M5394 5767c-87,6 -116,-62 -138,-132 71,20 139,51 138,132zm-11 -10c-22,0 -43,-6 -61,-21 -25,-20 -39,-54 -50,-85 33,10 69,26 91,52 13,16 19,34 20,54z"/>
     <path id="path2856_18" class="fil14" d="M5457 5967c-87,-3 -109,-73 -124,-145 68,27 133,64 124,145zm-10 -11c-22,-2 -43,-10 -59,-27 -22,-23 -34,-58 -41,-90 32,14 66,33 85,61 11,17 16,36 15,56z"/>
     <path id="path2874_19" class="fil14" d="M5514 5948c-83,-27 -85,-100 -80,-173 58,44 110,97 80,173zm-6 -13c-21,-9 -39,-22 -50,-42 -15,-28 -17,-65 -15,-98 27,22 55,49 65,81 7,20 6,39 0,59z"/>
     <path id="path2856_20" class="fil14" d="M5479 6141c-78,-38 -68,-111 -52,-183 51,53 94,114 52,183zm-4 -13c-19,-12 -35,-28 -43,-50 -10,-30 -6,-66 1,-98 23,25 47,57 52,90 3,21 -1,40 -10,58z"/>
     <path id="path2874_21" class="fil14" d="M5539 6148c-64,-59 -36,-126 0,-190 34,64 59,134 0,190zm0 -14c-16,-17 -26,-36 -28,-59 -2,-32 12,-66 28,-95 15,31 29,67 25,101 -3,21 -12,38 -25,53z"/>
     <path id="path2856_22" class="fil14" d="M5449 6320c-67,-56 -41,-125 -8,-190 37,62 65,132 8,190zm-1 -15c-16,-15 -27,-34 -30,-57 -3,-32 9,-66 23,-96 17,30 32,66 30,100 -2,20 -10,38 -23,53z"/>
     <path id="path2874_23" class="fil14" d="M5513 6336c-53,-69 -14,-131 31,-188 24,69 37,143 -31,188zm2 -15c-12,-18 -19,-39 -17,-62 3,-32 23,-63 43,-89 10,33 17,71 8,104 -6,20 -18,35 -34,47z"/>
     <path id="path2856_24" class="fil14" d="M5369 6460c-43,-75 4,-131 57,-182 14,72 17,147 -57,182zm4 -14c-9,-20 -14,-42 -8,-64 7,-31 31,-59 55,-83 5,35 7,74 -7,104 -8,19 -22,33 -40,43z"/>
     <path id="path2874_25" class="fil14" d="M5408 6499c-16,-85 47,-122 114,-152 -11,72 -33,143 -114,152zm8 -11c-2,-23 1,-44 14,-64 17,-27 49,-45 78,-60 -6,35 -17,72 -40,97 -14,14 -32,23 -52,27z"/>
     <path id="path2856_26" class="fil14" d="M5260 6566c-26,-83 33,-127 96,-165 -3,73 -17,147 -96,165zm7 -13c-5,-22 -5,-44 6,-65 14,-28 43,-50 71,-68 -2,35 -9,73 -29,100 -13,17 -29,27 -48,33z"/>
     <path id="path2874_27" class="fil14" d="M5277 6610c11,-86 83,-101 155,-109 -32,65 -75,126 -155,109zm12 -8c4,-22 14,-42 32,-57 25,-20 61,-27 93,-32 -16,31 -38,63 -68,79 -18,10 -38,12 -57,10z"/>
     <path id="path2856_28" class="fil14" d="M5091 6627c20,-85 93,-92 166,-92 -39,61 -89,117 -166,92zm12 -7c7,-22 19,-40 38,-53 27,-17 64,-21 97,-22 -20,29 -45,59 -77,71 -19,8 -38,8 -58,4z"/>
     <path id="path2874_29" class="fil14" d="M5112 6696c32,-81 106,-78 178,-67 -48,54 -105,103 -178,67zm14 -6c9,-20 24,-36 45,-46 29,-13 66,-12 99,-8 -24,26 -54,51 -87,59 -20,5 -39,3 -57,-5z"/>
    </g>
   </g>
   <path class="fil14" d="M4991 6687c-4,3 -7,5 -11,8 -18,10 -41,20 -63,22l-7 1 -2 -16 8 0c19,-2 40,-12 56,-21 2,-1 4,-2 6,-4 -19,-15 -35,-36 -32,-59 3,-24 20,-44 45,-44 25,0 42,20 45,44 3,23 -13,44 -31,59 2,2 4,3 5,4 16,9 38,19 57,21l8 0 -2 16 -8 -1c-21,-2 -45,-12 -63,-22 -3,-3 -7,-5 -11,-8zm0 -19c16,-13 32,-31 30,-48 -2,-16 -13,-30 -30,-30 -17,0 -27,14 -29,30 -2,17 13,35 29,48z"/>
  </g>
 </g>
</svg>