<?xml version="1.0" encoding="UTF-8"?>
<!DOCTYPE svg PUBLIC "-//W3C//DTD SVG 1.1//EN" "http://www.w3.org/Graphics/SVG/1.1/DTD/svg11.dtd">
<!-- Creator: CorelDRAW X8 -->
<svg xmlns="http://www.w3.org/2000/svg" xml:space="preserve" width="100mm" height="100mm" version="1.1" style="shape-rendering:geometricPrecision; text-rendering:geometricPrecision; image-rendering:optimizeQuality; fill-rule:evenodd; clip-rule:evenodd"
viewBox="0 0 10000 10000"
 xmlns:xlink="http://www.w3.org/1999/xlink">
 <defs>
  <style type="text/css">
   <![CDATA[
    .str0 {stroke:#FEFEFE;stroke-width:25}
    .str1 {stroke:#FEFEFE;stroke-width:25}
    .fil2 {fill:none}
    .fil0 {fill:#2B2A29}
    .fil3 {fill:#D8B834}
    .fil1 {fill:#E6CD54;fill-rule:nonzero}
   ]]>
  </style>
 </defs>
 <g id="Layer_x0020_1">
  <metadata id="CorelCorpID_0Corel-Layer"/>
  <rect class="fil0 str0" width="10000" height="10000"/>
  <path class="fil1" d="M4401 3983l-124 0 0 -791c-30,29 -69,58 -117,86 -49,28 -93,50 -131,64l0 -120c69,-32 130,-72 182,-119 52,-46 89,-91 110,-135l80 0 0 1015z"/>
  <path id="1" class="fil1" d="M4721 3484c0,-119 12,-215 36,-288 25,-73 61,-129 110,-169 48,-39 109,-59 182,-59 54,0 102,11 143,33 41,22 75,54 101,95 27,41 47,91 62,150 16,59 23,139 23,238 0,119 -12,215 -36,288 -24,73 -61,129 -109,169 -49,39 -110,59 -184,59 -97,0 -173,-35 -229,-104 -66,-85 -99,-222 -99,-412zm127 1c0,166 19,277 58,331 38,55 86,82 143,82 57,0 105,-27 144,-82 39,-55 58,-165 58,-331 0,-166 -19,-277 -58,-331 -38,-55 -87,-83 -145,-83 -57,0 -103,25 -137,73 -42,61 -63,175 -63,341z"/>
  <path id="2" class="fil1" d="M5971 3983l-124 0 0 -791c-30,29 -69,58 -118,86 -48,28 -92,50 -130,64l0 -120c69,-32 130,-72 182,-119 52,-46 88,-91 110,-135l80 0 0 1015z"/>
  <path class="fil1" d="M4843 2173l134 34c-28,110 -78,193 -151,251 -72,57 -161,86 -266,86 -109,0 -197,-22 -266,-66 -68,-45 -120,-109 -155,-193 -36,-84 -54,-174 -54,-270 0,-106 20,-197 61,-276 40,-78 97,-137 171,-178 74,-41 156,-61 245,-61 101,0 186,26 254,77 69,52 117,124 144,217l-131 31c-23,-73 -57,-127 -102,-160 -44,-34 -100,-51 -168,-51 -77,0 -142,19 -194,56 -52,37 -89,87 -109,150 -22,63 -32,127 -32,194 0,86 12,161 37,225 25,64 64,112 117,143 52,32 109,48 171,48 74,0 137,-22 189,-65 52,-43 87,-107 105,-192z"/>
  <path id="1" class="fil1" d="M5143 2527l0 -1010 381 0c67,0 118,3 154,10 50,8 91,24 125,47 33,23 60,55 81,97 20,42 31,87 31,138 0,85 -28,158 -83,217 -54,60 -153,89 -296,89l-259 0 0 412 -134 0zm134 -530l261 0c86,0 147,-16 184,-48 36,-33 54,-78 54,-136 0,-43 -10,-79 -32,-109 -21,-30 -49,-50 -84,-60 -23,-5 -64,-9 -125,-9l-258 0 0 362z"/>
  <g id="_2464383264064">
   <line class="fil2 str1" x1="5000" y1="0" x2="5000" y2= "0" />
  </g>
  <g id="_2464383264384">
   <line class="fil2 str1" x1="5000" y1="0" x2="5000" y2= "0" />
  </g>
  <path class="fil3" d="M7898 4530l2 787c-275,139 -577,305 -903,503 -1596,966 -1997,1269 -1997,1269 0,0 -402,-303 -1997,-1269 -325,-197 -626,-363 -901,-502l0 -788c363,165 743,352 1097,552 1247,705 1801,1183 1801,1183 0,0 554,-478 1802,-1183 353,-200 734,-387 1096,-552z"/>
  <path class="fil3" d="M7900 5579l1 788c-275,139 -578,306 -904,503 -1595,966 -1997,1270 -1997,1270 0,0 -402,-304 -1997,-1270 -325,-196 -626,-362 -900,-501l0 -789c362,166 742,352 1096,552 1248,706 1801,1183 1801,1183 0,0 553,-477 1801,-1183 355,-200 735,-387 1099,-553z"/>
  <path class="fil3" d="M7895 6614l-1 789c-273,139 -574,304 -899,501 -1595,965 -1996,1269 -1996,1269 0,0 -402,-304 -1997,-1269 -324,-197 -625,-362 -899,-501l0 -788c362,165 741,351 1094,551 1248,705 1802,1182 1802,1182 0,0 553,-477 1801,-1182 353,-200 733,-387 1095,-552z"/>
 </g>
</svg>
