<?xml version="1.0" encoding="UTF-8"?>
<!DOCTYPE svg PUBLIC "-//W3C//DTD SVG 1.1//EN" "http://www.w3.org/Graphics/SVG/1.1/DTD/svg11.dtd">
<!-- Creator: CorelDRAW X8 -->
<svg xmlns="http://www.w3.org/2000/svg" xml:space="preserve" width="100mm" height="100mm" version="1.1" style="shape-rendering:geometricPrecision; text-rendering:geometricPrecision; image-rendering:optimizeQuality; fill-rule:evenodd; clip-rule:evenodd" viewBox="0 0 10000 10000" xmlns:xlink="http://www.w3.org/1999/xlink">
 <defs>
  <style type="text/css">
   <![CDATA[
    .str4 {stroke:#806729;stroke-width:5.16}
    .str1 {stroke:#CFB500;stroke-width:5.16}
    .str5 {stroke:#CFB500;stroke-width:7.76}
    .str3 {stroke:#433185;stroke-width:10.6}
    .str9 {stroke:#806729;stroke-width:5.84}
    .str8 {stroke:#CFB500;stroke-width:7.05}
    .str0 {stroke:#FEFEFE;stroke-width:25}
    .str7 {stroke:#806729;stroke-width:5.06}
    .str6 {stroke:#CFB500;stroke-width:7.62}
    .str2 {stroke:#E6CD54;stroke-width:7.62}
    .fil5 {fill:none}
    .fil0 {fill:#2B2A29}
    .fil13 {fill:#CFB500}
    .fil7 {fill:#CFB500}
    .fil12 {fill:#E6CD54}
    .fil6 {fill:#E6CD54}
    .fil4 {fill:#EBEBEB}
    .fil11 {fill:#F6DF77}
    .fil9 {fill:#F6DF77}
    .fil14 {fill:#FFEFA7}
    .fil8 {fill:#FFEFA7}
    .fil3 {fill:white}
    .fil2 {fill:#772121;fill-rule:nonzero}
    .fil10 {fill:#E6CD54;fill-rule:nonzero}
    .fil1 {fill:#E8001A;fill-rule:nonzero}
    .fil15 {fill:#FFEFA7;fill-rule:nonzero}
   ]]>
  </style>
 </defs>
 <g id="Layer_x0020_1">
  <metadata id="CorelCorpID_0Corel-Layer"/>
  <rect class="fil0 str0" x="11" y="-10" width="10000" height="10000"/>
  <g id="_1992359178448">
   <g>
    <path class="fil1" d="M6111 3808l98 -287 40 -119 98 -61 100 -226 46 -59 8 -209c0,0 -69,-148 -176,-201 -152,-76 -358,-65 -358,-65 0,0 -48,-127 -136,-176 -87,-49 -185,-61 -287,-61 -102,0 -285,92 -384,118 -51,14 -168,61 -168,61 0,0 -116,-47 -167,-61 -99,-26 -282,-118 -384,-118 -103,0 -197,10 -287,61 -85,48 -201,176 -201,176 0,0 -132,-18 -225,38 -117,70 -198,217 -198,217l8 228 18 87 75 86 98 174 70 172 75 225 2237 0z"/>
    <g>
     <path class="fil2" d="M6230 3528l-98 287 -42 -14 98 -287 42 14 0 0zm0 0l0 0 0 1 0 -1zm40 -119l-40 119 -42 -14 40 -119 9 -12 33 26zm-42 -14l2 -7 7 -5 -9 12zm131 -35l-99 61 -23 -38 98 -61 32 28 -8 10zm8 -10l-2 6 -6 4 8 -10zm100 -226l-100 226 -40 -18 99 -226 3 -5 38 23zm-41 -18l1 -3 2 -2 -3 5zm85 -36l-47 59 -35 -28 47 -59 40 14 -5 14zm5 -14l-1 8 -4 6 5 -14zm7 -208l-7 208 -45 -1 7 -209 45 2z"/>
    </g>
    <g>
     <path class="fil2" d="M6315 2666l20 -40 0 0 11 6 11 6 10 7 10 7 10 8 9 8 9 8 8 8 9 9 8 8 8 9 7 9 7 9 7 9 6 8 6 9 6 8 5 8 6 8 4 8 5 7 4 7 3 7 4 6 3 5 2 5 3 4 1 4 2 3 1 2 1 1 0 1 -41 19 0 -1 0 -1 -1 -2 -1 -2 -2 -3 -2 -4 -3 -5 -2 -5 -3 -5 -4 -6 -4 -7 -4 -7 -4 -7 -5 -7 -5 -8 -5 -8 -6 -7 -6 -8 -6 -9 -7 -8 -6 -8 -7 -8 -8 -7 -7 -8 -8 -8 -8 -7 -8 -7 -8 -6 -8 -6 -9 -6 -9 -5 -9 -5 0 0zm-369 -77l41 -16 -22 -15 1 0 2 0 3 0 4 0 5 0 6 0 7 0 8 0 9 0 10 0 10 1 11 0 12 1 12 1 13 1 13 1 14 1 14 2 15 2 14 2 16 3 15 2 16 4 15 3 16 4 16 5 16 4 16 6 15 5 16 6 15 7 15 7 -20 40 -13 -6 -14 -6 -15 -6 -14 -5 -15 -5 -14 -5 -15 -4 -15 -3 -15 -4 -15 -3 -14 -2 -15 -3 -14 -2 -14 -2 -13 -1 -13 -2 -13 -1 -12 -1 -12 -1 -11 0 -11 -1 -10 0 -9 0 -8 0 -8 0 -6 0 -6 0 -5 0 -4 0 -2 0 -2 0 0 0 -22 -14zm22 14l-17 1 -5 -15 22 14zm-148 -178l22 -39 0 0 9 5 9 6 8 6 9 7 7 7 8 7 7 7 7 8 7 7 6 8 6 8 6 7 5 8 5 8 5 7 5 8 4 7 4 7 4 7 4 7 3 6 3 6 3 6 2 5 2 5 2 4 2 3 1 4 1 2 1 2 0 1 0 1 -41 16 0 0 -1 -1 0 -2 -1 -2 -1 -3 -2 -3 -2 -4 -2 -4 -2 -5 -2 -5 -3 -6 -3 -5 -3 -6 -4 -7 -3 -6 -4 -7 -5 -7 -4 -7 -5 -7 -5 -6 -5 -7 -5 -7 -6 -7 -5 -7 -6 -6 -6 -6 -7 -6 -6 -6 -7 -5 -7 -5 -7 -5 -7 -4 0 0zm-276 -58l0 -45 0 0 10 0 10 0 10 0 9 1 10 0 9 1 10 0 10 1 9 1 10 0 9 1 10 2 9 1 10 1 9 2 9 2 10 1 9 2 9 3 10 2 9 2 9 3 9 3 9 3 9 3 9 4 9 3 9 4 9 4 9 5 8 4 9 5 -22 39 -7 -4 -8 -4 -8 -4 -8 -4 -8 -3 -8 -4 -8 -3 -9 -3 -8 -3 -8 -2 -8 -3 -9 -2 -8 -2 -9 -2 -8 -2 -9 -2 -9 -1 -8 -2 -9 -1 -9 -1 -9 -1 -9 -1 -9 -1 -9 -1 -9 0 -9 -1 -9 0 -9 -1 -10 0 -9 0 -9 0 -10 0 0 0zm-378 117l-12 -43 0 0 9 -3 10 -3 10 -3 11 -3 11 -4 11 -4 12 -5 12 -4 12 -5 13 -5 12 -5 13 -5 14 -5 13 -5 13 -5 13 -5 14 -5 13 -4 14 -5 13 -5 13 -4 14 -4 13 -4 12 -3 13 -4 13 -3 12 -2 12 -3 12 -1 11 -2 11 -1 11 0 0 45 -8 0 -9 1 -10 1 -11 1 -10 2 -11 3 -12 3 -12 3 -12 3 -12 4 -13 4 -13 4 -13 4 -13 5 -13 4 -13 5 -13 5 -13 5 -14 5 -13 5 -13 5 -12 5 -13 5 -12 5 -13 4 -12 5 -11 4 -12 4 -11 4 -11 3 -10 3 -10 3 0 0zm-182 60l17 -41 -17 0 1 0 1 -1 1 0 2 -1 3 -1 3 -2 4 -1 4 -2 5 -2 5 -2 5 -2 6 -2 6 -2 6 -3 6 -2 7 -3 7 -2 7 -3 7 -2 7 -3 7 -3 7 -2 7 -3 7 -2 7 -3 6 -2 7 -2 6 -2 7 -2 5 -2 6 -2 5 -1 12 43 -5 1 -5 2 -5 1 -6 2 -6 2 -6 2 -7 3 -6 2 -7 2 -7 3 -7 2 -7 3 -7 2 -7 3 -6 3 -7 2 -7 3 -6 2 -6 2 -6 3 -6 2 -5 2 -5 2 -4 2 -4 1 -4 2 -3 1 -3 1 -2 1 -2 1 -1 0 0 0 -17 0zm17 0l-9 4 -8 -4 17 0zm-182 -60l12 -43 0 0 5 1 6 2 5 2 7 2 6 2 6 2 7 2 7 3 7 2 7 3 7 2 7 3 7 3 7 2 7 3 7 2 6 3 7 2 6 3 6 2 6 2 5 2 5 2 5 2 4 2 4 1 3 2 3 1 2 1 1 0 1 1 1 0 -17 41 0 0 -1 0 -2 -1 -2 -1 -3 -1 -3 -1 -4 -2 -4 -1 -4 -2 -5 -2 -5 -2 -6 -2 -6 -3 -6 -2 -6 -2 -7 -3 -7 -2 -6 -3 -7 -3 -7 -2 -7 -3 -7 -2 -7 -3 -7 -2 -6 -2 -7 -3 -6 -2 -6 -2 -6 -2 -5 -1 -5 -2 -5 -1 0 0zm-378 -117l0 -45 0 0 10 0 12 1 11 2 12 1 12 3 12 2 13 3 13 4 12 3 13 4 14 4 13 4 13 5 14 5 13 4 13 5 14 5 13 5 13 5 14 5 12 5 13 5 13 5 12 5 12 4 12 5 11 4 11 4 11 3 10 3 10 3 9 3 -12 43 -10 -3 -10 -3 -11 -3 -11 -4 -12 -4 -11 -4 -12 -5 -13 -4 -12 -5 -13 -5 -13 -5 -12 -5 -13 -5 -14 -5 -13 -5 -13 -5 -13 -5 -13 -4 -13 -5 -13 -4 -13 -4 -13 -4 -12 -4 -12 -3 -12 -3 -12 -3 -11 -3 -10 -2 -11 -1 -10 -1 -9 -1 -8 0 0 0zm-276 58l-22 -39 0 0 9 -5 9 -5 9 -4 9 -4 9 -4 9 -4 9 -3 9 -4 9 -3 9 -3 10 -2 9 -3 9 -2 9 -2 9 -2 10 -2 9 -2 9 -1 10 -2 9 -1 10 -1 9 -1 9 -1 10 -1 9 0 10 -1 9 0 10 0 10 -1 9 0 10 0 10 0 0 45 -10 0 -9 0 -9 0 -10 0 -9 1 -9 0 -9 0 -9 1 -9 1 -9 1 -9 0 -8 1 -9 2 -9 1 -8 1 -9 2 -9 1 -8 2 -9 2 -8 2 -8 3 -9 2 -8 3 -8 2 -8 3 -9 4 -8 3 -8 3 -8 4 -8 4 -8 4 -8 5 0 0zm-215 178l6 -44 -19 7 0 -1 1 -1 2 -2 2 -2 3 -3 3 -4 4 -4 5 -4 5 -5 5 -6 6 -6 6 -6 6 -6 7 -7 7 -7 7 -7 8 -8 8 -7 8 -7 8 -8 9 -7 8 -8 9 -7 9 -8 8 -7 9 -7 9 -6 9 -7 9 -6 8 -6 9 -5 9 -5 22 39 -8 4 -7 5 -8 5 -8 6 -8 6 -8 6 -9 6 -8 7 -8 7 -9 7 -8 7 -8 7 -8 7 -8 8 -7 7 -8 7 -7 7 -7 7 -6 6 -7 6 -5 6 -6 6 -5 5 -5 5 -4 5 -4 4 -3 3 -3 3 -2 3 -2 1 -1 1 0 1 -20 7zm20 -7l-8 8 -12 -1 20 -7zm-231 42l-23 -38 0 0 10 -6 10 -5 10 -5 10 -4 10 -3 11 -4 10 -3 10 -3 10 -2 10 -2 10 -2 10 -1 10 -1 9 -1 9 -1 9 -1 9 0 8 0 8 0 8 0 7 0 7 0 6 0 6 1 5 0 4 0 4 1 4 0 3 0 2 0 1 1 0 0 -6 44 0 0 -1 0 -1 0 -3 -1 -3 0 -3 0 -4 -1 -5 0 -5 0 -6 0 -6 -1 -7 0 -6 0 -8 0 -7 1 -8 0 -8 1 -9 0 -8 1 -9 1 -9 2 -9 1 -9 2 -8 2 -9 2 -9 3 -9 3 -9 3 -8 3 -9 4 -8 4 -8 5 0 0zm-190 209l-39 -22 0 -1 1 -1 1 -2 2 -3 2 -4 3 -4 3 -5 3 -5 4 -6 5 -7 4 -7 5 -7 6 -8 6 -8 6 -8 6 -9 7 -9 8 -9 7 -9 8 -9 8 -10 9 -9 9 -9 9 -10 10 -9 9 -9 10 -9 11 -8 11 -9 10 -8 12 -7 11 -7 23 38 -10 6 -10 7 -10 7 -9 8 -10 7 -9 8 -9 9 -9 8 -8 9 -8 8 -8 9 -8 9 -8 9 -7 8 -7 9 -6 8 -6 8 -6 8 -6 8 -5 7 -5 7 -4 7 -4 6 -4 6 -3 5 -3 4 -2 4 -2 4 -2 2 -1 2 -1 1 0 1z"/>
    </g>
    <g>
     <path class="fil2" d="M3515 3064l-8 -227 45 -2 8 228 -44 5 -1 -4zm1 4l-1 -2 0 -2 1 4zm18 87l-18 -87 43 -9 19 87 -39 19 -5 -10zm5 10l-4 -4 -1 -6 5 10zm75 87l-75 -87 34 -29 75 86 2 4 -36 26zm34 -30l1 2 1 2 -2 -4zm61 200l-97 -174 38 -22 98 174 2 3 -41 19zm39 -22l1 2 1 1 -2 -3zm30 192l-70 -172 42 -17 70 172 0 1 -42 16zm42 -17l0 1 0 0 0 -1zm33 240l-75 -225 42 -14 75 225 -21 29 -21 -15zm21 15l-16 0 -5 -15 21 15zm2237 0l-2237 0 0 -45 2237 0 0 45z"/>
    </g>
   </g>
   <path class="fil3" d="M4199 3901c0,0 0,0 0,0 0,0 0,0 0,0 -152,8 -345,92 -496,117 -34,17 -50,34 -59,51 -17,25 -25,50 -17,75 0,26 9,51 42,76 17,8 42,25 76,34 638,-101 1596,-160 2554,0 34,-9 59,-17 76,-34 25,-17 42,-42 42,-67 0,-25 0,-68 -26,-93 -16,-16 -33,-33 -67,-42 0,0 -260,-101 -495,-117 -236,-17 -496,-17 -614,-17 -126,0 -260,0 -386,0 0,0 0,0 0,0 0,0 0,0 0,0 -219,0 -446,-76 -630,17z"/>
   <path class="fil4" d="M3627 4144c0,26 9,51 42,76 17,8 42,25 76,34 638,-101 1596,-160 2554,0 34,-9 59,-17 76,-34 25,-17 42,-42 42,-67 33,-185 -2840,-151 -2790,-9z"/>
   <path class="fil5 str1" d="M4199 3901c0,0 0,0 0,0 0,0 0,0 0,0 -152,8 -345,92 -496,117 -34,17 -50,34 -59,51 -17,25 -25,50 -17,75 0,26 9,51 42,76 17,8 42,25 76,34 638,-101 1596,-160 2554,0 34,-9 59,-17 76,-34 25,-17 42,-42 42,-67 0,-25 0,-68 -26,-93 -16,-16 -33,-33 -67,-42 0,0 -260,-101 -495,-117 -236,-17 -496,-17 -614,-17 -126,0 -260,0 -386,0 0,0 0,0 0,0 0,0 0,0 0,0 -219,0 -446,-76 -630,17"/>
   <path class="fil6 str2" d="M5148 4044c-50,-9 -101,-17 -143,-26 -42,-8 -75,-16 -109,-33 8,17 25,33 67,42 -33,0 -67,17 -84,17 17,8 59,16 84,16 -33,17 -50,34 -59,51 34,-9 68,-25 101,-34 42,-17 93,-25 143,-33z"/>
   <path class="fil6 str2" d="M4089 4094c-50,0 -100,-9 -142,-17 -42,-8 -76,-17 -110,-25 9,17 26,33 68,42 -34,0 -68,17 -84,25 16,9 58,9 84,9 -34,16 -51,33 -51,50 34,-17 59,-25 101,-42 34,-17 84,-34 134,-42z"/>
   <path class="fil6 str2" d="M6207 4144c-51,-16 -93,-25 -135,-42 -33,-16 -75,-33 -101,-50 9,17 26,33 59,50 -33,0 -67,0 -84,9 17,8 51,25 84,25 -33,8 -50,25 -59,42 34,-8 68,-17 101,-17 34,-17 84,-17 135,-17z"/>
   <path class="fil6" d="M4619 4060c-51,-8 -101,-16 -143,-25 -42,-8 -76,-17 -109,-33 8,16 25,33 67,42 -34,0 -67,16 -84,16 17,9 59,17 84,17 -34,17 -51,34 -59,51 34,-9 67,-26 101,-34 42,-8 92,-25 143,-34z"/>
   <path class="fil6" d="M5677 4069c-50,-9 -100,-17 -143,-34 -42,-8 -75,-25 -109,-33 9,16 25,33 59,50 -34,0 -67,8 -84,17 17,8 50,17 84,17 -34,8 -50,25 -59,42 34,-9 67,-26 101,-34 51,-8 101,-17 151,-25z"/>
   <polyline class="fil5 str3" points="6114,3775 6215,3489 6249,3371 6349,3304 6450,3077 6501,3019 6509,2808 "/>
   <path class="fil7" d="M6240 1775c109,25 219,67 311,160 84,84 135,176 168,294 34,109 34,176 17,285 -17,143 -101,286 -101,286l-151 -25c0,0 92,-193 101,-277 8,-101 8,-135 -17,-227 -25,-93 -67,-160 -126,-227 -59,-59 -151,-101 -235,-118 -76,-16 -168,-25 -236,-8 -134,25 -218,67 -361,118 -101,33 -185,42 -286,50 -67,0 -134,-8 -210,-25 -67,-17 -126,-34 -126,-34l42 -151c0,0 59,17 118,25 67,17 143,25 168,25 101,-8 160,-16 252,-42 135,-42 227,-84 378,-117 93,-26 193,-17 294,8z"/>
   <path class="fil6" d="M5005 1943l17 -75c0,0 59,16 118,25 67,17 142,25 168,25 100,-8 159,-17 252,-42 134,-42 227,-84 378,-118 101,-16 201,-8 302,17 109,25 219,67 311,160 84,84 135,176 168,294 34,109 34,176 17,285 -17,143 -101,286 -101,286l-75 -17c33,-67 92,-185 100,-277 34,-227 -33,-386 -117,-479 -93,-101 -311,-218 -488,-210 -210,9 -403,126 -647,168 -134,25 -268,25 -403,-42z"/>
   <line class="fil5 str4" x1="6635" y1="2800" x2="6484" y2="2775"/>
   <line class="fil5 str4" x1="4988" y1="2019" x2="5030" y2="1876"/>
   <path class="fil8" d="M6652 2632c0,50 34,84 84,84 50,0 84,-34 84,-84 0,-50 -34,-84 -84,-84 -42,0 -84,42 -84,84z"/>
   <path class="fil5 str5" d="M6652 2632c0,50 34,84 84,84 50,0 84,-34 84,-84 0,-50 -34,-84 -84,-84 -42,0 -84,42 -84,84"/>
   <path class="fil8" d="M6694 2430c0,51 34,84 84,84 50,0 84,-33 84,-84 0,-50 -34,-84 -84,-84 -50,0 -84,42 -84,84z"/>
   <path class="fil5 str5" d="M6694 2430c0,51 34,84 84,84 42,0 84,-33 84,-84 0,-50 -34,-84 -84,-84 -50,0 -84,42 -84,84"/>
   <path class="fil8" d="M6686 2220c0,51 33,84 84,84 42,0 84,-33 84,-84 0,-50 -34,-84 -84,-84 -51,0 -84,42 -84,84z"/>
   <path class="fil5 str5" d="M6686 2220c0,51 33,84 84,84 42,0 84,-33 84,-84 0,-50 -34,-84 -84,-84 -51,0 -84,42 -84,84"/>
   <path class="fil8" d="M6601 2027c0,51 34,84 85,84 42,0 84,-33 84,-84 0,-50 -34,-84 -84,-84 -51,0 -85,34 -85,84z"/>
   <path class="fil5 str5" d="M6601 2027c0,51 34,84 85,84 42,0 84,-33 84,-84 0,-50 -34,-84 -84,-84 -51,0 -85,34 -85,84"/>
   <path class="fil8" d="M6450 1868c0,50 34,84 84,84 42,0 84,-34 84,-84 0,-51 -33,-85 -84,-85 -50,0 -84,42 -84,85z"/>
   <path class="fil5 str5" d="M6450 1868c0,50 34,84 84,84 42,0 84,-34 84,-84 0,-51 -33,-85 -84,-85 -50,0 -84,42 -84,85"/>
   <path class="fil8" d="M6265 1767c0,50 34,84 84,84 51,0 84,-34 84,-84 0,-51 -33,-84 -84,-84 -50,0 -84,33 -84,84z"/>
   <path class="fil5 str5" d="M6265 1767c0,50 34,84 84,84 51,0 84,-34 84,-84 0,-51 -33,-84 -84,-84 -50,0 -84,33 -84,84"/>
   <path class="fil8" d="M6047 1716c0,51 34,84 84,84 50,0 84,-33 84,-84 0,-50 -34,-84 -84,-84 -50,0 -84,34 -84,84z"/>
   <path class="fil5 str5" d="M6047 1708c0,50 34,84 84,84 50,0 84,-34 84,-84 0,-51 -34,-84 -84,-84 -50,0 -84,42 -84,84"/>
   <path class="fil8" d="M5829 1725c0,50 33,84 84,84 42,0 84,-34 84,-84 0,-51 -34,-84 -84,-84 -51,0 -84,33 -84,84z"/>
   <path class="fil5 str5" d="M5829 1725c0,50 33,84 84,84 42,0 84,-34 84,-84 0,-51 -34,-84 -84,-84 -51,0 -84,33 -84,84"/>
   <path class="fil8" d="M5224 1876c0,50 33,84 84,84 50,0 84,-34 84,-84 0,-51 -34,-84 -84,-84 -51,0 -84,42 -84,84z"/>
   <path class="fil5 str5" d="M5232 1876c0,50 34,84 84,84 42,0 84,-34 84,-84 0,-51 -34,-84 -84,-84 -50,0 -84,42 -84,84"/>
   <path class="fil8" d="M5619 1783c0,51 33,85 84,85 42,0 84,-34 84,-85 0,-50 -34,-84 -84,-84 -51,0 -84,34 -84,84z"/>
   <path class="fil5 str5" d="M5619 1783c0,51 33,85 84,85 42,0 84,-34 84,-85 0,-50 -34,-84 -84,-84 -51,0 -84,34 -84,84"/>
   <path class="fil8" d="M5425 1842c0,51 34,84 84,84 42,0 84,-33 84,-84 0,-50 -33,-84 -84,-84 -50,0 -84,34 -84,84z"/>
   <path class="fil5 str5" d="M5425 1842c0,51 34,84 84,84 42,0 84,-33 84,-84 0,-50 -33,-84 -84,-84 -50,0 -84,34 -84,84"/>
   <path class="fil7" d="M3787 1775c-109,25 -218,67 -311,160 -84,84 -134,176 -168,294 -34,109 -34,176 -17,285 17,143 101,286 101,286l151 -25c0,0 -92,-193 -100,-277 -9,-101 -9,-135 16,-227 26,-93 68,-160 126,-227 59,-59 152,-101 236,-118 75,-17 168,-25 235,-8 134,25 218,67 361,117 101,34 185,42 286,51 67,0 134,-9 210,-25 67,-17 126,-34 126,-34l-42 -151c0,0 -59,17 -118,25 -67,17 -143,25 -168,25 -101,-8 -159,-17 -252,-42 -134,-42 -227,-84 -378,-117 -92,-26 -193,-17 -294,8z"/>
   <path class="fil6" d="M5022 1943l-17 -75c0,0 -59,16 -117,25 -68,17 -143,25 -168,25 -101,-8 -160,-17 -253,-42 -134,-42 -226,-84 -378,-118 -100,-16 -201,-8 -302,17 -109,25 -218,67 -311,160 -84,84 -134,176 -168,294 -34,109 -34,176 -17,285 17,143 101,286 101,286l76 -17c-34,-67 -93,-185 -101,-277 -34,-227 33,-386 117,-479 93,-101 311,-218 488,-210 210,9 403,126 647,168 134,25 269,25 403,-42z"/>
   <line class="fil5 str4" x1="3392" y1="2800" x2="3543" y2="2775"/>
   <line class="fil5 str4" x1="5039" y1="2019" x2="4997" y2="1876"/>
   <path class="fil8" d="M3375 2632c0,50 -33,84 -84,84 -50,0 -84,-34 -84,-84 0,-50 34,-84 84,-84 51,0 84,42 84,84z"/>
   <path class="fil5 str5" d="M3375 2632c0,50 -33,84 -84,84 -42,0 -84,-34 -84,-84 0,-50 34,-84 84,-84 42,0 84,42 84,84"/>
   <path class="fil8" d="M3333 2430c0,51 -33,84 -84,84 -50,0 -84,-33 -84,-84 0,-50 34,-84 84,-84 51,0 84,42 84,84z"/>
   <path class="fil5 str5" d="M3329 2429c0,51 -34,84 -84,84 -51,0 -84,-33 -84,-84 0,-50 33,-84 84,-84 50,0 84,42 84,84"/>
   <path class="fil8" d="M3342 2220c0,51 -34,84 -84,84 -42,0 -84,-33 -84,-84 0,-50 33,-84 84,-84 50,0 84,42 84,84z"/>
   <path class="fil5 str5" d="M3350 2220c0,51 -33,84 -84,84 -42,0 -84,-33 -84,-84 0,-50 34,-84 84,-84 42,0 84,42 84,84"/>
   <path class="fil8" d="M3426 2027c0,51 -34,84 -84,84 -51,0 -84,-33 -84,-84 0,-50 33,-84 84,-84 50,0 84,34 84,84z"/>
   <path class="fil5 str5" d="M3426 2027c0,51 -34,84 -84,84 -42,0 -84,-33 -84,-84 0,-50 33,-84 84,-84 50,0 84,34 84,84"/>
   <path class="fil8" d="M3577 1868c0,50 -34,84 -84,84 -51,0 -84,-34 -84,-84 0,-51 33,-85 84,-85 50,0 84,42 84,85z"/>
   <path class="fil5 str5" d="M3577 1868c0,50 -34,84 -84,84 -42,0 -84,-34 -84,-84 0,-51 33,-85 84,-85 50,0 84,42 84,85"/>
   <path class="fil8" d="M3762 1767c0,50 -34,84 -84,84 -51,0 -84,-34 -84,-84 0,-51 33,-84 84,-84 50,0 84,33 84,84z"/>
   <path class="fil5 str5" d="M3770 1767c0,50 -33,84 -84,84 -42,0 -84,-34 -84,-84 0,-51 34,-84 84,-84 42,0 84,33 84,84"/>
   <path class="fil8" d="M3980 1716c0,51 -33,84 -84,84 -50,0 -84,-33 -84,-84 0,-50 34,-84 84,-84 51,0 84,34 84,84z"/>
   <path class="fil5 str5" d="M3980 1708c0,50 -33,84 -84,84 -50,0 -84,-34 -84,-84 0,-51 34,-84 84,-84 51,0 84,42 84,84"/>
   <path class="fil8" d="M4199 1725c0,50 -34,84 -84,84 -42,0 -84,-34 -84,-84 0,-51 33,-84 84,-84 50,0 84,33 84,84z"/>
   <path class="fil5 str5" d="M4199 1725c0,50 -34,84 -84,84 -42,0 -84,-34 -84,-84 0,-51 33,-84 84,-84 50,0 84,33 84,84"/>
   <path class="fil8" d="M4804 1876c0,50 -34,84 -84,84 -51,0 -84,-34 -84,-84 0,-51 33,-84 84,-84 50,0 84,42 84,84z"/>
   <path class="fil5 str5" d="M4804 1876c0,50 -34,84 -84,84 -42,0 -84,-34 -84,-84 0,-51 33,-84 84,-84 42,0 84,42 84,84"/>
   <path class="fil8" d="M4409 1783c0,51 -34,85 -84,85 -51,0 -84,-34 -84,-85 0,-50 33,-84 84,-84 50,0 84,34 84,84z"/>
   <path class="fil5 str5" d="M4409 1783c0,51 -34,85 -84,85 -42,0 -84,-34 -84,-85 0,-50 33,-84 84,-84 50,0 84,34 84,84"/>
   <path class="fil8" d="M4602 1842c0,51 -34,84 -84,84 -42,0 -84,-33 -84,-84 0,-50 33,-84 84,-84 50,0 84,34 84,84z"/>
   <path class="fil5 str5" d="M4610 1842c0,51 -33,84 -84,84 -42,0 -84,-33 -84,-84 0,-50 34,-84 84,-84 42,0 84,34 84,84"/>
   <path class="fil6" d="M4812 1498c25,-25 50,-51 67,-76 25,-33 42,-67 51,-109 -42,8 -76,25 -110,50 -25,26 -50,51 -75,68l0 -362c25,26 50,51 75,68 34,25 68,42 110,50 -9,-42 -26,-76 -51,-109 -25,-25 -50,-51 -67,-76l403 0c-25,25 -50,51 -67,76 -25,33 -42,67 -50,109 42,-8 75,-25 109,-50 25,-26 50,-51 75,-68l0 362c-25,-26 -50,-51 -75,-68 -34,-25 -67,-42 -109,-50 8,42 25,76 50,109 25,25 50,51 67,76l-403 0z"/>
   <path class="fil6" d="M5114 1246c0,59 -42,101 -100,101 -59,0 -101,-42 -101,-101 0,-59 42,-101 101,-101 58,0 100,50 100,101z"/>
   <path class="fil6 str6" d="M5240 1725c0,126 -100,227 -226,227 -126,0 -227,-101 -227,-227 0,-126 101,-227 227,-227 126,0 226,101 226,227z"/>
   <path class="fil6" d="M4938 1901l151 0c42,0 76,34 76,76l0 697c0,42 -34,76 -76,76l-151 0c-42,0 -76,-34 -76,-76l0 -697c0,-34 34,-76 76,-76z"/>
   <path class="fil6" d="M4938 1901l151 0c42,0 76,34 76,76l0 252 -303 84 0 -336c0,-42 34,-76 76,-76z"/>
   <line class="fil5 str4" x1="5165" y1="1977" x2="5165" y2="2682"/>
   <path class="fil5 str4" d="M5165 2682c0,42 -34,76 -76,76"/>
   <line class="fil5 str4" x1="5089" y1="2758" x2="4938" y2="2758"/>
   <path class="fil5 str4" d="M4938 2758c-42,0 -76,-34 -76,-76"/>
   <line class="fil5 str4" x1="4862" y1="2682" x2="4862" y2="1977"/>
   <path class="fil6 str6" d="M4854 1901l0 0c25,0 50,17 50,42l0 773c0,25 -25,42 -50,42 -25,0 -50,-17 -50,-42l0 -773c0,-17 25,-42 50,-42z"/>
   <path class="fil5 str7" d="M4904 2716c0,25 -25,42 -50,42 -25,0 -50,-17 -50,-42"/>
   <path class="fil6 str6" d="M5173 1901c25,0 51,17 51,42l0 773c0,25 -26,42 -51,42 -25,0 -50,-17 -50,-42l0 -773c8,-17 25,-42 50,-42z"/>
   <path class="fil5 str7" d="M5224 2716c0,25 -26,42 -51,42"/>
   <path class="fil5 str7" d="M5173 2758c-25,0 -50,-17 -50,-42"/>
   <path class="fil8" d="M5098 1926c0,51 -34,84 -84,84 -42,0 -84,-33 -84,-84 0,-50 33,-84 84,-84 42,0 84,34 84,84z"/>
   <path class="fil5 str5" d="M5098 1926c0,51 -34,84 -84,84 -42,0 -84,-33 -84,-84 0,-50 33,-84 84,-84 50,0 84,34 84,84"/>
   <path class="fil8" d="M5098 2094c0,51 -34,84 -84,84 -42,0 -84,-33 -84,-84 0,-50 33,-84 84,-84 42,0 84,34 84,84z"/>
   <path class="fil5 str5" d="M5098 2086c0,50 -34,84 -84,84 -42,0 -84,-34 -84,-84 0,-50 33,-84 84,-84 50,0 84,42 84,84"/>
   <path class="fil8" d="M5098 2254c0,50 -34,84 -84,84 -42,0 -84,-34 -84,-84 0,-50 33,-84 84,-84 42,0 84,42 84,84z"/>
   <path class="fil5 str5" d="M5098 2254c0,50 -34,84 -84,84 -42,0 -84,-34 -84,-84 0,-50 33,-84 84,-84 50,0 84,42 84,84"/>
   <path class="fil8" d="M5098 2422c0,50 -34,84 -84,84 -42,0 -84,-34 -84,-84 0,-50 33,-84 84,-84 42,0 84,42 84,84z"/>
   <path class="fil5 str5" d="M5098 2422c0,50 -34,84 -84,84 -42,0 -84,-34 -84,-84 0,-50 33,-84 84,-84 50,0 84,42 84,84"/>
   <path class="fil8" d="M5098 2590c0,50 -34,84 -84,84 -42,0 -84,-34 -84,-84 0,-50 33,-84 84,-84 42,0 84,42 84,84z"/>
   <path class="fil5 str5" d="M5098 2590c0,50 -34,84 -84,84 -42,0 -84,-34 -84,-84 0,-50 33,-84 84,-84 50,0 84,42 84,84"/>
   <path class="fil6" d="M6501 3119c-76,177 -143,353 -202,530l-1285 0 -1286 0c-59,-177 -126,-362 -201,-530 0,0 159,227 277,278 67,33 151,42 218,16 93,-33 210,-193 210,-193 0,0 109,126 185,160 67,33 151,33 227,25 67,0 143,-8 193,-42 84,-59 168,-252 168,-252 0,0 84,151 143,210 50,50 118,84 193,92 67,17 143,9 210,-16 93,-34 236,-168 236,-168 0,0 100,126 168,151 67,33 151,42 218,25 76,-17 134,-76 193,-126 51,-42 135,-160 135,-160z"/>
   <polyline class="fil5 str4" points="6291,3657 5955,3657 5014,3657 4031,3657 3728,3657 "/>
   <path class="fil9" d="M5014 3220c0,0 -59,93 -93,118 -50,42 -84,67 -143,92 -67,17 -151,34 -218,25 -67,0 -134,-25 -193,-50 -51,-25 -135,-92 -135,-92 -42,50 -92,84 -134,117 -59,34 -118,34 -185,34 -126,-9 -252,-84 -344,-252 -59,-152 -135,-294 -227,-454 101,-34 227,-59 361,-59 -50,151 -109,303 -92,429 109,-84 151,-202 184,-311l135 462c-76,-17 -34,-34 -244,-67 42,75 135,176 244,185 67,8 126,-17 168,-51 33,-25 59,-67 59,-109 0,-25 0,-51 0,-76 0,-17 -17,-33 -34,-33 -17,0 -17,25 -25,33 -9,25 8,59 0,84 -9,34 -25,59 -51,76 -25,17 -75,17 -75,17l17 -68c8,-50 -34,-84 -42,-134 -9,-34 -9,-67 0,-92 8,-34 33,-68 67,-76 8,-8 25,-8 33,-8 17,0 51,8 51,8 0,0 -9,-50 -9,-76 0,-33 34,-100 51,-134 25,-50 75,-101 75,-101 9,9 51,51 85,101 16,34 42,76 42,109 8,25 0,93 0,93 0,0 50,-26 67,-26 8,0 25,0 42,0 33,9 59,42 75,76 17,25 9,67 9,92 -9,51 -34,84 -17,135l25 67c0,0 -59,0 -75,-8 -26,-17 -51,-42 -59,-68 -9,-25 0,-58 -25,-84 -9,-8 -17,-25 -34,-16 -17,0 -25,25 -25,42l0 67c0,17 8,42 17,59 25,42 67,67 109,84 50,16 92,25 143,25 42,0 117,-9 159,-17 51,-17 76,-42 118,-75 25,-17 33,-51 42,-76 8,-34 8,-84 8,-84 -50,17 -92,42 -134,75 -42,34 -84,76 -118,110l0 -555c51,59 93,109 143,151 42,34 67,51 109,68 -8,-42 -16,-76 -50,-118 -42,-59 -84,-126 -143,-193 101,-17 202,-17 294,-17 101,0 202,8 294,17 -50,59 -101,126 -143,193 -33,42 -33,76 -50,118 42,-17 67,-26 109,-68 51,-42 93,-92 143,-151l0 555c-34,-42 -76,-76 -118,-110 -42,-33 -84,-58 -134,-75 0,0 0,59 8,84 9,25 26,59 42,76 42,33 68,58 118,75 42,17 118,17 160,17 50,0 92,-9 142,-25 42,-17 84,-42 110,-84 8,-17 16,-34 16,-59l0 -67c0,-17 -8,-42 -25,-42 -17,0 -25,8 -33,16 -17,26 -9,59 -26,84 -8,34 -25,51 -58,68 -26,16 -76,8 -76,8l25 -67c17,-51 -17,-84 -17,-135 -8,-33 -8,-67 9,-92 17,-34 42,-59 75,-76 9,-8 26,0 42,0 17,0 68,26 68,26 0,0 0,-59 0,-93 8,-33 25,-75 42,-109 33,-50 84,-92 84,-101 8,9 50,51 75,101 17,34 51,101 51,134 0,26 -9,76 -9,76 0,0 34,-8 51,-8 8,0 25,0 33,8 34,17 59,42 68,76 8,33 8,67 0,92 -9,50 -59,84 -42,134l16 68c0,0 -58,0 -75,-17 -25,-17 -42,-42 -51,-76 -8,-25 9,-59 0,-84 0,-17 -8,-42 -25,-33 -17,0 -33,25 -33,33 0,25 0,51 0,76 0,42 25,75 58,109 42,42 93,59 168,51 110,-9 202,-110 244,-185 -210,42 -168,58 -244,67l135 -462c42,117 75,227 185,311 16,-126 -34,-269 -93,-429 135,9 252,25 362,59 -93,160 -160,302 -227,454 -93,159 -219,243 -345,252 -67,0 -126,0 -185,-34 -50,-25 -100,-59 -134,-117 0,0 -84,75 -134,92 -59,25 -127,50 -194,50 -67,0 -159,-8 -218,-25 -67,-17 -101,-42 -143,-92 -51,-25 -109,-118 -109,-118z"/>
   <path class="fil9" d="M6106 3380l0 0c109,-9 201,-109 243,-185 -210,42 -168,59 -243,67l134 -462c42,118 76,227 185,311 17,-126 -34,-269 -92,-429 134,9 252,26 361,59 -92,160 -160,303 -227,454 -92,160 -218,244 -344,252l0 8 -17 -75zm-2201 84c-126,-9 -252,-84 -345,-252 -59,-151 -134,-294 -227,-454 101,-34 227,-59 362,-59 -51,151 -110,303 -93,429 109,-84 151,-202 185,-311l134 462c-75,-17 -33,-34 -243,-67 42,75 134,176 243,185l-16 67z"/>
   <path class="fil8" d="M5106 3035c0,51 -42,93 -92,93 -51,0 -93,-42 -93,-93 0,-50 42,-92 93,-92 50,0 92,42 92,92z"/>
   <path class="fil5 str8" d="M5106 3035c0,51 -42,93 -92,93 -51,0 -93,-42 -93,-93 0,-50 42,-92 93,-92 50,0 92,42 92,92"/>
   <path class="fil8" d="M3669 3161c0,51 -42,93 -92,93 -50,0 -92,-42 -92,-93 0,-50 42,-92 92,-92 50,0 92,42 92,92z"/>
   <path class="fil5 str8" d="M3669 3161c0,51 -42,93 -92,93 -50,0 -92,-42 -92,-93 0,-50 42,-92 92,-92 50,0 92,42 92,92"/>
   <path class="fil8" d="M6358 3161c0,51 42,93 92,93 51,0 93,-42 93,-93 0,-50 -42,-92 -93,-92 -50,0 -92,42 -92,92z"/>
   <path class="fil5 str8" d="M6366 3161c0,51 42,93 93,93 50,0 92,-42 92,-93 0,-50 -50,-92 -101,-92 -50,0 -84,42 -84,92"/>
   <polygon class="fil6" points="4140,3178 4341,3161 4367,3203 4341,3254 4140,3262 4106,3220 "/>
   <polygon class="fil6" points="5887,3178 5686,3161 5661,3203 5686,3254 5887,3262 5921,3220 "/>
   <path class="fil9" d="M3752 3926c0,0 143,-9 395,-25 252,-17 521,-26 655,-26 25,0 395,0 420,0 135,0 412,9 655,26 253,16 395,25 395,25l84 -395c0,0 -899,-84 -1344,-84 -454,0 -1344,84 -1344,84l84 395z"/>
   <path class="fil7" d="M4804 3859c-143,0 -412,8 -664,25 -160,8 -244,25 -403,42l16 33c160,-16 236,-16 395,-25 252,-17 521,-25 656,-25 25,0 394,0 420,0 134,0 411,8 655,25 252,17 403,25 403,25l9 -33c0,0 -152,-25 -404,-42 -252,-17 -529,-25 -663,-25 -26,0 -404,0 -420,0z"/>
   <path class="fil5 str4" d="M5005 3481c454,0 899,25 1353,75"/>
   <path class="fil5 str4" d="M6274 3951c-445,-42 -807,-50 -1260,-50"/>
   <path class="fil5 str4" d="M5022 3481c-454,0 -899,25 -1353,75"/>
   <path class="fil5 str4" d="M3753 3951c446,-42 807,-50 1261,-50"/>
   <path class="fil6" d="M4140 3497l0 0 0 0c-160,9 -345,26 -504,51 -25,25 -25,50 17,75 151,-25 336,-33 495,-42 219,-8 437,-16 656,-25l420 0c134,0 403,9 655,25 244,17 496,42 496,42 42,-25 42,-50 16,-75 0,0 -252,-34 -504,-51 -252,-16 -529,-25 -663,-25l-420 0c-219,0 -446,9 -664,25z"/>
   <path class="fil7" d="M6408 3565c0,-9 -8,-17 -17,-26 0,0 -252,-33 -504,-50 -252,-17 -529,-25 -663,-25l-420 0c-219,0 -446,8 -664,25l0 0 0 0c-160,8 -345,25 -504,42 -9,17 -17,17 -17,25 185,-17 344,-33 529,-50 286,-17 597,-17 866,-25 268,0 537,8 798,25 201,25 403,42 596,59z"/>
   <path class="fil6" d="M3627 3598c9,9 17,9 26,17 151,-25 336,-34 495,-42 219,-8 437,-17 656,-25l420 0c134,0 403,8 655,25 244,17 496,42 496,42 16,-8 16,-8 25,-17 -479,-67 -916,-75 -1370,-75 -445,-9 -949,16 -1403,75z"/>
   <polyline class="fil5 str9" points="4140,3489 4140,3497 4140,3497 "/>
   <path class="fil7" d="M4199 3901l0 0 0 0c-152,8 -320,25 -471,50 -25,25 -25,51 17,76 143,-25 311,-34 462,-42 202,-9 403,-17 605,-26l386 0c118,0 379,9 605,26 227,17 462,42 462,42 42,-25 34,-51 17,-76 0,0 -235,-33 -470,-50 -235,-17 -488,-26 -614,-26l-386 0c-202,0 -403,17 -613,26z"/>
   <path class="fil6" d="M6307 3976c0,-8 -8,-17 -16,-25 0,0 -236,-34 -471,-50 -235,-17 -487,-26 -613,-26l-387 0c-201,0 -411,9 -613,26l0 0 0 0c-151,8 -319,25 -470,42 -9,16 -17,16 -17,25 176,-17 319,-34 487,-51 269,-16 555,-16 807,-25 252,0 504,9 747,25 185,17 370,34 546,59z"/>
   <path class="fil6" d="M3728 4002c9,8 9,8 25,16 143,-25 311,-33 462,-42 202,-8 404,-17 605,-25l387 0c117,0 378,8 605,25 227,17 462,42 462,42 8,-8 17,-8 17,-16 -446,-68 -849,-76 -1277,-76 -404,0 -866,17 -1286,76z"/>
   <polygon class="fil6" points="3720,3901 3930,3733 3678,3640 3669,3783 "/>
   <polygon class="fil7" points="3711,3867 3863,3741 3678,3682 3644,3783 "/>
   <path class="fil7" d="M4661 3640c0,25 -17,42 -42,42 -26,0 -42,-17 -42,-42 0,-25 16,-42 42,-42 25,-8 42,17 42,42z"/>
   <polygon class="fil6" points="6307,3901 6106,3733 6358,3640 6358,3783 "/>
   <polygon class="fil7" points="6316,3867 6165,3741 6349,3682 6383,3783 "/>
   <path class="fil7" d="M5366 3640c0,25 17,42 42,42 26,0 43,-17 43,-42 0,-25 -17,-42 -43,-42 -25,-8 -42,17 -42,42z"/>
   <path class="fil7" d="M4661 3786c0,26 -17,42 -42,42 -26,0 -42,-16 -42,-42 0,-25 16,-42 42,-42 25,-8 42,17 42,42z"/>
   <path class="fil7" d="M5366 3786c0,26 17,42 42,42 26,0 43,-16 43,-42 0,-25 -17,-42 -43,-42 -25,-8 -42,17 -42,42z"/>
  </g>
  <path class="fil10" d="M3470 9309l-125 0 0 -790c-29,28 -69,57 -117,85 -49,29 -92,50 -131,64l0 -120c69,-32 130,-72 182,-118 52,-47 89,-92 111,-135l80 0 0 1014z"/>
  <path id="1" class="fil10" d="M4439 9191l0 118 -669 0c-1,-30 4,-58 15,-86 17,-45 45,-90 83,-134 37,-44 91,-95 162,-153 109,-90 183,-161 222,-214 39,-52 59,-102 59,-149 0,-49 -18,-91 -53,-125 -35,-33 -81,-50 -138,-50 -60,0 -108,18 -144,53 -36,36 -54,85 -55,149l-127 -13c9,-95 42,-168 99,-218 57,-49 134,-74 230,-74 97,0 173,27 230,80 57,54 85,121 85,201 0,40 -8,80 -25,119 -17,39 -44,80 -82,123 -39,44 -103,103 -192,178 -74,63 -122,105 -143,127 -21,23 -39,45 -53,68l496 0z"/>
  <path id="2" class="fil10" d="M4574 9041l124 -17c14,71 38,122 72,153 34,31 76,46 126,46 59,0 108,-20 148,-60 40,-41 60,-91 60,-151 0,-57 -18,-104 -56,-141 -37,-37 -84,-55 -142,-55 -23,0 -53,4 -88,14l14 -109c8,1 15,1 20,1 53,0 101,-14 143,-41 43,-28 64,-70 64,-127 0,-46 -16,-83 -46,-113 -31,-30 -71,-45 -120,-45 -48,0 -88,16 -120,46 -33,31 -53,77 -63,138l-124 -23c16,-83 50,-148 104,-194 53,-45 120,-68 200,-68 55,0 106,11 153,35 46,24 82,56 106,97 25,41 37,84 37,130 0,43 -12,83 -35,118 -24,36 -58,65 -104,86 59,13 106,42 139,86 33,43 49,98 49,163 0,88 -32,163 -96,224 -65,62 -146,92 -244,92 -89,0 -162,-26 -221,-79 -59,-53 -92,-122 -100,-206z"/>
  <path id="3" class="fil10" d="M5755 9309l0 -241 -439 0 0 -114 461 -655 102 0 0 655 137 0 0 114 -137 0 0 241 -124 0zm0 -355l0 -455 -317 455 317 0z"/>
  <path id="4" class="fil10" d="M6143 9044l130 -10c10,63 32,111 67,143 35,32 77,48 127,48 61,0 111,-23 152,-68 41,-45 62,-105 62,-179 0,-71 -20,-127 -59,-168 -39,-40 -91,-61 -156,-61 -40,0 -76,9 -108,28 -32,18 -57,42 -75,71l-117 -17 97 -519 501 0 0 118 -402 0 -54 273c61,-43 124,-64 191,-64 87,0 162,31 222,92 61,61 91,139 91,235 0,92 -27,171 -80,237 -64,82 -153,123 -265,123 -91,0 -166,-26 -224,-77 -58,-52 -92,-120 -100,-205z"/>
  <g>
   <path class="fil11" d="M5011 6510c26,0 50,17 71,48 11,-30 27,-51 50,-58 20,-7 41,-2 64,10 0,-29 10,-52 28,-66 22,-17 53,-18 89,-5 -12,-33 -12,-63 4,-85 17,-24 52,-34 96,-29 -21,-28 -30,-55 -22,-79 6,-21 24,-37 50,-48 -31,-21 -48,-45 -48,-70 0,-26 18,-50 48,-71 -30,-10 -51,-27 -58,-50 -6,-19 -2,-41 11,-63 -30,-1 -53,-10 -67,-28 -17,-22 -17,-54 -4,-90 -34,12 -64,12 -85,-3 -25,-18 -34,-53 -30,-96 -27,21 -55,29 -79,22 -20,-7 -36,-24 -47,-50 -21,30 -45,47 -71,47 -25,0 -49,-17 -70,-48 -11,30 -28,51 -50,58 -20,7 -42,2 -64,-10 -1,29 -10,52 -28,66 -22,17 -54,18 -90,5 13,33 12,63 -3,85 -18,24 -52,34 -96,29 21,28 30,55 22,79 -6,21 -24,37 -50,48 30,21 47,45 47,70 0,26 -17,50 -48,71 31,10 51,27 59,50 6,19 2,41 -11,63 29,1 53,10 67,28 16,22 17,54 4,90 34,-12 64,-12 85,3 25,18 34,53 29,96 28,-21 55,-29 79,-22 21,7 37,24 48,50 21,-30 45,-47 70,-47zm346 -1049c79,-66 169,-89 192,-73 24,18 30,120 -15,222 99,-46 199,-43 217,-19 16,21 -1,102 -56,179 142,-28 269,12 280,45 8,26 -40,98 -125,158 233,5 419,111 419,155 0,43 -176,144 -400,154 79,57 124,124 116,149 -11,35 -154,80 -307,43 66,79 89,168 73,191 -17,25 -120,31 -222,-14 46,99 43,199 20,217 -21,16 -102,-1 -179,-56 27,142 -13,269 -46,280 -25,8 -98,-40 -158,-126 -5,234 -111,420 -155,420 -43,0 -143,-176 -154,-400 -57,79 -124,123 -149,116 -35,-11 -80,-154 -43,-308 -79,67 -168,90 -191,74 -24,-18 -30,-120 15,-222 -100,46 -199,43 -217,19 -16,-21 1,-102 56,-179 -143,28 -270,-12 -280,-45 -9,-26 39,-98 125,-158 -233,-5 -420,-111 -420,-155 0,-43 177,-144 401,-154 -80,-57 -124,-124 -116,-149 11,-35 153,-80 307,-43 -66,-79 -90,-168 -73,-191 17,-25 120,-31 222,14 -46,-99 -43,-199 -20,-217 21,-16 102,1 179,56 -28,-142 13,-269 45,-280 26,-8 99,40 158,126 6,-234 111,-420 155,-420 43,0 144,176 155,400 57,-79 124,-123 149,-116 34,11 79,154 42,307z"/>
   <path class="fil12" d="M5516 5964c-13,-38 50,-94 140,-123 90,-29 198,-23 240,-1 -21,44 -104,112 -194,141 -90,29 -174,22 -186,-17zm74 164c0,-47 108,-86 241,-86 134,0 275,45 322,86 -47,41 -188,86 -322,86 -133,0 -241,-39 -241,-86zm-66 160c12,-39 95,-48 186,-20 90,29 174,95 196,139 -42,23 -149,30 -240,2 -91,-28 -154,-83 -142,-121zm-110 136c22,-31 94,-18 160,30 66,47 115,127 119,170 -42,10 -133,-10 -200,-58 -66,-47 -101,-111 -79,-142zm-117 115c30,-24 95,10 144,74 50,65 73,155 64,198 -43,-3 -124,-49 -174,-113 -49,-65 -65,-136 -34,-159zm-122 93c39,-12 94,51 123,141 29,90 24,197 1,240 -44,-21 -111,-104 -141,-195 -29,-90 -21,-173 17,-186zm-164 74c48,0 86,108 86,242 0,133 -45,274 -86,321 -40,-47 -85,-188 -85,-321 0,-134 38,-242 85,-242zm-159 -66c39,13 47,96 19,186 -28,91 -95,175 -138,197 -24,-43 -31,-150 -2,-240 28,-91 82,-155 121,-143zm-137 -109c31,22 18,93 -29,160 -48,66 -127,115 -171,119 -10,-43 11,-134 58,-200 48,-66 111,-102 142,-79zm-114 -118c23,31 -11,95 -75,145 -65,49 -155,73 -198,64 3,-43 49,-125 114,-174 64,-50 135,-65 159,-35zm-94 -121c13,38 -50,94 -141,123 -90,29 -197,23 -240,1 21,-44 105,-112 195,-141 90,-29 173,-22 186,17zm-74 -164c0,47 -108,86 -242,86 -133,0 -274,-45 -321,-86 47,-41 188,-86 321,-86 134,0 242,39 242,86zm66 -160c-12,39 -95,48 -186,20 -91,-29 -175,-95 -196,-139 42,-23 149,-30 240,-2 90,28 154,83 142,121zm110 -136c-22,31 -94,18 -160,-30 -66,-47 -115,-127 -119,-170 42,-10 133,10 199,58 66,47 102,111 80,142zm117 -115c-30,24 -95,-10 -144,-74 -50,-65 -73,-155 -65,-198 44,3 125,49 174,113 50,65 65,136 35,159zm121 -93c-38,12 -93,-51 -122,-141 -30,-90 -24,-197 -1,-240 43,21 111,104 140,195 30,90 22,173 -17,186zm164 -74c-47,0 -85,-108 -85,-242 0,-133 45,-274 85,-321 41,47 86,188 86,321 0,134 -38,242 -86,242zm160 66c-39,-13 -47,-96 -19,-186 28,-91 95,-175 138,-197 23,43 30,150 2,240 -28,91 -82,155 -121,143zm136 109c-31,-22 -17,-94 30,-160 47,-66 127,-115 170,-119 10,43 -10,134 -57,200 -48,66 -111,102 -143,79zm115 118c-23,-31 10,-95 75,-145 64,-49 155,-73 197,-64 -2,43 -48,125 -113,174 -65,50 -136,65 -159,35z"/>
   <path class="fil13" d="M4966 6173l-799 290 -7 -29c-25,-100 -37,-203 -37,-306 0,-103 12,-206 37,-306l7 -29 799 290 -290 -799 30 -8c100,-24 202,-36 305,-36 103,0 206,12 306,36l29 8 -289 799 799 -290 7 29c24,100 36,203 36,306 0,103 -12,206 -36,306l-7 29 -799 -290 289 799 -29 8c-100,24 -203,36 -306,36 -103,0 -205,-12 -305,-36l-30 -8 290 -799z"/>
   <path class="fil14" d="M4753 6931c85,18 172,27 258,27 87,0 174,-9 259,-27l-259 -713 -258 713zm349 -803l712 258c18,-84 27,-171 27,-258 0,-87 -9,-174 -27,-258l-712 258zm-91 -90l259 -713c-85,-18 -172,-27 -259,-27 -86,0 -173,9 -258,27l258 713zm-90 90l-713 -258c-18,84 -27,171 -27,258 0,87 9,174 27,258l713 -258z"/>
   <circle class="fil12" cx="5011" cy="6128" r="622"/>
   <circle class="fil11" cx="5011" cy="6128" r="391"/>
   <path class="fil15" d="M4823 6427l14 -31 10 5c-3,7 -4,13 -3,17 1,4 5,8 10,10l1 1 23 -51c1,-2 2,-4 2,-5 0,-1 0,-2 -1,-3 0,0 -1,-1 -3,-2 -1,-1 -3,-2 -7,-4l5 -10 47 22 -5 10c-2,-1 -4,-2 -6,-3 -2,-1 -4,-1 -5,-1 -1,0 -1,0 -2,1 -1,1 -2,2 -3,5l-1 2 -22 49 1 0c6,3 11,3 15,1 4,-2 7,-7 10,-14l11 5 -14 31 -77 -35zm-32 -75l-6 -7c-5,-5 -9,-7 -12,-8 -3,0 -6,1 -9,4 -3,3 -5,6 -5,9 1,3 3,7 7,11l7 8 18 -17zm23 -22c3,-3 4,-4 4,-6 0,-1 -1,-3 -4,-5l-3 -4 8 -8 35 36 -9 8 -3 -3c-2,-3 -4,-4 -5,-4 -2,0 -3,1 -6,3l-36 34c-2,3 -3,5 -3,6 0,1 1,3 3,5l4 4 -9 8 -39 -42c-7,-8 -12,-15 -13,-21 -1,-6 2,-12 7,-17 4,-3 8,-5 13,-5 4,0 10,2 15,6 -3,-4 -5,-9 -4,-12 0,-4 2,-7 6,-11l6 -6c3,-2 4,-4 5,-6 1,-1 0,-2 -1,-3 -1,-1 -2,-1 -4,-1 -2,1 -5,3 -9,7l-6 -6c1,-1 1,-1 2,-1 0,-1 0,-1 1,-2 6,-5 11,-8 16,-8 5,-1 10,2 15,7 5,5 7,10 7,15 0,5 -3,10 -9,16l-6 5c-3,4 -5,7 -5,9 0,2 1,5 5,8l7 8 15 -14zm-29 -66l-11 5 -2 -5c-1,-3 -3,-5 -4,-5 -1,-1 -3,0 -6,1l-45 20c-3,2 -5,3 -5,4 -1,2 0,4 1,7l2 5 -10 4 -21 -47 10 -4 2 5c2,3 3,4 4,5 1,1 4,0 7,-1l45 -21c3,-1 4,-2 5,-3 0,-2 0,-4 -2,-7l-2 -5 10 -5 22 47zm-73 -92l-25 14 28 4 -3 -18zm48 45l-11 2 0 -3c-1,-3 -2,-5 -3,-6 -1,-1 -4,-2 -8,-3l-70 -10 -5 -26 63 -33c4,-1 5,-3 6,-4 1,-2 1,-3 1,-6l-1 -4 11 -2 9 47 -11 2 -1 -3c-1,-3 -1,-6 -2,-7 0,-1 -1,-1 -3,-1 0,0 -1,1 -1,1 -1,0 -1,0 -1,1l-10 5 4 24 11 2c0,0 1,0 2,0 0,0 1,0 1,0 1,0 2,-1 2,-2 1,-1 1,-3 0,-6l-1 -4 12 -2 6 38zm-62 -196c-3,-1 -5,-2 -6,-1 -1,1 -3,3 -4,6l-1 5 -11 -4 16 -48 11 4 -2 4c-1,3 -1,6 0,7 0,1 2,2 5,3l37 13c10,3 17,8 20,15 4,6 4,15 0,25 -3,9 -8,16 -14,19 -6,4 -13,5 -20,3 -4,-2 -8,-4 -10,-8 -2,-3 -2,-7 -1,-11 2,-3 4,-6 7,-7 3,-2 6,-2 9,-1 3,1 5,3 6,5 1,2 1,5 0,8 0,1 0,2 -1,2 0,1 0,2 -1,3 3,-1 5,-2 7,-4 2,-2 3,-4 4,-7 2,-4 1,-8 -1,-11 -2,-3 -6,-6 -13,-8l-37 -12zm18 -66l-9 -7 31 -39 9 7c-1,1 -1,1 -2,2 0,0 -1,1 -1,2 -2,2 -3,5 -3,6 0,2 3,5 7,9l28 21c5,4 10,6 13,6 4,0 7,-2 11,-6 4,-5 5,-10 5,-14 0,-3 -3,-7 -8,-11l-28 -22c-4,-4 -8,-5 -10,-5 -2,0 -4,1 -6,4 -1,1 -1,1 -1,2 -1,0 -1,0 -1,1l-9 -7 24 -31 9 7c-2,3 -3,5 -4,6 -1,2 -1,3 -1,4 0,1 0,1 1,2 1,1 4,3 7,6l29 23c8,6 11,12 11,20 0,8 -4,17 -11,26 -7,9 -14,14 -21,16 -8,2 -15,0 -22,-5l-30 -24c-4,-4 -8,-5 -10,-5 -2,-1 -4,1 -6,3 0,1 -1,1 -1,2 0,0 -1,1 -1,1zm101 -97c-2,-3 -3,-4 -5,-5 -1,0 -3,1 -6,2l-4 3 -6 -10 36 -21 60 36 -21 -36c-2,-3 -3,-5 -4,-5 -2,0 -4,1 -7,2l-4 3 -6 -10 35 -20 5 10 -3 2c-3,2 -5,3 -5,4 -1,2 0,4 2,6l34 60 -23 13 -64 -38 23 39c2,3 3,5 4,5 2,0 4,0 7,-2l4 -3 6 10 -35 21 -6 -10 4 -3c3,-1 5,-3 5,-4 1,-1 0,-3 -2,-6l-24 -43zm186 -28l14 -2c1,12 -1,22 -7,29 -6,7 -15,11 -27,12 -14,2 -26,0 -36,-8 -9,-7 -15,-18 -16,-32 -1,-7 -1,-13 1,-19 1,-6 4,-11 8,-16 3,-5 8,-8 13,-11 4,-3 10,-4 17,-5 5,-1 9,-1 13,0 5,1 9,3 13,5l2 -7 12 -2 4 35 -12 2c-2,-7 -5,-13 -9,-17 -5,-4 -10,-5 -16,-4 -7,1 -12,4 -15,10 -4,7 -4,15 -3,26 1,10 4,18 9,23 4,6 10,8 17,7 6,-1 11,-3 14,-8 3,-5 5,-11 4,-18zm130 -33l-7 33 -12 -3c2,-7 2,-13 0,-17 -2,-4 -6,-7 -12,-8l-1 -1 -13 54c0,3 -1,5 -1,6 0,1 1,2 2,2 0,1 1,2 3,2 1,1 4,1 8,2l-3 11 -50 -11 2 -11c3,0 5,1 7,1 2,0 4,0 5,0 1,0 2,0 2,-1 1,-1 1,-3 2,-6l0 -2 12 -52 -1 0c-6,-2 -10,-1 -14,2 -4,3 -6,8 -8,15l-11 -2 7 -33 83 19zm42 77l7 -28 -22 18 15 10zm-66 5l6 -10 3 2c2,1 4,2 6,2 2,0 4,-1 7,-4l55 -45 22 14 -18 69c-1,3 -1,6 -1,7 1,2 2,3 4,5l4 2 -6 10 -41 -26 6 -10 3 2c3,2 5,3 6,3 1,0 2,0 3,-1 0,-1 0,-1 0,-2 0,0 0,-1 1,-1l2 -11 -21 -13 -8 6c0,1 -1,1 -1,2 -1,0 -1,1 -1,1 -1,1 -1,2 -1,3 1,1 2,2 5,3l4 3 -7 9 -32 -20zm109 85l10 -6 3 4c2,3 3,5 4,5 2,0 4,0 6,-2l42 -27c3,-2 4,-3 5,-4 0,-2 -1,-4 -3,-6l-3 -5 10 -6 28 43 -10 6 -3 -4c-2,-3 -3,-5 -4,-5 -2,0 -4,0 -7,2l-41 27c-3,2 -4,3 -5,4 0,2 1,4 3,7l3 4 -10 6 -28 -43zm103 41c3,-1 5,-2 5,-3 1,-1 1,-4 0,-7l-2 -4 11 -4 12 41 -50 49 41 -12c3,-1 5,-2 5,-3 1,-1 1,-3 0,-7l-2 -5 11 -3 11 39 -11 3 -1 -4c-1,-3 -2,-5 -3,-6 -1,-1 -3,-1 -6,0l-66 19 -7 -26 52 -52 -44 12c-3,1 -5,2 -5,4 -1,1 -1,3 0,6l1 5 -11 3 -11 -39 11 -3 2 5c1,3 2,5 3,6 1,0 3,0 6,-1l48 -13zm29 173l10 3 -13 48 -11 -3c0,-1 0,-1 1,-2 0,-1 0,-1 0,-2 1,-4 1,-6 0,-8 0,-1 -4,-3 -10,-4l-33 -10c-7,-2 -12,-2 -15,-1 -3,2 -5,5 -7,10 -2,7 -2,11 0,15 2,3 6,6 12,7l34 10c5,2 9,2 11,1 2,0 3,-3 4,-6 1,-1 1,-2 1,-2 0,-1 0,-1 0,-1l11 3 -11 37 -10 -3c0,-3 1,-6 1,-7 0,-2 0,-3 0,-4 -1,-1 -2,-1 -3,-2 -1,0 -4,-1 -8,-2l-36 -10c-9,-3 -15,-8 -18,-15 -3,-8 -3,-17 1,-28 3,-11 7,-18 14,-23 6,-5 13,-6 22,-3l37 10c5,2 8,2 10,1 2,0 4,-2 5,-5 0,-1 0,-2 0,-2 0,-1 1,-1 1,-2zm-58 128c3,2 5,3 6,3 1,0 3,-2 5,-4l3 -4 9 7 -26 33 -68 -11 33 26c2,2 4,3 5,2 2,0 3,-1 5,-4l4 -4 9 7 -25 31 -9 -7 2 -3c3,-3 4,-5 3,-6 0,-1 -1,-3 -4,-5l-53 -42 16 -21 74 12 -37 -29c-2,-2 -4,-3 -5,-2 -2,0 -3,1 -6,4l-3 4 -9 -7 25 -32 9 7 -2 4c-3,3 -4,5 -4,6 1,1 2,3 5,5l38 30zm-121 84c-5,-10 -11,-17 -16,-21 -6,-3 -12,-3 -18,0 -6,4 -10,8 -10,15 -1,6 2,15 7,25 6,11 11,18 17,21 5,4 11,4 17,0 7,-3 10,-8 11,-14 0,-7 -2,-15 -8,-26zm25 -13c7,13 8,25 4,37 -4,11 -13,20 -26,27 -14,7 -26,9 -38,5 -11,-3 -20,-11 -27,-24 -6,-13 -8,-25 -4,-36 4,-11 13,-20 27,-27 13,-7 26,-9 37,-6 12,4 21,12 27,24z"/>
   <circle class="fil5" cx="5011" cy="6128" r="263"/>
   <circle class="fil13" cx="5011" cy="6128" r="243"/>
   <circle class="fil11" cx="5011" cy="6128" r="221"/>
   <path class="fil14" d="M5022 6168c23,5 67,22 73,55l-27 78c-38,-7 -76,-7 -114,0l-26 -77c5,-34 49,-51 72,-56 0,-1 0,-1 0,-2 0,-6 5,-11 11,-11 6,0 11,5 11,11 0,0 0,1 0,2z"/>
   <circle class="fil14" cx="5011" cy="6437" r="34"/>
   <path class="fil14" d="M4927 6000c22,5 66,23 72,56l-27 77c-38,-6 -76,-6 -113,0l-27 -77c5,-33 50,-51 73,-56 -1,0 -1,-1 -1,-1 0,-7 5,-12 12,-12 6,0 11,5 11,12 0,0 0,1 0,1z"/>
   <path class="fil14" d="M5119 6000c23,5 67,23 72,56l-27 77c-38,-6 -75,-6 -113,0l-27 -77c5,-33 50,-51 73,-56 0,0 0,-1 0,-1 0,-7 5,-12 11,-12 6,0 11,5 11,12 0,0 0,1 0,1z"/>
   <g>
    <g>
     <path id="path2856" class="fil14" d="M4820 5686c65,58 129,22 189,-20 -67,-27 -140,-45 -189,20zm14 -1c18,13 38,22 62,21 32,-1 64,-19 91,-37 -32,-12 -70,-22 -103,-15 -20,5 -36,16 -50,31z"/>
     <path id="path2874" class="fil14" d="M4792 5633c78,38 130,-14 176,-71 -72,-8 -147,-5 -176,71zm13 -5c21,8 43,11 65,3 30,-9 57,-35 78,-60 -35,-3 -74,-2 -103,14 -18,10 -31,25 -40,43z"/>
     <path id="path2856_0" class="fil14" d="M4664 5796c82,29 128,-29 168,-90 -73,0 -147,11 -168,90zm13 -7c21,6 43,6 65,-4 29,-13 52,-41 70,-68 -34,1 -73,6 -101,25 -17,12 -28,28 -34,47z"/>
     <path id="path2874_1" class="fil14" d="M4618 5757c86,6 115,-62 137,-132 -70,20 -139,50 -137,132zm10 -10c23,0 44,-6 62,-21 24,-20 39,-54 49,-85 -33,10 -69,25 -90,52 -13,16 -20,34 -21,54z"/>
     <path id="path2856_2" class="fil14" d="M4555 5957c87,-3 109,-73 124,-145 -68,26 -133,64 -124,145zm9 -11c23,-3 43,-10 59,-27 23,-23 34,-58 41,-90 -32,14 -66,32 -85,61 -11,17 -15,36 -15,56z"/>
     <path id="path2874_3" class="fil14" d="M4498 5937c82,-26 85,-99 79,-172 -58,43 -110,97 -79,172zm6 -13c21,-8 38,-21 49,-42 16,-27 17,-64 15,-97 -27,22 -55,49 -65,81 -6,20 -5,39 1,58z"/>
     <path id="path2856_4" class="fil14" d="M4532 6131c78,-39 69,-112 52,-183 -50,52 -94,113 -52,183zm4 -14c20,-11 35,-27 43,-49 11,-30 6,-66 -1,-99 -23,26 -46,58 -51,91 -3,20 0,40 9,57z"/>
     <path id="path2874_5" class="fil14" d="M4472 6138c65,-59 36,-126 1,-190 -35,64 -60,134 -1,190zm1 -15c15,-16 25,-35 27,-58 2,-32 -12,-66 -27,-95 -16,31 -30,67 -25,101 2,20 11,38 25,52z"/>
     <path id="path2856_6" class="fil14" d="M4562 6310c67,-56 41,-125 9,-190 -37,62 -66,131 -9,190zm1 -15c16,-15 28,-34 30,-57 4,-32 -9,-67 -23,-97 -17,31 -32,67 -29,101 1,20 9,38 22,53z"/>
     <path id="path2874_7" class="fil14" d="M4498 6325c54,-68 14,-130 -31,-187 -24,69 -37,142 31,187zm-2 -14c13,-18 20,-39 17,-62 -3,-32 -22,-63 -42,-90 -10,34 -18,72 -8,105 6,19 17,35 33,47z"/>
     <path id="path2856_8" class="fil14" d="M4642 6450c44,-76 -4,-131 -57,-182 -14,72 -17,146 57,182zm-4 -14c10,-20 14,-42 8,-65 -7,-31 -31,-59 -54,-82 -6,34 -8,73 6,104 9,19 23,33 40,43z"/>
     <path id="path2874_9" class="fil14" d="M4603 6489c17,-85 -47,-122 -113,-152 10,72 32,143 113,152zm-8 -12c3,-22 -1,-43 -13,-63 -18,-27 -49,-46 -79,-60 6,34 17,72 41,96 14,15 31,24 51,27z"/>
     <path id="path2856_10" class="fil14" d="M4752 6555c26,-83 -33,-126 -96,-164 2,73 16,147 96,164zm-7 -12c5,-22 4,-44 -6,-65 -15,-28 -44,-50 -72,-68 2,35 9,73 30,100 12,17 29,27 48,33z"/>
     <path id="path2874_11" class="fil14" d="M4735 6600c-11,-86 -83,-102 -156,-110 33,66 76,127 156,110zm-12 -8c-5,-22 -14,-42 -32,-57 -25,-20 -61,-28 -94,-32 17,31 39,63 69,79 18,10 37,12 57,10z"/>
     <path id="path2856_12" class="fil14" d="M4921 6617c-20,-85 -94,-92 -167,-93 40,62 89,118 167,93zm-13 -7c-7,-22 -18,-40 -38,-53 -27,-17 -63,-21 -96,-22 19,29 45,58 76,71 19,8 39,8 58,4z"/>
     <path id="path2874_13" class="fil14" d="M4899 6685c-32,-80 -105,-77 -178,-67 48,55 105,104 178,67zm-13 -5c-10,-20 -24,-36 -46,-46 -29,-13 -65,-12 -98,-8 24,25 53,51 86,59 20,5 39,3 58,-5z"/>
    </g>
    <g>
     <path id="path2856_14" class="fil14" d="M5203 5686c-65,58 -130,22 -190,-20 68,-27 140,-45 190,20zm-15 -1c-18,13 -38,22 -61,21 -32,-1 -64,-19 -92,-37 33,-12 71,-22 104,-15 20,5 36,16 49,31z"/>
     <path id="path2874_15" class="fil14" d="M5231 5633c-78,38 -130,-14 -177,-71 73,-8 147,-5 177,71zm-14 -5c-20,8 -42,11 -64,3 -31,-9 -57,-35 -78,-60 34,-3 73,-2 103,14 18,10 31,25 39,43z"/>
     <path id="path2856_16" class="fil14" d="M5359 5796c-82,29 -128,-29 -168,-90 73,0 147,11 168,90zm-13 -7c-22,6 -43,6 -65,-4 -29,-13 -52,-41 -71,-68 35,1 74,6 101,25 17,12 28,28 35,47z"/>
     <path id="path2874_17" class="fil14" d="M5405 5757c-87,6 -116,-62 -137,-132 70,20 138,50 137,132zm-10 -10c-23,0 -44,-6 -62,-21 -24,-20 -39,-54 -49,-85 33,10 69,25 90,52 13,16 19,34 21,54z"/>
     <path id="path2856_18" class="fil14" d="M5468 5957c-87,-3 -109,-73 -124,-145 68,26 133,64 124,145zm-10 -11c-22,-3 -42,-10 -59,-27 -22,-23 -33,-58 -41,-90 32,14 67,32 85,61 12,17 16,36 15,56z"/>
     <path id="path2874_19" class="fil14" d="M5525 5937c-83,-26 -85,-99 -80,-172 58,43 111,97 80,172zm-6 -13c-21,-8 -38,-21 -50,-42 -15,-27 -16,-64 -15,-97 27,22 55,49 66,81 6,20 5,39 -1,58z"/>
     <path id="path2856_20" class="fil14" d="M5490 6131c-77,-39 -68,-112 -52,-183 51,52 95,113 52,183zm-4 -14c-19,-11 -34,-27 -42,-49 -11,-30 -6,-66 0,-99 24,26 47,58 52,91 3,20 -1,40 -10,57z"/>
     <path id="path2874_21" class="fil14" d="M5550 6138c-64,-59 -35,-126 0,-190 35,64 60,134 0,190zm0 -15c-15,-16 -26,-35 -27,-58 -3,-32 12,-66 27,-95 15,31 29,67 25,101 -2,20 -11,38 -25,52z"/>
     <path id="path2856_22" class="fil14" d="M5460 6310c-66,-56 -41,-125 -8,-190 37,62 65,131 8,190zm-1 -15c-16,-15 -27,-34 -30,-57 -3,-32 10,-67 24,-97 17,31 32,67 29,101 -2,20 -10,38 -23,53z"/>
     <path id="path2874_23" class="fil14" d="M5525 6325c-54,-68 -15,-130 31,-187 23,69 36,142 -31,187zm2 -14c-13,-18 -20,-39 -18,-62 3,-32 23,-63 43,-90 10,34 18,72 8,105 -6,19 -17,35 -33,47z"/>
     <path id="path2856_24" class="fil14" d="M5381 6450c-44,-76 4,-131 57,-182 13,72 16,146 -57,182zm4 -14c-10,-20 -14,-42 -9,-65 8,-31 32,-59 55,-82 5,34 8,73 -7,104 -8,19 -22,33 -39,43z"/>
     <path id="path2874_25" class="fil14" d="M5419 6489c-16,-85 47,-122 114,-152 -11,72 -33,143 -114,152zm9 -12c-3,-22 0,-43 13,-63 17,-27 49,-46 79,-60 -7,34 -17,72 -41,96 -14,15 -32,24 -51,27z"/>
     <path id="path2856_26" class="fil14" d="M5271 6555c-26,-83 33,-126 96,-164 -3,73 -17,147 -96,164zm7 -12c-5,-22 -4,-44 6,-65 14,-28 44,-50 72,-68 -3,35 -9,73 -30,100 -12,17 -29,27 -48,33z"/>
     <path id="path2874_27" class="fil14" d="M5288 6600c11,-86 83,-102 156,-110 -33,66 -76,127 -156,110zm12 -8c4,-22 14,-42 32,-57 25,-20 61,-28 94,-32 -17,31 -39,63 -69,79 -18,10 -37,12 -57,10z"/>
     <path id="path2856_28" class="fil14" d="M5102 6617c20,-85 93,-92 166,-93 -39,62 -88,118 -166,93zm13 -7c6,-22 18,-40 38,-53 26,-17 63,-21 96,-22 -20,29 -45,58 -76,71 -19,8 -39,8 -58,4z"/>
     <path id="path2874_29" class="fil14" d="M5123 6685c33,-80 106,-77 179,-67 -48,55 -105,104 -179,67zm14 -5c10,-20 24,-36 45,-46 29,-13 66,-12 99,-8 -24,25 -53,51 -86,59 -20,5 -40,3 -58,-5z"/>
    </g>
   </g>
   <path class="fil14" d="M5003 6677c-4,3 -8,5 -11,7 -19,11 -42,21 -63,23l-8 1 -2 -16 8 -1c19,-1 40,-11 57,-20 1,-1 3,-3 5,-4 -18,-15 -34,-36 -31,-59 3,-24 20,-44 45,-44 25,0 42,20 45,44 2,23 -14,44 -32,59 2,1 4,3 6,4 16,9 37,19 56,20l8 1 -2 16 -8 -1c-21,-2 -44,-12 -62,-23 -4,-2 -8,-4 -11,-7zm0 -19c15,-13 31,-31 29,-48 -2,-16 -12,-30 -29,-30 -17,0 -28,14 -30,30 -2,17 14,35 30,48z"/>
  </g>
 </g>
</svg>