<?xml version="1.0" encoding="UTF-8" standalone="no"?>
<!-- Created with Inkscape (http://www.inkscape.org/) -->

<svg
   width="512"
   height="512"
   viewBox="0 0 135.46667 135.46667"
   version="1.1"
   id="svg5"
   xmlns="http://www.w3.org/2000/svg"
   xmlns:svg="http://www.w3.org/2000/svg">
  <defs
     id="defs2" />
  <g
     id="layer1">
    <g
       aria-label="Quiz
Complete"
       id="text2102"
       style="font-weight:bold;font-size:25.7984px;line-height:1.75;font-family:Lato;-inkscape-font-specification:'Lato, Bold';text-align:center;text-anchor:middle;stroke-width:0.644959">
      <path
         d="m 60.354998,43.237755 q 0,1.251223 -0.257984,2.399251 -0.257984,1.13513 -0.748153,2.128369 -0.477271,0.993238 -1.173827,1.831686 -0.696557,0.825549 -1.586602,1.45761 l 4.734007,5.15968 h -2.863623 q -0.619162,0 -1.12223,-0.16769 -0.49017,-0.167689 -0.902944,-0.619161 l -2.734631,-3.018413 q -0.657859,0.180589 -1.354416,0.270883 -0.683658,0.09029 -1.431811,0.09029 -2.115469,0 -3.86976,-0.709456 -1.741392,-0.722355 -2.992615,-1.999376 -1.238323,-1.277021 -1.921981,-3.018413 -0.683657,-1.754291 -0.683657,-3.805264 0,-2.050973 0.683657,-3.792365 0.683658,-1.754291 1.921981,-3.031312 1.251223,-1.277021 2.992615,-1.986477 1.754291,-0.722355 3.86976,-0.722355 2.115469,0 3.856861,0.722355 1.741392,0.722356 2.979715,1.999376 1.238323,1.264122 1.921981,3.018413 0.683657,1.741392 0.683657,3.792365 z m -3.560179,0 q 0,-1.535005 -0.412774,-2.74753 -0.399875,-1.225424 -1.160928,-2.076771 -0.761053,-0.851347 -1.857485,-1.302819 -1.083533,-0.451472 -2.450848,-0.451472 -1.367315,0 -2.463748,0.451472 -1.096432,0.451472 -1.870384,1.302819 -0.761052,0.851347 -1.173827,2.076771 -0.412774,1.212525 -0.412774,2.74753 0,1.535005 0.412774,2.760429 0.412775,1.212525 1.173827,2.063872 0.773952,0.838448 1.870384,1.28992 1.096433,0.451472 2.463748,0.451472 1.367315,0 2.450848,-0.451472 1.096432,-0.451472 1.857485,-1.28992 0.761053,-0.851347 1.160928,-2.063872 0.412774,-1.225424 0.412774,-2.760429 z"
         id="path3753" />
      <path
         d="m 65.824247,39.329297 v 8.410279 q 0,1.212525 0.554665,1.883283 0.567565,0.65786 1.689796,0.65786 0.825548,0 1.547904,-0.361178 0.722355,-0.374077 1.367315,-1.019037 v -9.571207 h 3.186102 v 13.23458 H 72.22225 q -0.619162,0 -0.81265,-0.580464 l -0.219286,-1.057734 q -0.412774,0.412774 -0.851347,0.761052 -0.438573,0.33538 -0.941642,0.580464 -0.490169,0.232186 -1.070633,0.361178 -0.567565,0.141891 -1.225424,0.141891 -1.083533,0 -1.921981,-0.361177 -0.825549,-0.374077 -1.393114,-1.044836 -0.567565,-0.670758 -0.864246,-1.586601 -0.283783,-0.928743 -0.283783,-2.038074 v -8.410279 z"
         id="path3755" />
      <path
         d="m 80.967872,39.329297 v 13.23458 H 77.78177 v -13.23458 z m 0.477271,-3.85686 q 0,0.412774 -0.16769,0.773952 -0.16769,0.361177 -0.451472,0.63206 -0.270883,0.270884 -0.64496,0.438573 -0.374077,0.154791 -0.79975,0.154791 -0.412775,0 -0.786852,-0.154791 -0.361177,-0.167689 -0.63206,-0.438573 -0.270884,-0.270883 -0.438573,-0.63206 -0.154791,-0.361178 -0.154791,-0.773952 0,-0.425674 0.154791,-0.799751 0.167689,-0.374077 0.438573,-0.64496 0.270883,-0.270883 0.63206,-0.425674 0.374077,-0.167689 0.786852,-0.167689 0.425673,0 0.79975,0.167689 0.374077,0.154791 0.64496,0.425674 0.283782,0.270883 0.451472,0.64496 0.16769,0.374077 0.16769,0.799751 z"
         id="path3757" />
      <path
         d="m 94.137953,40.645016 q 0,0.335379 -0.128992,0.657859 -0.116093,0.309581 -0.283783,0.528867 l -6.294809,8.281287 h 6.526995 v 2.450848 H 83.728298 v -1.328618 q 0,-0.219286 0.103194,-0.515968 0.103193,-0.30958 0.32248,-0.580464 l 6.346406,-8.371581 h -6.398003 v -2.437949 h 10.035578 z"
         id="path3759" />
      <path
         d="m 26.069005,93.312451 q 0.283783,0 0.49017,0.219287 l 1.367315,1.483408 q -1.135129,1.406013 -2.799126,2.154166 -1.651098,0.748154 -3.972954,0.748154 -2.076771,0 -3.740768,-0.709456 -1.651098,-0.709456 -2.824925,-1.973578 -1.173827,-1.264121 -1.805888,-3.018413 -0.619162,-1.754291 -0.619162,-3.831062 0,-2.10257 0.696557,-3.843962 0.696557,-1.754291 1.960679,-3.018413 1.264121,-1.264122 3.018413,-1.960678 1.76719,-0.709456 3.895558,-0.709456 2.076771,0 3.624675,0.670758 1.560804,0.657859 2.670135,1.754291 l -1.160928,1.6124 q -0.103194,0.154791 -0.270883,0.270884 -0.154791,0.116092 -0.438573,0.116092 -0.296682,0 -0.606263,-0.232185 -0.30958,-0.232186 -0.786851,-0.503069 -0.47727,-0.270883 -1.212525,-0.503069 -0.722355,-0.232185 -1.844585,-0.232185 -1.315719,0 -2.42505,0.464371 -1.096432,0.451472 -1.896182,1.302819 -0.786852,0.851347 -1.238324,2.076771 -0.438573,1.212525 -0.438573,2.734631 0,1.573702 0.438573,2.799126 0.451472,1.225424 1.212525,2.063872 0.761053,0.838448 1.792989,1.28992 1.031936,0.438573 2.218662,0.438573 0.709456,0 1.277021,-0.0774 0.580464,-0.07739 1.057735,-0.245085 0.490169,-0.167689 0.915843,-0.425673 0.438573,-0.270884 0.864246,-0.65786 0.128992,-0.116093 0.270884,-0.180589 0.141891,-0.0774 0.30958,-0.0774 z"
         id="path3761" />
      <path
         d="m 36.014284,84.270112 q 1.483408,0 2.683034,0.47727 1.212525,0.477271 2.063872,1.354416 0.851347,0.877146 1.315718,2.141268 0.464372,1.264121 0.464372,2.824924 0,1.573703 -0.464372,2.837825 -0.464371,1.264121 -1.315718,2.154166 -0.851347,0.890045 -2.063872,1.367315 -1.199626,0.477271 -2.683034,0.477271 -1.483408,0 -2.695933,-0.477271 -1.212525,-0.47727 -2.076771,-1.367315 -0.851347,-0.890045 -1.328618,-2.154166 -0.464371,-1.264122 -0.464371,-2.837825 0,-1.560803 0.464371,-2.824924 0.477271,-1.264122 1.328618,-2.141268 0.864246,-0.877145 2.076771,-1.354416 1.212525,-0.47727 2.695933,-0.47727 z m 0,11.183607 q 1.651098,0 2.437949,-1.109332 0.79975,-1.109331 0.79975,-3.250598 0,-2.141267 -0.79975,-3.263498 -0.786851,-1.12223 -2.437949,-1.12223 -1.676896,0 -2.476646,1.135129 -0.799751,1.122231 -0.799751,3.250599 0,2.128368 0.799751,3.250598 0.79975,1.109332 2.476646,1.109332 z"
         id="path3763" />
      <path
         d="m 45.030789,97.711079 v -13.23458 h 1.94778 q 0.619161,0 0.812649,0.580464 l 0.206388,0.980339 q 0.348278,-0.386976 0.722355,-0.709456 0.386976,-0.32248 0.812649,-0.554665 0.438573,-0.232186 0.928743,-0.361178 0.503069,-0.141891 1.096432,-0.141891 1.251222,0 2.050973,0.683657 0.812649,0.670759 1.212525,1.792989 0.30958,-0.657859 0.773952,-1.12223 0.464371,-0.477271 1.019036,-0.773952 0.554666,-0.296682 1.173828,-0.438573 0.632061,-0.141891 1.264121,-0.141891 1.096432,0 1.94778,0.335379 0.851347,0.335379 1.431811,0.980339 0.580464,0.64496 0.877145,1.573703 0.309581,0.928742 0.309581,2.128368 v 8.423178 h -3.186102 v -8.423178 q 0,-1.264122 -0.554666,-1.896183 -0.554665,-0.64496 -1.625299,-0.64496 -0.49017,0 -0.915843,0.16769 -0.412775,0.167689 -0.735255,0.490169 -0.309581,0.309581 -0.490169,0.786852 -0.180589,0.47727 -0.180589,1.096432 v 8.423178 h -3.199002 v -8.423178 q 0,-1.328618 -0.541766,-1.93488 -0.528868,-0.606263 -1.573703,-0.606263 -0.683657,0 -1.28992,0.348279 -0.593363,0.335379 -1.109331,0.928742 v 9.6873 z"
         id="path3765" />
      <path
         d="M 66.75302,102.03231 V 84.476499 h 1.94778 q 0.30958,0 0.528867,0.141891 0.219286,0.141891 0.283782,0.438573 l 0.257984,1.225424 q 0.799751,-0.915843 1.831687,-1.483408 1.044835,-0.567565 2.437949,-0.567565 1.083532,0 1.973577,0.451472 0.902944,0.451472 1.547904,1.315719 0.65786,0.851347 1.006138,2.115469 0.361178,1.251222 0.361178,2.876521 0,1.483408 -0.399876,2.74753 -0.399875,1.264122 -1.148028,2.192864 -0.735255,0.928742 -1.792989,1.45761 -1.044836,0.515968 -2.347655,0.515968 -1.12223,0 -1.909081,-0.33538 -0.773953,-0.348278 -1.393114,-0.95454 v 5.417663 z m 6.191617,-15.285552 q -0.993239,0 -1.702695,0.425674 -0.696557,0.412774 -1.302819,1.173827 v 5.933632 q 0.541766,0.670759 1.173827,0.941642 0.64496,0.257984 1.380215,0.257984 0.722355,0 1.302819,-0.270883 0.593363,-0.270883 0.993238,-0.825549 0.412775,-0.554666 0.632061,-1.393114 0.219286,-0.851347 0.219286,-1.999376 0,-1.160928 -0.193488,-1.960678 -0.180588,-0.81265 -0.528867,-1.315719 -0.348278,-0.503069 -0.851347,-0.735254 -0.49017,-0.232186 -1.12223,-0.232186 z"
         id="path3767" />
      <path
         d="M 84.734461,78.542867 V 97.711079 H 81.548359 V 78.542867 Z"
         id="path3769" />
      <path
         d="m 93.802596,84.270112 q 1.251222,0 2.296058,0.399875 1.057734,0.399875 1.818787,1.173827 0.761053,0.761053 1.186726,1.883284 0.425674,1.109331 0.425674,2.541142 0,0.361178 -0.0387,0.606262 -0.0258,0.232186 -0.116092,0.374077 -0.0774,0.128992 -0.219287,0.193488 -0.141891,0.0516 -0.361177,0.0516 h -8.178094 q 0.141892,2.038074 1.096433,2.992615 0.95454,0.95454 2.528243,0.95454 0.773952,0 1.328617,-0.180588 0.567565,-0.180589 0.98034,-0.399876 0.425673,-0.219286 0.735254,-0.399875 0.32248,-0.180589 0.619162,-0.180589 0.193488,0 0.335379,0.0774 0.141891,0.07739 0.245085,0.219286 l 0.928742,1.160928 q -0.528867,0.619162 -1.186726,1.044835 -0.657859,0.412775 -1.380215,0.670759 -0.709456,0.245084 -1.457609,0.348278 -0.735255,0.103194 -1.431812,0.103194 -1.380214,0 -2.56694,-0.451472 -1.186727,-0.464372 -2.063873,-1.354416 -0.877145,-0.902944 -1.380214,-2.218663 -0.503069,-1.328618 -0.503069,-3.07001 0,-1.354416 0.438573,-2.541142 0.438573,-1.199626 1.251222,-2.076771 0.825549,-0.890045 1.999376,-1.406013 1.186727,-0.515968 2.670135,-0.515968 z m 0.0645,2.283158 q -1.393114,0 -2.179965,0.786851 -0.786851,0.786852 -1.006138,2.231562 h 5.985229 q 0,-0.619161 -0.167689,-1.160928 -0.16769,-0.554665 -0.515968,-0.96744 -0.348279,-0.412774 -0.877146,-0.64496 -0.528867,-0.245085 -1.238323,-0.245085 z"
         id="path3771" />
      <path
         d="m 106.46957,97.917466 q -1.7156,0 -2.64434,-0.96744 -0.92874,-0.980339 -0.92874,-2.695933 v -7.391242 h -1.34152 q -0.25798,0 -0.45147,-0.16769 -0.18059,-0.167689 -0.18059,-0.503068 v -1.264122 l 2.12837,-0.348278 0.67076,-3.611777 q 0.0516,-0.257984 0.23218,-0.399875 0.19349,-0.141891 0.47727,-0.141891 h 1.6511 v 4.166442 h 3.48278 v 2.270259 h -3.48278 v 7.171956 q 0,0.619161 0.30958,0.96744 0.30958,0.348278 0.82555,0.348278 0.29668,0 0.49017,-0.0645 0.20639,-0.07739 0.34828,-0.15479 0.15479,-0.0774 0.27088,-0.141892 0.11609,-0.07739 0.23219,-0.07739 0.14189,0 0.23218,0.07739 0.0903,0.0645 0.19349,0.206388 l 0.95454,1.547904 q -0.69656,0.580464 -1.5995,0.877145 -0.90294,0.296682 -1.87038,0.296682 z"
         id="path3773" />
      <path
         d="m 117.57575,84.270112 q 1.25122,0 2.29606,0.399875 1.05773,0.399875 1.81879,1.173827 0.76105,0.761053 1.18672,1.883284 0.42568,1.109331 0.42568,2.541142 0,0.361178 -0.0387,0.606262 -0.0258,0.232186 -0.11609,0.374077 -0.0774,0.128992 -0.21929,0.193488 -0.14189,0.0516 -0.36118,0.0516 h -8.17809 q 0.14189,2.038074 1.09643,2.992615 0.95454,0.95454 2.52824,0.95454 0.77396,0 1.32862,-0.180588 0.56757,-0.180589 0.98034,-0.399876 0.42567,-0.219286 0.73526,-0.399875 0.32248,-0.180589 0.61916,-0.180589 0.19348,0 0.33538,0.0774 0.14189,0.07739 0.24508,0.219286 l 0.92874,1.160928 q -0.52886,0.619162 -1.18672,1.044835 -0.65786,0.412775 -1.38022,0.670759 -0.70945,0.245084 -1.45761,0.348278 -0.73525,0.103194 -1.43181,0.103194 -1.38021,0 -2.56694,-0.451472 -1.18673,-0.464372 -2.06387,-1.354416 -0.87715,-0.902944 -1.38022,-2.218663 -0.50306,-1.328618 -0.50306,-3.07001 0,-1.354416 0.43857,-2.541142 0.43857,-1.199626 1.25122,-2.076771 0.82555,-0.890045 1.99938,-1.406013 1.18672,-0.515968 2.67013,-0.515968 z m 0.0645,2.283158 q -1.39312,0 -2.17997,0.786851 -0.78685,0.786852 -1.00614,2.231562 h 5.98523 q 0,-0.619161 -0.16769,-1.160928 -0.16769,-0.554665 -0.51596,-0.96744 -0.34828,-0.412774 -0.87715,-0.64496 -0.52887,-0.245085 -1.23832,-0.245085 z"
         id="path3775" />
    </g>
    <g
       id="g3152">
      <rect
         style="fill:#003399;fill-opacity:1;stroke-width:0.928879;stroke-linecap:round;stroke-linejoin:round;paint-order:markers fill stroke;stop-color:#000000"
         id="rect2934"
         width="8.4666672"
         height="8.4666672"
         x="0"
         y="127.00001" />
      <rect
         style="fill:#003399;fill-opacity:1;stroke-width:0.928879;stroke-linecap:round;stroke-linejoin:round;paint-order:markers fill stroke;stop-color:#000000"
         id="rect3106"
         width="8.4666672"
         height="8.4666672"
         x="8.4666672"
         y="118.53334" />
      <rect
         style="fill:#003399;fill-opacity:1;stroke-width:0.928879;stroke-linecap:round;stroke-linejoin:round;paint-order:markers fill stroke;stop-color:#000000"
         id="rect3108"
         width="8.4666672"
         height="8.4666672"
         x="16.933334"
         y="127.00001" />
      <rect
         style="fill:#003399;fill-opacity:1;stroke-width:0.928879;stroke-linecap:round;stroke-linejoin:round;paint-order:markers fill stroke;stop-color:#000000"
         id="rect3110"
         width="8.4666672"
         height="8.4666672"
         x="25.400002"
         y="118.53334" />
      <rect
         style="fill:#003399;fill-opacity:1;stroke-width:0.928879;stroke-linecap:round;stroke-linejoin:round;paint-order:markers fill stroke;stop-color:#000000"
         id="rect3112"
         width="8.4666672"
         height="8.4666672"
         x="33.866669"
         y="127.00001" />
      <rect
         style="fill:#003399;fill-opacity:1;stroke-width:0.928879;stroke-linecap:round;stroke-linejoin:round;paint-order:markers fill stroke;stop-color:#000000"
         id="rect3114"
         width="8.4666672"
         height="8.4666672"
         x="42.333336"
         y="118.53334" />
      <rect
         style="fill:#003399;fill-opacity:1;stroke-width:0.928879;stroke-linecap:round;stroke-linejoin:round;paint-order:markers fill stroke;stop-color:#000000"
         id="rect3116"
         width="8.4666672"
         height="8.4666672"
         x="50.800003"
         y="127.00001" />
      <rect
         style="fill:#003399;fill-opacity:1;stroke-width:0.928879;stroke-linecap:round;stroke-linejoin:round;paint-order:markers fill stroke;stop-color:#000000"
         id="rect3118"
         width="8.4666672"
         height="8.4666672"
         x="59.26667"
         y="118.53334" />
      <rect
         style="fill:#003399;fill-opacity:1;stroke-width:0.928879;stroke-linecap:round;stroke-linejoin:round;paint-order:markers fill stroke;stop-color:#000000"
         id="rect3120"
         width="8.4666672"
         height="8.4666672"
         x="67.733337"
         y="127.00001" />
      <rect
         style="fill:#003399;fill-opacity:1;stroke-width:0.928879;stroke-linecap:round;stroke-linejoin:round;paint-order:markers fill stroke;stop-color:#000000"
         id="rect3122"
         width="8.4666672"
         height="8.4666672"
         x="76.200005"
         y="118.53334" />
      <rect
         style="fill:#003399;fill-opacity:1;stroke-width:0.928879;stroke-linecap:round;stroke-linejoin:round;paint-order:markers fill stroke;stop-color:#000000"
         id="rect3124"
         width="8.4666672"
         height="8.4666672"
         x="84.666672"
         y="127.00001" />
      <rect
         style="fill:#003399;fill-opacity:1;stroke-width:0.928879;stroke-linecap:round;stroke-linejoin:round;paint-order:markers fill stroke;stop-color:#000000"
         id="rect3126"
         width="8.4666672"
         height="8.4666672"
         x="93.133339"
         y="118.53334" />
      <rect
         style="fill:#003399;fill-opacity:1;stroke-width:0.928879;stroke-linecap:round;stroke-linejoin:round;paint-order:markers fill stroke;stop-color:#000000"
         id="rect3128"
         width="8.4666672"
         height="8.4666672"
         x="101.60001"
         y="127.00001" />
      <rect
         style="fill:#003399;fill-opacity:1;stroke-width:0.928879;stroke-linecap:round;stroke-linejoin:round;paint-order:markers fill stroke;stop-color:#000000"
         id="rect3130"
         width="8.4666672"
         height="8.4666672"
         x="110.06668"
         y="118.53334" />
      <rect
         style="fill:#003399;fill-opacity:1;stroke-width:0.928879;stroke-linecap:round;stroke-linejoin:round;paint-order:markers fill stroke;stop-color:#000000"
         id="rect3132"
         width="8.4666672"
         height="8.4666672"
         x="118.53335"
         y="127.00001" />
      <rect
         style="fill:#003399;fill-opacity:1;stroke-width:0.928879;stroke-linecap:round;stroke-linejoin:round;paint-order:markers fill stroke;stop-color:#000000"
         id="rect3134"
         width="8.4666672"
         height="8.4666672"
         x="127.00002"
         y="118.53334" />
    </g>
    <g
       id="g3186"
       transform="rotate(180,67.733345,67.733335)">
      <rect
         style="fill:#003399;fill-opacity:1;stroke-width:0.928879;stroke-linecap:round;stroke-linejoin:round;paint-order:markers fill stroke;stop-color:#000000"
         id="rect3154"
         width="8.4666672"
         height="8.4666672"
         x="0"
         y="127.00001" />
      <rect
         style="fill:#003399;fill-opacity:1;stroke-width:0.928879;stroke-linecap:round;stroke-linejoin:round;paint-order:markers fill stroke;stop-color:#000000"
         id="rect3156"
         width="8.4666672"
         height="8.4666672"
         x="8.4666672"
         y="118.53334" />
      <rect
         style="fill:#003399;fill-opacity:1;stroke-width:0.928879;stroke-linecap:round;stroke-linejoin:round;paint-order:markers fill stroke;stop-color:#000000"
         id="rect3158"
         width="8.4666672"
         height="8.4666672"
         x="16.933334"
         y="127.00001" />
      <rect
         style="fill:#003399;fill-opacity:1;stroke-width:0.928879;stroke-linecap:round;stroke-linejoin:round;paint-order:markers fill stroke;stop-color:#000000"
         id="rect3160"
         width="8.4666672"
         height="8.4666672"
         x="25.400002"
         y="118.53334" />
      <rect
         style="fill:#003399;fill-opacity:1;stroke-width:0.928879;stroke-linecap:round;stroke-linejoin:round;paint-order:markers fill stroke;stop-color:#000000"
         id="rect3162"
         width="8.4666672"
         height="8.4666672"
         x="33.866669"
         y="127.00001" />
      <rect
         style="fill:#003399;fill-opacity:1;stroke-width:0.928879;stroke-linecap:round;stroke-linejoin:round;paint-order:markers fill stroke;stop-color:#000000"
         id="rect3164"
         width="8.4666672"
         height="8.4666672"
         x="42.333336"
         y="118.53334" />
      <rect
         style="fill:#003399;fill-opacity:1;stroke-width:0.928879;stroke-linecap:round;stroke-linejoin:round;paint-order:markers fill stroke;stop-color:#000000"
         id="rect3166"
         width="8.4666672"
         height="8.4666672"
         x="50.800003"
         y="127.00001" />
      <rect
         style="fill:#003399;fill-opacity:1;stroke-width:0.928879;stroke-linecap:round;stroke-linejoin:round;paint-order:markers fill stroke;stop-color:#000000"
         id="rect3168"
         width="8.4666672"
         height="8.4666672"
         x="59.26667"
         y="118.53334" />
      <rect
         style="fill:#003399;fill-opacity:1;stroke-width:0.928879;stroke-linecap:round;stroke-linejoin:round;paint-order:markers fill stroke;stop-color:#000000"
         id="rect3170"
         width="8.4666672"
         height="8.4666672"
         x="67.733337"
         y="127.00001" />
      <rect
         style="fill:#003399;fill-opacity:1;stroke-width:0.928879;stroke-linecap:round;stroke-linejoin:round;paint-order:markers fill stroke;stop-color:#000000"
         id="rect3172"
         width="8.4666672"
         height="8.4666672"
         x="76.200005"
         y="118.53334" />
      <rect
         style="fill:#003399;fill-opacity:1;stroke-width:0.928879;stroke-linecap:round;stroke-linejoin:round;paint-order:markers fill stroke;stop-color:#000000"
         id="rect3174"
         width="8.4666672"
         height="8.4666672"
         x="84.666672"
         y="127.00001" />
      <rect
         style="fill:#003399;fill-opacity:1;stroke-width:0.928879;stroke-linecap:round;stroke-linejoin:round;paint-order:markers fill stroke;stop-color:#000000"
         id="rect3176"
         width="8.4666672"
         height="8.4666672"
         x="93.133339"
         y="118.53334" />
      <rect
         style="fill:#003399;fill-opacity:1;stroke-width:0.928879;stroke-linecap:round;stroke-linejoin:round;paint-order:markers fill stroke;stop-color:#000000"
         id="rect3178"
         width="8.4666672"
         height="8.4666672"
         x="101.60001"
         y="127.00001" />
      <rect
         style="fill:#003399;fill-opacity:1;stroke-width:0.928879;stroke-linecap:round;stroke-linejoin:round;paint-order:markers fill stroke;stop-color:#000000"
         id="rect3180"
         width="8.4666672"
         height="8.4666672"
         x="110.06668"
         y="118.53334" />
      <rect
         style="fill:#003399;fill-opacity:1;stroke-width:0.928879;stroke-linecap:round;stroke-linejoin:round;paint-order:markers fill stroke;stop-color:#000000"
         id="rect3182"
         width="8.4666672"
         height="8.4666672"
         x="118.53335"
         y="127.00001" />
      <rect
         style="fill:#003399;fill-opacity:1;stroke-width:0.928879;stroke-linecap:round;stroke-linejoin:round;paint-order:markers fill stroke;stop-color:#000000"
         id="rect3184"
         width="8.4666672"
         height="8.4666672"
         x="127.00002"
         y="118.53334" />
    </g>
    <rect
       style="fill:#003399;fill-opacity:1;stroke-width:0;stroke-linecap:round;stroke-linejoin:round;paint-order:markers fill stroke;stop-color:#000000"
       id="rect3591"
       width="5.291667"
       height="0"
       x="-189.65898"
       y="33.945244"
       transform="scale(-1,1)" />
  </g>
</svg>
