<?xml version="1.0" encoding="UTF-8"?>
<!-- Generator: Adobe Illustrator 15.1.0, SVG Export Plug-In . SVG Version: 6.00 Build 0)  -->
<!DOCTYPE svg PUBLIC "-//W3C//DTD SVG 1.1//EN" "http://www.w3.org/Graphics/SVG/1.1/DTD/svg11.dtd">
<svg version="1.1" id="Layer_2" xmlns="http://www.w3.org/2000/svg" xmlns:xlink="http://www.w3.org/1999/xlink" x="0px" y="0px" width="172.75px" height="262.75px" viewBox="0 0 172.75 262.75" enable-background="new 0 0 172.75 262.75" xml:space="preserve">
<g>
	<rect x="0.5" y="0.5" stroke="#000000" stroke-miterlimit="10" width="171.75" height="261.75"/>
	<g>
		<path fill="#FDFF00" stroke="#000000" stroke-miterlimit="10" d="M121.946,183c4.583-6.818,7.262-15.02,7.262-23.834    c0-23.618-19.215-42.833-42.833-42.833s-42.833,19.215-42.833,42.833c0,8.814,2.679,17.016,7.262,23.834H0.5v19h171.75v-19    H121.946z M62.542,159.166c0-13.141,10.691-23.833,23.833-23.833s23.833,10.692,23.833,23.833    c0,13.143-10.691,23.834-23.833,23.834S62.542,172.309,62.542,159.166z"/>
		<path fill="none" stroke="#000000" stroke-miterlimit="10" d="M86.5,202c-23.618,0-42.833-19.215-42.833-42.834"/>
		<line fill="none" stroke="#000000" stroke-miterlimit="10" x1="121.946" y1="183" x2="86.375" y2="183"/>
	</g>
	<rect x="0.5" y="225.667" fill="#FDFF00" stroke="#000000" stroke-miterlimit="10" width="171.75" height="19"/>
	<rect x="0.5" y="209.167" fill="#FDFF00" stroke="#000000" stroke-miterlimit="10" width="171.75" height="9.666"/>
</g>
</svg>