<?xml version="1.0" encoding="UTF-8"?>
<!-- Generator: Adobe Illustrator 15.1.0, SVG Export Plug-In . SVG Version: 6.00 Build 0)  -->
<!DOCTYPE svg PUBLIC "-//W3C//DTD SVG 1.1//EN" "http://www.w3.org/Graphics/SVG/1.1/DTD/svg11.dtd">
<svg version="1.1" id="Layer_2" xmlns="http://www.w3.org/2000/svg" xmlns:xlink="http://www.w3.org/1999/xlink" x="0px" y="0px" width="172.75px" height="262.75px" viewBox="413.5 368.5 172.75 262.75" enable-background="new 413.5 368.5 172.75 262.75" xml:space="preserve">
<g>
	<rect x="414" y="369" stroke="#000000" stroke-miterlimit="10" width="171.75" height="261.75"/>
	<rect x="414" y="562.5" fill="#FDFF00" stroke="#000000" stroke-miterlimit="10" width="171.75" height="19"/>
	<rect x="414" y="594.167" fill="#FDFF00" stroke="#000000" stroke-miterlimit="10" width="171.75" height="19"/>
	<path fill="#FDFF00" stroke="#000000" stroke-miterlimit="10" d="M535.446,530.5c4.583-6.818,7.262-15.019,7.262-23.833   c0-23.619-19.215-42.833-42.833-42.833s-42.833,19.215-42.833,42.833c0,8.814,2.679,17.015,7.262,23.833H414v19h171.75v-19H535.446   z M476.042,506.667c0-13.142,10.691-23.833,23.833-23.833s23.833,10.692,23.833,23.833S513.017,530.5,499.875,530.5   S476.042,519.809,476.042,506.667z"/>
	<path fill="none" stroke="#000000" stroke-miterlimit="10" d="M500,549.5c-23.618,0-42.833-19.215-42.833-42.833"/>
	<line fill="none" stroke="#000000" stroke-miterlimit="10" x1="535.446" y1="530.5" x2="499.875" y2="530.5"/>
</g>
</svg>