<?xml version="1.0" encoding="UTF-8"?>
<!DOCTYPE svg PUBLIC "-//W3C//DTD SVG 1.1//EN" "http://www.w3.org/Graphics/SVG/1.1/DTD/svg11.dtd">
<!-- Creator: CorelDRAW X8 -->
<svg xmlns="http://www.w3.org/2000/svg" xml:space="preserve" width="39.8639mm" height="62.5556mm" version="1.1" style="shape-rendering:geometricPrecision; text-rendering:geometricPrecision; image-rendering:optimizeQuality; fill-rule:evenodd; clip-rule:evenodd" viewBox="0 0 40563 63652" xmlns:xlink="http://www.w3.org/1999/xlink">
 <defs>
  <style type="text/css">
   <![CDATA[
    .fil1 {fill:#EBECEC}
    .fil0 {fill:#2B2A29}
    .fil2 {fill:#EBECEC;fill-rule:nonzero}
   ]]>
  </style>
 </defs>
 <g id="svg2">
  <metadata id="CorelCorpID_0Corel-Layer"/>
  <polygon class="fil0" points="35506,0 40563,63652 20281,63652 0,63652 5056,0 "/>
  <g id="_1651679374336">
   <path class="fil1" d="M20281 27294c2313,-3149 4723,-6111 9846,-6111l0 2124c-3828,0 -7074,2524 -8926,5729l-920 1593 -920 -1593c-1851,-3205 -5097,-5729 -8925,-5729l0 -2124c5122,0 7532,2962 9845,6111z"/>
   <path class="fil1" d="M20281 23129c2313,-3149 4723,-6111 9846,-6111l0 2124c-3828,0 -7074,2524 -8926,5729l-920 1593 -920 -1593c-1851,-3205 -5097,-5729 -8925,-5729l0 -2124c5122,0 7532,2962 9845,6111z"/>
   <path class="fil1" d="M20281 18964c2313,-3149 4723,-6111 9846,-6111l0 2124c-3828,0 -7074,2524 -8926,5729l-920 1593 -920 -1593c-1851,-3205 -5097,-5729 -8925,-5729l0 -2124c5122,0 7532,2962 9845,6111z"/>
  </g>
  <path class="fil2" d="M16114 59923l2326 -7081 -1773 0c-693,0 -1214,90 -1563,271 -244,125 -444,362 -605,711l-240 0 619 -2649 5102 0 -2873 8748 -993 0z"/>
  <path id="1" class="fil2" d="M20682 59923l0 -181c698,-159 1290,-396 1775,-708 484,-312 870,-698 1154,-1157 282,-461 480,-988 595,-1587 -261,131 -483,222 -666,274 -183,51 -377,77 -577,77 -648,0 -1189,-233 -1620,-698 -433,-467 -648,-1105 -648,-1914 0,-563 116,-1077 349,-1547 232,-467 566,-829 997,-1088 433,-258 881,-387 1348,-387 498,0 972,142 1415,428 446,287 799,702 1064,1245 265,543 397,1161 397,1857 0,900 -216,1764 -644,2589 -431,825 -1071,1488 -1922,1985 -850,500 -1856,769 -3017,812zm3618 -4156c35,-472 52,-886 52,-1245 0,-767 -88,-1480 -263,-2141 -101,-366 -250,-635 -446,-810 -103,-93 -239,-138 -407,-138 -209,0 -370,91 -489,272 -161,247 -243,721 -243,1421 0,1167 138,1971 416,2412 181,287 424,431 732,431 164,0 379,-67 648,-202z"/>
  <path class="fil2" d="M13648 41528l0 2148c0,410 25,670 76,775 50,108 140,192 266,255 129,63 366,96 715,96l0 195 -3894 0 0 -195c352,0 591,-33 716,-98 126,-65 214,-151 264,-254 51,-106 76,-364 76,-774l0 -4974c0,-411 -25,-670 -76,-775 -50,-107 -140,-192 -266,-255 -129,-63 -366,-95 -714,-95l0 -196 3537 0c921,0 1593,63 2020,192 427,126 776,362 1045,706 270,343 404,745 404,1206 0,561 -202,1026 -606,1394 -259,234 -621,408 -1086,523l1825 2578c241,332 413,538 515,621 153,115 333,178 536,189l0 207 -2397 0 -2457 -3469 -499 0zm0 -3722l0 3320 320 0c520,0 911,-48 1169,-142 259,-95 462,-268 609,-515 147,-247 222,-570 222,-968 0,-578 -136,-1005 -408,-1281 -272,-276 -708,-414 -1311,-414l-601 0z"/>
  <path id="1" class="fil2" d="M29873 37381l0 196c-142,11 -262,51 -360,120 -98,71 -184,176 -260,318 -22,46 -138,337 -349,873l-2383 6281 -205 0 -1884 -4956 -2087 4956 -199 0 -2512 -6216c-254,-630 -430,-1013 -532,-1145 -101,-132 -272,-208 -511,-231l0 -196 3299 0 0 196c-267,7 -443,47 -531,122 -88,73 -132,165 -132,274 0,143 92,448 276,913l1491 3695 1208 -2918 -302 -786c-173,-443 -305,-740 -398,-887 -94,-147 -201,-255 -324,-318 -121,-63 -299,-95 -534,-95l0 -196 3656 0 0 196c-256,3 -442,24 -555,63 -78,25 -139,71 -184,132 -45,63 -67,134 -67,212 0,88 83,355 251,801l1384 3605 1239 -3263c130,-339 211,-570 241,-697 31,-124 44,-239 44,-344 0,-155 -51,-276 -157,-366 -103,-88 -304,-136 -599,-143l0 -196 1976 0z"/>
 </g>
</svg>