<?xml version="1.0" encoding="UTF-8"?>
<!DOCTYPE svg PUBLIC "-//W3C//DTD SVG 1.1//EN" "http://www.w3.org/Graphics/SVG/1.1/DTD/svg11.dtd">
<!-- Creator: CorelDRAW X8 -->
<!-- Height used to be 64.7556mm -->
<svg xmlns="http://www.w3.org/2000/svg" xml:space="preserve" width="39.8639mm" height="62.5556mm" version="1.1" style="shape-rendering:geometricPrecision; text-rendering:geometricPrecision; image-rendering:optimizeQuality; fill-rule:evenodd; clip-rule:evenodd" viewBox="0 0 294 477" xmlns:xlink="http://www.w3.org/1999/xlink">
 <defs>
  <style type="text/css">
   <![CDATA[
    .str0 {stroke:#666766;stroke-width:0.380218}
    .str3 {stroke:#806729;stroke-width:0.380218}
    .str4 {stroke:#C5C6C6;stroke-width:0.5718}
    .str2 {stroke:#433185;stroke-width:0.781067}
    .str7 {stroke:#806729;stroke-width:0.430324}
    .str6 {stroke:#C5C6C6;stroke-width:0.519483}
    .str5 {stroke:#806729;stroke-width:0.372849}
    .str1 {stroke:#C5C6C6;stroke-width:0.561484}
    .fil5 {fill:none}
    .fil6 {fill:#C5C6C6}
    .fil10 {fill:#B2B3B3}
    .fil8 {fill:#9D9E9E}
    .fil7 {fill:#898989}
    .fil11 {fill:#727271}
    .fil0 {fill:#2B2A29}
    .fil9 {fill:#CCCCCB}
    .fil4 {fill:#EBEBEB}
    .fil3 {fill:white}
    .fil1 {fill:#EBECEC;fill-rule:nonzero}
    .fil2 {fill:#B2B3B3;fill-rule:nonzero}
   ]]>
  </style>
 </defs>
 <g id="svg2">
  <metadata id="CorelCorpID_0Corel-Layer"/>
  <polygon class="fil0" points="257,0 294,461 147,461 0,461 37,0 "/>
  <path class="fil1" d="M81 383l24 0 -4 10 -20 0 -2 5c9,1 15,3 20,7 4,3 6,7 6,12 0,3 -1,7 -3,10 -2,3 -4,5 -7,7 -4,1 -7,2 -11,2 -4,0 -8,-1 -10,-2 -2,-1 -2,-3 -2,-4 0,-1 0,-2 1,-3 1,-1 2,-1 3,-1 1,0 2,0 3,0 1,1 3,2 5,4 2,1 3,1 4,2 1,0 2,0 3,0 2,0 4,-1 5,-2 1,-2 2,-3 2,-6 0,-4 -2,-8 -7,-11 -4,-2 -10,-4 -16,-4 -1,0 -2,0 -4,0l10 -26z"/>
  <path id="1" class="fil1" d="M133 382l0 42c0,4 0,6 1,7 0,0 1,1 1,2 1,0 3,1 5,1l1 0 0 1 -27 0 0 -1 1 0c2,0 4,-1 5,-1 1,-1 1,-1 2,-2 0,-1 0,-3 0,-7l0 -26c0,-3 0,-4 0,-5 0,0 -1,-1 -1,-1 -1,-1 -2,-1 -3,-1 -1,0 -2,0 -4,1l-1 -1 19 -9 1 0z"/>
  <path id="2" class="fil1" d="M183 409c0,5 -1,10 -2,15 -1,2 -2,5 -4,6 -1,2 -3,3 -5,4 -1,2 -4,2 -6,2 -2,0 -4,-1 -6,-2 -2,-1 -4,-3 -6,-5 -1,-2 -2,-4 -3,-7 -1,-4 -1,-8 -1,-12 0,-6 0,-11 2,-16 1,-4 3,-7 6,-9 3,-2 5,-3 8,-3 3,0 6,1 9,3 2,2 4,5 5,9 2,4 3,9 3,15zm-12 0c0,-9 0,-14 0,-16 0,-3 -1,-6 -2,-7 0,-1 -1,-1 -3,-1 -1,0 -2,0 -2,1 -1,1 -2,2 -2,4 -1,3 -1,11 -1,24 0,7 0,12 1,15 0,1 1,3 2,3 0,1 1,1 2,1 2,0 3,0 3,-1 1,-1 2,-4 2,-7l0 -16z"/>
  <path id="3" class="fil1" d="M222 409c0,5 -1,10 -2,15 -1,2 -2,5 -4,6 -1,2 -3,3 -5,4 -1,2 -4,2 -6,2 -2,0 -4,-1 -6,-2 -2,-1 -4,-3 -6,-5 -1,-2 -2,-4 -3,-7 -1,-4 -1,-8 -1,-12 0,-6 0,-11 2,-16 1,-4 3,-7 6,-9 3,-2 5,-3 8,-3 3,0 6,1 9,3 2,2 4,5 5,9 2,4 3,9 3,15zm-12 0c0,-9 0,-14 0,-16 0,-3 -1,-6 -2,-7 0,-1 -1,-1 -3,-1 -1,0 -2,0 -2,1 -1,1 -2,2 -2,4 -1,3 -1,11 -1,24 0,7 0,12 1,15 0,1 1,3 2,3 0,1 1,1 2,1 2,0 3,0 3,-1 1,-1 2,-4 2,-7l0 -16z"/>
  <path class="fil1" d="M119 306l18 22c2,4 5,6 6,7 2,1 3,1 5,1l0 1 -27 0 0 -1c2,0 3,0 3,-1 1,0 1,-1 1,-1 0,-1 -1,-3 -4,-6l-11 -15 -2 1 0 15c0,2 0,4 0,5 0,0 1,1 2,1 1,1 2,1 4,1l0 1 -26 0 0 -1 2 0c1,0 2,0 3,-1 1,0 1,-1 2,-2 0,0 0,-2 0,-4l0 -34c0,-3 0,-5 0,-5 0,-1 -1,-2 -2,-2 -1,-1 -2,-1 -3,-1l-2 0 0 -1 26 0 0 1c-2,0 -3,0 -4,1 -1,0 -2,1 -2,2 0,0 0,2 0,5l0 16 19 -16c3,-2 4,-4 4,-5 0,-1 -1,-2 -2,-2 0,-1 -2,-1 -4,-1l0 -1 20 0 0 1c-2,0 -3,1 -4,1 -1,1 -3,2 -7,5l-15 13z"/>
  <path id="1" class="fil1" d="M201 285l0 18 -2 0c-1,-5 -4,-9 -7,-12 -4,-2 -7,-3 -11,-3 -4,0 -8,1 -10,3 -3,2 -5,5 -6,9 -1,4 -1,8 -1,12 0,5 0,9 2,13 1,4 3,6 5,8 3,2 6,3 9,3 2,0 3,0 4,-1 2,0 3,0 4,-1l0 -11c0,-2 0,-3 0,-4 0,0 -1,-1 -2,-1 -1,-1 -2,-1 -3,-1l-1 0 0 -1 25 0 0 1c-2,0 -3,0 -4,1 -1,0 -2,1 -2,2 0,0 0,2 0,3l0 11c-4,2 -7,3 -11,3 -3,1 -7,2 -11,2 -5,0 -9,-1 -12,-2 -3,-2 -6,-3 -8,-6 -3,-2 -5,-4 -6,-7 -2,-3 -3,-7 -3,-12 0,-8 3,-14 8,-19 6,-6 13,-8 21,-8 2,0 5,0 7,0 1,0 3,1 5,2 3,1 4,1 5,1 0,0 1,0 2,0 0,-1 1,-2 1,-3l2 0z"/>
  <g id="_1648109680624">
   <g>
    <path class="fil2" d="M178 104l0 14 -1 0c0,-3 -2,-6 -4,-8 -2,-2 -4,-3 -6,-3 -2,0 -4,1 -6,2 -1,2 -3,3 -3,6 -1,3 -2,6 -2,10 0,3 1,7 1,10 1,2 2,5 4,6 1,2 3,2 6,2 2,0 4,0 5,-1 2,-1 4,-3 6,-6l0 4c-2,2 -4,4 -6,5 -2,1 -4,1 -7,1 -3,0 -6,-1 -9,-2 -3,-2 -5,-5 -6,-8 -2,-3 -2,-6 -2,-10 0,-4 0,-7 2,-11 2,-3 4,-6 7,-8 2,-2 5,-3 8,-3 3,0 5,1 7,2 2,1 3,1 3,1 1,0 1,0 2,0 0,-1 0,-2 0,-3l1 0z"/>
    <path class="fil2" d="M140 104l0 14 -1 0c-1,-4 -2,-6 -4,-8 -2,-2 -5,-3 -7,-3 -2,0 -4,0 -5,1 -1,1 -2,2 -2,4 0,1 0,2 1,2 0,1 1,2 2,3 1,1 4,2 7,3 5,3 8,5 9,7 2,2 3,4 3,7 0,3 -2,6 -4,9 -3,2 -6,3 -10,3 -1,0 -3,0 -4,0 -1,-1 -2,-1 -4,-2 -1,0 -2,0 -2,0 -1,0 -1,0 -2,0 0,1 -1,1 -1,2l-1 0 0 -15 1 0c1,4 2,8 5,10 2,2 5,3 8,3 2,0 4,-1 5,-2 1,-1 2,-2 2,-4 0,-1 0,-2 -1,-3 0,-1 -1,-1 -2,-2 -1,-1 -3,-2 -5,-3 -4,-2 -7,-4 -8,-5 -2,-1 -3,-2 -4,-4 -1,-2 -1,-3 -1,-5 0,-3 1,-6 3,-8 3,-3 6,-4 9,-4 1,0 3,0 4,1 1,0 2,0 3,1 2,1 3,1 3,1 1,0 1,0 1,0 1,-1 1,-1 1,-3l1 0z"/>
   </g>
   <path class="fil3" d="M132 93c0,0 0,0 0,0 0,0 0,0 0,0 -3,0 -7,1 -9,2 -1,0 -1,0 -1,1 -1,0 -1,1 -1,1 0,1 0,1 1,1 0,1 1,1 1,1 12,-2 30,-3 48,0 0,0 1,0 1,-1 0,0 1,0 1,-1 0,0 0,-1 -1,-1 0,-1 0,-1 -1,-1 0,0 -5,-2 -9,-2 -4,-1 -9,-1 -11,-1 -3,0 -5,0 -8,0 0,0 0,0 0,0 0,0 0,0 0,0 -4,0 -8,-1 -11,1z"/>
   <path class="fil4" d="M121 97c0,1 0,1 1,1 0,1 1,1 1,1 12,-2 30,-3 48,0 0,0 1,0 1,-1 0,0 1,0 1,-1 0,-3 -53,-3 -52,0z"/>
   <path class="fil5 str0" d="M132 93c0,0 0,0 0,0 0,0 0,0 0,0 -3,0 -7,1 -9,2 -1,0 -1,0 -1,1 -1,0 -1,1 -1,1 0,1 0,1 1,1 0,1 1,1 1,1 12,-2 30,-3 48,0 0,0 1,0 1,-1 0,0 1,0 1,-1 0,0 0,-1 -1,-1 0,-1 0,-1 -1,-1 0,0 -5,-2 -9,-2 -4,-1 -9,-1 -11,-1 -3,0 -5,0 -8,0 0,0 0,0 0,0 0,0 0,0 0,0 -4,0 -8,-1 -11,1"/>
   <path class="fil6 str1" d="M149 95c-1,0 -2,0 -2,0 -1,0 -2,-1 -2,-1 0,0 0,1 1,1 -1,0 -1,0 -2,0 1,0 1,1 2,1 -1,0 -1,0 -1,0 0,0 1,0 2,0 0,0 1,-1 2,-1z"/>
   <path class="fil6 str1" d="M130 96c-1,0 -2,0 -3,0 -1,0 -1,0 -2,-1 0,1 1,1 1,1 0,0 -1,0 -1,1 0,0 1,0 1,0 0,0 -1,0 -1,1 1,-1 2,-1 2,-1 1,0 2,-1 3,-1z"/>
   <path class="fil6 str1" d="M169 97c-1,0 -2,0 -3,-1 0,0 -1,0 -1,-1 0,1 0,1 1,1 -1,0 -2,0 -2,0 0,1 1,1 2,1 -1,0 -1,0 -1,1 0,0 1,-1 1,-1 1,0 2,0 3,0z"/>
   <path class="fil6" d="M140 96c-1,-1 -2,-1 -3,-1 -1,0 -1,0 -2,-1 0,1 0,1 1,1 0,0 -1,1 -1,1 0,0 1,0 1,0 0,0 -1,0 -1,1 1,0 1,-1 2,-1 1,0 2,0 3,0z"/>
   <path class="fil6" d="M159 96c-1,0 -2,-1 -3,-1 0,0 -1,0 -2,-1 1,1 1,1 2,1 -1,0 -2,1 -2,1 0,0 1,0 2,0 -1,0 -1,0 -2,1 1,0 2,-1 2,-1 1,0 2,0 3,0z"/>
   <polyline class="fil5 str2" points="167,90 169,85 170,83 172,82 173,77 174,76 174,72 "/>
   <path class="fil7" d="M170 53c2,1 4,2 5,3 2,2 3,4 3,6 1,2 1,3 1,5 -1,3 -2,5 -2,5l-3 0c0,0 2,-4 2,-5 0,-2 0,-3 0,-5 -1,-1 -2,-2 -3,-4 -1,-1 -3,-2 -4,-2 -1,0 -3,0 -4,0 -3,0 -4,1 -7,2 -2,1 -4,1 -5,1 -2,0 -3,0 -4,0 -2,-1 -3,-1 -3,-1l1 -3c0,0 1,0 2,1 2,0 3,0 3,0 2,0 3,0 5,-1 3,0 4,-1 7,-2 2,0 4,0 6,0z"/>
   <path class="fil8" d="M147 56l0 -1c0,0 1,0 2,0 1,1 3,1 3,1 2,0 3,0 5,-1 2,-1 4,-1 7,-2 2,0 4,0 6,0 2,1 4,2 5,3 2,2 3,4 3,6 1,2 1,3 1,5 -1,3 -2,5 -2,5l-2 0c1,-1 2,-3 2,-5 1,-4 0,-7 -2,-9 -2,-2 -6,-4 -9,-4 -4,0 -7,2 -12,3 -2,1 -5,1 -7,-1z"/>
   <line class="fil5 str3" x1="177" y1="72" x2="174" y2="72"/>
   <line class="fil5 str3" x1="146" y1="58" x2="147" y2="55"/>
   <path class="fil4" d="M177 69c0,1 1,2 2,2 1,0 1,-1 1,-2 0,-1 0,-1 -1,-1 -1,0 -2,0 -2,1z"/>
   <path class="fil5 str4" d="M177 69c0,1 1,2 2,2 1,0 1,-1 1,-2 0,-1 0,-1 -1,-1 -1,0 -2,0 -2,1"/>
   <path class="fil4" d="M178 65c0,1 1,2 1,2 1,0 2,-1 2,-2 0,-1 -1,-1 -2,-1 0,0 -1,1 -1,1z"/>
   <path class="fil5 str4" d="M178 65c0,1 1,2 1,2 1,0 2,-1 2,-2 0,-1 -1,-1 -2,-1 0,0 -1,1 -1,1"/>
   <path class="fil4" d="M178 62c0,0 0,1 1,1 1,0 2,-1 2,-1 0,-1 -1,-2 -2,-2 -1,0 -1,1 -1,2z"/>
   <path class="fil5 str4" d="M178 62c0,0 0,1 1,1 1,0 2,-1 2,-1 0,-1 -1,-2 -2,-2 -1,0 -1,1 -1,2"/>
   <path class="fil4" d="M176 58c0,1 1,2 2,2 1,0 1,-1 1,-2 0,-1 0,-2 -1,-2 -1,0 -2,1 -2,2z"/>
   <path class="fil5 str4" d="M176 58c0,1 1,2 2,2 1,0 1,-1 1,-2 0,-1 0,-2 -1,-2 -1,0 -2,1 -2,2"/>
   <path class="fil4" d="M173 55c0,1 1,2 2,2 1,0 2,-1 2,-2 0,-1 -1,-2 -2,-2 -1,0 -2,1 -2,2z"/>
   <path class="fil5 str4" d="M173 55c0,1 1,2 2,2 1,0 2,-1 2,-2 0,-1 -1,-2 -2,-2 -1,0 -2,1 -2,2"/>
   <path class="fil4" d="M170 53c0,1 1,2 2,2 0,0 1,-1 1,-2 0,-1 -1,-1 -1,-1 -1,0 -2,0 -2,1z"/>
   <path class="fil5 str4" d="M170 53c0,1 1,2 2,2 0,0 1,-1 1,-2 0,-1 -1,-1 -1,-1 -1,0 -2,0 -2,1"/>
   <path class="fil4" d="M166 52c0,1 1,2 2,2 0,0 1,-1 1,-2 0,-1 -1,-1 -1,-1 -1,0 -2,0 -2,1z"/>
   <path class="fil5 str4" d="M166 52c0,1 1,2 2,2 0,0 1,-1 1,-2 0,-1 -1,-1 -1,-1 -1,0 -2,0 -2,1"/>
   <path class="fil4" d="M162 52c0,1 1,2 1,2 1,0 2,-1 2,-2 0,-1 -1,-1 -2,-1 0,0 -1,0 -1,1z"/>
   <path class="fil5 str4" d="M162 52c0,1 1,2 1,2 1,0 2,-1 2,-2 0,-1 -1,-1 -2,-1 0,0 -1,0 -1,1"/>
   <path class="fil4" d="M151 55c0,1 0,2 1,2 1,0 2,-1 2,-2 0,-1 -1,-1 -2,-1 -1,0 -1,0 -1,1z"/>
   <path class="fil5 str4" d="M151 55c0,1 1,2 1,2 1,0 2,-1 2,-2 0,-1 -1,-1 -2,-1 0,0 -1,0 -1,1"/>
   <path class="fil4" d="M158 53c0,1 1,2 2,2 0,0 1,-1 1,-2 0,0 0,-1 -1,-1 -1,0 -2,1 -2,1z"/>
   <path class="fil5 str4" d="M158 53c0,1 1,2 2,2 0,0 1,-1 1,-2 0,0 0,-1 -1,-1 -1,0 -2,1 -2,1"/>
   <path class="fil4" d="M154 55c0,0 1,1 2,1 1,0 2,-1 2,-1 0,-1 -1,-2 -2,-2 -1,0 -2,1 -2,2z"/>
   <path class="fil5 str4" d="M154 55c0,0 1,1 2,1 1,0 2,-1 2,-1 0,-1 -1,-2 -2,-2 -1,0 -2,1 -2,2"/>
   <path class="fil7" d="M124 53c-2,1 -4,2 -6,3 -1,2 -2,4 -3,6 0,2 0,3 0,5 0,3 2,5 2,5l3 0c0,0 -2,-4 -2,-5 0,-2 0,-3 0,-5 1,-1 1,-2 2,-4 2,-1 3,-2 5,-2 1,0 3,0 4,0 3,0 4,1 7,2 2,1 3,1 5,1 1,0 3,0 4,0 1,-1 2,-1 2,-1l0 -3c0,0 -2,0 -3,1 -1,0 -2,0 -3,0 -2,0 -3,0 -4,-1 -3,0 -5,-1 -7,-2 -2,0 -4,0 -6,0z"/>
   <path class="fil8" d="M147 56l0 -1c0,0 -1,0 -2,0 -2,1 -3,1 -4,1 -1,0 -3,0 -4,-1 -3,-1 -4,-1 -7,-2 -2,0 -4,0 -6,0 -2,1 -4,2 -6,3 -1,2 -2,4 -3,6 0,2 0,3 0,5 0,3 2,5 2,5l1 0c0,-1 -1,-3 -2,-5 0,-4 1,-7 3,-9 1,-2 5,-4 9,-4 4,0 7,2 12,3 2,1 5,1 7,-1z"/>
   <line class="fil5 str3" x1="117" y1="72" x2="120" y2="72"/>
   <line class="fil5 str3" x1="147" y1="58" x2="147" y2="55"/>
   <path class="fil4" d="M117 69c0,1 -1,2 -2,2 -1,0 -1,-1 -1,-2 0,-1 0,-1 1,-1 1,0 2,0 2,1z"/>
   <path class="fil5 str4" d="M117 69c0,1 -1,2 -2,2 -1,0 -1,-1 -1,-2 0,-1 0,-1 1,-1 1,0 2,0 2,1"/>
   <path class="fil4" d="M116 65c0,1 -1,2 -2,2 -1,0 -1,-1 -1,-2 0,-1 0,-1 1,-1 1,0 2,1 2,1z"/>
   <path class="fil9" d="M113 66l0 1 1 0 0 0 1 0 1 0 0 -1 0 0 0 -1 0 0 -1 -1 0 0c0,0 0,0 0,1 0,0 0,0 0,0 0,0 0,1 0,1 0,0 0,0 -1,0 0,0 0,0 0,0 0,0 -1,0 -1,0z"/>
   <path class="fil5 str4" d="M116 65c0,1 -1,2 -2,2 -1,0 -1,-1 -1,-2 0,-1 0,-1 1,-1 1,0 2,1 2,1"/>
   <path class="fil4" d="M116 62c0,0 -1,1 -2,1 0,0 -1,-1 -1,-1 0,-1 1,-2 1,-2 1,0 2,1 2,2z"/>
   <path class="fil5 str4" d="M116 62c0,0 0,1 -1,1 -1,0 -2,-1 -2,-1 0,-1 1,-2 2,-2 0,0 1,1 1,2"/>
   <path class="fil4" d="M118 58c0,1 -1,2 -2,2 -1,0 -2,-1 -2,-2 0,-1 1,-2 2,-2 1,0 2,1 2,2z"/>
   <path class="fil5 str4" d="M118 58c0,1 -1,2 -2,2 -1,0 -2,-1 -2,-2 0,-1 1,-2 2,-2 1,0 2,1 2,2"/>
   <path class="fil4" d="M120 55c0,1 0,2 -1,2 -1,0 -2,-1 -2,-2 0,-1 1,-2 2,-2 1,0 1,1 1,2z"/>
   <path class="fil5 str4" d="M120 55c0,1 0,2 -1,2 -1,0 -2,-1 -2,-2 0,-1 1,-2 2,-2 1,0 1,1 1,2"/>
   <path class="fil4" d="M124 53c0,1 -1,2 -2,2 -1,0 -1,-1 -1,-2 0,-1 0,-1 1,-1 1,0 2,0 2,1z"/>
   <path class="fil5 str4" d="M124 53c0,1 -1,2 -2,2 0,0 -1,-1 -1,-2 0,-1 0,-1 1,-1 1,0 2,0 2,1"/>
   <path class="fil4" d="M128 52c0,1 -1,2 -2,2 -1,0 -1,-1 -1,-2 0,-1 0,-1 1,-1 1,0 2,0 2,1z"/>
   <path class="fil5 str4" d="M128 52c0,1 -1,2 -2,2 -1,0 -1,-1 -1,-2 0,-1 0,-1 1,-1 1,0 2,0 2,1"/>
   <path class="fil4" d="M132 52c0,1 -1,2 -2,2 -1,0 -1,-1 -1,-2 0,-1 0,-1 1,-1 1,0 2,0 2,1z"/>
   <path class="fil5 str4" d="M132 52c0,1 -1,2 -2,2 -1,0 -1,-1 -1,-2 0,-1 0,-1 1,-1 1,0 2,0 2,1"/>
   <path class="fil4" d="M143 55c0,1 -1,2 -2,2 0,0 -1,-1 -1,-2 0,-1 1,-1 1,-1 1,0 2,0 2,1z"/>
   <path class="fil5 str4" d="M143 55c0,1 -1,2 -2,2 0,0 -1,-1 -1,-2 0,-1 1,-1 1,-1 1,0 2,0 2,1"/>
   <path class="fil4" d="M136 53c0,1 -1,2 -2,2 -1,0 -1,-1 -1,-2 0,0 0,-1 1,-1 1,0 2,1 2,1z"/>
   <path class="fil5 str4" d="M136 53c0,1 -1,2 -2,2 -1,0 -1,-1 -1,-2 0,0 0,-1 1,-1 1,0 2,1 2,1"/>
   <path class="fil4" d="M139 55c0,0 0,1 -1,1 -1,0 -2,-1 -2,-1 0,-1 1,-2 2,-2 1,0 1,1 1,2z"/>
   <path class="fil5 str4" d="M139 55c0,0 0,1 -1,1 -1,0 -2,-1 -2,-1 0,-1 1,-2 2,-2 1,0 1,1 1,2"/>
   <path class="fil10" d="M143 48c1,0 1,-1 1,-1 1,-1 1,-1 1,-2 0,0 -1,0 -2,1 0,0 -1,1 -1,1l0 -7c0,1 1,1 1,2 1,0 2,0 2,0 0,0 0,-1 -1,-2 0,0 -1,0 -1,-1l8 0c-1,1 -1,1 -2,1 0,1 0,2 -1,2 1,0 2,0 2,0 1,-1 1,-1 2,-2l0 7c-1,-1 -1,-1 -2,-1 0,-1 -1,-1 -2,-1 1,1 1,1 1,2 1,0 1,1 2,1l-8 0z"/>
   <path class="fil10" d="M149 44c0,1 -1,1 -2,1 -1,0 -2,0 -2,-1 0,-2 1,-2 2,-2 1,0 2,1 2,2z"/>
   <path class="fil10 str1" d="M151 52c0,3 -2,5 -4,5 -2,0 -4,-2 -4,-5 0,-2 2,-4 4,-4 2,0 4,2 4,4z"/>
   <path class="fil10" d="M145 56l3 0c1,0 2,0 2,1l0 13c0,1 -1,1 -2,1l-3 0c0,0 -1,0 -1,-1l0 -13c0,-1 1,-1 1,-1z"/>
   <path class="fil10" d="M145 56l3 0c1,0 2,0 2,1l0 5 -6 1 0 -6c0,-1 1,-1 1,-1z"/>
   <path class="fil10 str1" d="M145 56l3 0c1,0 2,0 2,1l0 2 -6 1 0 -3c0,-1 1,-1 1,-1z"/>
   <line class="fil5 str3" x1="145" y1="56" x2="148" y2="56"/>
   <line class="fil5 str3" x1="150" y1="57" x2="150" y2="70"/>
   <path class="fil5 str3" d="M150 70c0,1 -1,1 -2,1"/>
   <line class="fil5 str3" x1="148" y1="71" x2="145" y2="71"/>
   <path class="fil5 str3" d="M145 71c0,0 -1,0 -1,-1"/>
   <line class="fil5 str3" x1="144" y1="70" x2="144" y2="57"/>
   <path class="fil8" d="M144 56l0 0c0,0 1,0 1,0l0 15c0,0 -1,0 -1,0 -1,0 -1,0 -1,0l0 -15c0,0 0,0 1,0z"/>
   <path class="fil5 str5" d="M145 71c0,0 -1,0 -1,0 -1,0 -1,0 -1,0"/>
   <path class="fil8" d="M150 56c0,0 1,0 1,0l0 15c0,0 -1,0 -1,0 -1,0 -1,0 -1,0l0 -15c0,0 0,0 1,0z"/>
   <path class="fil5 str5" d="M151 71c0,0 -1,0 -1,0"/>
   <path class="fil5 str5" d="M150 71c-1,0 -1,0 -1,0"/>
   <path class="fil4" d="M148 56c0,1 0,2 -1,2 -1,0 -2,-1 -2,-2 0,-1 1,-1 2,-1 1,0 1,0 1,1z"/>
   <path class="fil5 str4" d="M148 56c0,1 0,2 -1,2 -1,0 -2,-1 -2,-2 0,-1 1,-1 2,-1 1,0 1,0 1,1"/>
   <path class="fil4" d="M148 59c0,1 0,2 -1,2 -1,0 -2,-1 -2,-2 0,-1 1,-1 2,-1 1,0 1,0 1,1z"/>
   <path class="fil5 str4" d="M148 59c0,1 0,2 -1,2 -1,0 -2,-1 -2,-2 0,-1 1,-1 2,-1 1,0 1,0 1,1"/>
   <path class="fil4" d="M148 62c0,1 0,2 -1,2 -1,0 -2,-1 -2,-2 0,-1 1,-1 2,-1 1,0 1,0 1,1z"/>
   <path class="fil5 str4" d="M148 62c0,1 0,2 -1,2 -1,0 -2,-1 -2,-2 0,-1 1,-1 2,-1 1,0 1,0 1,1"/>
   <path class="fil4" d="M148 65c0,1 0,2 -1,2 -1,0 -2,-1 -2,-2 0,-1 1,-1 2,-1 1,0 1,0 1,1z"/>
   <path class="fil5 str4" d="M148 65c0,1 0,2 -1,2 -1,0 -2,-1 -2,-2 0,-1 1,-1 2,-1 1,0 1,0 1,1"/>
   <path class="fil4" d="M148 68c0,1 0,2 -1,2 -1,0 -2,-1 -2,-2 0,-1 1,-1 2,-1 1,0 1,1 1,1z"/>
   <path class="fil5 str4" d="M148 68c0,1 0,2 -1,2 -1,0 -2,-1 -2,-2 0,-1 1,-1 2,-1 1,0 1,1 1,1"/>
   <path class="fil10" d="M174 78c-1,3 -2,7 -3,10l-24 0 -24 0c-1,-3 -2,-7 -4,-10 0,0 3,4 6,5 1,1 2,1 4,1 1,-1 3,-4 3,-4 0,0 2,2 4,3 1,1 3,1 4,0 1,0 3,0 4,0 1,-1 3,-5 3,-5 0,0 1,3 2,4 1,1 3,1 4,2 1,0 3,0 4,-1 2,0 4,-3 4,-3 0,0 2,2 3,3 1,1 3,1 4,0 2,0 3,-1 4,-2 1,-1 2,-3 2,-3z"/>
   <polyline class="fil5 str3" points="170,88 164,88 147,88 129,88 123,88 "/>
   <path class="fil6" d="M147 80c0,0 -1,2 -2,2 -1,1 -1,1 -2,2 -2,0 -3,1 -5,0 -1,0 -2,0 -3,-1 -1,0 -3,-1 -3,-1 0,1 -1,1 -2,2 -1,1 -2,1 -3,1 -3,-1 -5,-2 -7,-5 -1,-3 -2,-6 -4,-9 2,0 4,-1 7,-1 -1,3 -2,6 -2,8 2,-1 3,-3 3,-5l3 8c-2,0 -1,-1 -5,-1 1,1 3,3 5,3 1,0 2,0 3,-1 1,0 1,-1 1,-2 0,0 0,-1 0,-1 0,0 0,-1 -1,-1 0,0 0,1 0,1 0,0 0,1 0,1 0,1 -1,2 -1,2 0,0 -1,0 -1,0l0 -1c0,-1 -1,-2 -1,-3 0,0 0,-1 0,-1 0,-1 1,-1 1,-2 1,0 1,0 1,0 0,0 1,0 1,0 0,0 0,-1 0,-1 0,-1 0,-2 1,-3 0,0 1,-1 1,-1 0,0 1,1 2,1 0,1 0,2 0,2 1,1 0,2 0,2 0,0 1,0 2,0 0,0 0,0 0,0 1,0 2,1 2,1 0,1 0,1 0,2 0,1 -1,1 0,2l0 2c0,0 -1,0 -1,-1 -1,0 -1,0 -1,-1 0,0 0,-1 -1,-1 0,-1 0,-1 0,-1 -1,0 -1,1 -1,1l0 1c0,1 0,1 0,1 1,1 2,2 2,2 1,0 2,0 3,0 1,0 2,0 3,0 1,0 1,-1 2,-1 1,-1 1,-1 1,-2 0,0 0,-1 0,-1 -1,0 -2,1 -2,1 -1,1 -2,2 -2,2l0 -10c0,1 1,2 2,3 1,0 1,1 2,1 0,-1 0,-1 -1,-2 -1,-1 -1,-3 -2,-4 1,0 3,0 5,0 2,0 4,0 5,0 0,1 -1,3 -2,4 -1,1 -1,1 -1,2 1,0 1,0 2,-1 1,-1 2,-2 3,-3l0 10c-1,-1 -2,-1 -3,-2 0,0 -1,-1 -2,-1 0,0 0,1 0,1 0,1 1,1 1,2 1,0 1,1 2,1 1,0 2,0 3,0 1,0 2,0 3,0 0,0 1,-1 2,-2 0,0 0,0 0,-1l0 -1c0,0 0,-1 -1,-1 0,0 0,0 0,1 0,0 0,1 -1,1 0,1 0,1 -1,1 0,1 -1,1 -1,1l0 -2c1,-1 0,-1 0,-2 0,-1 0,-1 0,-2 0,0 1,-1 2,-1 0,0 0,0 0,0 1,0 2,0 2,0 0,0 0,-1 0,-2 0,0 0,-1 0,-2 1,0 2,-1 2,-1 0,0 1,1 1,1 1,1 1,2 1,3 0,0 0,1 0,1 0,0 1,0 1,0 0,0 0,0 1,0 0,1 1,1 1,2 0,0 0,1 0,1 0,1 -1,2 -1,3l0 1c0,0 -1,0 -1,0 0,0 -1,-1 -1,-2 0,0 0,-1 0,-1 0,0 0,-1 0,-1 -1,0 -1,1 -1,1 0,0 0,1 0,1 0,1 0,2 1,2 1,1 2,1 3,1 2,0 4,-2 5,-3 -4,1 -3,1 -5,1l3 -8c0,2 1,4 3,5 0,-2 -1,-5 -2,-8 3,1 5,1 7,1 -2,3 -3,6 -4,9 -2,3 -4,4 -6,5 -2,0 -3,0 -4,-1 -1,-1 -2,-1 -2,-2 0,0 -2,1 -3,1 -1,1 -2,1 -3,1 -2,0 -3,0 -4,0 -2,0 -2,-1 -3,-2 -1,0 -2,-2 -2,-2z"/>
   <path class="fil6" d="M167 83l0 0c2,0 4,-2 5,-3 -4,0 -4,1 -5,1l3 -9c0,2 1,4 3,6 0,-2 -1,-5 -2,-8 3,0 5,1 7,1 -2,3 -3,6 -4,9 -2,2 -4,4 -7,4l0 0 0 -1zm-41 2c-2,-1 -4,-2 -6,-5 -1,-3 -2,-6 -4,-9 2,0 4,-1 7,-1 -1,3 -3,6 -2,8 2,-1 3,-3 3,-5l3 8c-2,0 -1,-1 -5,-1 1,1 3,3 5,3l-1 2z"/>
   <path class="fil6" d="M138 85c-1,0 -2,-1 -3,-1 -1,-1 -3,-2 -3,-2 0,1 -1,1 -2,2 -1,1 -2,1 -4,1l0 0 1 -2c1,0 2,0 3,-1 0,0 1,-1 1,-2 0,0 0,-1 0,-1 0,0 0,-1 -1,-1 0,0 0,1 0,1 0,0 0,1 0,1 0,1 -1,2 -1,2 -1,0 -2,0 -2,0l1 -1c0,-1 -1,-2 -1,-3 0,0 0,-1 0,-1 0,-1 1,-1 1,-2 0,0 1,0 1,0 0,0 1,0 1,0 0,0 0,-1 0,-1 0,-1 0,-2 1,-3 0,0 1,-1 1,-1 0,0 1,1 2,1 0,1 0,2 0,2 0,1 0,2 0,2 0,0 1,0 2,0 0,0 0,0 0,0 1,0 1,1 2,1 0,1 0,1 0,2 0,1 -1,1 0,2l0 2c0,0 -1,0 -1,-1 -1,0 -1,0 -1,-1 -1,0 0,-1 -1,-1 0,-1 0,-1 -1,-1 0,0 0,1 0,1l0 1c0,1 0,1 0,1 1,1 2,2 2,2 1,0 2,0 3,0l-1 2z"/>
   <path class="fil4" d="M149 77c0,1 -1,1 -2,1 -1,0 -2,0 -2,-1 0,-1 1,-2 2,-2 1,0 2,1 2,2z"/>
   <path class="fil5 str6" d="M149 77c0,1 -1,1 -2,1 -1,0 -2,0 -2,-1 0,-1 1,-2 2,-2 1,0 2,1 2,2"/>
   <path class="fil4" d="M122 79c0,1 -1,2 -2,2 -1,0 -1,-1 -1,-2 0,-1 0,-2 1,-2 1,0 2,1 2,2z"/>
   <path class="fil5 str6" d="M122 79c0,1 -1,2 -2,2 -1,0 -1,-1 -1,-2 0,-1 0,-2 1,-2 1,0 2,1 2,2"/>
   <path class="fil4" d="M172 79c0,1 0,2 1,2 1,0 2,-1 2,-2 0,-1 -1,-2 -2,-2 -1,0 -1,1 -1,2z"/>
   <path class="fil5 str6" d="M172 79c0,1 1,2 2,2 0,0 1,-1 1,-2 0,-1 -1,-2 -2,-2 -1,0 -1,1 -1,2"/>
   <polygon class="fil10" points="131,79 134,79 135,80 134,81 131,81 130,80 "/>
   <polygon class="fil10" points="163,79 159,79 159,80 159,81 163,81 164,80 "/>
   <path class="fil6" d="M124 93c0,0 2,0 7,0 5,-1 9,-1 12,-1 0,0 7,0 8,0 2,0 7,0 12,1 4,0 7,0 7,0l2 -7c0,0 -17,-2 -25,-2 -9,0 -25,2 -25,2l2 7z"/>
   <path class="fil7" d="M143 92c-3,0 -8,0 -12,0 -3,0 -5,1 -8,1l1 1c3,-1 4,-1 7,-1 5,0 10,0 12,0 0,0 7,0 8,0 2,0 7,0 12,0 5,1 7,1 7,1l0 -1c0,0 -2,0 -7,-1 -5,0 -10,0 -12,0 -1,0 -8,0 -8,0z"/>
   <path class="fil5 str3" d="M147 85c8,0 16,0 25,1"/>
   <path class="fil5 str3" d="M170 94c-8,-1 -15,-1 -23,-1"/>
   <path class="fil5 str3" d="M147 85c-8,0 -17,0 -25,1"/>
   <path class="fil5 str3" d="M124 94c8,-1 14,-1 23,-1"/>
   <path class="fil11" d="M131 85l0 0 0 0c-3,0 -7,1 -10,1 0,1 0,1 1,1 3,0 6,0 9,0 4,0 8,-1 12,-1l8 0c2,0 7,0 12,1 4,0 9,0 9,0 1,0 1,0 0,-1 0,0 -4,-1 -9,-1 -5,0 -10,0 -12,0l-8 0c-4,0 -8,0 -12,0z"/>
   <path class="fil11" d="M173 86c0,0 -1,0 -1,0 0,0 -4,-1 -9,-1 -5,0 -10,0 -12,0l-8 0c-4,0 -8,0 -12,0l0 0 0 0c-3,0 -7,0 -10,1 0,0 0,0 0,0 4,0 6,0 10,-1 5,0 11,0 16,0 5,0 10,0 15,0 3,1 7,1 11,1z"/>
   <path class="fil10" d="M121 87c0,0 1,0 1,0 3,0 6,0 9,0 4,-1 8,-1 12,-1l8 0c2,0 7,0 12,1 4,0 9,0 9,0 0,0 0,0 0,0 -8,-1 -16,-1 -25,-1 -8,-1 -17,0 -26,1z"/>
   <polyline class="fil5 str7" points="131,85 131,85 131,85 "/>
   <path class="fil11" d="M132 93l0 0 0 0c-3,0 -6,0 -9,1 0,0 0,0 0,1 3,-1 6,-1 9,-1 4,0 7,0 11,0l7 0c2,0 7,0 11,0 5,0 9,1 9,1 1,-1 1,-1 0,-1 0,0 -4,-1 -8,-1 -5,-1 -9,-1 -12,-1l-7 0c-4,0 -7,0 -11,1z"/>
   <path class="fil10" d="M171 94c0,0 0,0 -1,0 0,0 -4,-1 -8,-1 -5,-1 -9,-1 -12,-1l-7 0c-3,0 -7,0 -11,1l0 0 0 0c-3,0 -6,0 -9,0 0,1 0,1 0,1 3,0 6,-1 9,-1 5,0 10,0 15,-1 5,0 9,1 14,1 3,0 7,1 10,1z"/>
   <path class="fil10" d="M123 94c0,1 0,1 1,1 2,-1 5,-1 8,-1 4,0 8,0 11,0l7 0c3,0 7,0 12,0 4,0 8,1 8,1 0,0 0,0 0,-1 -8,-1 -15,-1 -23,-1 -8,0 -16,0 -24,1z"/>
   <polygon class="fil6" points="123,93 127,89 122,88 122,90 "/>
   <polygon class="fil7" points="123,92 126,90 122,89 122,90 "/>
   <path class="fil4" d="M140 88c0,0 0,1 0,1 -1,0 -1,-1 -1,-1 0,-1 0,-1 1,-1 0,0 0,0 0,1z"/>
   <polygon class="fil6" points="171,93 167,89 172,88 172,90 "/>
   <polygon class="fil7" points="171,92 168,90 172,89 172,90 "/>
   <path class="fil4" d="M153 88c0,0 1,1 1,1 1,0 1,-1 1,-1 0,-1 0,-1 -1,-1 0,0 -1,0 -1,1z"/>
   <path class="fil4" d="M140 90c0,1 0,1 0,1 -1,0 -1,0 -1,-1 0,0 0,0 1,0 0,0 0,0 0,0z"/>
   <path class="fil4" d="M153 90c0,1 1,1 1,1 1,0 1,0 1,-1 0,0 0,0 -1,0 0,0 -1,0 -1,0z"/>
  </g>
 </g>
</svg>