<?xml version="1.0" encoding="UTF-8"?>
<!DOCTYPE svg PUBLIC "-//W3C//DTD SVG 1.1//EN" "http://www.w3.org/Graphics/SVG/1.1/DTD/svg11.dtd">
<!-- Creator: CorelDRAW X8 -->
<svg xmlns="http://www.w3.org/2000/svg" xml:space="preserve" width="39.8639mm" height="62.5556mm" version="1.1" style="shape-rendering:geometricPrecision; text-rendering:geometricPrecision; image-rendering:optimizeQuality; fill-rule:evenodd; clip-rule:evenodd" viewBox="0 0 61209 96050" xmlns:xlink="http://www.w3.org/1999/xlink">
 <defs>
  <style type="text/css">
   <![CDATA[
    .fil0 {fill:#2B2A29}
    .fil1 {fill:#EBECEC;fill-rule:nonzero}
   ]]>
  </style>
 </defs>
 <g id="svg2">
  <metadata id="CorelCorpID_0Corel-Layer"/>
  <polygon class="fil0" points="53579,0 61209,96050 30604,96050 0,96050 7630,0 "/>
  <path class="fil1" d="M25144 76969l0 273c-1150,292 -2073,666 -2769,1127 -695,459 -1244,1018 -1647,1674 -403,653 -715,1469 -940,2438 280,-189 514,-312 699,-371 413,-127 829,-188 1248,-188 969,0 1775,351 2421,1053 647,702 969,1660 969,2873 0,851 -176,1634 -523,2346 -351,712 -849,1261 -1489,1648 -643,387 -1329,582 -2060,582 -797,0 -1531,-218 -2207,-654 -673,-435 -1199,-1072 -1576,-1907 -381,-839 -569,-1752 -569,-2737 0,-1446 348,-2795 1043,-4043 696,-1251 1684,-2246 2964,-2983 1281,-741 2759,-1118 4436,-1131zm-5479 6282c-52,881 -78,1524 -78,1930 0,881 84,1733 253,2555 169,822 403,1397 696,1729 211,237 461,354 747,354 293,0 556,-169 787,-510 231,-341 344,-1037 344,-2080 0,-1758 -214,-2974 -643,-3643 -273,-433 -644,-650 -1108,-650 -257,0 -589,104 -998,315z"/>
  <path id="1" class="fil1" d="M28615 83677l0 -332c725,-208 1226,-403 1505,-585 280,-182 523,-458 725,-829 205,-370 305,-747 305,-1127 0,-527 -191,-979 -578,-1359 -384,-377 -865,-565 -1437,-565 -893,0 -1651,471 -2275,1410l-351 -123c459,-1063 1044,-1863 1759,-2396 715,-536 1511,-802 2388,-802 894,0 1635,273 2217,819 582,546 871,1186 871,1917 0,475 -133,936 -403,1375 -267,442 -689,832 -1264,1170 737,361 1300,806 1690,1336 386,529 581,1196 581,1995 0,1342 -487,2486 -1459,3429 -975,942 -2281,1414 -3916,1414 -1092,0 -1888,-182 -2389,-543 -361,-254 -543,-579 -543,-978 0,-290 104,-540 316,-745 208,-204 448,-308 721,-308 211,0 406,45 592,133 100,49 461,328 1082,829 617,503 1199,754 1739,754 468,0 871,-186 1209,-556 334,-371 503,-842 503,-1414 0,-868 -305,-1670 -913,-2402 -611,-731 -1501,-1238 -2675,-1517z"/>
  <path id="2" class="fil1" d="M42119 82864c910,666 1544,1287 1898,1862 354,572 530,1232 530,1973 0,1043 -393,1924 -1177,2642 -783,722 -1849,1083 -3198,1083 -1277,0 -2262,-316 -2960,-946 -699,-631 -1050,-1398 -1050,-2308 0,-695 201,-1303 604,-1823 403,-523 1073,-998 2012,-1433 -1024,-770 -1680,-1404 -1969,-1898 -290,-494 -433,-1069 -433,-1723 0,-864 368,-1625 1102,-2281 731,-657 1739,-985 3013,-985 1235,0 2181,289 2847,871 663,582 994,1277 994,2090 0,611 -178,1147 -539,1615 -358,465 -917,887 -1674,1261zm-731 -481c237,-315 413,-673 530,-1063 113,-393 172,-825 172,-1293 0,-826 -179,-1456 -533,-1892 -270,-334 -637,-503 -1108,-503 -426,0 -790,152 -1089,458 -299,309 -449,689 -449,1144 0,461 169,939 504,1436 335,498 991,1066 1973,1713zm-1888 1983c-199,178 -338,341 -423,487 -127,224 -240,549 -344,975 -101,429 -153,874 -153,1339 0,601 75,1105 227,1508 153,406 371,699 650,878 283,178 572,266 871,266 462,0 852,-172 1170,-513 316,-342 475,-810 475,-1404 10,-1242 -813,-2422 -2473,-3536z"/>
  <path class="fil1" d="M19277 67900l0 -295 378 0c333,0 590,-52 766,-159 176,-103 309,-248 393,-430 49,-118 75,-477 75,-1075l0 -7574c0,-593 -32,-962 -93,-1110 -63,-147 -187,-277 -375,-387 -188,-112 -442,-167 -766,-167l-378 0 0 -295 5136 0c1373,0 2476,188 3311,560 1020,457 1794,1150 2323,2075 528,927 791,1976 791,3146 0,806 -130,1551 -390,2233 -260,679 -595,1242 -1005,1687 -413,442 -890,797 -1427,1066 -540,269 -1199,477 -1976,624 -344,66 -887,101 -1627,101l-5136 0zm4368 -10851l0 8965c0,473 23,765 69,872 44,107 122,188 229,246 153,83 372,127 661,127 945,0 1667,-321 2164,-965 679,-870 1020,-2222 1020,-4050 0,-1477 -231,-2652 -697,-3534 -367,-690 -840,-1158 -1418,-1406 -407,-177 -1083,-260 -2028,-255z"/>
  <path id="1" class="fil1" d="M36336 57067l0 4732 329 0c509,0 922,-75 1245,-229 321,-153 593,-410 815,-768 222,-361 370,-849 436,-1465l295 0 0 5755 -295 0c-107,-1086 -398,-1803 -875,-2149 -477,-347 -1017,-520 -1621,-520l-329 0 0 3518c0,593 32,962 95,1110 67,147 191,277 379,387 187,112 442,167 759,167l379 0 0 295 -5980 0 0 -295 378 0c333,0 601,-60 804,-179 147,-81 259,-216 337,-410 61,-136 93,-494 93,-1075l0 -7574c0,-593 -32,-962 -93,-1110 -63,-147 -187,-277 -375,-387 -188,-112 -442,-167 -766,-167l-378 0 0 -295 9672 0 0 3293 -347 0c-78,-774 -280,-1346 -606,-1719 -324,-372 -795,-635 -1410,-788 -341,-84 -968,-127 -1884,-127l-1057 0z"/>
 </g>
</svg>