<?xml version="1.0" encoding="UTF-8"?>
<!DOCTYPE svg PUBLIC "-//W3C//DTD SVG 1.1//EN" "http://www.w3.org/Graphics/SVG/1.1/DTD/svg11.dtd">
<!-- Creator: CorelDRAW X8 -->
<svg xmlns="http://www.w3.org/2000/svg" xml:space="preserve" width="39.8639mm" height="62.5556mm" version="1.1" style="shape-rendering:geometricPrecision; text-rendering:geometricPrecision; image-rendering:optimizeQuality; fill-rule:evenodd; clip-rule:evenodd" viewBox="0 0 360 565" xmlns:xlink="http://www.w3.org/1999/xlink">
 <defs>
  <style type="text/css">
   <![CDATA[
    .str0 {stroke:#666766;stroke-width:0.466435}
    .str3 {stroke:#806729;stroke-width:0.466435}
    .str4 {stroke:#C5C6C6;stroke-width:0.70146}
    .str2 {stroke:#433185;stroke-width:0.95818}
    .str7 {stroke:#806729;stroke-width:0.527903}
    .str6 {stroke:#C5C6C6;stroke-width:0.63728}
    .str5 {stroke:#806729;stroke-width:0.457395}
    .str1 {stroke:#C5C6C6;stroke-width:0.688805}
    .fil5 {fill:none}
    .fil12 {fill:#FEFEFE}
    .fil6 {fill:#C5C6C6}
    .fil10 {fill:#B2B3B3}
    .fil8 {fill:#9D9E9E}
    .fil7 {fill:#898989}
    .fil11 {fill:#727271}
    .fil0 {fill:#2B2A29}
    .fil9 {fill:#CCCCCB}
    .fil4 {fill:#EBEBEB}
    .fil3 {fill:white}
    .fil1 {fill:#EBECEC;fill-rule:nonzero}
    .fil2 {fill:#B2B3B3;fill-rule:nonzero}
   ]]>
  </style>
 </defs>
 <g id="svg2">
  <metadata id="CorelCorpID_0Corel-Layer"/>
  <polygon class="fil0" points="315,0 360,565 180,565 0,565 45,0 "/>
  <path class="fil1" d="M100 385l30 0 -5 12 -25 0 -2 7c11,0 19,3 25,8 4,4 7,9 7,15 0,4 -1,8 -4,11 -2,4 -5,7 -9,9 -4,2 -8,3 -13,3 -5,0 -9,-1 -12,-3 -2,-1 -3,-3 -3,-5 0,-1 1,-2 2,-3 1,-1 2,-2 3,-2 1,0 3,1 4,1 1,1 3,2 6,4 2,1 4,2 5,3 1,0 2,0 3,0 3,0 5,-1 7,-3 2,-1 3,-4 3,-6 0,-6 -3,-10 -9,-14 -5,-3 -12,-5 -20,-5 -1,0 -2,0 -4,0l11 -32z"/>
  <path id="1" class="fil1" d="M178 417c0,6 -1,12 -3,18 -1,3 -2,6 -4,8 -2,2 -4,4 -6,5 -3,1 -5,2 -8,2 -3,0 -5,-1 -8,-2 -2,-2 -5,-4 -6,-7 -2,-2 -3,-5 -4,-9 -1,-4 -2,-9 -2,-14 0,-7 1,-13 3,-19 1,-5 4,-9 7,-11 3,-3 7,-4 10,-4 4,0 7,1 11,4 3,2 5,6 7,10 2,6 3,12 3,19zm-15 0c0,-11 0,-18 0,-20 0,-4 -1,-7 -2,-8 -1,-1 -2,-2 -4,-2 -1,0 -2,1 -3,1 -1,1 -2,3 -2,6 -1,3 -1,12 -1,29 0,9 0,15 1,18 0,2 1,4 2,4 1,1 2,2 4,2 1,0 2,-1 3,-2 1,-2 2,-4 2,-8l0 -20z"/>
  <path id="2" class="fil1" d="M226 417c0,6 -1,12 -3,18 -1,3 -3,6 -4,8 -2,2 -4,4 -6,5 -3,1 -5,2 -8,2 -3,0 -6,-1 -8,-2 -3,-2 -5,-4 -7,-7 -1,-2 -2,-5 -3,-9 -2,-4 -2,-9 -2,-14 0,-7 1,-13 3,-19 1,-5 4,-9 7,-11 3,-3 7,-4 10,-4 4,0 7,1 10,4 4,2 6,6 7,10 3,6 4,12 4,19zm-15 0c0,-11 0,-18 0,-20 0,-4 -1,-7 -2,-8 -1,-1 -2,-2 -4,-2 -1,0 -2,1 -3,1 -1,1 -2,3 -2,6 -1,3 -1,12 -1,29 0,9 0,15 1,18 0,2 1,4 2,4 1,1 2,2 3,2 2,0 3,-1 4,-2 1,-2 2,-4 2,-8l0 -20z"/>
  <path id="3" class="fil1" d="M273 417c0,6 0,12 -2,18 -1,3 -3,6 -4,8 -2,2 -4,4 -7,5 -2,1 -4,2 -7,2 -3,0 -6,-1 -8,-2 -3,-2 -5,-4 -7,-7 -1,-2 -2,-5 -3,-9 -2,-4 -2,-9 -2,-14 0,-7 1,-13 2,-19 2,-5 4,-9 8,-11 3,-3 6,-4 10,-4 4,0 7,1 10,4 3,2 6,6 7,10 2,6 3,12 3,19zm-14 0c0,-11 0,-18 0,-20 0,-4 -1,-7 -2,-8 -1,-1 -2,-2 -4,-2 -1,0 -3,1 -3,1 -1,1 -2,3 -3,6 0,3 0,12 0,29 0,9 0,15 1,18 0,2 1,4 2,4 1,1 2,2 3,2 2,0 3,-1 4,-2 1,-2 2,-4 2,-8l0 -20z"/>
  <path class="fil1" d="M148 300l23 28c3,4 5,6 8,8 1,1 3,1 5,1l0 2 -33 0 0 -2c2,0 3,0 4,-1 1,0 1,-1 1,-1 0,-2 -2,-4 -4,-8l-15 -18 -2 2 0 17c0,3 0,6 0,6 1,1 1,2 2,2 2,1 3,1 6,1l0 2 -32 0 0 -2 2 0c2,0 3,0 4,-1 1,0 2,-1 2,-2 0,-1 1,-3 1,-6l0 -42c0,-3 -1,-5 -1,-6 0,-1 -1,-1 -2,-2 -1,-1 -3,-1 -4,-1l-2 0 0 -1 31 0 0 1c-2,0 -4,0 -5,1 -1,1 -1,1 -2,2 0,1 0,3 0,6l0 20 23 -19c4,-3 5,-5 5,-6 0,-2 0,-2 -2,-3 0,-1 -2,-1 -5,-1l0 -1 25 0 0 1c-2,0 -4,1 -5,1 -2,1 -5,3 -9,7l-19 15z"/>
  <path id="1" class="fil1" d="M249 274l0 22 -2 0c-2,-6 -5,-10 -9,-13 -4,-4 -9,-5 -14,-5 -5,0 -9,1 -12,4 -3,2 -5,6 -6,11 -2,5 -2,10 -2,15 0,6 0,11 2,16 1,4 4,7 7,10 3,2 7,3 11,3 2,0 3,0 5,-1 1,0 3,0 5,-1l0 -13c0,-3 0,-4 -1,-5 0,-1 -1,-1 -2,-2 -1,-1 -2,-1 -4,-1l-1 0 0 -2 30 0 0 2c-2,0 -4,0 -5,1 0,0 -1,1 -2,2 0,1 0,3 0,5l0 13c-4,2 -8,3 -13,4 -4,1 -9,1 -13,1 -6,0 -11,0 -15,-2 -4,-2 -8,-4 -11,-6 -3,-3 -5,-6 -7,-9 -2,-5 -3,-10 -3,-15 0,-9 3,-17 10,-24 7,-7 15,-10 25,-10 3,0 6,0 9,1 1,0 3,1 6,2 3,1 5,2 6,2 1,0 1,-1 2,-1 1,-1 2,-2 2,-4l2 0z"/>
  <g id="_1648267511088">
   <g>
    <path class="fil2" d="M219 128l0 17 -2 0c0,-4 -2,-8 -4,-10 -3,-3 -5,-4 -8,-4 -3,0 -5,1 -7,3 -2,2 -4,4 -5,7 -1,3 -1,8 -1,12 0,4 0,8 1,12 1,4 2,6 4,8 2,2 5,3 8,3 2,0 4,-1 6,-2 2,-1 5,-4 7,-7l0 4c-2,3 -5,5 -7,6 -2,2 -5,2 -8,2 -5,0 -8,-1 -12,-3 -3,-2 -6,-5 -7,-9 -2,-4 -3,-8 -3,-12 0,-5 1,-9 3,-14 2,-4 5,-7 8,-9 3,-3 7,-4 11,-4 3,0 5,1 9,2 1,1 2,2 3,2 1,0 1,-1 2,-1 0,-1 0,-2 0,-3l2 0z"/>
    <path class="fil2" d="M172 128l0 16 -1 0c-1,-4 -3,-7 -6,-10 -2,-2 -5,-3 -8,-3 -3,0 -5,0 -6,2 -2,1 -2,3 -2,4 0,1 0,2 0,3 1,1 2,2 4,3 1,1 3,3 8,5 5,3 9,5 11,8 2,2 3,5 3,8 0,4 -1,8 -5,11 -3,3 -7,4 -12,4 -1,0 -3,0 -4,0 -2,-1 -3,-1 -5,-2 -2,0 -3,-1 -3,-1 -1,0 -2,1 -2,1 -1,1 -2,1 -2,2l-1 0 0 -18 1 0c1,5 3,9 6,12 3,2 6,4 10,4 3,0 5,-1 6,-2 2,-2 3,-4 3,-6 0,-1 0,-2 -1,-3 -1,-1 -2,-2 -3,-3 -1,-1 -3,-2 -7,-4 -4,-2 -7,-4 -9,-5 -2,-2 -4,-4 -5,-6 -1,-2 -1,-4 -1,-6 0,-4 1,-7 4,-10 3,-3 7,-4 11,-4 2,0 3,0 5,1 1,0 2,0 4,1 1,1 2,1 3,1 1,0 1,0 2,0 0,-1 0,-2 1,-3l1 0z"/>
   </g>
   <path class="fil3" d="M162 114c0,0 0,0 0,0 0,0 0,0 0,0 -4,0 -8,2 -12,2 0,1 -1,1 -1,1 0,1 0,2 0,2 0,1 0,1 1,2 0,0 1,0 1,1 15,-3 37,-4 58,0 1,-1 2,-1 2,-1 1,-1 1,-1 1,-2 0,0 0,-1 -1,-2 0,0 0,-1 -1,-1 0,0 -6,-2 -11,-2 -6,-1 -12,-1 -14,-1 -3,0 -6,0 -9,0 0,0 0,0 0,0 0,0 0,0 0,0 -5,0 -10,-2 -14,1z"/>
   <path class="fil4" d="M149 119c0,1 0,1 1,2 0,0 1,0 1,1 15,-3 37,-4 58,0 1,-1 2,-1 2,-1 1,-1 1,-1 1,-2 1,-4 -64,-3 -63,0z"/>
   <path class="fil5 str0" d="M162 114c0,0 0,0 0,0 0,0 0,0 0,0 -4,0 -8,2 -12,2 0,1 -1,1 -1,1 0,1 0,2 0,2 0,1 0,1 1,2 0,0 1,0 1,1 15,-3 37,-4 58,0 1,-1 2,-1 2,-1 1,-1 1,-1 1,-2 0,0 0,-1 -1,-2 0,0 0,-1 -1,-1 0,0 -6,-2 -11,-2 -6,-1 -12,-1 -14,-1 -3,0 -6,0 -9,0 0,0 0,0 0,0 0,0 0,0 0,0 -5,0 -10,-2 -14,1"/>
   <path class="fil6 str1" d="M183 117c-1,0 -2,-1 -3,-1 -1,0 -2,0 -2,-1 0,1 0,1 1,1 -1,0 -1,1 -2,1 1,0 1,0 2,0 -1,1 -1,1 -1,1 0,0 1,0 2,0 1,-1 2,-1 3,-1z"/>
   <path class="fil6 str1" d="M159 118c-1,0 -2,0 -3,0 -1,-1 -2,-1 -2,-1 0,0 0,1 1,1 -1,0 -1,0 -2,1 1,0 1,0 2,0 -1,0 -1,0 -1,1 1,-1 1,-1 2,-1 1,0 2,-1 3,-1z"/>
   <path class="fil6 str1" d="M207 119c-1,0 -2,0 -3,-1 -1,0 -2,-1 -2,-1 0,0 0,1 1,1 -1,0 -1,0 -2,0 1,1 1,1 2,1 -1,0 -1,0 -1,1 1,0 1,-1 2,-1 1,0 2,0 3,0z"/>
   <path class="fil6" d="M171 117c-1,0 -2,0 -3,0 -1,-1 -2,-1 -2,-1 0,0 0,1 1,1 -1,0 -1,0 -2,0 1,0 1,1 2,1 -1,0 -1,0 -1,1 0,0 1,-1 2,-1 1,0 2,-1 3,-1z"/>
   <path class="fil6" d="M195 117c-1,0 -2,0 -3,0 -1,-1 -2,-1 -3,-1 1,0 1,1 2,1 -1,0 -2,0 -2,0 0,1 1,1 2,1 -1,0 -1,0 -2,1 1,0 2,-1 3,-1 1,0 2,0 3,-1z"/>
   <polyline class="fil5 str2" points="205,111 207,104 208,102 210,100 213,95 214,94 214,89 "/>
   <path class="fil7" d="M208 65c2,1 5,2 7,4 2,2 3,4 4,7 1,2 1,4 0,6 0,3 -2,7 -2,7l-4 -1c0,0 3,-4 3,-6 0,-2 0,-3 -1,-5 0,-2 -1,-4 -2,-5 -2,-2 -4,-3 -6,-3 -2,-1 -4,-1 -5,0 -3,0 -5,1 -8,2 -3,1 -5,1 -7,1 -1,0 -3,0 -5,0 -1,0 -2,-1 -2,-1l1 -3c0,0 1,0 2,0 2,1 3,1 4,1 2,0 4,-1 6,-1 3,-1 5,-2 8,-3 2,0 5,0 7,0z"/>
   <path class="fil8" d="M180 69l0 -1c0,0 2,0 3,0 2,0 3,1 4,1 2,-1 3,-1 6,-1 3,-1 5,-2 8,-3 2,0 5,0 7,0 2,1 5,2 7,4 2,2 3,4 4,7 1,2 1,4 0,6 0,3 -2,7 -2,7l-2 -1c1,-1 2,-4 2,-6 1,-5 0,-9 -2,-11 -2,-2 -7,-5 -11,-5 -5,1 -9,3 -15,4 -3,1 -6,1 -9,-1z"/>
   <line class="fil5 str3" x1="217" y1="89" x2="213" y2="88"/>
   <line class="fil5 str3" x1="180" y1="71" x2="181" y2="68"/>
   <path class="fil4" d="M217 85c0,1 1,2 2,2 1,0 2,-1 2,-2 0,-1 -1,-2 -2,-2 -1,0 -2,1 -2,2z"/>
   <path class="fil5 str4" d="M217 85c0,1 1,2 2,2 1,0 2,-1 2,-2 0,-1 -1,-2 -2,-2 -1,0 -2,1 -2,2"/>
   <path class="fil4" d="M218 80c0,1 1,2 2,2 1,0 2,-1 2,-2 0,-1 -1,-2 -2,-2 -1,0 -2,1 -2,2z"/>
   <path class="fil5 str4" d="M218 80c0,1 1,2 2,2 1,0 2,-1 2,-2 0,-1 -1,-2 -2,-2 -1,0 -2,1 -2,2"/>
   <path class="fil4" d="M218 76c0,1 1,1 2,1 1,0 2,0 2,-1 0,-2 -1,-2 -2,-2 -1,0 -2,1 -2,2z"/>
   <path class="fil5 str4" d="M218 76c0,1 1,1 2,1 1,0 2,0 2,-1 0,-2 -1,-2 -2,-2 -1,0 -2,1 -2,2"/>
   <path class="fil4" d="M216 71c0,1 1,2 2,2 1,0 2,-1 2,-2 0,-1 -1,-2 -2,-2 -1,0 -2,1 -2,2z"/>
   <path class="fil5 str4" d="M216 71c0,1 1,2 2,2 1,0 2,-1 2,-2 0,-1 -1,-2 -2,-2 -1,0 -2,1 -2,2"/>
   <path class="fil4" d="M213 68c0,1 0,1 2,1 1,0 2,0 2,-1 0,-2 -1,-2 -2,-2 -2,0 -2,1 -2,2z"/>
   <path class="fil5 str4" d="M213 68c0,1 0,1 2,1 1,0 2,0 2,-1 0,-2 -1,-2 -2,-2 -2,0 -2,1 -2,2"/>
   <path class="fil4" d="M209 65c0,1 0,2 1,2 2,0 2,-1 2,-2 0,-1 0,-2 -2,-2 -1,0 -1,1 -1,2z"/>
   <path class="fil5 str4" d="M209 65c0,1 0,2 1,2 2,0 2,-1 2,-2 0,-1 0,-2 -2,-2 -1,0 -1,1 -1,2"/>
   <path class="fil4" d="M204 64c0,1 0,2 1,2 2,0 2,-1 2,-2 0,-1 0,-2 -2,-2 -1,0 -1,1 -1,2z"/>
   <path class="fil5 str4" d="M204 64c0,1 0,2 1,2 2,0 2,-1 2,-2 0,-1 0,-2 -2,-2 -1,0 -1,1 -1,2"/>
   <path class="fil4" d="M199 64c0,1 0,2 2,2 0,0 1,-1 1,-2 0,-1 0,-2 -1,-2 -2,0 -2,1 -2,2z"/>
   <path class="fil5 str4" d="M199 64c0,1 0,2 2,2 0,0 1,-1 1,-2 0,-1 0,-2 -1,-2 -2,0 -2,1 -2,2"/>
   <path class="fil4" d="M185 68c0,1 1,2 2,2 1,0 2,-1 2,-2 0,-1 -1,-2 -2,-2 -1,0 -2,1 -2,2z"/>
   <path class="fil5 str4" d="M185 68c0,1 1,2 2,2 1,0 2,-1 2,-2 0,-1 -1,-2 -2,-2 -1,0 -2,1 -2,2"/>
   <path class="fil4" d="M194 66c0,1 1,2 2,2 1,0 2,-1 2,-2 0,-2 -1,-2 -2,-2 -1,0 -2,0 -2,2z"/>
   <path class="fil5 str4" d="M194 66c0,1 1,2 2,2 1,0 2,-1 2,-2 0,-2 -1,-2 -2,-2 -1,0 -2,0 -2,2"/>
   <path class="fil4" d="M189 67c0,1 1,2 2,2 1,0 2,-1 2,-2 0,-1 0,-2 -2,-2 -1,0 -2,1 -2,2z"/>
   <path class="fil5 str4" d="M189 67c0,1 1,2 2,2 1,0 2,-1 2,-2 0,-1 0,-2 -2,-2 -1,0 -2,1 -2,2"/>
   <path class="fil7" d="M152 65c-2,1 -5,2 -7,4 -2,2 -3,4 -3,7 -1,2 -1,4 -1,6 1,3 2,7 2,7l4 -1c0,0 -2,-4 -2,-6 -1,-2 -1,-3 0,-5 1,-2 1,-4 3,-5 1,-2 3,-3 5,-3 2,-1 4,-1 5,0 4,0 5,1 9,2 2,1 4,1 6,1 2,0 3,0 5,0 1,0 3,-1 3,-1l-1 -3c0,0 -2,0 -3,0 -1,1 -3,1 -4,1 -2,0 -3,-1 -5,-1 -3,-1 -6,-2 -9,-3 -2,0 -4,0 -7,0z"/>
   <path class="fil8" d="M180 69l0 -1c0,0 -1,0 -3,0 -1,0 -3,1 -3,1 -3,-1 -4,-1 -6,-1 -3,-1 -5,-2 -9,-3 -2,0 -4,0 -7,0 -2,1 -5,2 -7,4 -2,2 -3,4 -3,7 -1,2 -1,4 -1,6 1,3 2,7 2,7l2 -1c-1,-1 -2,-4 -2,-6 -1,-5 1,-9 3,-11 2,-2 7,-5 11,-5 4,1 9,3 14,4 3,1 6,1 9,-1z"/>
   <line class="fil5 str3" x1="143" y1="89" x2="147" y2="88"/>
   <line class="fil5 str3" x1="181" y1="71" x2="180" y2="68"/>
   <path class="fil4" d="M143 85c0,1 -1,2 -2,2 -1,0 -2,-1 -2,-2 0,-1 1,-2 2,-2 1,0 2,1 2,2z"/>
   <path class="fil5 str4" d="M143 85c0,1 -1,2 -2,2 -1,0 -2,-1 -2,-2 0,-1 1,-2 2,-2 1,0 2,1 2,2"/>
   <path class="fil4" d="M142 80c0,1 -1,2 -2,2 -1,0 -2,-1 -2,-2 0,-1 1,-2 2,-2 1,0 2,1 2,2z"/>
   <path class="fil9" d="M139 81l0 1 1 0 0 0 1 0 1 0 0 -1 0 -1 0 0 0 -1 0 0 -1 0c0,0 0,0 0,0 0,1 0,1 0,1 0,0 0,1 0,1 0,0 0,0 -1,0 0,0 0,0 -1,0 0,0 0,0 0,0z"/>
   <path class="fil5 str4" d="M142 80c0,1 -1,2 -2,2 -1,0 -2,-1 -2,-2 0,-1 1,-2 2,-2 1,0 2,1 2,2"/>
   <path class="fil4" d="M142 76c0,1 0,1 -2,1 -1,0 -2,0 -2,-1 0,-2 1,-2 2,-2 2,0 2,1 2,2z"/>
   <path class="fil5 str4" d="M142 76c0,1 0,1 -1,1 -1,0 -2,0 -2,-1 0,-2 0,-2 2,-2 1,0 1,1 1,2"/>
   <path class="fil4" d="M144 71c0,1 -1,2 -2,2 -1,0 -2,-1 -2,-2 0,-1 1,-2 2,-2 1,0 2,1 2,2z"/>
   <path class="fil5 str4" d="M144 71c0,1 -1,2 -2,2 -1,0 -2,-1 -2,-2 0,-1 1,-2 2,-2 1,0 2,1 2,2"/>
   <path class="fil4" d="M148 68c0,1 -1,1 -2,1 -1,0 -2,0 -2,-1 0,-2 1,-2 2,-2 1,0 2,1 2,2z"/>
   <path class="fil5 str4" d="M148 68c0,1 -1,1 -2,1 -1,0 -2,0 -2,-1 0,-2 1,-2 2,-2 1,0 2,1 2,2"/>
   <path class="fil4" d="M152 65c0,1 -1,2 -2,2 -1,0 -2,-1 -2,-2 0,-1 1,-2 2,-2 1,0 2,1 2,2z"/>
   <path class="fil5 str4" d="M152 65c0,1 -1,2 -2,2 -1,0 -2,-1 -2,-2 0,-1 1,-2 2,-2 1,0 2,1 2,2"/>
   <path class="fil4" d="M157 64c0,1 -1,2 -2,2 -1,0 -2,-1 -2,-2 0,-1 1,-2 2,-2 1,0 2,1 2,2z"/>
   <path class="fil5 str4" d="M157 64c0,1 -1,2 -2,2 -1,0 -2,-1 -2,-2 0,-1 1,-2 2,-2 1,0 2,1 2,2"/>
   <path class="fil4" d="M162 64c0,1 -1,2 -2,2 -1,0 -2,-1 -2,-2 0,-1 1,-2 2,-2 1,0 2,1 2,2z"/>
   <path class="fil5 str4" d="M162 64c0,1 -1,2 -2,2 -1,0 -2,-1 -2,-2 0,-1 1,-2 2,-2 1,0 2,1 2,2"/>
   <path class="fil4" d="M175 68c0,1 0,2 -1,2 -2,0 -2,-1 -2,-2 0,-1 0,-2 2,-2 1,0 1,1 1,2z"/>
   <path class="fil5 str4" d="M175 68c0,1 0,2 -1,2 -1,0 -2,-1 -2,-2 0,-1 0,-2 2,-2 0,0 1,1 1,2"/>
   <path class="fil4" d="M166 66c0,1 0,2 -1,2 -2,0 -2,-1 -2,-2 0,-2 0,-2 2,-2 1,0 1,0 1,2z"/>
   <path class="fil5 str4" d="M166 66c0,1 0,2 -1,2 -1,0 -2,-1 -2,-2 0,-2 0,-2 2,-2 1,0 1,0 1,2"/>
   <path class="fil4" d="M171 67c0,1 -1,2 -2,2 -1,0 -2,-1 -2,-2 0,-1 1,-2 2,-2 1,0 2,1 2,2z"/>
   <path class="fil5 str4" d="M171 67c0,1 -1,2 -2,2 -1,0 -2,-1 -2,-2 0,-1 1,-2 2,-2 1,0 2,1 2,2"/>
   <path class="fil10" d="M176 59c0,0 1,-1 1,-2 1,0 1,-1 1,-2 -1,0 -1,1 -2,1 -1,1 -1,1 -2,2l0 -9c1,1 1,2 2,2 1,1 1,1 2,1 0,-1 0,-2 -1,-2 0,-1 -1,-2 -1,-2l9 0c-1,0 -1,1 -2,2 0,0 -1,1 -1,2 1,0 2,0 3,-1 0,-1 1,-1 1,-2l0 9c0,-1 -1,-2 -1,-2 -1,0 -2,-1 -3,-1 0,1 1,2 1,2 1,1 1,2 2,2l-9 0z"/>
   <path class="fil10" d="M182 53c0,2 0,3 -2,3 -1,0 -2,-1 -2,-3 0,-1 1,-2 2,-2 2,0 2,1 2,2z"/>
   <path class="fil10 str1" d="M185 64c0,3 -2,5 -5,5 -3,0 -5,-2 -5,-5 0,-3 2,-5 5,-5 3,0 5,2 5,5z"/>
   <path class="fil10" d="M178 68l4 0c1,0 2,1 2,2l0 16c0,1 -1,1 -2,1l-4 0c0,0 -1,0 -1,-1l0 -16c0,-1 1,-2 1,-2z"/>
   <path class="fil10" d="M178 68l4 0c1,0 2,1 2,2l0 6 -7 2 0 -8c0,-1 1,-2 1,-2z"/>
   <path class="fil10 str1" d="M178 68l4 0c1,0 2,1 2,2l0 2 -7 2 0 -4c0,-1 1,-2 1,-2z"/>
   <line class="fil5 str3" x1="178" y1="68" x2="182" y2="68"/>
   <line class="fil5 str3" x1="184" y1="70" x2="184" y2="86"/>
   <path class="fil5 str3" d="M184 86c0,1 -1,2 -2,2"/>
   <line class="fil5 str3" x1="182" y1="88" x2="178" y2="88"/>
   <path class="fil5 str3" d="M178 88c0,0 -1,-1 -1,-2"/>
   <line class="fil5 str3" x1="177" y1="86" x2="177" y2="70"/>
   <path class="fil8" d="M177 68l0 0c0,0 1,1 1,1l0 18c0,0 -1,1 -1,1 -1,0 -2,-1 -2,-1l0 -18c0,0 1,-1 2,-1z"/>
   <path class="fil5 str5" d="M178 87c0,0 -1,1 -1,1 -1,0 -2,-1 -2,-1"/>
   <path class="fil8" d="M184 68c0,0 1,1 1,1l0 18c0,0 -1,1 -1,1 -1,0 -1,-1 -1,-1l0 -18c0,0 0,-1 1,-1z"/>
   <path class="fil5 str5" d="M185 87c0,0 -1,1 -1,1"/>
   <path class="fil5 str5" d="M184 88c-1,0 -1,-1 -1,-1"/>
   <path class="fil4" d="M182 69c0,1 -1,2 -2,2 -1,0 -2,-1 -2,-2 0,-1 1,-2 2,-2 1,0 2,1 2,2z"/>
   <path class="fil5 str4" d="M182 69c0,1 -1,2 -2,2 -1,0 -2,-1 -2,-2 0,-1 1,-2 2,-2 1,0 2,1 2,2"/>
   <path class="fil4" d="M182 73c0,1 -1,2 -2,2 -1,0 -2,-1 -2,-2 0,-1 1,-2 2,-2 1,0 2,1 2,2z"/>
   <path class="fil5 str4" d="M182 72c0,2 -1,2 -2,2 -1,0 -2,0 -2,-2 0,-1 1,-1 2,-1 1,0 2,1 2,1"/>
   <path class="fil4" d="M182 76c0,1 -1,2 -2,2 -1,0 -2,-1 -2,-2 0,-1 1,-2 2,-2 1,0 2,1 2,2z"/>
   <path class="fil5 str4" d="M182 76c0,1 -1,2 -2,2 -1,0 -2,-1 -2,-2 0,-1 1,-2 2,-2 1,0 2,1 2,2"/>
   <path class="fil4" d="M182 80c0,1 -1,2 -2,2 -1,0 -2,-1 -2,-2 0,-1 1,-2 2,-2 1,0 2,1 2,2z"/>
   <path class="fil5 str4" d="M182 80c0,1 -1,2 -2,2 -1,0 -2,-1 -2,-2 0,-1 1,-2 2,-2 1,0 2,1 2,2"/>
   <path class="fil4" d="M182 84c0,1 -1,2 -2,2 -1,0 -2,-1 -2,-2 0,-1 1,-2 2,-2 1,0 2,1 2,2z"/>
   <path class="fil5 str4" d="M182 84c0,1 -1,2 -2,2 -1,0 -2,-1 -2,-2 0,-1 1,-2 2,-2 1,0 2,1 2,2"/>
   <path class="fil10" d="M214 96c-2,4 -3,8 -5,12l-29 0 -29 0c-1,-4 -3,-8 -5,-12 0,0 4,5 7,6 1,1 3,1 5,1 2,-1 4,-5 4,-5 0,0 3,3 5,4 1,1 3,1 5,0 1,0 3,0 4,-1 2,-1 4,-5 4,-5 0,0 2,3 3,4 1,2 3,2 5,3 1,0 3,0 4,-1 2,-1 6,-4 6,-4 0,0 2,3 3,4 2,1 4,1 5,0 2,0 3,-1 5,-3 1,0 3,-3 3,-3z"/>
   <polyline class="fil5 str3" points="209,108 201,108 180,108 158,108 151,108 "/>
   <path class="fil6" d="M180 98c0,0 -1,2 -2,3 -1,1 -2,1 -3,2 -2,0 -4,1 -5,0 -2,0 -3,0 -4,-1 -2,0 -4,-2 -4,-2 0,1 -2,2 -3,3 -1,1 -2,1 -4,1 -3,-1 -5,-2 -8,-6 -1,-3 -3,-7 -5,-10 3,-1 5,-2 8,-2 -1,4 -2,7 -2,10 3,-2 4,-5 5,-7l3 10c-2,0 -1,0 -6,-1 1,2 3,4 6,4 1,0 2,0 3,-1 1,-1 2,-2 2,-2 0,-1 0,-2 0,-2 0,-1 -1,-1 -1,-1 0,0 0,1 -1,1 0,0 1,1 0,2 0,0 0,1 -1,1 0,1 -1,1 -1,1l0 -2c0,-1 -1,-2 -1,-3 0,-1 0,-1 0,-2 0,-1 1,-1 2,-2 0,0 0,0 0,0 1,0 1,0 1,0 0,0 0,-1 0,-1 0,-1 1,-3 1,-3 1,-1 2,-3 2,-3 0,1 1,2 2,3 0,0 1,1 1,2 0,1 0,2 0,2 0,0 1,0 1,0 1,0 1,0 1,0 1,0 2,1 2,1 1,1 0,2 0,2 0,2 0,2 0,4l1 1c0,0 -2,0 -2,0 -1,-1 -1,-1 -2,-2 0,0 0,-1 0,-2 0,0 0,0 -1,0 0,0 0,1 0,1l0 2c0,0 0,0 0,1 1,1 1,1 2,2 2,0 3,0 4,0 1,0 2,0 3,0 1,0 2,-1 3,-2 1,0 1,-1 1,-1 0,-1 0,-2 0,-2 -1,0 -2,1 -3,1 -1,1 -2,2 -3,3l0 -13c2,2 2,3 4,4 1,0 1,1 2,1 0,-1 0,-2 -1,-2 -1,-2 -2,-3 -3,-5 2,0 4,0 6,0 3,0 5,0 7,0 -1,1 -2,3 -3,5 -1,0 -1,1 -1,2 1,0 1,0 2,-1 1,-1 2,-2 3,-4l0 13c0,-1 -1,-2 -2,-3 -1,0 -2,-1 -3,-1 0,0 0,1 0,2 0,0 0,1 1,1 1,1 1,2 2,2 1,0 3,0 4,0 1,0 2,0 3,0 1,-1 2,-1 3,-2 0,-1 0,-1 0,-1l0 -2c0,0 0,-1 0,-1 -1,0 -1,0 -1,0 -1,1 0,2 -1,2 0,1 0,1 -1,2 -1,0 -2,0 -2,0l1 -1c0,-2 -1,-2 -1,-4 0,0 0,-1 1,-2 0,0 1,-1 1,-1 0,-1 1,0 1,0 1,0 2,0 2,0 0,0 0,-1 0,-2 0,-1 0,-2 1,-2 0,-1 2,-2 2,-3 0,1 1,2 1,3 1,0 1,2 1,3 0,0 0,1 0,1 0,0 1,0 1,0 1,0 1,0 1,0 1,1 2,1 2,2 0,1 0,2 0,2 0,1 -2,2 -1,3l0 2c0,0 -1,0 -2,-1 0,0 -1,-1 -1,-1 0,-1 0,-2 0,-2 0,-1 0,-1 0,-1 -1,0 -1,1 -1,1 0,0 0,1 0,2 0,0 1,1 1,2 1,1 2,1 4,1 3,0 5,-2 6,-4 -5,1 -4,1 -6,1l3 -10c1,3 2,5 4,7 1,-3 0,-6 -2,-10 3,1 6,1 8,2 -2,3 -3,7 -5,10 -2,4 -5,5 -8,6 -1,0 -2,0 -4,-1 -1,-1 -2,-1 -3,-3 0,0 -2,2 -3,2 -1,1 -3,1 -4,1 -2,0 -4,0 -5,0 -2,0 -2,-1 -3,-2 -1,-1 -3,-3 -3,-3z"/>
   <path class="fil6" d="M205 102l0 0c2,0 4,-3 5,-4 -4,1 -3,1 -5,1l3 -10c1,2 2,5 4,7 1,-3 -1,-6 -2,-10 3,0 6,1 8,1 -2,4 -3,7 -5,11 -2,3 -5,5 -8,5l0 0 0 -1zm-50 2c-3,-1 -6,-2 -8,-6 -1,-3 -3,-7 -5,-10 2,-1 5,-2 8,-2 -1,4 -2,7 -2,10 3,-2 4,-5 4,-7l3 10c-1,0 0,0 -5,-1 1,2 3,4 5,4l0 2z"/>
   <path class="fil6" d="M170 104c-2,0 -3,-1 -5,-1 -1,-1 -3,-3 -3,-3 -1,2 -2,2 -3,3 -1,1 -2,1 -4,1l0 0 0 -2c2,0 3,0 4,-1 1,-1 2,-2 2,-2 0,-1 0,-2 0,-2 0,-1 -1,-1 -1,-1 -1,0 -1,1 -1,1 0,0 0,1 0,2 0,0 0,1 -1,1 0,1 -2,1 -2,1l1 -2c0,-1 -1,-2 -1,-3 0,-1 0,-1 0,-2 0,-1 1,-1 1,-2 1,0 1,0 1,0 0,0 1,0 1,0 0,0 0,-1 0,-1 0,-1 1,-3 1,-3 1,-1 2,-3 2,-3 0,1 1,2 2,3 0,0 1,1 1,2 0,1 0,2 0,2 0,0 1,0 1,0 0,0 1,0 1,0 1,0 2,1 2,1 0,1 0,2 0,2 0,2 -1,2 0,4l0 1c0,0 -1,0 -1,0 -1,-1 -2,-1 -2,-2 0,0 0,-1 0,-2 0,0 -1,0 -1,0 0,0 -1,1 -1,1l0 2c0,0 1,0 1,1 0,1 1,1 2,2 1,0 2,0 3,0l0 2z"/>
   <path class="fil4" d="M182 94c0,1 -1,2 -2,2 -1,0 -2,-1 -2,-2 0,-1 1,-2 2,-2 1,0 2,1 2,2z"/>
   <path class="fil5 str6" d="M182 94c0,1 -1,2 -2,2 -1,0 -2,-1 -2,-2 0,-1 1,-2 2,-2 1,0 2,1 2,2"/>
   <path class="fil4" d="M150 97c0,1 -1,2 -2,2 -2,0 -2,-1 -2,-2 0,-1 0,-2 2,-2 1,0 2,1 2,2z"/>
   <path class="fil5 str6" d="M150 97c0,1 -1,2 -2,2 -2,0 -2,-1 -2,-2 0,-1 0,-2 2,-2 1,0 2,1 2,2"/>
   <path class="fil4" d="M211 97c0,1 1,2 2,2 1,0 2,-1 2,-2 0,-1 -1,-2 -2,-2 -1,0 -2,1 -2,2z"/>
   <path class="fil5 str6" d="M211 97c0,1 1,2 2,2 1,0 2,-1 2,-2 0,-1 -1,-2 -2,-2 -1,0 -2,1 -2,2"/>
   <polygon class="fil10" points="160,97 165,97 166,98 165,99 160,99 160,98 "/>
   <polygon class="fil10" points="200,97 195,97 195,98 195,99 200,99 201,98 "/>
   <path class="fil6" d="M152 114c0,0 3,0 9,0 5,-1 11,-1 14,-1 1,0 9,0 10,0 3,0 9,0 15,1 5,0 9,0 9,0l2 -9c0,0 -21,-2 -31,-2 -10,0 -30,2 -30,2l2 9z"/>
   <path class="fil7" d="M175 113c-3,0 -9,0 -15,0 -3,0 -5,1 -9,1l1 1c3,0 5,0 9,-1 5,0 11,0 14,0 1,0 9,0 10,0 3,0 9,0 15,0 5,1 9,1 9,1l0 -1c0,0 -3,0 -9,-1 -6,0 -12,0 -15,0 -1,0 -9,0 -10,0z"/>
   <path class="fil5 str3" d="M180 104c10,0 20,1 31,2"/>
   <path class="fil5 str3" d="M209 115c-10,-1 -19,-1 -29,-1"/>
   <path class="fil5 str3" d="M180 104c-10,0 -20,1 -30,2"/>
   <path class="fil5 str3" d="M152 115c10,-1 18,-1 28,-1"/>
   <path class="fil11" d="M160 104l0 0 0 0c-3,1 -7,1 -11,2 -1,0 -1,1 0,1 4,0 8,0 12,-1 5,0 9,0 14,0l10 0c3,0 9,0 15,0 5,1 11,1 11,1 1,0 1,-1 0,-1 0,0 -5,-1 -11,-2 -6,0 -12,0 -15,0l-10 0c-5,0 -10,0 -15,0z"/>
   <path class="fil11" d="M212 106c0,0 0,0 -1,-1 0,0 -5,0 -11,-1 -6,0 -12,0 -15,0l-10 0c-5,0 -10,0 -15,0l0 0 0 0c-3,0 -7,1 -11,1 0,1 0,1 0,1 4,-1 7,-1 12,-1 6,-1 13,-1 19,-1 6,0 12,0 18,1 5,0 9,1 14,1z"/>
   <path class="fil10" d="M149 107c0,0 0,0 0,0 4,0 8,-1 12,-1 5,0 9,0 14,0l10 0c3,0 9,0 15,0 5,1 11,1 11,1 0,0 0,0 1,0 -11,-2 -21,-2 -31,-2 -11,0 -22,0 -32,2z"/>
   <polyline class="fil5 str7" points="160,104 160,104 160,104 "/>
   <path class="fil11" d="M162 114l0 0 0 0c-4,0 -8,0 -11,1 -1,0 -1,1 0,1 4,0 7,0 11,-1 4,0 9,0 14,0l8 0c3,0 9,0 14,0 5,1 11,1 11,1 0,0 0,-1 0,-1 0,0 -5,-1 -11,-1 -5,-1 -11,-1 -14,-1l-8 0c-5,0 -10,0 -14,1z"/>
   <path class="fil10" d="M209 115c0,0 0,0 0,0 0,0 -5,-1 -11,-1 -5,-1 -11,-1 -13,-1l-9 0c-5,0 -10,0 -14,1l0 0 0 0c-4,0 -7,0 -11,1 0,0 0,0 0,0 4,0 7,-1 11,-1 6,0 12,0 18,-1 6,0 12,1 17,1 4,0 8,1 12,1z"/>
   <path class="fil10" d="M151 116c0,0 0,0 1,0 3,0 7,-1 10,-1 5,0 9,0 14,0l9 0c2,0 8,0 13,0 5,1 11,1 11,1 0,0 0,0 0,0 -10,-2 -19,-2 -29,-2 -9,0 -19,1 -29,2z"/>
   <polygon class="fil6" points="151,114 156,110 150,108 150,111 "/>
   <polygon class="fil7" points="151,113 154,110 150,109 149,111 "/>
   <path class="fil4" d="M172 108c0,0 0,1 -1,1 0,0 -1,-1 -1,-1 0,-1 1,-1 1,-1 1,0 1,0 1,1z"/>
   <polygon class="fil6" points="209,114 205,110 211,108 211,111 "/>
   <polygon class="fil7" points="210,113 206,110 210,109 211,111 "/>
   <path class="fil4" d="M188 108c0,0 1,1 1,1 1,0 1,-1 1,-1 0,-1 0,-1 -1,-1 0,0 -1,0 -1,1z"/>
   <path class="fil4" d="M172 111c0,1 0,1 -1,1 0,0 -1,0 -1,-1 0,-1 1,-1 1,-1 1,0 1,0 1,1z"/>
   <path class="fil4" d="M188 111c0,1 1,1 1,1 1,0 1,0 1,-1 0,-1 0,-1 -1,-1 0,0 -1,0 -1,1z"/>
  </g>
  <rect class="fil12" x="69" y="473" width="222.428" height="55.607"/>
 </g>
</svg>