<?xml version="1.0" encoding="UTF-8"?>
<!DOCTYPE svg PUBLIC "-//W3C//DTD SVG 1.1//EN" "http://www.w3.org/Graphics/SVG/1.1/DTD/svg11.dtd">
<!-- Creator: CorelDRAW X8 -->
<svg xmlns="http://www.w3.org/2000/svg" xml:space="preserve" width="39.8639mm" height="62.5556mm" version="1.1" style="shape-rendering:geometricPrecision; text-rendering:geometricPrecision; image-rendering:optimizeQuality; fill-rule:evenodd; clip-rule:evenodd" viewBox="0 0 57916 90884" xmlns:xlink="http://www.w3.org/1999/xlink">
 <defs>
  <style type="text/css">
   <![CDATA[
    .str0 {stroke:#666766;stroke-width:74.9669}
    .str3 {stroke:#806729;stroke-width:74.9669}
    .str4 {stroke:#C5C6C6;stroke-width:112.741}
    .str2 {stroke:#433185;stroke-width:154.002}
    .str7 {stroke:#806729;stroke-width:84.8463}
    .str6 {stroke:#C5C6C6;stroke-width:102.426}
    .str5 {stroke:#806729;stroke-width:73.5141}
    .str1 {stroke:#C5C6C6;stroke-width:110.707}
    .fil5 {fill:none}
    .fil1 {fill:#FEFEFE}
    .fil6 {fill:#C5C6C6}
    .fil10 {fill:#B2B3B3}
    .fil8 {fill:#9D9E9E}
    .fil7 {fill:#898989}
    .fil11 {fill:#727271}
    .fil0 {fill:#2B2A29}
    .fil9 {fill:#CCCCCB}
    .fil4 {fill:#EBEBEB}
    .fil3 {fill:white}
    .fil2 {fill:#B2B3B3;fill-rule:nonzero}
   ]]>
  </style>
 </defs>
 <g id="svg2">
  <metadata id="CorelCorpID_0Corel-Layer"/>
  <polygon class="fil0" points="50697,0 57916,90884 28958,90884 0,90884 7219,0 "/>
  <rect class="fil1" x="11083" y="60155" width="35749" height="8937"/>
  <rect class="fil1" x="11083" y="74017" width="35749" height="8937"/>
  <g id="_2438081692144">
   <g>
    <path class="fil2" d="M35138 20914l0 2734 -183 0c-138,-717 -393,-1268 -769,-1650 -375,-383 -801,-573 -1276,-573 -397,0 -761,141 -1094,424 -331,283 -573,654 -727,1112 -198,586 -296,1238 -296,1956 0,705 73,1349 216,1930 144,579 369,1019 676,1314 306,297 704,446 1193,446 401,0 767,-109 1101,-325 332,-218 684,-591 1054,-1122l0 678c-357,462 -730,797 -1117,1005 -386,208 -838,311 -1355,311 -681,0 -1284,-169 -1811,-506 -528,-337 -936,-822 -1222,-1452 -287,-632 -430,-1304 -430,-2018 0,-751 159,-1464 477,-2138 318,-674 746,-1197 1287,-1570 540,-370 1113,-556 1722,-556 448,0 920,120 1418,360 289,141 472,210 549,210 101,0 188,-45 261,-136 74,-92 121,-236 143,-434l183 0z"/>
    <path class="fil2" d="M27598 20895l59 2627 -238 0c-113,-658 -388,-1187 -828,-1587 -442,-400 -918,-601 -1429,-601 -396,0 -709,106 -939,317 -232,211 -347,454 -347,728 0,174 42,329 123,466 111,180 291,360 541,539 182,126 602,354 1260,679 924,452 1546,880 1867,1283 319,402 478,862 478,1381 0,658 -258,1223 -771,1696 -514,474 -1166,712 -1956,712 -248,0 -484,-26 -704,-76 -222,-49 -499,-144 -832,-285 -186,-77 -339,-115 -460,-115 -101,0 -206,40 -319,117 -113,79 -204,198 -274,359l-202 0 0 -2973 202 0c171,834 500,1472 985,1910 488,438 1011,658 1574,658 434,0 781,-118 1038,-354 258,-236 387,-510 387,-825 0,-184 -50,-364 -149,-539 -99,-174 -248,-339 -450,-497 -202,-157 -559,-361 -1070,-613 -717,-350 -1232,-652 -1546,-899 -311,-248 -550,-525 -719,-831 -168,-307 -252,-644 -252,-1010 0,-629 230,-1164 692,-1606 460,-441 1040,-661 1742,-661 256,0 503,29 743,91 183,47 404,132 666,257 262,125 444,187 549,187 101,0 180,-30 238,-92 57,-61 113,-210 162,-443l179 0z"/>
   </g>
   <path class="fil3" d="M25991 18576c0,0 0,0 0,0 0,0 0,0 0,0 -551,31 -1254,337 -1805,429 -122,61 -183,122 -214,183 -61,92 -92,184 -61,275 0,92 31,184 153,276 61,30 153,91 275,122 2325,-367 5812,-581 9299,0 123,-31 214,-61 276,-122 91,-61 153,-153 153,-245 0,-92 0,-245 -92,-336 -61,-62 -123,-123 -245,-153 0,0 -948,-368 -1805,-429 -856,-61 -1804,-61 -2233,-61 -459,0 -948,0 -1407,0 0,0 0,0 0,0 0,0 0,0 0,0 -795,0 -1621,-275 -2294,61z"/>
   <path class="fil4" d="M23911 19463c0,92 31,184 153,276 61,30 153,91 275,122 2325,-367 5812,-581 9299,0 123,-31 214,-61 276,-122 91,-61 153,-153 153,-245 122,-673 -10340,-551 -10156,-31z"/>
   <path class="fil5 str0" d="M25991 18576c0,0 0,0 0,0 0,0 0,0 0,0 -551,31 -1254,337 -1805,429 -122,61 -183,122 -214,183 -61,92 -92,184 -61,275 0,92 31,184 153,276 61,30 153,91 275,122 2325,-367 5812,-581 9299,0 123,-31 214,-61 276,-122 91,-61 153,-153 153,-245 0,-92 0,-245 -92,-336 -61,-62 -123,-123 -245,-153 0,0 -948,-368 -1805,-429 -856,-61 -1804,-61 -2233,-61 -459,0 -948,0 -1407,0 0,0 0,0 0,0 0,0 0,0 0,0 -795,0 -1621,-275 -2294,61"/>
   <path class="fil6 str1" d="M29447 19096c-183,-30 -367,-61 -519,-91 -153,-31 -276,-62 -398,-123 30,61 92,123 245,153 -123,0 -245,61 -306,61 61,31 214,62 306,62 -123,61 -184,122 -215,183 123,-30 245,-92 368,-122 152,-61 336,-92 519,-123z"/>
   <path class="fil6 str1" d="M25593 19280c-183,0 -367,-31 -520,-61 -153,-31 -275,-61 -397,-92 30,61 91,122 244,153 -122,0 -244,61 -306,92 62,30 215,30 306,30 -122,61 -183,123 -183,184 122,-61 214,-92 367,-153 122,-61 306,-122 489,-153z"/>
   <path class="fil6 str1" d="M33302 19463c-184,-61 -337,-91 -490,-152 -122,-62 -275,-123 -367,-184 31,61 92,122 215,184 -123,0 -245,0 -306,30 61,31 183,92 306,92 -123,31 -184,92 -215,153 123,-31 245,-61 367,-61 123,-62 306,-62 490,-62z"/>
   <path class="fil6" d="M27521 19158c-184,-31 -368,-62 -521,-92 -153,-31 -275,-61 -397,-123 30,62 92,123 244,153 -122,0 -244,62 -305,62 61,30 214,61 305,61 -122,61 -183,122 -214,183 123,-30 245,-91 367,-122 153,-31 337,-92 521,-122z"/>
   <path class="fil6" d="M31375 19188c-184,-30 -367,-61 -520,-122 -153,-31 -276,-92 -398,-122 31,61 92,122 214,183 -122,0 -245,31 -306,61 61,31 184,61 306,61 -122,31 -184,92 -214,153 122,-30 245,-91 367,-122 184,-31 367,-61 551,-92z"/>
   <polyline class="fil5 str2" points="32965,18117 33332,17077 33455,16649 33822,16405 34189,15579 34372,15364 34403,14600 "/>
   <path class="fil7" d="M33424 10837c398,92 796,245 1132,581 306,306 489,643 612,1071 122,398 122,642 61,1040 -61,520 -367,1040 -367,1040l-551 -92c0,0 337,-703 367,-1009 31,-367 31,-489 -61,-826 -92,-336 -245,-581 -459,-826 -214,-214 -550,-367 -856,-428 -275,-61 -612,-92 -857,-31 -489,92 -795,245 -1315,428 -367,123 -673,153 -1040,184 -245,0 -489,-31 -765,-92 -245,-61 -459,-122 -459,-122l153 -551c0,0 214,61 428,92 245,61 521,92 612,92 367,-31 582,-61 918,-153 489,-153 826,-306 1377,-428 336,-92 703,-62 1070,30z"/>
   <path class="fil8" d="M28928 11449l61 -275c0,0 214,61 428,92 245,61 520,91 612,91 367,-30 581,-61 918,-153 489,-153 825,-306 1376,-428 367,-61 734,-31 1101,61 398,92 796,245 1132,582 306,305 489,642 612,1070 122,398 122,642 61,1040 -61,520 -367,1040 -367,1040l-275 -61c122,-245 336,-673 367,-1009 122,-826 -123,-1408 -429,-1744 -336,-367 -1131,-795 -1774,-765 -765,31 -1468,459 -2355,612 -490,92 -979,92 -1468,-153z"/>
   <line class="fil5 str3" x1="34862" y1="14569" x2="34311" y2="14477"/>
   <line class="fil5 str3" x1="28866" y1="11724" x2="29019" y2="11204"/>
   <path class="fil4" d="M34923 13957c0,184 122,306 306,306 184,0 306,-122 306,-306 0,-183 -122,-306 -306,-306 -153,0 -306,153 -306,306z"/>
   <path class="fil5 str4" d="M34923 13957c0,184 122,306 306,306 184,0 306,-122 306,-306 0,-183 -122,-306 -306,-306 -153,0 -306,153 -306,306"/>
   <path class="fil4" d="M35076 13223c0,184 122,306 306,306 184,0 306,-122 306,-306 0,-183 -122,-306 -306,-306 -184,0 -306,153 -306,306z"/>
   <path class="fil5 str4" d="M35076 13223c0,184 122,306 306,306 153,0 306,-122 306,-306 0,-183 -122,-306 -306,-306 -184,0 -306,153 -306,306"/>
   <path class="fil4" d="M35045 12458c0,184 123,306 306,306 153,0 306,-122 306,-306 0,-183 -122,-306 -306,-306 -183,0 -306,153 -306,306z"/>
   <path class="fil5 str4" d="M35045 12458c0,184 123,306 306,306 153,0 306,-122 306,-306 0,-183 -122,-306 -306,-306 -183,0 -306,153 -306,306"/>
   <path class="fil4" d="M34739 11755c0,183 123,306 306,306 153,0 306,-123 306,-306 0,-184 -122,-306 -306,-306 -183,0 -306,122 -306,306z"/>
   <path class="fil5 str4" d="M34739 11755c0,183 123,306 306,306 153,0 306,-123 306,-306 0,-184 -122,-306 -306,-306 -183,0 -306,122 -306,306"/>
   <path class="fil4" d="M34189 11174c0,183 122,306 306,306 153,0 306,-123 306,-306 0,-184 -123,-306 -306,-306 -184,0 -306,153 -306,306z"/>
   <path class="fil5 str4" d="M34189 11174c0,183 122,306 306,306 153,0 306,-123 306,-306 0,-184 -123,-306 -306,-306 -184,0 -306,153 -306,306"/>
   <path class="fil4" d="M33516 10807c0,183 122,306 306,306 183,0 306,-123 306,-306 0,-184 -123,-306 -306,-306 -184,0 -306,122 -306,306z"/>
   <path class="fil5 str4" d="M33516 10807c0,183 122,306 306,306 183,0 306,-123 306,-306 0,-184 -123,-306 -306,-306 -184,0 -306,122 -306,306"/>
   <path class="fil4" d="M32721 10623c0,184 122,306 306,306 183,0 306,-122 306,-306 0,-184 -123,-306 -306,-306 -184,0 -306,123 -306,306z"/>
   <path class="fil5 str4" d="M32721 10593c0,183 122,305 306,305 183,0 306,-122 306,-305 0,-184 -123,-306 -306,-306 -184,0 -306,153 -306,306"/>
   <path class="fil4" d="M31925 10654c0,183 123,306 306,306 153,0 306,-123 306,-306 0,-184 -122,-306 -306,-306 -183,0 -306,122 -306,306z"/>
   <path class="fil5 str4" d="M31925 10654c0,183 123,306 306,306 153,0 306,-123 306,-306 0,-184 -122,-306 -306,-306 -183,0 -306,122 -306,306"/>
   <path class="fil4" d="M29723 11204c0,184 122,306 306,306 183,0 306,-122 306,-306 0,-183 -123,-306 -306,-306 -184,0 -306,153 -306,306z"/>
   <path class="fil5 str4" d="M29753 11204c0,184 123,306 306,306 153,0 306,-122 306,-306 0,-183 -122,-306 -306,-306 -183,0 -306,153 -306,306"/>
   <path class="fil4" d="M31161 10868c0,183 122,306 305,306 153,0 306,-123 306,-306 0,-184 -122,-306 -306,-306 -183,0 -305,122 -305,306z"/>
   <path class="fil5 str4" d="M31161 10868c0,183 122,306 305,306 153,0 306,-123 306,-306 0,-184 -122,-306 -306,-306 -183,0 -305,122 -305,306"/>
   <path class="fil4" d="M30457 11082c0,184 122,306 306,306 153,0 306,-122 306,-306 0,-184 -122,-306 -306,-306 -184,0 -306,122 -306,306z"/>
   <path class="fil5 str4" d="M30457 11082c0,184 122,306 306,306 153,0 306,-122 306,-306 0,-184 -122,-306 -306,-306 -184,0 -306,122 -306,306"/>
   <path class="fil7" d="M24492 10837c-398,92 -795,245 -1132,581 -306,306 -489,643 -612,1071 -122,398 -122,642 -61,1040 61,520 367,1040 367,1040l551 -92c0,0 -336,-703 -367,-1009 -31,-367 -31,-490 61,-826 92,-337 245,-581 459,-826 214,-214 551,-367 856,-428 276,-61 612,-92 857,-31 489,92 795,245 1315,428 367,123 673,153 1040,184 245,0 490,-31 765,-92 245,-61 459,-122 459,-122l-153 -551c0,0 -214,61 -428,92 -245,61 -520,92 -612,92 -367,-31 -581,-61 -918,-153 -489,-153 -826,-306 -1376,-428 -337,-92 -704,-62 -1071,30z"/>
   <path class="fil8" d="M28989 11449l-61 -275c0,0 -215,61 -429,92 -244,61 -520,91 -611,91 -367,-30 -582,-61 -918,-153 -490,-153 -826,-306 -1377,-428 -367,-61 -734,-31 -1101,61 -398,92 -795,245 -1132,582 -306,305 -489,642 -612,1070 -122,398 -122,642 -61,1040 61,520 367,1040 367,1040l276 -61c-123,-245 -337,-673 -367,-1009 -123,-826 122,-1408 428,-1744 336,-367 1132,-795 1774,-765 765,31 1468,459 2355,612 490,92 979,92 1469,-153z"/>
   <line class="fil5 str3" x1="23054" y1="14569" x2="23605" y2="14477"/>
   <line class="fil5 str3" x1="29050" y1="11724" x2="28897" y2="11204"/>
   <path class="fil4" d="M22993 13957c0,184 -122,306 -306,306 -183,0 -306,-122 -306,-306 0,-183 123,-306 306,-306 184,0 306,153 306,306z"/>
   <path class="fil5 str4" d="M22993 13957c0,184 -122,306 -306,306 -153,0 -306,-122 -306,-306 0,-183 123,-306 306,-306 153,0 306,153 306,306"/>
   <path class="fil4" d="M22840 13223c0,184 -122,306 -306,306 -183,0 -306,-122 -306,-306 0,-183 123,-306 306,-306 184,0 306,153 306,306z"/>
   <path class="fil9" d="M22290 13407l61 61 122 61 92 0 92 0 122 -92 61 -61 31 -122 0 -123 -61 -61 -61 -92 -92 -30c0,0 30,92 61,122 0,31 0,92 0,122 0,31 -31,92 -61,92 -31,31 -61,61 -92,92 -61,31 -122,31 -153,31 -31,0 -122,0 -122,0z"/>
   <path class="fil5 str4" d="M22840 13223c0,184 -122,306 -306,306 -183,0 -306,-122 -306,-306 0,-183 123,-306 306,-306 184,0 306,153 306,306"/>
   <path class="fil4" d="M22871 12458c0,184 -122,306 -306,306 -153,0 -306,-122 -306,-306 0,-183 122,-306 306,-306 184,0 306,153 306,306z"/>
   <path class="fil5 str4" d="M22902 12458c0,184 -123,306 -306,306 -153,0 -306,-122 -306,-306 0,-183 122,-306 306,-306 153,0 306,153 306,306"/>
   <path class="fil4" d="M23177 11755c0,183 -122,306 -306,306 -184,0 -306,-123 -306,-306 0,-184 122,-306 306,-306 184,0 306,122 306,306z"/>
   <path class="fil5 str4" d="M23177 11755c0,183 -122,306 -306,306 -153,0 -306,-123 -306,-306 0,-184 122,-306 306,-306 183,0 306,122 306,306"/>
   <path class="fil4" d="M23727 11174c0,183 -122,306 -306,306 -183,0 -305,-123 -305,-306 0,-184 122,-306 305,-306 184,0 306,153 306,306z"/>
   <path class="fil5 str4" d="M23727 11174c0,183 -122,306 -306,306 -152,0 -305,-123 -305,-306 0,-184 122,-306 305,-306 184,0 306,153 306,306"/>
   <path class="fil4" d="M24400 10807c0,183 -122,306 -306,306 -183,0 -306,-123 -306,-306 0,-184 123,-306 306,-306 184,0 306,122 306,306z"/>
   <path class="fil5 str4" d="M24431 10807c0,183 -122,306 -306,306 -153,0 -306,-123 -306,-306 0,-184 122,-306 306,-306 153,0 306,122 306,306"/>
   <path class="fil4" d="M25196 10623c0,184 -123,306 -306,306 -184,0 -306,-122 -306,-306 0,-184 122,-306 306,-306 183,0 306,123 306,306z"/>
   <path class="fil5 str4" d="M25196 10593c0,183 -123,305 -306,305 -184,0 -306,-122 -306,-305 0,-184 122,-306 306,-306 183,0 306,153 306,306"/>
   <path class="fil4" d="M25991 10654c0,183 -122,306 -306,306 -153,0 -306,-123 -306,-306 0,-184 122,-306 306,-306 184,0 306,122 306,306z"/>
   <path class="fil5 str4" d="M25991 10654c0,183 -122,306 -306,306 -153,0 -306,-123 -306,-306 0,-184 122,-306 306,-306 184,0 306,122 306,306"/>
   <path class="fil4" d="M28193 11204c0,184 -122,306 -306,306 -183,0 -305,-122 -305,-306 0,-183 122,-306 305,-306 184,0 306,153 306,306z"/>
   <path class="fil5 str4" d="M28193 11204c0,184 -122,306 -306,306 -153,0 -305,-122 -305,-306 0,-183 122,-306 305,-306 153,0 306,153 306,306"/>
   <path class="fil4" d="M26756 10868c0,183 -123,306 -306,306 -184,0 -306,-123 -306,-306 0,-184 122,-306 306,-306 183,0 306,122 306,306z"/>
   <path class="fil5 str4" d="M26756 10868c0,183 -123,306 -306,306 -153,0 -306,-123 -306,-306 0,-184 122,-306 306,-306 183,0 306,122 306,306"/>
   <path class="fil4" d="M27459 11082c0,184 -122,306 -306,306 -153,0 -306,-122 -306,-306 0,-184 123,-306 306,-306 184,0 306,122 306,306z"/>
   <path class="fil5 str4" d="M27490 11082c0,184 -122,306 -306,306 -153,0 -306,-122 -306,-306 0,-184 122,-306 306,-306 153,0 306,122 306,306"/>
   <path class="fil10" d="M28224 9828c92,-92 184,-184 245,-276 92,-122 153,-244 183,-397 -153,30 -275,92 -397,183 -92,92 -184,184 -276,245l0 -1315c92,92 184,183 276,245 122,91 244,153 397,183 -30,-153 -91,-275 -183,-398 -92,-91 -184,-183 -245,-275l1468 0c-92,92 -183,184 -245,275 -91,123 -152,245 -183,398 153,-31 275,-92 398,-184 91,-91 183,-183 275,-244l0 1315c-92,-92 -184,-184 -275,-245 -123,-91 -245,-153 -398,-183 31,153 92,275 183,397 92,92 184,184 245,276l-1468 0z"/>
   <path class="fil10" d="M29325 8910c0,214 -153,367 -367,367 -214,0 -367,-153 -367,-367 0,-214 153,-367 367,-367 214,0 367,184 367,367z"/>
   <path class="fil10 str1" d="M29784 10654c0,459 -367,826 -826,826 -459,0 -826,-367 -826,-826 0,-459 367,-826 826,-826 459,0 826,367 826,826z"/>
   <path class="fil10" d="M28683 11296l550 0c153,0 276,122 276,275l0 2539c0,153 -123,276 -276,276l-550 0c-153,0 -275,-123 -275,-276l0 -2539c0,-122 122,-275 275,-275z"/>
   <path class="fil10" d="M28683 11296l550 0c153,0 276,122 276,275l0 918 -1101 306 0 -1224c0,-153 122,-275 275,-275z"/>
   <path class="fil10 str1" d="M28683 11296l550 0c153,0 276,122 276,275l0 306 -1101 306 0 -612c0,-153 122,-275 275,-275z"/>
   <line class="fil5 str3" x1="28683" y1="11296" x2="29233" y2="11296"/>
   <line class="fil5 str3" x1="29509" y1="11571" x2="29509" y2="14141"/>
   <path class="fil5 str3" d="M29509 14141c0,153 -123,275 -276,275"/>
   <line class="fil5 str3" x1="29233" y1="14416" x2="28683" y2="14416"/>
   <path class="fil5 str3" d="M28683 14416c-153,0 -275,-122 -275,-275"/>
   <line class="fil5 str3" x1="28408" y1="14141" x2="28408" y2="11571"/>
   <path class="fil8" d="M28377 11296l0 0c92,0 184,61 184,153l0 2814c0,92 -92,153 -184,153 -92,0 -184,-61 -184,-153l0 -2814c0,-61 92,-153 184,-153z"/>
   <path class="fil5 str5" d="M28560 14263c0,92 -91,153 -183,153 -92,0 -184,-61 -184,-153"/>
   <path class="fil8" d="M29539 11296c92,0 184,61 184,153l0 2814c0,92 -92,153 -184,153 -92,0 -183,-61 -183,-153l0 -2814c30,-61 91,-153 183,-153z"/>
   <path class="fil5 str5" d="M29723 14263c0,92 -92,153 -184,153"/>
   <path class="fil5 str5" d="M29539 14416c-92,0 -183,-61 -183,-153"/>
   <path class="fil4" d="M29264 11388c0,183 -122,306 -306,306 -153,0 -306,-123 -306,-306 0,-184 123,-306 306,-306 153,0 306,122 306,306z"/>
   <path class="fil5 str4" d="M29264 11388c0,183 -122,306 -306,306 -153,0 -306,-123 -306,-306 0,-184 123,-306 306,-306 184,0 306,122 306,306"/>
   <path class="fil4" d="M29264 12000c0,183 -122,306 -306,306 -153,0 -306,-123 -306,-306 0,-184 123,-306 306,-306 153,0 306,122 306,306z"/>
   <path class="fil5 str4" d="M29264 11969c0,184 -122,306 -306,306 -153,0 -306,-122 -306,-306 0,-184 123,-306 306,-306 184,0 306,153 306,306"/>
   <path class="fil4" d="M29264 12581c0,183 -122,306 -306,306 -153,0 -306,-123 -306,-306 0,-184 123,-306 306,-306 153,0 306,153 306,306z"/>
   <path class="fil5 str4" d="M29264 12581c0,183 -122,306 -306,306 -153,0 -306,-123 -306,-306 0,-184 123,-306 306,-306 184,0 306,153 306,306"/>
   <path class="fil4" d="M29264 13193c0,183 -122,305 -306,305 -153,0 -306,-122 -306,-305 0,-184 123,-306 306,-306 153,0 306,153 306,306z"/>
   <path class="fil5 str4" d="M29264 13193c0,183 -122,305 -306,305 -153,0 -306,-122 -306,-305 0,-184 123,-306 306,-306 184,0 306,153 306,306"/>
   <path class="fil4" d="M29264 13804c0,184 -122,306 -306,306 -153,0 -306,-122 -306,-306 0,-183 123,-306 306,-306 153,0 306,153 306,306z"/>
   <path class="fil5 str4" d="M29264 13804c0,184 -122,306 -306,306 -153,0 -306,-122 -306,-306 0,-183 123,-306 306,-306 184,0 306,153 306,306"/>
   <path class="fil10" d="M34372 15732c-275,642 -520,1284 -734,1927l-4680 0 -4680 0c-214,-643 -459,-1316 -734,-1928 0,0 581,826 1009,1010 245,122 551,153 796,61 336,-122 764,-703 764,-703 0,0 398,458 673,581 245,122 551,122 826,92 245,0 520,-31 704,-153 306,-215 612,-918 612,-918 0,0 305,550 520,765 183,183 428,306 703,336 245,61 520,31 765,-61 336,-122 856,-612 856,-612 0,0 367,459 612,551 245,122 551,153 796,92 275,-62 489,-276 703,-459 184,-153 489,-581 489,-581z"/>
   <polyline class="fil5 str3" points="33608,17689 32384,17689 28958,17689 25379,17689 24278,17689 "/>
   <path class="fil6" d="M28958 16099c0,0 -214,336 -336,428 -184,153 -306,245 -520,336 -245,62 -551,123 -796,92 -244,0 -489,-92 -703,-183 -184,-92 -490,-337 -490,-337 -153,184 -336,306 -489,428 -214,123 -428,123 -673,123 -459,-31 -918,-306 -1254,-918 -214,-551 -490,-1071 -826,-1652 367,-122 826,-214 1315,-214 -183,551 -397,1101 -336,1560 398,-306 551,-734 673,-1132l489 1682c-275,-61 -122,-122 -887,-244 153,275 490,642 887,673 245,30 459,-61 612,-184 122,-92 214,-245 214,-398 0,-91 0,-183 0,-275 0,-61 -61,-122 -122,-122 -61,0 -61,92 -92,122 -30,92 31,214 0,306 -30,122 -92,214 -183,275 -92,61 -276,61 -276,61l61 -244c31,-184 -122,-306 -153,-490 -30,-122 -30,-244 0,-336 31,-122 123,-245 245,-275 31,-31 92,-31 123,-31 61,0 183,31 183,31 0,0 -30,-184 -30,-276 0,-122 122,-367 183,-489 92,-184 275,-367 275,-367 31,31 184,184 306,367 61,122 153,275 153,398 31,91 0,336 0,336 0,0 184,-92 245,-92 31,0 92,0 153,0 122,31 214,153 275,276 61,91 31,244 31,336 -31,184 -122,306 -61,489l91 245c0,0 -214,0 -275,-30 -92,-62 -183,-153 -214,-245 -31,-92 0,-214 -92,-306 -30,-31 -61,-92 -122,-61 -61,0 -92,91 -92,153l0 244c0,62 31,153 61,215 92,152 245,244 398,305 184,62 336,92 520,92 153,0 428,-30 581,-61 184,-61 275,-153 428,-275 92,-61 123,-184 153,-275 31,-123 31,-306 31,-306 -184,61 -336,153 -489,275 -153,122 -306,275 -429,398l0 -2019c184,214 337,397 520,550 153,123 245,184 398,245 -30,-153 -61,-275 -183,-428 -153,-214 -306,-459 -520,-704 367,-61 734,-61 1070,-61 367,0 734,31 1071,61 -184,215 -367,459 -520,704 -123,153 -123,275 -184,428 153,-61 245,-92 398,-245 183,-153 336,-336 520,-550l0 2019c-122,-153 -275,-276 -428,-398 -153,-122 -306,-214 -490,-275 0,0 0,214 31,306 31,91 92,214 153,275 153,122 245,214 428,275 153,61 428,61 581,61 184,0 337,-30 520,-92 153,-61 306,-153 398,-305 31,-62 61,-123 61,-215l0 -244c0,-62 -31,-153 -92,-153 -61,0 -92,30 -122,61 -61,92 -31,214 -92,306 -30,122 -92,183 -214,245 -92,61 -275,30 -275,30l92 -245c61,-183 -62,-306 -62,-489 -30,-122 -30,-245 31,-336 61,-123 153,-215 275,-276 31,-30 92,0 153,0 61,0 245,92 245,92 0,0 0,-214 0,-336 31,-123 92,-276 153,-398 122,-184 306,-336 306,-367 31,31 184,184 275,367 61,122 184,367 184,489 0,92 -31,276 -31,276 0,0 123,-31 184,-31 30,0 92,0 122,31 122,61 214,153 245,275 30,122 30,245 0,336 -31,184 -214,306 -153,490l61 244c0,0 -214,0 -275,-61 -92,-61 -153,-153 -184,-275 -30,-92 31,-214 0,-306 0,-61 -30,-153 -92,-122 -61,0 -122,92 -122,122 0,92 0,184 0,275 0,153 92,276 214,398 153,153 337,214 612,184 398,-31 734,-398 887,-673 -765,153 -612,214 -887,244l489 -1682c153,428 276,826 673,1132 62,-459 -122,-979 -336,-1560 489,31 918,92 1315,214 -336,581 -581,1101 -826,1652 -336,581 -795,887 -1254,918 -245,0 -459,0 -673,-123 -183,-91 -367,-214 -489,-428 0,0 -306,275 -490,337 -214,91 -458,183 -703,183 -245,0 -581,-30 -795,-92 -245,-61 -367,-153 -520,-336 -185,-92 -399,-428 -399,-428z"/>
   <path class="fil6" d="M32935 16680l0 0c398,-31 734,-398 887,-673 -765,153 -612,214 -887,245l489 -1683c153,428 276,826 673,1132 61,-459 -122,-979 -336,-1560 489,31 917,92 1315,214 -336,581 -581,1101 -826,1652 -336,581 -795,887 -1254,918l0 30 -61 -275zm-8015 306c-459,-31 -917,-306 -1254,-918 -214,-551 -489,-1071 -826,-1652 367,-122 826,-214 1316,-214 -184,551 -398,1101 -337,1560 398,-306 551,-734 673,-1132l490 1683c-276,-62 -123,-123 -888,-245 153,275 490,642 888,673l-62 245z"/>
   <path class="fil6" d="M27276 16986c-245,0 -490,-92 -704,-184 -183,-92 -489,-336 -489,-336 -153,183 -337,306 -489,428 -215,122 -429,122 -674,122l0 92 62 -367c244,31 459,-61 612,-184 122,-91 214,-244 214,-397 0,-92 0,-184 0,-276 0,-61 -62,-122 -123,-122 -61,0 -61,92 -91,122 -31,92 30,215 0,306 -31,123 -92,214 -184,276 -92,61 -275,61 -275,61l61 -245c30,-184 -123,-306 -153,-489 -31,-123 -31,-245 0,-337 30,-122 122,-245 245,-275 30,-31 91,-31 122,-31 61,0 184,31 184,31 0,0 -31,-184 -31,-275 0,-123 122,-367 183,-490 92,-183 276,-367 276,-367 30,31 183,184 306,367 61,123 153,275 153,398 30,92 0,336 0,336 0,0 183,-91 244,-91 31,0 92,0 153,0 123,30 214,152 276,275 61,92 30,245 30,336 -30,184 -122,306 -61,490l92 244c0,0 -214,0 -275,-30 -92,-61 -184,-153 -215,-245 -30,-92 0,-214 -91,-306 -31,-31 -62,-92 -123,-61 -61,0 -92,92 -92,153l0 245c0,61 31,153 62,214 91,153 244,245 397,306 184,61 337,92 520,92l-122 214z"/>
   <path class="fil4" d="M29295 15426c0,183 -153,336 -337,336 -183,0 -336,-153 -336,-336 0,-184 153,-337 336,-337 184,0 337,153 337,337z"/>
   <path class="fil5 str6" d="M29295 15426c0,183 -153,336 -337,336 -183,0 -336,-153 -336,-336 0,-184 153,-337 336,-337 184,0 337,153 337,337"/>
   <path class="fil4" d="M24064 15885c0,183 -153,336 -337,336 -183,0 -336,-153 -336,-336 0,-184 153,-337 336,-337 184,0 337,153 337,337z"/>
   <path class="fil5 str6" d="M24064 15885c0,183 -153,336 -337,336 -183,0 -336,-153 -336,-336 0,-184 153,-337 336,-337 184,0 337,153 337,337"/>
   <path class="fil4" d="M33852 15885c0,183 153,336 337,336 183,0 336,-153 336,-336 0,-184 -153,-337 -336,-337 -184,0 -337,153 -337,337z"/>
   <path class="fil5 str6" d="M33883 15885c0,183 153,336 337,336 183,0 336,-153 336,-336 0,-184 -184,-337 -367,-337 -184,0 -306,153 -306,337"/>
   <polygon class="fil10" points="25777,15946 26511,15885 26603,16037 26511,16221 25777,16252 25655,16099 "/>
   <polygon class="fil10" points="32139,15946 31405,15885 31314,16037 31405,16221 32139,16252 32262,16099 "/>
   <path class="fil6" d="M24364 18668c0,0 520,-30 1438,-92 918,-61 1897,-91 2386,-91 92,0 1438,0 1529,0 490,0 1499,30 2386,91 918,62 1438,92 1438,92l306 -1438c0,0 -3273,-305 -4894,-305 -1652,0 -4894,305 -4894,305l305 1438z"/>
   <path class="fil7" d="M28193 18423c-520,0 -1499,31 -2416,92 -581,31 -887,92 -1469,153l62 122c581,-61 856,-61 1437,-91 918,-62 1897,-92 2386,-92 92,0 1438,0 1530,0 489,0 1499,30 2386,92 918,61 1468,91 1468,91l31 -122c0,0 -551,-92 -1469,-153 -917,-61 -1927,-92 -2416,-92 -92,0 -1468,0 -1530,0z"/>
   <path class="fil5 str3" d="M28928 17047c1651,0 3272,92 4924,275"/>
   <path class="fil5 str3" d="M33547 18760c-1622,-153 -2937,-184 -4589,-184"/>
   <path class="fil5 str3" d="M28989 17047c-1652,0 -3273,92 -4925,275"/>
   <path class="fil5 str3" d="M24370 18760c1621,-153 2936,-184 4588,-184"/>
   <path class="fil11" d="M25777 17108l0 0 0 0c-581,31 -1254,92 -1836,184 -91,91 -91,183 62,275 550,-92 1223,-122 1804,-153 796,-31 1591,-61 2386,-92l1530 0c489,0 1468,31 2386,92 887,61 1805,153 1805,153 153,-92 153,-184 61,-275 0,0 -918,-123 -1836,-184 -917,-61 -1927,-92 -2416,-92l-1530 0c-795,0 -1621,31 -2416,92z"/>
   <path class="fil11" d="M34036 17353c0,-31 -31,-61 -61,-92 0,0 -918,-122 -1836,-184 -917,-61 -1927,-91 -2416,-91l-1530 0c-795,0 -1621,30 -2416,91l0 0 0 0c-581,31 -1254,92 -1836,153 -30,62 -61,62 -61,92 673,-61 1254,-122 1928,-183 1039,-62 2171,-62 3150,-92 979,0 1958,30 2906,92 734,91 1468,153 2172,214z"/>
   <path class="fil10" d="M23911 17475c31,31 61,31 92,61 550,-92 1223,-122 1805,-153 795,-30 1590,-61 2386,-91l1529 0c489,0 1468,30 2386,91 887,61 1805,153 1805,153 61,-30 61,-30 91,-61 -1743,-245 -3334,-275 -4986,-275 -1621,-31 -3456,61 -5108,275z"/>
   <polyline class="fil5 str7" points="25777,17077 25777,17108 25777,17108 "/>
   <path class="fil11" d="M25991 18576l0 0 0 0c-551,31 -1162,92 -1713,184 -92,92 -92,184 61,275 520,-92 1132,-122 1683,-153 734,-30 1468,-61 2202,-92l1407 0c428,0 1377,31 2203,92 826,61 1682,153 1682,153 153,-92 122,-183 61,-275 0,0 -856,-122 -1713,-184 -856,-61 -1774,-91 -2233,-91l-1407 0c-734,0 -1468,61 -2233,91z"/>
   <path class="fil10" d="M33669 18852c0,-31 -31,-62 -61,-92 0,0 -857,-123 -1713,-184 -857,-61 -1774,-92 -2233,-92l-1407 1c-734,0 -1499,30 -2233,91l0 0 0 0c-551,31 -1163,92 -1714,153 -30,61 -61,61 -61,92 643,-61 1163,-122 1775,-184 978,-61 2019,-61 2936,-91 918,0 1836,30 2723,91 673,62 1346,123 1988,215z"/>
   <path class="fil10" d="M24278 18943c31,31 31,31 92,62 520,-92 1132,-123 1682,-153 734,-31 1469,-62 2203,-92l1407 0c428,0 1376,30 2202,92 826,61 1683,153 1683,153 30,-31 61,-31 61,-62 -1622,-244 -3090,-275 -4650,-275 -1468,0 -3150,61 -4680,275z"/>
   <polygon class="fil6" points="24247,18576 25012,17964 24094,17628 24064,18148 "/>
   <polygon class="fil7" points="24217,18454 24767,17995 24094,17781 23972,18148 "/>
   <path class="fil4" d="M27673 17628c0,92 -61,153 -153,153 -91,0 -153,-61 -153,-153 0,-92 62,-153 153,-153 92,-31 153,61 153,153z"/>
   <polygon class="fil6" points="33669,18576 32935,17964 33852,17628 33852,18148 "/>
   <polygon class="fil7" points="33700,18454 33149,17995 33822,17781 33944,18148 "/>
   <path class="fil4" d="M30243 17628c0,92 61,153 153,153 92,0 153,-61 153,-153 0,-92 -61,-153 -153,-153 -92,-31 -153,61 -153,153z"/>
   <path class="fil4" d="M27673 18160c0,92 -61,153 -153,153 -91,0 -153,-61 -153,-153 0,-92 62,-153 153,-153 92,-30 153,61 153,153z"/>
   <path class="fil4" d="M30243 18160c0,92 61,153 153,153 92,0 153,-61 153,-153 0,-92 -61,-153 -153,-153 -92,-30 -153,61 -153,153z"/>
  </g>
 </g>
</svg>