<?xml version="1.0" encoding="UTF-8"?>
<!DOCTYPE svg PUBLIC "-//W3C//DTD SVG 1.1//EN" "http://www.w3.org/Graphics/SVG/1.1/DTD/svg11.dtd">
<!-- Creator: CorelDRAW X8 -->
<svg xmlns="http://www.w3.org/2000/svg" xml:space="preserve" width="39.8639mm" height="62.5556mm" version="1.1" style="shape-rendering:geometricPrecision; text-rendering:geometricPrecision; image-rendering:optimizeQuality; fill-rule:evenodd; clip-rule:evenodd" viewBox="0 0 103191 161930" xmlns:xlink="http://www.w3.org/1999/xlink">
 <defs>
  <style type="text/css">
   <![CDATA[
    .str0 {stroke:#666766;stroke-width:133.571}
    .str3 {stroke:#806729;stroke-width:133.571}
    .str4 {stroke:#C5C6C6;stroke-width:200.874}
    .str2 {stroke:#433185;stroke-width:274.39}
    .str7 {stroke:#806729;stroke-width:151.173}
    .str6 {stroke:#C5C6C6;stroke-width:182.495}
    .str5 {stroke:#806729;stroke-width:130.982}
    .str1 {stroke:#C5C6C6;stroke-width:197.25}
    .fil5 {fill:none}
    .fil1 {fill:#FEFEFE}
    .fil6 {fill:#C5C6C6}
    .fil10 {fill:#B2B3B3}
    .fil8 {fill:#9D9E9E}
    .fil7 {fill:#898989}
    .fil11 {fill:#727271}
    .fil0 {fill:#2B2A29}
    .fil9 {fill:#CCCCCB}
    .fil4 {fill:#EBEBEB}
    .fil3 {fill:white}
    .fil2 {fill:#B2B3B3;fill-rule:nonzero}
   ]]>
  </style>
 </defs>
 <g id="svg2">
  <metadata id="CorelCorpID_0Corel-Layer"/>
  <polygon class="fil0" points="90328,0 103191,161930 51596,161930 0,161930 12863,0 "/>
  <rect class="fil1" x="19748" y="109920" width="63696" height="15924"/>
  <rect class="fil1" x="19748" y="134618" width="63696" height="15924"/>
  <rect class="fil1" x="19748" y="85264" width="63696" height="15924"/>
  <rect class="fil1" x="19748" y="109920" width="63696" height="15924"/>
  <rect class="fil1" x="19748" y="134618" width="63696" height="15924"/>
  <rect class="fil1" x="19748" y="85264" width="63696" height="15924"/>
  <g id="_2438011850944">
   <g>
    <path class="fil2" d="M62607 37262l0 4873 -326 0c-246,-1278 -701,-2260 -1370,-2941 -670,-682 -1428,-1021 -2275,-1021 -706,0 -1356,251 -1948,756 -590,505 -1021,1165 -1296,1981 -352,1045 -526,2207 -526,3485 0,1257 128,2404 383,3439 257,1031 658,1815 1204,2341 547,530 1256,795 2126,795 715,0 1368,-195 1963,-580 592,-388 1218,-1052 1876,-1998l0 1208c-635,822 -1298,1419 -1988,1790 -689,371 -1493,554 -2415,554 -1213,0 -2288,-300 -3227,-900 -941,-601 -1668,-1466 -2177,-2589 -512,-1126 -767,-2323 -767,-3594 0,-1338 284,-2609 850,-3810 567,-1200 1330,-2133 2294,-2796 962,-661 1983,-993 3067,-993 799,0 1640,216 2527,643 515,251 841,374 978,374 181,0 335,-81 466,-243 132,-163 215,-421 255,-774l326 0z"/>
    <path class="fil2" d="M49171 37228l107 4682 -424 0c-202,-1172 -692,-2115 -1476,-2828 -788,-713 -1635,-1070 -2546,-1070 -706,0 -1264,187 -1674,565 -413,374 -618,809 -618,1296 0,311 75,586 219,830 198,321 519,642 964,960 325,226 1074,632 2246,1211 1645,805 2754,1568 3326,2285 569,717 851,1536 851,2461 0,1172 -459,2179 -1373,3022 -915,844 -2077,1268 -3486,1268 -441,0 -861,-46 -1253,-134 -396,-88 -890,-258 -1483,-509 -332,-137 -604,-204 -819,-204 -180,0 -367,70 -569,208 -201,141 -363,353 -487,639l-360 0 0 -5296 360 0c304,1486 890,2623 1755,3403 868,781 1801,1173 2803,1173 774,0 1392,-212 1851,-632 459,-421 688,-908 688,-1469 0,-329 -88,-650 -265,-961 -176,-310 -441,-603 -801,-886 -360,-279 -996,-642 -1907,-1091 -1278,-625 -2196,-1162 -2754,-1603 -554,-441 -982,-936 -1282,-1479 -300,-548 -448,-1148 -448,-1801 0,-1120 409,-2073 1232,-2860 819,-788 1854,-1180 3104,-1180 455,0 897,53 1324,163 325,84 720,236 1186,459 466,222 791,332 978,332 181,0 322,-53 424,-163 103,-109 202,-374 290,-791l317 0z"/>
   </g>
   <path class="fil3" d="M46309 33098c0,0 0,0 0,0 0,0 0,0 0,0 -981,54 -2235,599 -3216,763 -218,109 -327,218 -381,327 -109,164 -164,327 -109,490 0,164 54,328 272,491 109,55 273,164 491,218 4142,-654 10355,-1035 16568,0 218,-55 382,-109 491,-218 163,-109 272,-273 272,-436 0,-164 0,-436 -163,-599 -109,-109 -218,-218 -436,-273 0,0 -1690,-654 -3216,-763 -1526,-109 -3215,-109 -3979,-109 -817,0 -1689,0 -2507,0 0,0 0,0 0,0 0,0 0,0 0,0 -1416,0 -2888,-490 -4087,109z"/>
   <path class="fil4" d="M42603 34678c0,164 54,328 272,491 109,55 273,164 491,218 4142,-654 10355,-1035 16568,0 218,-55 382,-109 491,-218 163,-109 272,-273 272,-436 219,-1199 -18421,-981 -18094,-55z"/>
   <path class="fil5 str0" d="M46309 33098c0,0 0,0 0,0 0,0 0,0 0,0 -981,54 -2235,599 -3216,763 -218,109 -327,218 -381,327 -109,164 -164,327 -109,490 0,164 54,328 272,491 109,55 273,164 491,218 4142,-654 10355,-1035 16568,0 218,-55 382,-109 491,-218 163,-109 272,-273 272,-436 0,-164 0,-436 -163,-599 -109,-109 -218,-218 -436,-273 0,0 -1690,-654 -3216,-763 -1526,-109 -3215,-109 -3979,-109 -817,0 -1689,0 -2507,0 0,0 0,0 0,0 0,0 0,0 0,0 -1416,0 -2888,-490 -4087,109"/>
   <path class="fil6 str1" d="M52467 34025c-326,-55 -653,-109 -926,-164 -273,-55 -491,-109 -709,-218 55,109 164,218 436,273 -218,0 -436,109 -544,109 108,54 381,109 544,109 -218,109 -327,218 -381,327 218,-55 436,-164 654,-218 273,-109 600,-164 926,-218z"/>
   <path class="fil6 str1" d="M45600 34352c-327,0 -654,-55 -926,-109 -273,-55 -491,-109 -709,-164 55,109 164,218 436,273 -218,0 -436,108 -545,163 109,54 382,54 545,54 -218,109 -327,218 -327,328 218,-109 382,-164 654,-273 218,-109 545,-218 872,-272z"/>
   <path class="fil6 str1" d="M59335 34678c-327,-109 -600,-163 -872,-272 -218,-109 -490,-218 -654,-327 55,109 164,218 382,327 -218,0 -437,0 -546,55 109,54 328,163 546,163 -218,55 -328,164 -382,273 218,-55 436,-109 654,-109 218,-110 545,-110 872,-110z"/>
   <path class="fil6" d="M49034 34134c-327,-55 -654,-109 -927,-164 -272,-55 -490,-109 -708,-218 55,109 164,218 436,273 -218,0 -436,109 -545,109 109,54 381,109 545,109 -218,109 -327,217 -381,326 217,-54 436,-163 653,-217 273,-55 600,-164 927,-218z"/>
   <path class="fil6" d="M55901 34188c-327,-54 -654,-109 -926,-218 -273,-54 -491,-163 -709,-218 55,109 164,218 382,327 -218,0 -437,55 -546,109 109,55 328,109 546,109 -218,55 -328,164 -382,273 218,-55 436,-164 654,-218 327,-55 654,-109 981,-164z"/>
   <polyline class="fil5 str2" points="58735,32280 59389,30427 59608,29664 60261,29228 60916,27757 61242,27375 61297,26013 "/>
   <path class="fil7" d="M59553 19309c708,163 1417,436 2016,1035 546,545 873,1145 1091,1908 218,708 218,1144 109,1853 -109,927 -654,1853 -654,1853l-982 -163c0,0 600,-1254 654,-1799 55,-654 55,-872 -109,-1471 -163,-600 -436,-1036 -817,-1472 -382,-381 -981,-654 -1526,-763 -491,-109 -1090,-164 -1526,-55 -872,164 -1417,437 -2344,763 -654,218 -1199,273 -1853,328 -436,0 -872,-55 -1362,-164 -436,-109 -818,-218 -818,-218l273 -981c0,0 381,109 762,163 437,109 927,164 1091,164 654,-55 1035,-109 1635,-272 872,-273 1471,-546 2452,-764 600,-163 1254,-109 1908,55z"/>
   <path class="fil8" d="M51541 20399l109 -490c0,0 382,109 763,163 436,109 927,164 1090,164 654,-55 1036,-109 1635,-273 872,-272 1472,-545 2453,-763 654,-109 1308,-55 1962,109 708,164 1417,436 2016,1036 546,545 873,1144 1091,1907 218,709 218,1145 109,1853 -109,927 -654,1853 -654,1853l-491 -109c218,-436 600,-1199 654,-1798 218,-1472 -218,-2507 -763,-3107 -599,-654 -2016,-1417 -3161,-1362 -1363,54 -2616,817 -4197,1090 -872,163 -1744,163 -2616,-273z"/>
   <line class="fil5 str3" x1="62115" y1="25958" x2="61133" y2="25795"/>
   <line class="fil5 str3" x1="51432" y1="20889" x2="51705" y2="19963"/>
   <path class="fil4" d="M62224 24868c0,327 218,545 545,545 327,0 545,-218 545,-545 0,-327 -218,-545 -545,-545 -273,0 -545,273 -545,545z"/>
   <path class="fil5 str4" d="M62224 24868c0,327 218,545 545,545 327,0 545,-218 545,-545 0,-327 -218,-545 -545,-545 -273,0 -545,273 -545,545"/>
   <path class="fil4" d="M62496 23560c0,327 218,545 545,545 327,0 545,-218 545,-545 0,-327 -218,-545 -545,-545 -327,0 -545,273 -545,545z"/>
   <path class="fil5 str4" d="M62496 23560c0,327 218,545 545,545 273,0 545,-218 545,-545 0,-327 -218,-545 -545,-545 -327,0 -545,273 -545,545"/>
   <path class="fil4" d="M62442 22198c0,327 217,545 545,545 272,0 545,-218 545,-545 0,-328 -218,-546 -545,-546 -328,0 -545,273 -545,546z"/>
   <path class="fil5 str4" d="M62442 22198c0,327 217,545 545,545 272,0 545,-218 545,-545 0,-328 -218,-546 -545,-546 -328,0 -545,273 -545,546"/>
   <path class="fil4" d="M61896 20944c0,327 218,545 546,545 272,0 545,-218 545,-545 0,-327 -218,-545 -545,-545 -327,0 -546,218 -546,545z"/>
   <path class="fil5 str4" d="M61896 20944c0,327 218,545 546,545 272,0 545,-218 545,-545 0,-327 -218,-545 -545,-545 -327,0 -546,218 -546,545"/>
   <path class="fil4" d="M60916 19909c0,327 217,545 544,545 273,0 546,-218 546,-545 0,-328 -218,-546 -546,-546 -327,0 -544,273 -544,546z"/>
   <path class="fil5 str4" d="M60916 19909c0,327 217,545 544,545 273,0 546,-218 546,-545 0,-328 -218,-546 -546,-546 -327,0 -544,273 -544,546"/>
   <path class="fil4" d="M59717 19254c0,328 217,546 544,546 328,0 546,-218 546,-546 0,-327 -218,-545 -546,-545 -327,0 -544,218 -544,545z"/>
   <path class="fil5 str4" d="M59717 19254c0,328 217,546 544,546 328,0 546,-218 546,-546 0,-327 -218,-545 -546,-545 -327,0 -544,218 -544,545"/>
   <path class="fil4" d="M58300 18927c0,327 217,545 544,545 328,0 546,-218 546,-545 0,-327 -218,-545 -546,-545 -327,0 -544,219 -544,545z"/>
   <path class="fil5 str4" d="M58300 18873c0,327 217,545 544,545 328,0 546,-218 546,-545 0,-327 -218,-545 -546,-545 -327,0 -544,273 -544,545"/>
   <path class="fil4" d="M56882 18982c0,327 218,545 545,545 273,0 546,-218 546,-545 0,-327 -218,-545 -546,-545 -327,0 -545,218 -545,545z"/>
   <path class="fil5 str4" d="M56882 18982c0,327 218,545 545,545 273,0 546,-218 546,-545 0,-327 -218,-545 -546,-545 -327,0 -545,218 -545,545"/>
   <path class="fil4" d="M52958 19963c0,327 218,545 545,545 327,0 545,-218 545,-545 0,-327 -218,-545 -545,-545 -327,0 -545,272 -545,545z"/>
   <path class="fil5 str4" d="M53013 19963c0,327 218,545 545,545 272,0 545,-218 545,-545 0,-327 -218,-545 -545,-545 -327,0 -545,272 -545,545"/>
   <path class="fil4" d="M55520 19363c0,328 218,546 545,546 272,0 545,-218 545,-546 0,-327 -218,-545 -545,-545 -327,0 -545,218 -545,545z"/>
   <path class="fil5 str4" d="M55520 19363c0,328 218,546 545,546 272,0 545,-218 545,-546 0,-327 -218,-545 -545,-545 -327,0 -545,218 -545,545"/>
   <path class="fil4" d="M54266 19745c0,327 218,545 545,545 273,0 545,-218 545,-545 0,-327 -218,-545 -545,-545 -327,0 -545,218 -545,545z"/>
   <path class="fil5 str4" d="M54266 19745c0,327 218,545 545,545 273,0 545,-218 545,-545 0,-327 -218,-545 -545,-545 -327,0 -545,218 -545,545"/>
   <path class="fil7" d="M43638 19309c-708,163 -1417,436 -2016,1035 -545,545 -872,1145 -1091,1908 -217,708 -217,1144 -108,1853 108,927 654,1853 654,1853l981 -164c0,0 -600,-1253 -654,-1798 -55,-654 -55,-872 109,-1471 163,-600 436,-1036 817,-1472 382,-382 981,-654 1526,-763 491,-109 1090,-164 1526,-55 872,164 1417,436 2344,763 654,218 1199,273 1853,327 436,0 872,-54 1362,-163 437,-109 818,-218 818,-218l-272 -981c0,0 -382,109 -763,163 -436,109 -927,164 -1091,164 -653,-55 -1035,-109 -1635,-273 -872,-272 -1471,-545 -2452,-763 -600,-163 -1254,-109 -1908,55z"/>
   <path class="fil8" d="M51650 20399l-109 -490c0,0 -381,109 -763,163 -436,109 -926,164 -1090,164 -654,-55 -1035,-109 -1635,-273 -872,-272 -1472,-545 -2453,-763 -654,-109 -1308,-55 -1962,109 -708,164 -1417,436 -2016,1036 -545,545 -872,1144 -1091,1907 -217,709 -217,1145 -108,1853 108,927 654,1853 654,1853l490 -109c-218,-436 -599,-1199 -654,-1798 -218,-1472 218,-2507 763,-3107 599,-654 2017,-1417 3161,-1362 1363,54 2616,817 4197,1090 872,163 1744,163 2616,-273z"/>
   <line class="fil5 str3" x1="41077" y1="25958" x2="42058" y2="25795"/>
   <line class="fil5 str3" x1="51759" y1="20889" x2="51487" y2="19963"/>
   <path class="fil4" d="M40968 24868c0,327 -218,545 -545,545 -327,0 -545,-218 -545,-545 0,-327 218,-545 545,-545 327,0 545,273 545,545z"/>
   <path class="fil5 str4" d="M40968 24868c0,327 -218,545 -545,545 -273,0 -545,-218 -545,-545 0,-327 218,-545 545,-545 272,0 545,273 545,545"/>
   <path class="fil4" d="M40695 23560c0,327 -218,545 -545,545 -327,0 -545,-218 -545,-545 0,-327 218,-545 545,-545 327,0 545,273 545,545z"/>
   <path class="fil9" d="M39714 23887l109 109 218 109 164 0 163 0 218 -163 109 -109 55 -218 0 -218 -109 -109 -109 -164 -164 -55c0,0 55,164 109,218 0,55 0,164 0,218 0,55 -54,164 -109,164 -54,55 -109,109 -163,164 -109,54 -218,54 -273,54 -54,0 -218,0 -218,0z"/>
   <path class="fil5 str4" d="M40695 23560c0,327 -218,545 -545,545 -327,0 -545,-218 -545,-545 0,-327 218,-545 545,-545 327,0 545,273 545,545"/>
   <path class="fil4" d="M40750 22198c0,327 -218,545 -545,545 -273,0 -545,-218 -545,-545 0,-328 218,-546 545,-546 327,0 545,273 545,546z"/>
   <path class="fil5 str4" d="M40804 22198c0,327 -218,545 -545,545 -272,0 -545,-218 -545,-545 0,-328 218,-546 545,-546 273,0 545,273 545,546"/>
   <path class="fil4" d="M41295 20944c0,327 -218,545 -545,545 -327,0 -545,-218 -545,-545 0,-327 218,-545 545,-545 327,0 545,218 545,545z"/>
   <path class="fil5 str4" d="M41295 20944c0,327 -218,545 -545,545 -273,0 -545,-218 -545,-545 0,-327 218,-545 545,-545 327,0 545,218 545,545"/>
   <path class="fil4" d="M42276 19909c0,327 -218,545 -545,545 -327,0 -545,-218 -545,-545 0,-328 218,-546 545,-546 327,0 545,273 545,546z"/>
   <path class="fil5 str4" d="M42276 19909c0,327 -218,545 -545,545 -273,0 -545,-218 -545,-545 0,-328 218,-546 545,-546 327,0 545,273 545,546"/>
   <path class="fil4" d="M43475 19254c0,328 -218,546 -545,546 -327,0 -545,-218 -545,-546 0,-327 218,-545 545,-545 327,0 545,218 545,545z"/>
   <path class="fil5 str4" d="M43529 19254c0,328 -218,546 -545,546 -272,0 -545,-218 -545,-546 0,-327 218,-545 545,-545 273,0 545,218 545,545"/>
   <path class="fil4" d="M44892 18927c0,327 -218,545 -545,545 -327,0 -545,-218 -545,-545 0,-327 218,-545 545,-545 327,0 545,219 545,545z"/>
   <path class="fil5 str4" d="M44892 18873c0,327 -218,545 -545,545 -327,0 -545,-218 -545,-545 0,-327 218,-545 545,-545 327,0 545,273 545,545"/>
   <path class="fil4" d="M46309 18982c0,327 -218,545 -545,545 -273,0 -545,-218 -545,-545 0,-327 218,-545 545,-545 327,0 545,218 545,545z"/>
   <path class="fil5 str4" d="M46309 18982c0,327 -218,545 -545,545 -273,0 -545,-218 -545,-545 0,-327 218,-545 545,-545 327,0 545,218 545,545"/>
   <path class="fil4" d="M50233 19963c0,327 -218,545 -545,545 -327,0 -545,-218 -545,-545 0,-327 218,-545 545,-545 327,0 545,272 545,545z"/>
   <path class="fil5 str4" d="M50233 19963c0,327 -218,545 -545,545 -273,0 -545,-218 -545,-545 0,-327 218,-545 545,-545 272,0 545,272 545,545"/>
   <path class="fil4" d="M47671 19363c0,328 -217,546 -545,546 -327,0 -545,-218 -545,-546 0,-327 218,-545 545,-545 328,0 545,218 545,545z"/>
   <path class="fil5 str4" d="M47671 19363c0,328 -217,546 -545,546 -272,0 -545,-218 -545,-546 0,-327 218,-545 545,-545 328,0 545,218 545,545"/>
   <path class="fil4" d="M48925 19745c0,327 -218,545 -545,545 -273,0 -545,-218 -545,-545 0,-327 218,-545 545,-545 327,0 545,218 545,545z"/>
   <path class="fil5 str4" d="M48980 19745c0,327 -218,545 -546,545 -272,0 -545,-218 -545,-545 0,-327 218,-545 545,-545 273,0 546,218 546,545"/>
   <path class="fil10" d="M50288 17510c163,-163 327,-327 436,-490 163,-218 272,-436 327,-709 -273,55 -491,164 -709,327 -163,164 -327,328 -490,437l0 -2344c163,163 327,327 490,436 218,164 436,273 709,327 -55,-272 -164,-490 -327,-709 -164,-163 -327,-326 -436,-490l2616 0c-164,164 -328,327 -437,490 -163,218 -272,436 -326,709 272,-55 490,-164 708,-327 164,-164 327,-327 491,-436l0 2343c-164,-163 -328,-327 -491,-436 -218,-163 -436,-272 -708,-327 54,272 163,490 326,709 164,163 328,327 437,490l-2616 0z"/>
   <path class="fil10" d="M52250 15876c0,381 -273,653 -654,653 -382,0 -655,-272 -655,-653 0,-382 273,-655 655,-655 381,0 654,327 654,655z"/>
   <path class="fil10 str1" d="M53067 18982c0,818 -654,1472 -1471,1472 -818,0 -1472,-654 -1472,-1472 0,-818 654,-1472 1472,-1472 817,0 1471,654 1471,1472z"/>
   <path class="fil10" d="M51105 20126l981 0c272,0 490,218 490,491l0 4524c0,272 -218,490 -490,490l-981 0c-273,0 -490,-218 -490,-490l0 -4524c0,-218 217,-491 490,-491z"/>
   <path class="fil10" d="M51105 20126l981 0c272,0 490,218 490,491l0 1635 -1961 545 0 -2180c0,-273 217,-491 490,-491z"/>
   <path class="fil10 str1" d="M51105 20126l981 0c272,0 490,218 490,491l0 545 -1961 545 0 -1090c0,-273 217,-491 490,-491z"/>
   <line class="fil5 str3" x1="51105" y1="20126" x2="52086" y2="20126"/>
   <line class="fil5 str3" x1="52576" y1="20617" x2="52576" y2="25195"/>
   <path class="fil5 str3" d="M52577 25195c0,273 -218,490 -491,490"/>
   <line class="fil5 str3" x1="52086" y1="25686" x2="51105" y2="25686"/>
   <path class="fil5 str3" d="M51105 25686c-273,0 -490,-218 -490,-491"/>
   <line class="fil5 str3" x1="50615" y1="25195" x2="50615" y2="20617"/>
   <path class="fil8" d="M50560 20126l0 0c164,0 327,109 327,273l0 5014c0,164 -163,273 -327,273 -163,0 -327,-109 -327,-273l0 -5014c0,-109 164,-273 327,-273z"/>
   <path class="fil5 str5" d="M50887 25413c0,164 -163,273 -327,273 -164,0 -327,-109 -327,-273"/>
   <path class="fil8" d="M52631 20126c164,0 327,109 327,273l0 5014c0,164 -163,273 -327,273 -164,0 -327,-109 -327,-273l0 -5014c54,-109 163,-273 327,-273z"/>
   <path class="fil5 str5" d="M52958 25413c0,164 -163,273 -327,273"/>
   <path class="fil5 str5" d="M52631 25686c-164,0 -327,-109 -327,-273"/>
   <path class="fil4" d="M52141 20290c0,327 -218,545 -545,545 -273,0 -546,-218 -546,-545 0,-327 218,-545 546,-545 272,0 545,218 545,545z"/>
   <path class="fil5 str4" d="M52141 20290c0,327 -218,545 -545,545 -273,0 -546,-218 -546,-545 0,-327 218,-545 546,-545 327,0 545,218 545,545"/>
   <path class="fil4" d="M52141 21380c0,327 -218,545 -545,545 -273,0 -546,-218 -546,-545 0,-327 218,-545 546,-545 272,0 545,218 545,545z"/>
   <path class="fil5 str4" d="M52141 21326c0,327 -218,545 -545,545 -273,0 -546,-218 -546,-545 0,-328 218,-545 546,-545 327,0 545,272 545,545"/>
   <path class="fil4" d="M52141 22416c0,327 -218,545 -545,545 -273,0 -546,-218 -546,-545 0,-327 218,-545 546,-545 272,0 545,272 545,545z"/>
   <path class="fil5 str4" d="M52141 22416c0,327 -218,545 -545,545 -273,0 -546,-218 -546,-545 0,-327 218,-545 546,-545 327,0 545,272 545,545"/>
   <path class="fil4" d="M52141 23506c0,327 -218,545 -545,545 -273,0 -546,-218 -546,-545 0,-328 218,-546 546,-546 272,0 545,273 545,546z"/>
   <path class="fil5 str4" d="M52141 23506c0,327 -218,545 -545,545 -273,0 -546,-218 -546,-545 0,-328 218,-546 546,-546 327,0 545,273 545,546"/>
   <path class="fil4" d="M52141 24596c0,327 -218,545 -545,545 -273,0 -546,-218 -546,-545 0,-328 218,-545 546,-545 272,0 545,272 545,545z"/>
   <path class="fil5 str4" d="M52141 24596c0,327 -218,545 -545,545 -273,0 -546,-218 -546,-545 0,-328 218,-545 546,-545 327,0 545,272 545,545"/>
   <path class="fil10" d="M61242 28029c-490,1145 -926,2290 -1308,3434l-8338 0 -8339 0c-382,-1145 -818,-2344 -1308,-3434 0,0 1035,1472 1798,1799 436,218 981,272 1417,109 600,-218 1363,-1254 1363,-1254 0,0 709,818 1199,1036 436,218 981,218 1472,163 436,0 926,-54 1253,-272 545,-382 1090,-1635 1090,-1635 0,0 545,981 927,1362 327,327 763,545 1253,600 436,109 927,54 1363,-109 599,-218 1526,-1090 1526,-1090 0,0 654,817 1090,981 436,218 981,272 1417,163 491,-109 872,-490 1253,-817 327,-273 872,-1036 872,-1036z"/>
   <polyline class="fil5 str3" points="59880,31518 57700,31518 51596,31518 45219,31518 43257,31518 "/>
   <path class="fil6" d="M51596 28683c0,0 -382,600 -600,763 -327,273 -545,437 -926,600 -437,109 -981,218 -1417,163 -437,0 -872,-163 -1254,-327 -327,-163 -872,-599 -872,-599 -272,327 -599,545 -872,763 -381,218 -763,218 -1199,218 -817,-55 -1635,-545 -2234,-1635 -382,-982 -873,-1908 -1472,-2944 654,-217 1472,-381 2343,-381 -327,981 -708,1962 -599,2780 709,-546 981,-1308 1199,-2017l872 2997c-490,-108 -218,-217 -1581,-436 273,491 873,1145 1581,1199 436,55 818,-109 1090,-327 218,-163 382,-436 382,-708 0,-164 0,-327 0,-491 0,-109 -109,-218 -218,-218 -109,0 -109,164 -164,218 -54,164 55,382 0,545 -54,218 -163,382 -327,491 -163,109 -490,109 -490,109l109 -436c54,-327 -218,-545 -273,-872 -55,-218 -55,-436 0,-600 55,-218 218,-436 436,-490 55,-55 164,-55 218,-55 109,0 327,55 327,55 0,0 -54,-327 -54,-491 0,-218 218,-654 327,-872 163,-327 490,-654 490,-654 55,55 327,328 545,654 109,218 273,491 273,709 54,164 0,599 0,599 0,0 327,-163 436,-163 54,0 163,0 272,0 218,54 382,272 491,490 109,164 54,436 54,600 -54,327 -217,545 -108,872l163 436c0,0 -381,0 -490,-55 -164,-109 -328,-272 -382,-436 -55,-163 0,-381 -164,-545 -54,-54 -108,-163 -217,-109 -109,0 -164,164 -164,273l0 436c0,109 55,272 109,381 164,273 436,436 709,545 327,109 599,164 926,164 273,0 763,-55 1036,-109 327,-109 490,-273 763,-491 163,-109 218,-327 272,-490 55,-218 55,-545 55,-545 -327,109 -600,272 -872,490 -273,218 -545,491 -763,709l0 -3597c327,381 599,708 926,981 273,218 437,327 709,436 -54,-273 -109,-490 -327,-763 -273,-382 -545,-818 -927,-1253 654,-109 1308,-109 1908,-109 654,0 1308,54 1907,109 -327,381 -654,817 -926,1253 -218,273 -218,490 -327,763 272,-109 436,-164 708,-436 327,-273 600,-600 927,-981l0 3597c-218,-273 -491,-490 -763,-709 -273,-218 -545,-381 -872,-490 0,0 0,381 55,545 54,164 163,381 272,490 272,218 436,382 763,491 273,109 763,109 1035,109 328,0 600,-55 927,-164 273,-109 545,-272 709,-545 54,-109 109,-218 109,-381l0 -436c0,-109 -55,-273 -164,-273 -109,0 -164,55 -218,109 -109,164 -55,382 -163,545 -55,218 -164,327 -382,436 -163,109 -490,55 -490,55l163 -436c109,-327 -109,-545 -109,-872 -54,-218 -54,-436 55,-600 109,-218 272,-381 490,-490 55,-55 164,0 273,0 109,0 436,163 436,163 0,0 0,-381 0,-599 54,-218 163,-491 272,-709 218,-327 545,-599 545,-654 55,55 328,328 491,654 109,218 327,654 327,872 0,164 -55,491 -55,491 0,0 218,-55 328,-55 54,0 163,0 218,55 217,109 381,272 435,490 55,218 55,436 0,600 -54,327 -381,545 -272,872l109 436c0,0 -381,0 -490,-109 -164,-109 -273,-273 -328,-491 -54,-163 55,-381 0,-545 0,-109 -54,-272 -163,-218 -109,0 -218,164 -218,218 0,164 0,327 0,491 0,272 163,490 381,708 273,273 600,382 1090,327 709,-54 1308,-708 1581,-1199 -1363,273 -1090,382 -1581,436l873 -2997c272,763 490,1471 1199,2017 109,-818 -218,-1745 -600,-2780 872,55 1635,164 2344,381 -600,1036 -1036,1962 -1472,2944 -599,1035 -1417,1580 -2235,1635 -436,0 -817,0 -1199,-218 -327,-164 -654,-382 -872,-763 0,0 -545,490 -872,599 -381,164 -817,327 -1253,327 -436,0 -1036,-54 -1417,-163 -436,-109 -654,-273 -927,-600 -328,-163 -709,-763 -709,-763z"/>
   <path class="fil6" d="M58681 29719l0 0c709,-55 1308,-709 1580,-1199 -1362,272 -1090,381 -1580,436l872 -2998c272,763 490,1472 1199,2017 109,-818 -218,-1744 -600,-2780 873,55 1636,164 2344,382 -599,1035 -1036,1962 -1471,2943 -600,1036 -1417,1581 -2235,1635l0 55 -109 -491zm-14280 545c-817,-55 -1635,-545 -2234,-1635 -382,-981 -872,-1908 -1472,-2944 654,-217 1472,-381 2344,-381 -327,981 -709,1962 -600,2780 709,-545 981,-1308 1199,-2017l872 2998c-490,-109 -218,-218 -1580,-436 272,490 872,1144 1580,1199l-109 436z"/>
   <path class="fil6" d="M48598 30264c-436,0 -872,-164 -1253,-327 -328,-164 -872,-600 -872,-600 -273,328 -600,546 -872,763 -382,218 -763,218 -1200,218l0 164 109 -654c437,55 818,-109 1091,-327 218,-164 381,-436 381,-709 0,-163 0,-327 0,-490 0,-109 -109,-218 -218,-218 -109,0 -109,163 -163,218 -55,163 54,381 0,545 -55,218 -164,381 -327,490 -164,109 -491,109 -491,109l109 -436c55,-327 -218,-545 -273,-872 -54,-218 -54,-436 0,-599 55,-218 218,-436 437,-491 54,-54 163,-54 218,-54 108,0 327,54 327,54 0,0 -55,-327 -55,-490 0,-218 218,-654 327,-872 164,-327 491,-654 491,-654 54,54 327,327 545,654 109,218 272,490 272,708 55,164 0,600 0,600 0,0 327,-164 436,-164 55,0 164,0 273,0 218,55 381,273 490,491 109,163 55,436 55,599 -55,327 -218,545 -109,872l163 436c0,0 -381,0 -490,-54 -164,-109 -327,-273 -382,-436 -54,-164 0,-382 -163,-545 -55,-55 -109,-164 -218,-109 -109,0 -164,163 -164,272l0 436c0,109 55,273 109,382 164,272 436,436 709,545 327,109 599,163 927,163l-219 382z"/>
   <path class="fil4" d="M52195 27484c0,327 -272,600 -599,600 -328,0 -600,-273 -600,-600 0,-327 273,-599 600,-599 327,0 599,272 599,599z"/>
   <path class="fil5 str6" d="M52195 27484c0,327 -272,600 -599,600 -328,0 -600,-273 -600,-600 0,-327 273,-599 600,-599 327,0 599,272 599,599"/>
   <path class="fil4" d="M42875 28302c0,327 -272,599 -599,599 -327,0 -600,-272 -600,-599 0,-327 273,-600 600,-600 327,0 599,273 599,600z"/>
   <path class="fil5 str6" d="M42875 28302c0,327 -272,599 -599,599 -327,0 -600,-272 -600,-599 0,-327 273,-600 600,-600 327,0 599,273 599,600"/>
   <path class="fil4" d="M60316 28302c0,327 272,599 599,599 327,0 600,-272 600,-599 0,-327 -273,-600 -600,-600 -327,0 -599,273 -599,600z"/>
   <path class="fil5 str6" d="M60370 28302c0,327 273,599 600,599 327,0 599,-272 599,-599 0,-327 -327,-600 -653,-600 -328,0 -546,273 -546,600"/>
   <polygon class="fil10" points="45927,28411 47235,28302 47399,28574 47235,28901 45927,28956 45709,28683 "/>
   <polygon class="fil10" points="57264,28411 55956,28302 55792,28574 55956,28901 57264,28956 57482,28683 "/>
   <path class="fil6" d="M43411 33261c0,0 926,-54 2561,-163 1635,-109 3379,-163 4251,-163 164,0 2562,0 2725,0 872,0 2671,54 4252,163 1635,109 2561,163 2561,163l545 -2561c0,0 -5831,-545 -8720,-545 -2943,0 -8720,545 -8720,545l545 2561z"/>
   <path class="fil7" d="M50233 32826c-926,0 -2671,54 -4306,163 -1035,55 -1580,163 -2616,272l109 218c1036,-109 1526,-109 2562,-163 1635,-109 3379,-164 4251,-164 164,0 2561,0 2725,0 872,0 2671,55 4251,164 1635,109 2616,163 2616,163l55 -218c0,0 -981,-163 -2616,-272 -1635,-109 -3434,-163 -4306,-163 -163,0 -2616,0 -2725,0z"/>
   <path class="fil5 str3" d="M51541 30373c2943,0 5832,163 8775,490"/>
   <path class="fil5 str3" d="M59771 33425c-2889,-273 -5232,-327 -8175,-327"/>
   <path class="fil5 str3" d="M51650 30373c-2943,0 -5831,163 -8775,490"/>
   <path class="fil5 str3" d="M43420 33425c2889,-273 5232,-327 8176,-327"/>
   <path class="fil11" d="M45927 30482l0 0 0 0c-1035,54 -2234,163 -3270,327 -163,164 -163,327 109,491 981,-164 2180,-218 3216,-273 1417,-55 2834,-109 4251,-164l2725 0c872,0 2616,55 4251,164 1581,109 3216,273 3216,273 273,-164 273,-328 109,-491 0,0 -1635,-218 -3270,-327 -1635,-109 -3434,-164 -4306,-164l-2725 0c-1417,0 -2888,55 -4306,164z"/>
   <path class="fil11" d="M60643 30918c0,-55 -55,-109 -109,-164 0,0 -1635,-218 -3270,-327 -1635,-109 -3434,-163 -4306,-163l-2725 0c-1417,0 -2889,55 -4306,163l0 0 0 0c-1035,55 -2234,164 -3270,273 -54,109 -109,109 -109,163 1199,-109 2235,-218 3434,-327 1853,-109 3869,-109 5614,-163 1744,0 3488,54 5177,163 1308,164 2616,273 3870,382z"/>
   <path class="fil10" d="M42603 31136c54,55 109,55 163,109 982,-164 2180,-218 3216,-273 1417,-54 2834,-109 4251,-163l2725 0c872,0 2616,54 4251,163 1581,109 3216,273 3216,273 109,-55 109,-55 164,-109 -3107,-436 -5941,-491 -8884,-491 -2889,-54 -6159,109 -9102,491z"/>
   <polyline class="fil5 str7" points="45927,30427 45927,30482 45927,30482 "/>
   <path class="fil11" d="M46309 33098l0 0 0 0c-981,54 -2071,163 -3053,327 -163,164 -163,327 109,491 927,-164 2017,-218 2998,-273 1308,-55 2616,-109 3924,-164l2508 0c763,0 2452,55 3924,164 1472,109 2998,273 2998,273 272,-164 217,-328 108,-491 0,0 -1525,-218 -3052,-327 -1526,-109 -3161,-163 -3979,-163l-2506 0c-1308,0 -2617,109 -3979,163z"/>
   <path class="fil10" d="M59989 33588c0,-54 -55,-109 -109,-163 0,0 -1526,-218 -3052,-327 -1526,-109 -3161,-164 -3979,-164l-2507 1c-1308,0 -2671,54 -3979,163l0 0 0 0c-981,54 -2071,163 -3052,272 -55,109 -109,109 -109,164 1145,-109 2071,-218 3161,-327 1744,-109 3598,-109 5233,-163 1635,0 3270,54 4850,163 1199,109 2398,218 3543,381z"/>
   <path class="fil10" d="M43257 33752c54,55 54,55 163,109 927,-164 2017,-218 2998,-273 1308,-54 2616,-109 3924,-163l2507 0c763,0 2453,54 3924,163 1472,109 2998,273 2998,273 54,-55 109,-55 109,-109 -2889,-436 -5505,-491 -8285,-491 -2615,0 -5613,109 -8338,491z"/>
   <polygon class="fil6" points="43202,33098 44565,32008 42930,31409 42875,32335 "/>
   <polygon class="fil7" points="43148,32880 44129,32062 42930,31681 42712,32335 "/>
   <path class="fil4" d="M49307 31409c0,163 -109,272 -273,272 -164,0 -273,-109 -273,-272 0,-164 109,-273 273,-273 164,-55 273,109 273,273z"/>
   <polygon class="fil6" points="59989,33098 58681,32008 60316,31409 60316,32335 "/>
   <polygon class="fil7" points="60043,32880 59062,32062 60261,31681 60479,32335 "/>
   <path class="fil4" d="M53885 31409c0,163 109,272 272,272 164,0 273,-109 273,-272 0,-164 -109,-273 -273,-273 -163,-55 -272,109 -272,273z"/>
   <path class="fil4" d="M49307 32356c0,164 -109,273 -273,273 -164,0 -273,-109 -273,-273 0,-163 109,-272 273,-272 164,-54 273,109 273,272z"/>
   <path class="fil4" d="M53885 32356c0,164 109,273 272,273 164,0 273,-109 273,-273 0,-163 -109,-272 -273,-272 -163,-54 -272,109 -272,272z"/>
  </g>
 </g>
</svg>